<svg width="50" height="51" viewBox="0 0 50 51" fill="none" xmlns="http://www.w3.org/2000/svg">
<path d="M41.8669 0H8.06633C3.61142 0 0 3.6057 0 8.05354V42.0069C0 46.4548 3.61142 50.0604 8.06633 50.0604H41.8669C46.3218 50.0604 49.9332 46.4548 49.9332 42.0069V8.05354C49.9332 3.6057 46.3218 0 41.8669 0Z" fill="url(#paint0_linear)"/>
<path d="M25.343 21.5512C26.6184 21.5512 27.585 21.2786 28.2438 20.7206C28.9026 20.1625 29.2318 19.3498 29.2318 18.2699C29.2318 17.2036 28.9026 16.3935 28.2438 15.8398C27.5807 15.272 26.618 14.9881 25.343 14.9881H20.8651V21.5516H25.343V21.5512ZM25.616 35.1145C27.2413 35.1145 28.4607 34.7757 29.2735 34.0969C30.1004 33.4185 30.5139 32.3939 30.5139 31.0231C30.5139 29.6795 30.1075 28.676 29.2946 28.0116C28.4817 27.3332 27.2558 26.994 25.6164 26.994H20.8655V35.1153H25.6164L25.616 35.1145ZM33.1417 23.9619C34.8794 24.4603 36.2247 25.3813 37.1776 26.7241C38.1305 28.0669 38.6068 29.715 38.6071 31.6676C38.6071 34.6585 37.584 36.888 35.5382 38.3558C33.4924 39.8236 30.3817 40.5573 26.2054 40.5573H12.7734V9.54688H24.9236C29.2817 9.54688 32.4349 10.1972 34.3825 11.4991C36.3444 12.8006 37.3254 14.8849 37.3254 17.7511C37.3254 19.2606 36.9681 20.548 36.2536 21.6143C35.539 22.6666 34.4983 23.4447 33.1425 23.9615" fill="white"/>
<defs>
<linearGradient id="paint0_linear" x1="2.88055" y1="47.4645" x2="46.7894" y2="2.71789" gradientUnits="userSpaceOnUse">
<stop stop-color="#070135"/>
<stop offset="1" stop-color="#612D50"/>
</linearGradient>
</defs>
</svg>
