<svg width="46" height="52" viewBox="0 0 46 52" fill="none" xmlns="http://www.w3.org/2000/svg">
<path fill-rule="evenodd" clip-rule="evenodd" d="M41.8654 46.3165L45.9466 0.599659L46 0H45.3987H0.601313H0L0.0534056 0.599659L4.13025 46.3239L4.16423 46.7053L4.53149 46.807L22.8261 51.8858H23.1196L41.4641 46.7995L41.8312 46.6979L41.8654 46.3165Z" fill="#1572B6"/>
<path fill-rule="evenodd" clip-rule="evenodd" d="M42.4548 3.24219H23V48.5531L38.8008 44.1722L42.4548 3.24219Z" fill="#35A8DB"/>
<path fill-rule="evenodd" clip-rule="evenodd" d="M22.9796 15.415L9.25781 21.1298L9.71296 26.7877L22.9796 21.1153L37.0918 15.0818L37.6768 9.29395L22.9796 15.415Z" fill="#E9E9E8"/>
<path fill-rule="evenodd" clip-rule="evenodd" d="M22.9789 9.29395H23.0806H23.1964H23.312H23.4278H23.5437H23.6596H23.7754H23.8913H24.0072H24.123H24.2389H24.3547H24.4706H24.5865H24.7023H24.8182H24.9337H25.0496H25.1655H25.2813H25.3972H25.5131H25.6289H25.7448H25.8607H25.9765H26.0924H26.2079H26.3238H26.4396H26.5555H26.6714H26.7872H26.9031H27.019H27.1348H27.2507H27.3666H27.4824H27.5983H27.7141H27.83H27.9455H28.0614H28.1773H28.2931H28.409H28.5249H28.6407H28.7566H28.8725H28.9883H29.1042H29.2201H29.3359H29.4514H29.5673H29.6832H29.799H29.9149H30.0308H30.1466H30.2625H30.3784H30.4942H30.6101H30.726H30.8415H30.9573H31.0732H31.1891H31.3049H31.4208H31.5367H31.6525H31.7684H31.8843H32.0001H32.116H32.2319H32.3477H32.4632H32.5791H32.695H32.8108H32.9267H33.0426H33.1584H33.2743H33.3902H33.506H33.6219H33.7378H33.8533H33.9691H34.085H34.2009H34.3167H34.4326H34.5485H34.6643H34.7802H34.8961H35.0119H35.1278H35.2437H35.3595H35.4751H35.5909H35.7068H35.8226H35.9385H36.0544H36.1702H36.2861H36.402H36.5178H36.6337H36.7496H36.8654H36.9813H37.0968H37.2127H37.3286H37.4444H37.5603H37.6761L37.5603 10.4396L37.4444 11.5851L37.3286 12.7306L37.2127 13.8764L37.0968 15.022L37.0911 15.0815H36.9813H36.8654H36.7496H36.6337H36.5178H36.402H36.2861H36.1702H36.0544H35.9385H35.8226H35.7068H35.5909H35.4751H35.3595H35.2437H35.1278H35.0119H34.8961H34.7802H34.6643H34.5485H34.4326H34.3167H34.2009H34.085H33.9691H33.8533H33.7378H33.6219H33.506H33.3902H33.2743H33.1584H33.0426H32.9267H32.8108H32.695H32.5791H32.4632H32.3477H32.2319H32.116H32.0001H31.8843H31.7684H31.6525H31.5367H31.4208H31.3049H31.1891H31.0732H30.9573H30.8415H30.726H30.6101H30.4942H30.3784H30.2625H30.1466H30.0308H29.9149H29.799H29.6832H29.5673H29.4514H29.3359H29.2201H29.1042H28.9883H28.8725H28.7566H28.6407H28.5249H28.409H28.2931H28.1773H28.0614H27.9455H27.83H27.7141H27.5983H27.4824H27.3666H27.2507H27.1348H27.019H26.9031H26.7872H26.6714H26.5555H26.4396H26.3238H26.2079H26.0924H25.9765H25.8607H25.7448H25.6289H25.5131H25.3972H25.2813H25.1655H25.0496H24.9337H24.8182H24.7023H24.5865H24.4706H24.3547H24.2389H24.123H24.0072H23.8913H23.7788H23.7754H23.6596H23.5437H23.4278H23.312H23.1964H23.0806H22.9958H22.9789H22.9647H22.8488H22.733H22.6171H22.5013H22.3854H22.2695H22.1538H22.0379H21.9221H21.8063H21.6904H21.5746H21.4588H21.3429H21.2271H21.1112H20.9954H20.8795H20.7637H20.6479H20.532H20.4162H20.3003H20.1845H20.0687H19.9528H19.837H19.7211H19.6053H19.4895H19.3737H19.2578H19.142H19.0261H18.9103H18.7945H18.6786H18.5628H18.4469H18.3311H18.2153H18.0994H17.9836H17.8677H17.7519H17.6361H17.5202H17.4044H17.2886H17.1727H17.0569H16.941H16.8252H16.7093H16.5935H16.4777H16.3618H16.246H16.1302H16.0143H15.8985H15.7826H15.6668H15.551H15.4351H15.3193H15.2034H15.0876H14.9718H14.8559H14.7401H14.6242H14.5084H14.3926H14.2768H14.1609H14.0451H13.9292H13.8134H13.6975H13.5817H13.4659H13.35H13.2342H13.1184H13.0025H12.8867H12.7708H12.655H12.5391H12.4233H12.3075H12.1916H12.0758H11.9599H11.8441H11.7283H11.6124H11.4966H11.3807H11.265H11.1491H11.0333H10.9174H10.8016H10.6857H10.5699H10.4541H10.3382H10.2224H10.1065H9.99068H9.87488H9.75905H9.64318H9.52732H9.41149H9.29569H9.17983H9.064H8.94816H8.8323H8.7367L8.7165 14.9178L8.60064 13.9804L8.48481 13.0432L8.36894 12.1056L8.25311 11.1684L8.13732 10.2312L8.02148 9.29395H8.13732H8.25311H8.36894H8.48481H8.60064H8.7165H8.8323H8.94816H9.064H9.17983H9.29569H9.41149H9.52732H9.64318H9.75905H9.87488H9.99068H10.1065H10.2224H10.3382H10.4541H10.5699H10.6857H10.8016H10.9174H11.0333H11.1491H11.265H11.3807H11.4966H11.6124H11.7283H11.8441H11.9599H12.0758H12.1916H12.3075H12.4233H12.5391H12.655H12.7708H12.8867H13.0025H13.1184H13.2342H13.35H13.4659H13.5817H13.6975H13.8134H13.9292H14.0451H14.1609H14.2768H14.3926H14.5084H14.6242H14.7401H14.8559H14.9718H15.0876H15.2034H15.3193H15.4351H15.551H15.6668H15.7826H15.8985H16.0143H16.1302H16.246H16.3618H16.4777H16.5935H16.7093H16.8252H16.941H17.0569H17.1727H17.2886H17.4044H17.5202H17.6361H17.7519H17.8677H17.9836H18.0994H18.2153H18.3311H18.4469H18.5628H18.6786H18.7945H18.9103H19.0261H19.142H19.2578H19.3737H19.4895H19.6053H19.7211H19.837H19.9528H20.0687H20.1845H20.3003H20.4162H20.532H20.6479H20.7637H20.8795H20.9954H21.1112H21.2271H21.3429H21.4588H21.5746H21.6904H21.8063H21.9221H22.0379H22.1538H22.2695H22.3854H22.5013H22.6171H22.733H22.8488H22.9647H22.9789Z" fill="#E9E9E8"/>
<path fill-rule="evenodd" clip-rule="evenodd" d="M9.27734 21.1309H36.5915L36.094 26.8531L9.73246 26.7879L9.27734 21.1309Z" fill="#E9E9E8"/>
<path fill-rule="evenodd" clip-rule="evenodd" d="M10.1309 29.9753L16.1059 29.9777L16.4957 34.6565L22.978 36.2641L29.6329 34.3964L30.0832 26.745L36.1116 26.6504L35.0306 39.0786L22.9996 42.5907L10.882 39.0138L10.1309 29.9753Z" fill="#E9E9E8"/>
<path fill-rule="evenodd" clip-rule="evenodd" d="M23 21.106L37.0906 15.0818L37.6756 9.29395L23 15.406V21.106Z" fill="#FFFFFE"/>
<path fill-rule="evenodd" clip-rule="evenodd" d="M23 9.29492H23.0801H23.1959H23.3114H23.4273H23.5432H23.659H23.7749H23.8908H24.0066H24.1225H24.2384H24.3542H24.4701H24.586H24.7018H24.8177H24.9332H25.0491H25.1649H25.2808H25.3967H25.5125H25.6284H25.7443H25.8601H25.976H26.0919H26.2074H26.3233H26.4391H26.555H26.6708H26.7867H26.9026H27.0184H27.1343H27.2502H27.366H27.4819H27.5978H27.7136H27.8295H27.945H28.0609H28.1767H28.2926H28.4085H28.5243H28.6402H28.7561H28.8719H28.9878H29.1037H29.2195H29.3354H29.4509H29.5668H29.6826H29.7985H29.9144H30.0302H30.1461H30.262H30.3778H30.4937H30.6096H30.7254H30.841H30.9568H31.0727H31.1886H31.3044H31.4203H31.5361H31.652H31.7679H31.8837H31.9996H32.1155H32.2313H32.3472H32.4627H32.5786H32.6945H32.8103H32.9262H33.042H33.1579H33.2738H33.3896H33.5055H33.6214H33.7372H33.8528H33.9686H34.0845H34.2004H34.3162H34.4321H34.5479H34.6638H34.7797H34.8955H35.0114H35.1273H35.2431H35.359H35.4745H35.5904H35.7063H35.8221H35.938H36.0538H36.1697H36.2856H36.4014H36.5173H36.6332H36.749H36.8649H36.9808H37.0963H37.2122H37.328H37.4439H37.5598H37.6756L37.5598 10.4405L37.4439 11.586L37.328 12.7315L37.2122 13.8774L37.0963 15.023L37.0906 15.0825H36.9808H36.8649H36.749H36.6332H36.5173H36.4014H36.2856H36.1697H36.0538H35.938H35.8221H35.7063H35.5904H35.4745H35.359H35.2431H35.1273H35.0114H34.8955H34.7797H34.6638H34.5479H34.4321H34.3162H34.2004H34.0845H33.9686H33.8528H33.7372H33.6214H33.5055H33.3896H33.2738H33.1579H33.042H32.9262H32.8103H32.6945H32.5786H32.4627H32.3472H32.2313H32.1155H31.9996H31.8837H31.7679H31.652H31.5361H31.4203H31.3044H31.1886H31.0727H30.9568H30.841H30.7254H30.6096H30.4937H30.3778H30.262H30.1461H30.0302H29.9144H29.7985H29.6826H29.5668H29.4509H29.3354H29.2195H29.1037H28.9878H28.8719H28.7561H28.6402H28.5243H28.4085H28.2926H28.1767H28.0609H27.945H27.8295H27.7136H27.5978H27.4819H27.366H27.2502H27.1343H27.0184H26.9026H26.7867H26.6708H26.555H26.4391H26.3233H26.2074H26.0919H25.976H25.8601H25.7443H25.6284H25.5125H25.3967H25.2808H25.1649H25.0491H24.9332H24.8177H24.7018H24.586H24.4701H24.3542H24.2384H24.1225H24.0066H23.8908H23.7783H23.7749H23.659H23.5432H23.4273H23.3114H23.1959H23.0801H23V9.29492Z" fill="#FFFFFE"/>
<path fill-rule="evenodd" clip-rule="evenodd" d="M23 21.1309H36.592L36.0944 26.8531L23 26.8207V21.1309Z" fill="#FFFFFE"/>
<path fill-rule="evenodd" clip-rule="evenodd" d="M23 36.258L29.6333 34.3964L30.0836 26.745L36.112 26.6504L35.031 39.0786L23 42.5907V42.5904V36.258Z" fill="#FFFFFE"/>
</svg>
