<svg width="50" height="51" viewBox="0 0 50 51" fill="none" xmlns="http://www.w3.org/2000/svg">
<path d="M13.6544 13.7304L10.3945 10.4668L10.4072 34.0299L10.4453 35.1296C10.4606 35.6376 10.5723 36.2344 10.7171 36.8389L36.5431 45.9466L42.998 43.0868L43.0031 43.0779L13.6683 13.7279L13.6544 13.7304Z" fill="#00C4B3"/>
<path d="M10.7081 36.8416H10.7106C10.7078 36.8303 10.704 36.8193 10.6992 36.8086C10.7043 36.8213 10.7043 36.8314 10.7081 36.8416ZM42.9891 43.0895L36.5341 45.9494L10.7106 36.8416C11.2034 38.7465 12.298 40.8672 13.4701 42.0279L21.896 50.4093L40.6397 50.4347L42.9891 43.0946V43.0895Z" fill="#22D3C5"/>
<path d="M10.4712 10.4682L0.430033 25.6346C-0.403024 26.5261 0.0109645 28.3624 1.35452 29.7161L7.15163 35.5602L10.7963 36.8301C10.6388 36.2256 10.5397 35.6415 10.5245 35.1208L10.4839 34.0211L10.4712 10.458V10.4682Z" fill="#0075C9"/>
<path d="M36.7467 10.7708C36.141 10.6184 35.5581 10.5206 35.0349 10.5168L33.8704 10.4736L10.3848 10.4787L43.001 43.0898L45.8659 36.6286L36.748 10.781L36.7467 10.7708Z" fill="#0075C9"/>
<path d="M36.7188 10.7666C36.7289 10.7704 36.7403 10.773 36.7492 10.7755V10.773C36.7391 10.7704 36.7289 10.7704 36.7188 10.7666ZM41.9317 13.5388C40.7456 12.3451 38.6465 11.2606 36.7505 10.7742L45.8684 36.6168L43.001 43.078L49.9854 40.843L50.0007 21.6675L41.919 13.5502L41.9317 13.5388Z" fill="#00A8E1"/>
<path d="M35.4679 7.15118L29.6263 1.35153C28.2752 0.0143257 26.4516 -0.403473 25.5474 0.428314L10.3848 10.4682L33.8704 10.4631L35.0349 10.5063C35.5593 10.5215 36.1397 10.618 36.7467 10.7603L35.4679 7.14103V7.15118Z" fill="#00C4B3"/>
</svg>
