<svg width="43" height="64" viewBox="0 0 43 64" fill="none" xmlns="http://www.w3.org/2000/svg">
<path d="M10.6667 64.0003C13.4956 64.0003 16.2088 62.8765 18.2091 60.8761C20.2095 58.8757 21.3333 56.1626 21.3333 53.3337V42.667H10.6667C7.83769 42.667 5.12458 43.7908 3.12419 45.7912C1.12381 47.7916 0 50.5047 0 53.3337C0 56.1626 1.12381 58.8757 3.12419 60.8761C5.12458 62.8765 7.83769 64.0003 10.6667 64.0003Z" fill="#0ACF83"/>
<path d="M0 31.9997C0 29.1707 1.12381 26.4576 3.12419 24.4572C5.12458 22.4568 7.83769 21.333 10.6667 21.333H21.3333V42.6663H10.6667C7.83769 42.6663 5.12458 41.5425 3.12419 39.5421C1.12381 37.5418 0 34.8286 0 31.9997Z" fill="#A259FF"/>
<path d="M0 10.6667C-8.62894e-07 7.83913 1.12266 5.12729 3.12125 3.12714C5.11983 1.12699 7.8308 0.00220901 10.6583 0L21.325 0V21.3333H10.6667C7.83769 21.3333 5.12458 20.2095 3.12419 18.2091C1.12381 16.2088 0 13.4956 0 10.6667Z" fill="#F24E1E"/>
<path d="M21.332 0H31.9987C34.8277 0 37.5408 1.12381 39.5412 3.12419C41.5416 5.12458 42.6654 7.83769 42.6654 10.6667C42.6654 13.4956 41.5416 16.2088 39.5412 18.2091C37.5408 20.2095 34.8277 21.3333 31.9987 21.3333H21.332V0Z" fill="#FF7262"/>
<path d="M42.6654 31.9997C42.6654 34.8286 41.5416 37.5418 39.5412 39.5421C37.5408 41.5425 34.8277 42.6663 31.9987 42.6663C29.1697 42.6663 26.4566 41.5425 24.4562 39.5421C22.4558 37.5418 21.332 34.8286 21.332 31.9997C21.332 29.1707 22.4558 26.4576 24.4562 24.4572C26.4566 22.4568 29.1697 21.333 31.9987 21.333C34.8277 21.333 37.5408 22.4568 39.5412 24.4572C41.5416 26.4576 42.6654 29.1707 42.6654 31.9997Z" fill="#1ABCFE"/>
</svg>
