<svg width="49" height="68" viewBox="0 0 49 68" fill="none" xmlns="http://www.w3.org/2000/svg">
<path d="M32.1755 24.5111L25.3831 30.8315L19.0801 18.1183L22.3415 10.8073C23.1671 9.34167 24.514 9.33887 25.3395 10.8073L32.1755 24.5111Z" fill="#FFA000"/>
<path d="M25.3849 30.8313L0.00195312 54.4445L19.0819 18.1182L25.3849 30.8313Z" fill="#F57F17"/>
<path d="M39.6053 14.8499C40.8188 13.6836 42.0733 14.0814 42.393 15.734L49 54.1277L27.0982 67.254C26.3317 67.6772 24.302 67.8608 24.302 67.8608C24.302 67.8608 22.4494 67.6393 21.7433 67.2475L0 54.4427L39.6053 14.8499Z" fill="#FFCA28"/>
<path d="M19.0819 18.1178L0.00195312 54.4441L8.50045 1.35222C8.81339 -0.301677 9.75485 -0.460954 10.5948 0.998895L19.0819 18.1178Z" fill="#FFA000"/>
</svg>
