<svg width="41" height="51" viewBox="0 0 41 51" fill="none" xmlns="http://www.w3.org/2000/svg">
<path d="M19.5228 44.3558L41.0002 23.1387H25.3834L11.7168 36.6414L19.5228 44.3558Z" fill="#39CEFD"/>
<path d="M0 25.0695L25.3829 0H40.9997L7.81087 32.784L0 25.0695Z" fill="#39CEFD"/>
<path d="M25.3821 50.1395H40.9989L27.3324 36.6416L19.5215 44.3561L25.3821 50.1395Z" fill="#03569B"/>
<path d="M27.3324 36.6416L19.5215 44.3561L31.1058 40.3926L27.3324 36.6416Z" fill="url(#paint0_linear)"/>
<path d="M11.7168 36.6353L19.5277 28.9209L27.3385 36.6353L19.5277 44.3546L11.7168 36.6353Z" fill="#16B9FD"/>
<path d="M40.9997 23.1385L27.3332 36.6412L40.9997 50.1439H25.3829L19.5223 44.3557L11.7114 36.6412L25.3829 23.1385H40.9997ZM25.3829 0L0 25.0695L7.81087 32.784L40.9997 0H25.3829Z" fill="url(#paint1_radial)"/>
<defs>
<linearGradient id="paint0_linear" x1="-1225.28" y1="-542.071" x2="-1225.05" y2="-542.297" gradientUnits="userSpaceOnUse">
<stop stop-color="#1A237E" stop-opacity="0.4"/>
<stop offset="1" stop-color="#1A237E" stop-opacity="0"/>
</linearGradient>
<radialGradient id="paint1_radial" cx="0" cy="0" r="1" gradientUnits="userSpaceOnUse" gradientTransform="translate(-1119.84 -451.021) scale(2.41112 2.38136)">
<stop stop-color="white" stop-opacity="0.1"/>
<stop offset="1" stop-color="white" stop-opacity="0"/>
</radialGradient>
</defs>
</svg>
