<svg width="52" height="53" viewBox="0 0 52 53" fill="none" xmlns="http://www.w3.org/2000/svg">
<path d="M26 52.6895C40.3594 52.6895 52 41.0489 52 26.6895C52 12.33 40.3594 0.689453 26 0.689453C11.6406 0.689453 0 12.33 0 26.6895C0 41.0489 11.6406 52.6895 26 52.6895Z" fill="#F0DB4F"/>
<path d="M17.887 16.6025H22.411V29.3425C22.411 35.0625 19.655 37.0905 15.287 37.0905C14.195 37.0905 12.843 36.9345 11.959 36.6225L12.479 32.9305C13.103 33.1385 13.935 33.2945 14.819 33.2945C16.743 33.2945 17.939 32.4105 17.939 29.3425L17.887 16.6025Z" fill="#323330"/>
<path d="M26.4145 32.098C27.6105 32.722 29.5345 33.346 31.4585 33.346C33.5385 33.346 34.6305 32.462 34.6305 31.11C34.6305 29.862 33.6945 29.134 31.2505 28.302C27.9225 27.106 25.6865 25.234 25.6865 22.27C25.6865 18.89 28.5985 16.29 33.3305 16.29C35.6185 16.29 37.2825 16.758 38.4785 17.33L37.4385 20.97C36.6585 20.606 35.2025 20.034 33.2785 20.034C31.3025 20.034 30.3665 20.97 30.3665 21.958C30.3665 23.258 31.4585 23.83 34.1105 24.818C37.6465 26.118 39.3105 27.99 39.3105 30.85C39.3105 34.23 36.7625 37.09 31.1985 37.09C28.9105 37.09 26.6225 36.466 25.4785 35.842L26.4145 32.098Z" fill="#323330"/>
</svg>
