<svg width="49" height="92" viewBox="0 0 49 92" fill="none" xmlns="http://www.w3.org/2000/svg">
<path d="M46.935 72.5454H46.5918V72.3516H47.5161V72.5454H47.1749V73.5128H46.935V72.5454V72.5454ZM48.7786 72.5959H48.7732L48.4328 73.5131H48.2772L47.9392 72.5959H47.9351V73.5131H47.7089V72.3519H48.0418L48.3552 73.1742L48.6675 72.3519H48.9993V73.5131H48.7784L48.7786 72.5959V72.5959Z" fill="#E76F00"/>
<path d="M16.1995 48.8015C16.1995 48.8015 13.8107 50.2037 17.8995 50.6782C22.8529 51.2486 25.3845 51.1668 30.8433 50.1239C30.8433 50.1239 32.2784 51.0322 34.2827 51.819C22.0457 57.1127 6.58798 51.5123 16.1995 48.8015ZM14.7042 41.8936C14.7042 41.8936 12.025 43.8954 16.1168 44.3226C21.4082 44.8736 25.5869 44.9186 32.8177 43.5132C32.8177 43.5132 33.818 44.5367 35.3906 45.0964C20.5952 49.4632 4.11598 45.4407 14.7042 41.8936" fill="#5382A1"/>
<path d="M27.3105 30.1755C30.3257 33.6795 26.5184 36.8328 26.5184 36.8328C26.5184 36.8328 34.1742 32.8435 30.6583 27.8479C27.3743 23.189 24.856 20.8744 38.4892 12.8936C38.4894 12.8934 17.0896 18.2881 27.3105 30.1755" fill="#E76F00"/>
<path d="M43.4942 53.9104C43.4942 53.9104 45.262 55.3808 41.5474 56.518C34.484 58.6778 12.149 59.33 5.94439 56.6042C3.714 55.6247 7.89661 54.2655 9.2123 53.9803C10.5844 53.68 11.3686 53.736 11.3686 53.736C8.88814 51.9722 -4.66386 57.1989 4.48482 58.696C29.4346 62.7801 49.966 56.8569 43.4942 53.9104V53.9104ZM17.3481 34.7356C17.3481 34.7356 5.98702 37.4593 13.3248 38.4484C16.4231 38.867 22.5994 38.7723 28.3522 38.2858C33.0539 37.8854 37.7752 37.0345 37.7752 37.0345C37.7752 37.0345 36.1173 37.7511 34.9179 38.5776C23.381 41.6404 1.09374 40.2155 7.50994 37.0828C12.9361 34.4352 17.3481 34.7356 17.3481 34.7356V34.7356ZM37.7284 46.2342C49.4562 40.0828 44.0339 34.1713 40.2489 34.9679C39.3212 35.1627 38.9076 35.3316 38.9076 35.3316C38.9076 35.3316 39.2521 34.7871 39.9096 34.5514C47.3971 31.8943 53.1556 42.388 37.4925 46.5444C37.4925 46.5444 37.6743 46.3807 37.7284 46.2342Z" fill="#5382A1"/>
<path d="M30.6585 0.00585938C30.6585 0.00585938 37.1536 6.56382 24.4983 16.6485C14.35 24.7379 22.1841 29.3504 24.494 34.6204C18.5705 29.2255 14.2233 24.4767 17.1397 20.0568C21.4202 13.5687 33.2791 10.4231 30.6585 0.00585938" fill="#E76F00"/>
<path d="M18.5017 62.903C29.759 63.6303 47.0457 62.4994 47.455 57.123C47.455 57.123 46.6682 59.1611 38.1515 60.7799C28.5434 62.6049 16.6927 62.3919 9.66406 61.2222C9.6644 61.2219 11.1031 62.4241 18.5017 62.903" fill="#5382A1"/>
<path d="M16.6567 83.4471C15.5947 84.3768 14.4731 84.8988 13.4666 84.8988C12.0299 84.8988 11.2537 84.0292 11.2537 82.6345C11.2537 81.1259 12.0855 80.0229 15.4218 80.0229H16.6565L16.6567 83.4471V83.4471ZM19.5869 86.7842V76.4543C19.5869 73.8153 18.0958 72.0742 14.5007 72.0742C12.4019 72.0742 10.5634 72.5973 9.06915 73.2644L9.50047 75.0929C10.677 74.6571 12.1999 74.2513 13.6947 74.2513C15.7657 74.2513 16.6567 75.0929 16.6567 76.833V78.1388H15.623C10.5912 78.1388 8.32142 80.1103 8.32142 83.0694C8.32142 85.6234 9.81722 87.0751 12.6336 87.0751C14.444 87.0751 15.7954 86.3205 17.0587 85.2164L17.288 86.7846L19.5869 86.7842V86.7842ZM29.3662 86.7842H25.7117L21.3132 72.3357H24.505L27.2341 81.2128L27.8408 83.8826C29.2215 80.0225 30.1982 76.1063 30.6866 72.3357H33.7913C32.9593 77.0934 31.4625 82.3157 29.3662 86.7842V86.7842ZM43.3865 83.4471C42.3225 84.3768 41.199 84.8988 40.1923 84.8988C38.7582 84.8988 37.98 84.0292 37.98 82.6345C37.98 81.1259 38.8135 80.0229 42.1496 80.0229H43.3865V83.4471ZM46.3164 86.7842V76.4543C46.3164 73.8153 44.8218 72.0742 41.2305 72.0742C39.1304 72.0742 37.2912 72.5973 35.7976 73.2644L36.2284 75.0929C37.4053 74.6571 38.9311 74.2513 40.4247 74.2513C42.4942 74.2513 43.3865 75.0929 43.3865 76.833V78.1388H42.351C37.3178 78.1388 35.0489 80.1103 35.0489 83.0694C35.0489 85.6234 36.5435 87.0751 39.3594 87.0751C41.1709 87.0751 42.5218 86.3205 43.7871 85.2164L44.0173 86.7846L46.3164 86.7842V86.7842ZM5.10843 89.2377C4.27309 90.4688 2.92387 91.4428 1.44677 91.9938L0 90.2753C1.12429 89.693 2.08853 88.7526 2.53652 87.8767C2.92404 87.0977 3.08443 86.0936 3.08443 83.6925V67.1973H6.19768V83.4665C6.19751 86.6764 5.94327 87.9732 5.10843 89.2377" fill="#E76F00"/>
</svg>
