<svg width="87" height="25" viewBox="0 0 87 25" fill="none" xmlns="http://www.w3.org/2000/svg">
<path d="M24.8607 9.57404V9.57289L24.1655 12.0357L24.8603 9.57289L24.8607 9.57404ZM28.4354 14.9216L27.6693 14.9171L28.4354 14.9216ZM28.2381 18.6005H28.2389L23.6504 18.6173L28.2389 18.6005H28.2381ZM29.2002 14.9262L28.4342 14.9216L29.2002 14.9262ZM28.6403 18.2876L29.4396 15.2388L28.6403 18.2876ZM45.5357 4.24902L44.0465 11.2493L45.5357 4.24902ZM41.7079 4.24902L40.578 9.47829L41.7079 4.24902Z" fill="#131B28"/>
<path d="M45.2799 3.93395H42.0959C41.9198 3.93395 41.7436 4.07567 41.706 4.24802L39.4451 14.7042C39.4228 14.7915 39.3728 14.8692 39.3027 14.9258C39.2325 14.9823 39.146 15.0146 39.056 15.0179H36.8016C34.5724 15.0179 34.8298 13.4759 35.2864 11.3629L35.3002 11.2989L35.5706 9.85877L35.687 9.26663L36.715 4.24917C36.7506 4.07605 36.6384 3.93395 36.4584 3.93395H33.1898C33.0136 3.93395 32.8382 4.07567 32.8022 4.24879L31.3973 10.9124C31.3961 10.9174 31.3306 11.2273 31.3306 11.2273C30.5213 14.9226 30.7358 18.447 35.1351 18.557L35.2626 18.5596H42.1683C42.2584 18.5561 42.3449 18.5235 42.4149 18.4668C42.4849 18.41 42.5346 18.3322 42.5567 18.2448L45.535 4.24496C45.5456 4.20679 45.5468 4.16666 45.5388 4.12789C45.5307 4.08913 45.5135 4.05285 45.4886 4.02206C45.4637 3.99128 45.4318 3.96688 45.3956 3.95089C45.3593 3.9349 45.3198 3.92778 45.2803 3.93012L45.2799 3.93395ZM57.9821 15.0585C58.1591 15.0585 58.2747 15.2002 58.2387 15.3734L57.9293 16.8844L57.9821 15.0585ZM57.6213 18.3965L57.9304 16.8844L57.6209 18.3973L57.6213 18.3965ZM57.2337 18.7144L51.366 18.7427L57.2337 18.7144Z" fill="#131B28"/>
<path d="M49.467 13.1112C49.4643 12.9458 49.6528 12.6608 49.8297 12.6608L49.4321 12.6543C49.2529 14.4564 49.4705 13.1116 49.4705 13.1116L49.467 13.1112ZM51.6567 18.7415L51.5954 18.7419L51.6567 18.7415ZM57.9829 15.0577C58.1598 15.0577 58.2755 15.1994 58.2395 15.3725L57.8795 17.1344L57.9829 15.0577ZM53.1684 18.7419H53.1554H53.1684ZM52.3825 18.7404H52.3373H52.3825ZM52.1439 18.7411L52.0688 18.7415L52.1439 18.7411ZM51.9014 18.7415H51.8356H51.9014ZM52.3373 18.7404H52.1443H52.3373Z" fill="#131B28"/>
<path d="M53.1525 18.7386L52.3842 18.7413L53.1525 18.7386ZM57.237 18.7141L53.1636 18.739L57.237 18.7141ZM57.623 18.3969L57.882 17.1307L57.6227 18.3977L57.623 18.3969ZM52.0701 18.7416H51.9016H52.0701ZM51.5952 18.7424H51.3681H51.5952ZM51.8357 18.742H51.6565H51.8357ZM5.25842 13.1497L5.75633 10.9573L5.19101 13.4637L4.64828 16.0165L5.12398 13.7786L5.26186 13.1497H5.25842ZM11.1786 3.89687H7.68173C7.59144 3.90054 7.50466 3.9329 7.434 3.98924C7.36333 4.04557 7.31246 4.12296 7.28876 4.21017L6.62615 7.13753C6.61514 7.1753 6.61337 7.21516 6.621 7.25375C6.62864 7.29234 6.64545 7.32852 6.67001 7.35925C6.69458 7.38998 6.72618 7.41434 6.76214 7.43028C6.79811 7.44622 6.83738 7.45327 6.87664 7.45083H10.4004C10.4905 7.44723 10.5771 7.41476 10.6475 7.35822C10.7178 7.30168 10.7681 7.22405 10.791 7.13677L11.4318 4.21055C11.4693 4.0382 11.356 3.89648 11.179 3.89648L11.1786 3.89687ZM10.4214 8.76533V8.76495L9.39571 13.5097L10.4214 8.76533ZM0.259345 24.4861L3.14266 24.509C2.18101 24.506 1.21938 24.4982 0.257812 24.4857L0.259345 24.4861ZM6.24774 8.76457L5.74867 10.9573L6.24391 8.76495L6.24774 8.76457Z" fill="#131B28"/>
<path d="M10.1643 8.45141H6.63983C6.46364 8.45141 6.28631 8.59313 6.24762 8.76548L5.25792 13.151L5.12004 13.7799L4.16902 18.2558C4.12244 18.4647 4.06581 18.6712 3.99934 18.8747C3.99934 18.8747 3.34056 20.8338 2.23749 20.8116L1.13671 20.7944C1.04669 20.7965 0.959737 20.8275 0.888602 20.8827C0.817467 20.9379 0.765893 21.0145 0.741443 21.1011L0.0106561 24.1687C-0.000787671 24.2062 -0.00305357 24.246 0.0040489 24.2845C0.0111514 24.3231 0.0274146 24.3595 0.0514716 24.3905C0.0755286 24.4215 0.106676 24.4462 0.142296 24.4627C0.177916 24.4792 0.216967 24.4868 0.256167 24.4851L3.14101 24.508C5.90636 24.508 7.36334 22.976 8.2975 18.5714L10.4209 8.76778C10.4581 8.59542 10.3443 8.45371 10.1674 8.45371L10.1643 8.45141ZM60.2289 18.5637C60.1894 18.566 60.15 18.5588 60.1138 18.5428C60.0776 18.5268 60.0458 18.5024 60.0209 18.4716C59.9961 18.4408 59.9789 18.4046 59.9708 18.3658C59.9628 18.3271 59.9641 18.287 59.9746 18.2489L62.6255 5.83008" fill="#131B28"/>
<path d="M63.9143 18.2476L64.9867 12.9467L63.9143 18.2476ZM60.0141 18.4054C59.9926 18.3188 60.0053 18.1067 60.0428 17.9335L61.301 12.0352L59.9758 18.2399C59.9653 18.2781 59.964 18.3181 59.972 18.3568C59.98 18.3955 59.9972 18.4317 60.022 18.4625C60.0468 18.4933 60.0786 18.5177 60.1147 18.5337C60.1508 18.5498 60.1902 18.557 60.2297 18.5548H60.5514C60.3745 18.5548 60.0355 18.4839 60.0141 18.4016V18.4054Z" fill="#131B28"/>
<path d="M63.7038 18.4952C63.608 18.5343 63.384 18.5661 63.207 18.5661H63.5288C63.7049 18.5661 63.8792 18.4243 63.9141 18.2508L63.978 17.936C63.9428 18.1091 63.8003 18.4569 63.7038 18.4952ZM64.4499 15.6012L64.9233 13.2617L64.4499 15.6012Z" fill="#131B28"/>
<path d="M74.9108 6.66182L75.0563 7.26506C75.0965 7.43742 74.9851 7.57798 74.8085 7.57837L74.9108 6.66182ZM63.9766 17.9327L64.4484 15.5975L63.9766 17.9327ZM74.766 6.04785L74.9104 6.66603L74.766 6.04785ZM64.9226 13.2623L65.0528 12.6372L65.5584 10.269L64.9858 12.9516L64.9226 13.2626V13.2623Z" fill="#131B28"/>
<path d="M62.67 5.62645L62.5601 6.14428L61.3019 12.0427L62.67 5.63028V5.62645ZM75.0574 7.26574L74.9119 6.66249L74.6943 5.73177C74.4082 4.61951 73.5683 3.97758 71.7432 3.97758L68.9024 3.97451L66.2864 3.97145H63.3426C63.2527 3.97502 63.1664 4.00752 63.0965 4.06411C63.0266 4.1207 62.9768 4.19836 62.9546 4.28552L62.6279 5.83059L60.0441 17.9345C60.0066 18.1077 59.9943 18.3198 60.0154 18.4064C60.0365 18.493 60.3754 18.5596 60.5528 18.5596H63.2086C63.3855 18.5596 63.6092 18.5278 63.7053 18.4888C63.8015 18.4497 63.9443 18.1027 63.9796 17.9296L64.988 12.9443L66.0662 7.88851C66.0886 7.8015 66.1384 7.72401 66.2083 7.66756C66.2782 7.61112 66.3644 7.57873 66.4542 7.57521L74.8104 7.57138C74.9865 7.571 75.0984 7.43081 75.0582 7.25808L75.0574 7.26574ZM85.8147 1.80897L85.1712 1.81126H82.4967C82.3987 1.8169 82.303 1.84351 82.2162 1.8893C82.1293 1.93509 82.0534 1.999 81.9934 2.07669L76.0797 10.7412C75.9801 10.8875 75.8659 10.8657 75.8269 10.6937L75.3918 8.78476C75.3681 8.69755 75.3172 8.62016 75.2465 8.56383C75.1759 8.50749 75.0891 8.47513 74.9988 8.47146H71.1966C71.0197 8.47146 70.9151 8.61011 70.9668 8.78017L72.6705 14.7486C72.7193 14.9523 72.7222 15.1642 72.6789 15.3691L71.9359 18.2578C71.8918 18.4294 72.001 18.5696 72.1772 18.5696H75.9307C76.1069 18.5696 76.288 18.4294 76.3317 18.2578L77.0747 15.3691C77.1184 15.1979 77.2417 14.9421 77.3482 14.8007L86.9473 2.05677C87.0537 1.91506 86.9963 1.80016 86.8193 1.80207L85.812 1.80858L85.8147 1.80897ZM55.6077 9.28421C55.5847 9.47265 55.4085 9.6136 55.2316 9.6136H50.411C50.2444 9.6136 50.1597 9.50023 50.1842 9.36081C50.1858 9.35698 50.1861 9.35315 50.1888 9.34932C50.1869 9.34549 50.1869 9.34013 50.1884 9.33477L50.2107 9.2528C50.671 8.0287 51.6087 7.22552 53.3713 7.22552C55.3553 7.22552 55.7429 8.19454 55.6081 9.28498L55.6077 9.28421ZM54.1936 3.72019C48.006 3.72019 46.5399 7.47601 45.7175 11.2667C44.8948 15.1301 44.9657 18.7431 51.3685 18.7431H51.5956L51.6569 18.7427H52.0706L52.1456 18.7423L52.3839 18.7419L53.1652 18.7392L57.2389 18.7143C57.3283 18.7098 57.4139 18.6766 57.483 18.6197C57.5521 18.5628 57.6011 18.4852 57.6227 18.3984L58.2417 15.3737C58.2523 15.3354 58.2535 15.2951 58.2454 15.2561C58.2372 15.2172 58.2198 15.1808 58.1947 15.15C58.1696 15.1192 58.1374 15.0948 58.1009 15.0789C58.0645 15.0631 58.0247 15.0562 57.985 15.0589H52.2284C49.9391 15.0589 49.2593 14.4461 49.5098 12.662H58.7112C58.8629 12.6593 58.9985 12.5586 59.0559 12.4245C59.0667 12.3987 59.0741 12.3717 59.0782 12.3441C60.4432 7.19143 60.051 3.72096 54.1986 3.72096L54.1936 3.72019ZM24.9491 9.26429L23.4726 14.497C23.4438 14.584 23.3893 14.6601 23.3162 14.7154C23.2432 14.7707 23.1551 14.8024 23.0635 14.8065H19.3859C16.5964 14.8065 15.9169 12.6248 16.5964 9.40677C17.2755 6.11517 18.6072 4.06912 21.3526 3.86191C25.1046 3.57848 25.8549 6.21743 24.9529 9.26391L24.9491 9.26429ZM27.4712 14.6177C27.4712 14.6177 29.2051 10.4045 29.5989 7.97622C30.1351 4.72062 28.5058 0 22.2106 0C15.9514 0 13.2328 4.50728 12.196 9.40677C11.1588 14.3419 12.5177 18.6703 18.7455 18.6347L28.2442 18.5964C28.3352 18.5919 28.4227 18.5595 28.4947 18.5036C28.5667 18.4477 28.6198 18.3709 28.6467 18.2838L29.4461 15.2351C29.4585 15.1981 29.4617 15.1587 29.4553 15.1202C29.4489 15.0818 29.4332 15.0455 29.4094 15.0146C29.3857 14.9836 29.3547 14.959 29.3192 14.9429C29.2837 14.9268 29.2448 14.9197 29.2059 14.9221L27.6739 14.913C27.5233 14.9118 27.4375 14.8149 27.4555 14.6858C27.4588 14.6611 27.4651 14.637 27.4743 14.6138L27.4712 14.6177ZM58.4569 11.7998C58.4569 11.8558 58.4347 11.9095 58.3951 11.9491C58.3555 11.9886 58.3018 12.0109 58.2459 12.0109C58.1899 12.0109 58.1362 11.9886 58.0966 11.9491C58.0571 11.9095 58.0348 11.8558 58.0348 11.7998C58.0348 11.7439 58.0571 11.6902 58.0966 11.6506C58.1362 11.611 58.1899 11.5888 58.2459 11.5888C58.3018 11.5888 58.3555 11.611 58.3951 11.6506C58.4347 11.6902 58.4569 11.7439 58.4569 11.7998Z" fill="#131B28"/>
</svg>
