<svg width="102" height="50" viewBox="0 0 102 50" fill="none" xmlns="http://www.w3.org/2000/svg">
<path d="M25.1877 1.49705C25.557 0.906155 26.0373 0.338463 26.7272 0.0600131C27.0104 0.0138206 27.2936 0.0371321 27.5767 0.0371321H41.5183C41.1119 0.361343 40.7179 0.697533 40.4471 1.13766C39.7328 2.23851 39.2522 3.4666 38.8091 4.6947C37.5528 8.40283 36.6782 12.2147 35.8283 16.0269C35.4453 17.7534 35.08 19.4839 34.7324 21.2179C33.6731 26.8724 32.5771 32.5148 31.21 38.1111C30.5575 40.6952 29.8922 43.2789 28.8825 45.77C28.4143 46.8014 27.9588 47.9019 27.0598 48.6666C26.8504 48.8407 26.641 49.0605 26.3451 49.026H14.0295C13.192 49.0028 12.3668 49.0722 11.5293 48.9911C12.0837 48.5859 12.5762 48.0989 12.8965 47.5196C13.8201 45.8627 14.3988 44.0669 14.9532 42.2823C15.8155 39.409 16.5046 36.5007 17.1579 33.5924C17.5643 31.6807 18.0445 29.7802 18.34 27.8569C18.6726 25.7134 19.1775 23.593 19.584 21.4611C20.2244 18.3208 20.9016 15.1811 21.653 12.0642C22.2564 9.63092 22.8723 7.20895 23.6974 4.83381C24.1041 3.68688 24.5468 2.55138 25.1877 1.49705V1.49705Z" fill="#EB7077"/>
<path d="M41.5188 0.0364305C41.8757 0.0364305 42.2327 0.0247744 42.59 0.0364305C43.3781 0.430362 44.0433 1.0558 44.4127 1.83211C44.9052 2.71279 45.312 3.63988 45.6809 4.58995C46.9129 8.17019 47.7504 11.8548 48.5879 15.5278C49.3029 18.8222 49.9803 22.1246 50.6199 25.4345C50.6694 25.6083 50.608 25.8518 50.854 25.898C49.967 30.2545 49.0928 34.6227 47.9845 38.9449C47.3806 41.2738 46.7402 43.5911 45.8293 45.839C45.3363 46.9627 44.8314 48.1908 43.7845 48.9908C43.1197 49.1296 42.6391 48.6546 42.2331 48.2257C41.5311 47.38 41.0996 46.3834 40.6809 45.3869C39.289 41.8186 38.4395 38.099 37.5777 34.3912C36.9247 31.5058 36.3457 28.598 35.7423 25.7013C35.4711 24.2293 35.1022 22.7811 34.8928 21.3098C34.8557 21.2866 34.7691 21.2401 34.7324 21.2172C35.08 19.4831 35.4454 17.7526 35.8284 16.026C36.6783 12.2139 37.5529 8.40181 38.8092 4.69432C39.2523 3.46579 39.7329 2.2378 40.4471 1.13728C40.7183 0.696724 41.112 0.360533 41.5184 0.0364305H41.5188Z" fill="#F6A2AD"/>
<path d="M56.9239 2.04141C57.3678 1.24221 57.9095 0.349986 58.8702 0.0486551C63.7597 0.0254509 68.6493 0.0371075 73.5384 0.0371075C73.0826 0.465575 72.6024 0.894474 72.2941 1.43885C71.3461 3.038 70.7918 4.81091 70.2254 6.5605C68.7722 11.3805 67.75 16.3047 66.7768 21.2291C65.8779 26.0844 64.9171 30.9388 63.8211 35.7709C63.2549 38.2038 62.6634 40.6253 61.9124 43.0236C61.4319 44.5069 60.9273 46.0018 60.1388 47.3806C59.7567 48.0062 59.3133 48.6902 58.587 49.0143C53.9192 49.0493 49.239 49.0143 44.5716 49.0257C44.3128 49.0257 44.042 49.0256 43.7832 48.9911C44.8301 48.1919 45.335 46.9634 45.8279 45.8393C46.7392 43.5918 47.3793 41.2745 47.9832 38.9455C49.0915 34.6234 49.9657 30.2556 50.8527 25.8986C51.9239 20.279 53.045 14.6595 54.4735 9.10929C55.1384 6.71095 55.7789 4.27775 56.9243 2.04141H56.9239Z" fill="#EB7077"/>
<path d="M73.5379 0.0364305C73.9318 0.0364305 74.3383 0.0247744 74.7323 0.0364305C75.3729 0.349309 75.8286 0.882141 76.2351 1.42652C76.8999 2.42311 77.3187 3.54728 77.7498 4.6478C78.772 7.6025 79.5357 10.6384 80.2377 13.6739C81.1737 17.7641 81.9865 21.8775 82.7869 25.9906C82.9839 26.9755 83.1809 27.9718 83.3042 28.9687L83.4888 29.1423C83.0458 29.7217 82.8731 30.4169 82.627 31.0774C81.8509 33.4296 81.346 35.8628 80.9149 38.2845C80.5826 40.1845 80.1268 42.0733 79.4987 43.904C79.0308 45.2596 78.4641 46.6036 77.5285 47.739C77.0846 48.2838 76.4812 48.7008 75.8163 48.9788C74.7942 49.083 74.1903 48.1563 73.6977 47.4727C72.6756 45.7925 72.1216 43.9156 71.5302 42.0847C69.5843 35.3063 68.3157 28.366 66.9489 21.4719C66.944 21.4205 66.9257 21.3714 66.8957 21.3293C66.8649 21.2863 66.8238 21.2516 66.7762 21.2284C67.7494 16.3041 68.7716 11.3798 70.2249 6.55983C70.7912 4.81023 71.3455 3.03732 72.294 1.43818C72.6019 0.893797 73.082 0.464898 73.5379 0.0364305V0.0364305ZM0 26.3963C0.320649 26.3731 0.640867 26.3269 0.973172 26.3269H14.3975C14.9638 26.3963 15.5552 26.3502 16.0972 26.582C16.8909 26.8889 17.5836 27.3888 18.1045 28.0304C18.1664 27.9955 18.2772 27.9028 18.3386 27.8563C18.0431 29.7796 17.563 31.6797 17.1565 33.5917C16.5037 36.5 15.8141 39.4083 14.9518 42.2817C14.3975 44.0662 13.8188 45.862 12.8952 47.519C12.5748 48.0982 12.0824 48.5848 11.5279 48.9905C11.3186 49.0254 11.1586 48.8862 10.9859 48.7819C10.4072 48.4344 10.0746 47.8318 9.71769 47.2874C8.03026 43.6723 7.8456 39.6747 6.79871 35.8975C6.26912 34.009 5.61617 32.1318 4.65584 30.3939C4.0644 29.3507 3.33806 28.3546 2.38971 27.555C1.68786 27.0221 0.874635 26.5933 0.000431706 26.3963H0Z" fill="#F6A2AD"/>
<path d="M84.5729 27.6024C85.3487 26.7795 86.5064 26.2584 87.6766 26.3045H97.7755C99.1793 26.3279 100.596 26.2583 102 26.3394C101.581 26.6059 101.076 26.7101 100.633 26.9304C99.0932 27.5908 97.7755 28.6912 96.938 30.0702C95.5955 32.2719 95.1274 34.7979 94.7333 37.2773C94.3393 39.7105 94.3517 42.2249 93.5142 44.5887C92.9478 46.2456 92.0856 47.9138 90.5952 49.0031C85.9648 49.0496 81.3337 49.0146 76.7153 49.0263C76.4075 49.0263 76.1119 49.0376 75.8164 48.9798C76.4812 48.7021 77.0847 48.2849 77.5281 47.7401C78.4642 46.6046 79.0309 45.2606 79.4987 43.9051C80.1269 42.074 80.5828 40.1855 80.915 38.2854C81.3461 35.8638 81.851 33.4302 82.6271 31.0783C82.8732 30.418 83.0459 29.7228 83.489 29.1434C83.8586 28.6335 84.1047 28.0425 84.5729 27.6024V27.6024Z" fill="#EB7077"/>
</svg>
