<svg width="99" height="52" viewBox="0 0 99 52" fill="none" xmlns="http://www.w3.org/2000/svg">
<path d="M0 46.7667H3.26809V33.8206L8.39562 45.078C8.95908 46.4289 9.80428 46.9355 11.4383 46.9355C13.0724 46.9355 13.8049 46.4289 14.4247 45.078L19.4959 33.8206V46.7667H22.764V33.8206C22.764 32.5823 22.2568 31.9631 21.1863 31.6254C18.707 30.8936 17.0166 31.5128 16.2841 33.2014L11.3256 44.3463L6.47984 33.2014C5.74734 31.5128 4.05694 30.8936 1.5777 31.6254C0.507118 31.9631 0 32.526 0 33.8206V46.7667Z" fill="#00678F"/>
<path d="M25.4688 36.2409H28.7368V43.3331C28.7368 43.7271 28.8495 44.6277 30.6526 44.684C31.6105 44.684 37.7523 44.684 37.8086 44.684V36.1846H41.0767C41.0767 36.1846 41.0767 47.7798 41.0767 47.836C41.0767 50.7067 37.5269 51.3259 35.8928 51.3259H25.5814V49.1306H35.9492C38.034 48.9055 37.8086 47.836 37.8086 47.4983V46.654H30.8217C27.5536 46.654 25.4688 45.1905 25.4688 43.5582C25.4688 43.3893 25.5814 36.2971 25.4688 36.2409Z" fill="#00678F"/>
<path d="M96.1268 27.9669C94.0983 27.9106 92.577 28.1358 91.2247 28.6423C90.8303 28.8112 90.2668 28.8112 90.2104 29.2615C90.4358 29.4866 90.4358 29.7681 90.6049 30.0495C90.8866 30.5561 91.4501 31.2316 91.9008 31.5693C92.408 31.9633 92.9714 32.3573 93.5349 32.7513C94.4928 33.3705 95.6197 33.7082 96.5776 34.3274C97.1411 34.6651 97.7045 35.1154 98.2116 35.5094C98.4934 35.7345 98.6624 36.016 99.0005 36.1848V36.1286C98.8314 35.9034 98.7751 35.5657 98.6061 35.3405C98.3807 35.1154 98.0989 34.8902 97.8736 34.6088C97.141 33.6519 96.2395 32.7513 95.2816 32.0759C94.4928 31.513 92.6897 30.7813 92.4079 29.8244C92.4079 29.8244 92.408 29.8244 92.3516 29.7681C92.9151 29.7118 93.5349 29.5429 94.0983 29.3741C94.9435 29.1489 95.7324 29.2052 96.6339 28.9801C97.0284 28.8675 97.4228 28.7549 97.8172 28.6423C97.8172 28.5861 97.8172 28.4735 97.8172 28.4172C97.3664 27.9669 97.0284 27.3477 96.5776 26.9537C95.2816 25.828 93.873 24.7585 92.4079 23.8579C91.6191 23.3513 90.6049 23.0136 89.816 22.6196C89.5343 22.4507 89.0272 22.3944 88.8581 22.1693C88.4074 21.6064 88.1256 20.8747 87.8439 20.2555C87.1114 18.8483 86.4352 17.3286 85.7591 15.8651C85.3083 14.9082 85.0266 13.8951 84.4631 12.9945C81.8712 8.71663 79.0539 6.12742 74.7152 3.59449C73.7573 3.0879 72.6867 2.86275 71.5034 2.58132C70.8836 2.58132 70.2638 2.52503 69.644 2.46874C69.2496 2.29988 68.8551 1.79329 68.4607 1.56815C67.0521 0.667548 63.3332 -1.30251 62.2626 1.28671C61.5865 2.91904 63.2768 4.55137 63.8403 5.33939C64.2911 5.90227 64.7982 6.57772 65.1363 7.19688C65.3053 7.64717 65.3617 8.09747 65.5307 8.54777C65.9251 9.67352 66.3196 10.8556 66.8267 11.925C67.1084 12.4316 67.3901 12.9945 67.7846 13.5011C68.0099 13.7825 68.348 13.8951 68.4044 14.3454C68.0663 14.852 68.0099 15.5837 67.8409 16.2028C66.9394 19.0172 67.2774 22.5633 68.5734 24.6459C68.9678 25.2651 69.9257 26.6723 71.2217 26.1094C72.3486 25.6591 72.1232 24.2519 72.405 22.9573C72.4613 22.6759 72.405 22.4507 72.574 22.2819V22.3382C72.9121 23.0136 73.2502 23.7453 73.5882 24.4208C74.3771 25.6591 75.7294 26.9537 76.8563 27.798C77.4762 28.2483 77.9269 29.0364 78.7158 29.3178V29.2615C78.7158 29.2615 78.7158 29.2615 78.6594 29.2615C78.4904 29.0364 78.265 28.9238 78.096 28.7549C77.6452 28.3046 77.1381 27.7417 76.8 27.2352C75.7294 25.828 74.8279 24.2519 73.9827 22.6759C73.5882 21.8879 73.2502 21.0436 72.9121 20.2555C72.7431 19.9741 72.743 19.5238 72.5177 19.3549C72.1232 19.9178 71.5598 20.3681 71.3344 21.0436C70.8836 22.113 70.8273 23.4639 70.6582 24.8148C70.5455 24.8148 70.6019 24.8148 70.5455 24.8711C69.7567 24.6459 69.475 23.8579 69.1369 23.1262C68.4044 21.325 68.2353 18.4543 68.9115 16.428C69.0805 15.9214 69.8694 14.2328 69.5313 13.7262C69.3623 13.2759 68.8551 12.9945 68.5734 12.6005C68.2353 12.1502 67.8973 11.531 67.6719 10.9681C67.0521 9.56094 66.7703 7.9849 66.0942 6.57772C65.8124 5.90227 65.249 5.22682 64.8546 4.66395C64.4038 3.9885 63.8403 3.48191 63.4459 2.69389C63.3332 2.41246 63.1642 1.96216 63.3332 1.68072C63.3895 1.45557 63.5022 1.39928 63.6713 1.343C64.0094 1.06156 64.9109 1.39928 65.249 1.56815C66.2069 1.96216 66.9394 2.29988 67.7282 2.80647C68.0663 3.03162 68.4607 3.5382 68.9115 3.65078C69.0805 3.65078 69.2496 3.65078 69.4186 3.65078C70.2075 3.81964 71.109 3.70706 71.8979 3.93221C73.2502 4.38251 74.4334 5.00167 75.504 5.67712C78.7721 7.75975 81.5331 10.743 83.3362 14.2891C83.6179 14.852 83.7869 15.4148 84.0123 15.9777C84.5195 17.216 85.1956 18.4543 85.7027 19.6927C86.2098 20.8747 86.717 22.0567 87.5058 23.0699C87.9002 23.5765 89.3652 23.8579 90.0978 24.1394C90.6049 24.3645 91.3937 24.5897 91.8445 24.8148C92.6897 25.3214 93.5349 25.9405 94.3801 26.5034C94.7745 26.8411 96.0705 27.4603 96.1268 27.9669Z" fill="#00678F"/>
<path d="M70.4888 6.18359C70.0381 6.18359 69.7563 6.23988 69.4746 6.29617C69.4746 6.29617 69.4746 6.29617 69.4746 6.35246C69.4746 6.35246 69.4746 6.35246 69.531 6.35246C69.7563 6.74647 70.0944 7.0279 70.3198 7.36563C70.5452 7.75964 70.7142 8.15365 70.8833 8.54766L70.9396 8.49137C71.2777 8.26622 71.4467 7.81593 71.4467 7.25305C71.2777 7.08419 71.2777 6.91533 71.165 6.74647C70.996 6.46503 70.6579 6.35246 70.4888 6.18359Z" fill="#00678F"/>
<path d="M43.6113 46.7666H53.0775C54.2045 46.7666 55.2187 46.5415 56.1202 46.1475C57.5289 45.472 58.2051 44.6277 58.2051 43.4457V41.0253C58.2051 40.0684 57.4162 39.2241 55.8949 38.605C55.106 38.3235 54.0918 38.1547 53.0775 38.1547H49.1333C47.781 38.1547 47.1612 37.7607 46.9921 36.8601C46.9921 36.7475 46.9921 36.6349 46.9921 36.5786V35.1152C46.9921 35.0589 46.9921 34.9463 46.9921 34.8337C47.1612 34.1583 47.4992 33.9894 48.6825 33.8768C48.7952 33.8768 48.9079 33.8768 48.9642 33.8768H58.3177V31.6816H49.1333C47.781 31.6816 47.1048 31.7379 46.485 31.9631C44.5692 32.5822 43.6677 33.5391 43.6677 35.2277V37.0289C43.6677 38.4924 45.3017 39.787 48.119 40.0684C48.4008 40.0684 48.7389 40.0684 49.0769 40.0684H52.4577C52.5704 40.0684 52.6831 40.0684 52.7958 40.0684C53.81 40.181 54.2608 40.3499 54.5989 40.7439C54.8243 40.969 54.8243 41.1379 54.8243 41.3631V43.2768C54.8243 43.502 54.6552 43.7834 54.3735 44.0648C54.0918 44.3463 53.5846 44.5151 52.9648 44.5151C52.8521 44.5151 52.7395 44.5151 52.6268 44.5151H43.6113V46.7666Z" fill="#E38D1A"/>
<path d="M78.6582 42.9387C78.6582 45.1902 80.3486 46.4286 83.7294 46.6537C84.0675 46.6537 84.3492 46.71 84.6873 46.71H93.2519V44.5148H84.6309C82.7151 44.5148 81.9826 44.0645 81.9826 42.8825V31.625H78.7145L78.6582 42.9387Z" fill="#E38D1A"/>
<path d="M60.2891 43.0517V35.284C60.2891 33.314 61.6977 32.0757 64.4587 31.7379C64.7404 31.7379 65.0785 31.6816 65.3602 31.6816H71.6147C71.9528 31.6816 72.2345 31.6816 72.5726 31.7379C75.3336 32.1319 76.6859 33.314 76.6859 35.284V43.0517C76.6859 44.684 76.1224 45.5283 74.7701 46.0912L77.9818 49.0181H74.2066L71.6147 46.6541L68.9664 46.8229H65.4729C64.9095 46.8229 64.2333 46.7666 63.5572 46.5978C61.3033 45.9786 60.2891 44.8529 60.2891 43.0517ZM63.8389 42.8828C63.8389 42.9954 63.8952 43.108 63.8952 43.2205C64.0643 44.1211 64.9095 44.6277 66.2054 44.6277H69.1918L66.4872 42.1511H70.2624L72.6289 44.29C73.0797 44.0648 73.3614 43.6708 73.4741 43.2205C73.4741 43.108 73.4741 42.9954 73.4741 42.8828V35.4529C73.4741 35.3403 73.4741 35.2277 73.4741 35.1715C73.3051 34.3271 72.4599 33.8206 71.1639 33.8206H66.2054C64.7404 33.8206 63.7825 34.4397 63.7825 35.4529L63.8389 42.8828Z" fill="#E38D1A"/>
</svg>
