<svg width="124" height="75" viewBox="0 0 124 75" fill="none" xmlns="http://www.w3.org/2000/svg">
<path d="M29.2588 19.5109H52.6463V21.3698H31.4026V35.3603H51.3795V37.2192H31.4026V52.5793H52.8899V54.4382H29.2588V19.5109ZM54.7414 19.5109H57.2264L68.238 34.8711L79.4933 19.5109L94.8022 0L69.651 36.4854L82.6116 54.4382H80.0292L68.238 38.0997L56.3981 54.4382H53.8644L66.9225 36.4854L54.7414 19.5109ZM83.5373 21.3698V19.5109H110.189V21.3698H97.9109V54.4382H95.7671V21.3698H83.5373ZM0 19.5109H2.67982L39.633 74.8078L24.362 54.4382L2.24131 22.1525L2.14386 54.4382H0V19.5109ZM109.973 52.0184C109.535 52.0184 109.207 51.679 109.207 51.2404C109.207 50.8018 109.535 50.4625 109.973 50.4625C110.417 50.4625 110.74 50.8018 110.74 51.2404C110.74 51.679 110.417 52.0184 109.973 52.0184ZM112.08 49.9717H113.227C113.243 50.593 113.696 51.0107 114.364 51.0107C115.11 51.0107 115.532 50.5617 115.532 49.721V44.3955H116.7V49.7263C116.7 51.2404 115.824 52.1123 114.374 52.1123C113.013 52.1123 112.08 51.2665 112.08 49.9717ZM118.228 49.9038H119.385C119.484 50.6191 120.183 51.0733 121.189 51.0733C122.128 51.0733 122.816 50.5878 122.816 49.9194C122.816 49.3451 122.378 49.0005 121.382 48.7656L120.413 48.5306C119.052 48.2121 118.431 47.5543 118.431 46.4474C118.431 45.1056 119.526 44.2127 121.169 44.2127C122.696 44.2127 123.812 45.1056 123.88 46.3743H122.743C122.634 45.6799 122.029 45.2465 121.153 45.2465C120.23 45.2465 119.615 45.6903 119.615 46.3691C119.615 46.9068 120.011 47.2149 120.991 47.4446L121.82 47.6483C123.364 48.0085 124 48.635 124 49.768C124 51.2091 122.884 52.1123 121.101 52.1123C119.432 52.1123 118.311 51.2508 118.228 49.9038Z" fill="black"/>
</svg>
