<svg width="52" height="59" viewBox="0 0 52 59" fill="none" xmlns="http://www.w3.org/2000/svg">
<path d="M25.9882 58.6512C25.2084 58.6512 24.417 58.4418 23.7304 58.0461L16.5495 53.7982C15.4789 53.1929 16.0025 52.9836 16.3518 52.867C17.7831 52.3666 18.0741 52.262 19.5986 51.389C19.7617 51.296 19.9712 51.3307 20.134 51.4357L25.6506 54.7059C25.8485 54.8221 26.1276 54.8221 26.3139 54.7059L47.8099 42.2993C48.0079 42.1829 48.1356 41.9502 48.1356 41.7175V16.9046C48.1356 16.6602 48.0079 16.4391 47.7984 16.3112L26.314 3.91626C26.1162 3.79985 25.8486 3.79985 25.6507 3.91626L4.17802 16.3227C3.96841 16.4391 3.84052 16.6718 3.84052 16.9162V41.7175C3.84052 41.9502 3.96841 42.1829 4.17802 42.2878L10.0671 45.6862C13.2677 47.2805 15.2229 45.4068 15.2229 43.5099V19.0227C15.2229 18.6736 15.5021 18.406 15.8514 18.406H18.5748C18.9123 18.406 19.2031 18.6736 19.2031 19.0227V43.5215C19.2031 47.781 16.8754 50.2252 12.8371 50.2252C11.5917 50.2252 10.6141 50.2251 7.89079 48.8751L2.25783 45.628C0.861156 44.8249 0 43.3235 0 41.706V16.9046C0 15.2986 0.861156 13.7856 2.25783 12.9826L23.7304 0.576059C25.092 -0.19202 26.896 -0.19202 28.246 0.576059L49.7423 12.9941C51.1388 13.7971 52 15.2985 52 16.9162V41.7175C52 43.3235 51.1388 44.8249 49.7423 45.6396L28.246 58.0461C27.5593 58.4418 26.7794 58.6512 25.9882 58.6512ZM43.3411 34.1993C43.3411 29.5555 40.1987 28.3219 33.5999 27.4491C26.9192 26.5645 26.2444 26.1106 26.2444 24.5511C26.2444 23.2594 26.8147 21.5368 31.7609 21.5368C36.172 21.5368 37.8014 22.4912 38.4763 25.4707C38.5345 25.7499 38.7908 25.9594 39.0814 25.9594H41.875C42.0493 25.9594 42.2122 25.8896 42.3288 25.7615C42.4453 25.6336 42.5033 25.4589 42.4913 25.2843C42.061 20.152 38.6508 17.766 31.7609 17.766C25.6276 17.766 21.9733 20.3498 21.9733 24.6909C21.9733 29.3927 25.6159 30.6964 31.4932 31.2779C38.5345 31.9648 39.0814 33.0006 39.0814 34.3856C39.0814 36.7833 37.1497 37.8071 32.6223 37.8071C26.9312 37.8071 25.6858 36.3756 25.2668 33.5477C25.2203 33.2452 24.9641 33.0241 24.6501 33.0241H21.8683C21.5192 33.0241 21.2517 33.3034 21.2517 33.6407C21.2517 37.2605 23.2186 41.5783 32.6341 41.5783C39.4306 41.5665 43.3411 38.8776 43.3411 34.1993Z" fill="#539E43"/>
</svg>
