<svg width="71" height="19" viewBox="0 0 71 19" fill="none" xmlns="http://www.w3.org/2000/svg">
<path d="M13.5222 5.25962C13.5222 6.88129 12.8547 8.18654 11.5109 9.17932C10.1671 10.1721 8.29129 10.6655 5.8835 10.6655H4.54859L3.52318 15.0935H0L3.1405 1.49121H8.02925C8.9192 1.49121 9.69048 1.5545 10.351 1.67414C11.0115 1.79379 11.5831 2.00837 12.0617 2.30205C12.5211 2.58567 12.8968 2.98631 13.1504 3.46293C13.3976 3.95536 13.5241 4.55063 13.5241 5.25962H13.5222ZM9.77749 5.60176C9.77749 5.06779 9.58665 4.67918 9.19705 4.41517C8.80746 4.15115 8.24284 4.03348 7.48639 4.03348H6.07237L5.13299 8.10348H6.39868C7.46364 8.10348 8.29722 7.88891 8.88656 7.45086C9.48283 7.0138 9.7765 6.39282 9.7765 5.59187L9.77749 5.60176ZM20.0019 14.0127L19.2544 14.5071C18.9607 14.698 18.6908 14.8492 18.4435 14.96C18.1322 15.0926 17.8104 15.1991 17.4814 15.2784C17.1788 15.3496 16.7655 15.3901 16.2414 15.3901C15.3911 15.3901 14.691 15.1528 14.1511 14.6742C13.6112 14.1956 13.3402 13.5687 13.3402 12.7955C13.3402 11.9846 13.5311 11.3122 13.9137 10.7367C14.2964 10.1612 14.868 9.71823 15.6244 9.385C16.3324 9.0666 17.1749 8.8362 18.1459 8.69282L21.3181 8.38233L21.3576 8.20731C21.3813 8.1282 21.3893 8.03229 21.3893 7.93044C21.3991 7.73595 21.347 7.54335 21.2404 7.38039C21.1337 7.21744 20.9781 7.09254 20.796 7.02368C20.4004 6.84866 19.7943 6.76165 18.9993 6.76165C18.4584 6.76165 17.8621 6.84866 17.2026 7.0316L15.7322 7.48448H15.4296L15.924 5.05197C16.3057 4.95704 16.9129 4.8542 17.7039 4.72566C18.495 4.59711 19.3098 4.54272 20.1048 4.54272C21.7106 4.54272 22.8952 4.74049 23.6428 5.17063C24.3982 5.59187 24.772 6.2435 24.772 7.12652C24.7709 7.28588 24.7603 7.44502 24.7404 7.60313C24.7237 7.77476 24.6946 7.94495 24.6534 8.11238L23.0475 15.0935H19.7804L20.0019 14.0127ZM20.8761 10.2601L19.2227 10.4351C18.776 10.4852 18.336 10.5836 17.9106 10.7288C17.5368 10.8643 17.251 11.0551 17.0602 11.2924C16.8624 11.5396 16.7665 11.8561 16.7665 12.2615C16.7665 12.6115 16.8951 12.8548 17.1561 13.009C17.4172 13.1633 17.7919 13.2236 18.2933 13.2236C18.6196 13.2236 18.9607 13.1524 19.3345 13.0011C19.7029 12.8516 20.0524 12.6591 20.3757 12.4276L20.8761 10.2601ZM29.8131 18.8629H26.194L28.8094 14.8957L27.1244 4.84728H30.4864L31.3764 11.5654L35.2793 4.84728H38.753L29.8131 18.8629Z" fill="#123984"/>
<path d="M51.904 5.25931C51.904 6.88098 51.2365 8.18623 49.8927 9.17901C48.5489 10.1718 46.6731 10.6652 44.2653 10.6652H42.9304L41.905 15.0932H38.3828L41.5154 1.49881H46.4042C47.2941 1.49881 48.0654 1.5621 48.7259 1.68175C49.3864 1.80139 49.958 2.01597 50.4366 2.30965C50.896 2.59328 51.2717 2.99391 51.5253 3.47053C51.7794 3.96494 51.907 4.55131 51.907 5.25041L51.904 5.25931ZM48.1514 5.60145C48.1514 5.06748 47.9606 4.67887 47.571 4.41486C47.1814 4.15084 46.6167 4.03317 45.8603 4.03317H44.4463L43.5069 8.10317H44.7706C45.8356 8.10317 46.6692 7.8886 47.2585 7.45055C47.8548 7.01349 48.1484 6.39251 48.1484 5.59156L48.1514 5.60145ZM58.3838 14.0124L57.6362 14.5068C57.3425 14.6976 57.0726 14.8489 56.8254 14.9597C56.514 15.0923 56.1922 15.1988 55.8632 15.2781C55.5607 15.3493 55.1473 15.3898 54.6233 15.3898C53.7729 15.3898 53.0728 15.1525 52.5329 14.6739C51.993 14.1953 51.7221 13.5684 51.7221 12.7951C51.7221 11.9843 51.9129 11.3119 52.2956 10.7364C52.6782 10.1609 53.2498 9.71792 54.0062 9.38469C54.7142 9.06629 55.5567 8.83589 56.5277 8.69251L59.6999 8.38202L59.7394 8.207C59.7632 8.12789 59.7711 8.03198 59.7711 7.93013C59.7809 7.73564 59.7288 7.54304 59.6222 7.38009C59.5156 7.21713 59.36 7.09223 59.1778 7.02338C58.7823 6.84835 58.1761 6.76134 57.3811 6.76134C56.8402 6.76134 56.2439 6.84835 55.5844 7.03129L54.114 7.48417H53.8114L54.3058 5.05166C54.6875 4.95673 55.2947 4.85389 56.0857 4.72535C56.8768 4.5968 57.6916 4.54241 58.4866 4.54241C60.0924 4.54241 61.2771 4.74018 62.0246 5.17032C62.7801 5.59156 63.1538 6.24319 63.1538 7.12621C63.1527 7.28557 63.1421 7.44471 63.1222 7.60283C63.1055 7.77445 63.0764 7.94464 63.0352 8.11207L61.4293 15.0932H58.1544L58.3838 14.0124ZM59.2579 10.2598L57.6046 10.4348C57.1578 10.4849 56.7178 10.5833 56.2924 10.7285C55.9186 10.864 55.6329 11.0548 55.442 11.2921C55.2442 11.5393 55.1483 11.8558 55.1483 12.2612C55.1483 12.6112 55.2769 12.8545 55.5379 13.0087C55.799 13.163 56.1737 13.2233 56.6751 13.2233C57.0014 13.2233 57.3425 13.1521 57.7163 13.0008C58.0847 12.8513 58.4342 12.6588 58.7575 12.4273L59.2579 10.2598ZM71.0002 0.885742L67.7173 15.1001H64.4097L67.6926 0.885742H71.0002Z" fill="#009DE2"/>
</svg>
