<svg width="78" height="40" viewBox="0 0 78 40" fill="none" xmlns="http://www.w3.org/2000/svg">
<path d="M0 19.7109C0 30.5968 17.3488 39.4219 38.7488 39.4219C60.1488 39.4219 77.4976 30.5968 77.4976 19.7109C77.4976 8.82497 60.1488 -0.000125885 38.7488 -0.000125885C17.3488 -0.000125885 0 8.8251 0 19.7109Z" fill="url(#paint0_radial)"/>
<path d="M38.7489 37.958C59.3132 37.958 75.9841 29.7885 75.9841 19.7107C75.9841 9.63294 59.3132 1.46339 38.7489 1.46339C18.1846 1.46339 1.51367 9.63294 1.51367 19.7107C1.51367 29.7885 18.1846 37.958 38.7489 37.958Z" fill="#777BB3"/>
<path d="M21.0517 21.9731C22.7427 21.9731 24.005 21.6715 24.8036 21.0772C25.5937 20.4891 26.1395 19.4696 26.4255 18.0478C26.6922 16.7188 26.5906 15.7909 26.1236 15.2901C25.6462 14.7786 24.6138 14.5192 23.0553 14.5192H20.3532L18.855 21.9732H21.0516L21.0517 21.9731ZM12.2133 31.155C12.0878 31.155 11.9687 31.1008 11.889 31.007C11.8495 30.9607 11.8212 30.9066 11.8059 30.8485C11.7906 30.7904 11.7889 30.7298 11.8007 30.6709L15.7709 10.9179C15.7895 10.8253 15.8409 10.7418 15.9162 10.6818C15.9915 10.6218 16.086 10.589 16.1836 10.589H24.7404C27.4296 10.589 29.4312 11.2937 30.6893 12.6879C31.9542 14.0879 32.3448 16.0451 31.8502 18.5047C31.6489 19.5068 31.3028 20.4373 30.8215 21.2708C30.3394 22.1049 29.7025 22.8768 28.9281 23.5652C28.0008 24.4044 26.9514 25.0129 25.8117 25.371C24.69 25.7243 23.2497 25.9036 21.5304 25.9036H18.0655L17.0761 30.8262C17.0575 30.9188 17.0061 31.0023 16.9309 31.0624C16.8556 31.1224 16.7611 31.1552 16.6635 31.1553H12.2133V31.155Z" fill="black"/>
<path d="M20.7002 14.9255H23.0559C24.9367 14.9255 25.5902 15.3246 25.8122 15.5625C26.1805 15.9574 26.25 16.7901 26.0133 17.9704C25.7473 19.2918 25.2543 20.2287 24.5476 20.7548C23.8242 21.2933 22.648 21.5663 21.0523 21.5663H19.3654L20.7001 14.9255H20.7002ZM24.7408 10.1821H16.184C15.9888 10.1821 15.7998 10.2477 15.6492 10.3678C15.4986 10.4878 15.3959 10.6548 15.3587 10.84L11.3885 30.5933C11.3648 30.711 11.3684 30.8324 11.3989 30.9486C11.4295 31.0648 11.4862 31.1731 11.5651 31.2656C11.644 31.3581 11.743 31.4326 11.8552 31.4838C11.9673 31.535 12.0898 31.5615 12.2138 31.5615H16.6636C16.8588 31.5615 17.0479 31.4959 17.1985 31.3758C17.3491 31.2558 17.4518 31.0888 17.4891 30.9035L18.4124 26.3099H21.5307C23.2941 26.3099 24.7786 26.1239 25.9427 25.7573C27.1396 25.3812 28.2412 24.7436 29.2158 23.8621C30.0219 23.1449 30.6873 22.3399 31.1891 21.4691C31.6908 20.5984 32.0538 19.6268 32.2638 18.5821C32.7844 15.993 32.3614 13.9197 31.0066 12.4203C29.6651 10.9352 27.5569 10.1822 24.741 10.1822L24.7408 10.1821ZM18.3455 22.3796H21.0523C22.8462 22.3796 24.1827 22.053 25.0606 21.3992C25.9385 20.7454 26.531 19.6543 26.8388 18.1253C27.1331 16.6573 26.9991 15.6213 26.4366 15.0177C25.874 14.414 24.7464 14.1123 23.0561 14.1123H20.0073L18.3457 22.3795L18.3455 22.3796ZM24.7412 10.9952C27.3153 10.9952 29.1932 11.6485 30.3735 12.9549C31.5539 14.2614 31.9092 16.0853 31.4383 18.4268C31.2444 19.3914 30.9166 20.2732 30.4551 21.0723C29.9936 21.8714 29.3897 22.6028 28.6441 23.2657C27.7555 24.0697 26.7685 24.6426 25.6823 24.9841C24.5961 25.3263 23.2128 25.4967 21.531 25.4967H17.7195L16.6642 30.7484H12.2144L16.184 10.9952H24.7409" fill="white"/>
<path d="M42.0535 25.9032C41.9279 25.9032 41.8089 25.849 41.7292 25.7552C41.6494 25.6614 41.6168 25.5383 41.6409 25.4191L43.397 16.679C43.564 15.8478 43.5228 15.2512 43.2811 14.9991C43.1331 14.845 42.6885 14.5866 41.374 14.5866H38.1923L35.9843 25.574C35.9657 25.6666 35.9143 25.7501 35.839 25.8102C35.7637 25.8702 35.6691 25.9031 35.5715 25.903H31.1568C31.0948 25.9031 31.0335 25.8898 30.9774 25.8642C30.9214 25.8386 30.8718 25.8014 30.8324 25.7551C30.7929 25.7088 30.7645 25.6547 30.7493 25.5966C30.734 25.5385 30.7322 25.4778 30.744 25.4189L34.7142 5.66593C34.7329 5.57331 34.7842 5.48984 34.8595 5.42983C34.9348 5.36982 35.0294 5.337 35.127 5.33701H39.5417C39.6037 5.33701 39.665 5.35027 39.7211 5.37585C39.7771 5.40143 39.8267 5.43868 39.8661 5.48495C39.9056 5.53121 39.9339 5.58535 39.9492 5.64347C39.9645 5.70158 39.9663 5.76225 39.9545 5.82111L38.9964 10.5887H42.4191C45.0266 10.5887 46.7946 11.0332 47.8247 11.9477C48.8759 12.8807 49.202 14.3723 48.7984 16.3822L46.9512 25.5743C46.9326 25.6669 46.8812 25.7504 46.8059 25.8104C46.7306 25.8705 46.6361 25.9033 46.5385 25.9033H42.0536L42.0535 25.9032Z" fill="black"/>
<path d="M39.5422 4.93037H35.1275C34.9323 4.93036 34.7432 4.99601 34.5926 5.11606C34.442 5.23611 34.3393 5.40308 34.302 5.58836L30.3318 25.3414C30.3082 25.4591 30.3118 25.5804 30.3423 25.6967C30.3728 25.8129 30.4296 25.9212 30.5085 26.0137C30.5874 26.1062 30.6865 26.1807 30.7986 26.2319C30.9108 26.283 31.0333 26.3096 31.1573 26.3096H35.5721C35.7672 26.3096 35.9563 26.2439 36.107 26.1239C36.2576 26.0038 36.3603 25.8369 36.3975 25.6516L38.5395 14.9931H41.3747C42.6869 14.9931 42.9623 15.2641 42.9734 15.2758C43.053 15.3585 43.1577 15.742 42.9849 16.6013L41.2288 25.3414C41.2052 25.4591 41.2087 25.5804 41.2393 25.6967C41.2698 25.8129 41.3266 25.9212 41.4055 26.0137C41.4844 26.1062 41.5834 26.1807 41.6956 26.2319C41.8078 26.283 41.9303 26.3096 42.0543 26.3096H46.5391C46.7343 26.3096 46.9234 26.2439 47.074 26.1239C47.2246 26.0038 47.3274 25.8369 47.3646 25.6516L49.2118 16.4595C49.6453 14.3019 49.2744 12.6832 48.1102 11.6483C46.9991 10.6617 45.1379 10.1819 42.4201 10.1819H39.5072L40.3682 5.89858C40.3918 5.78084 40.3883 5.65949 40.3577 5.54324C40.3272 5.42699 40.2705 5.31871 40.1916 5.22616C40.1127 5.13361 40.0136 5.05908 39.9014 5.00792C39.7892 4.95676 39.6667 4.93023 39.5427 4.93023L39.5422 4.93037ZM39.5427 5.74339L38.4873 10.9951H42.4202C44.8949 10.9951 46.6018 11.4127 47.5413 12.2471C48.4809 13.0814 48.762 14.4345 48.3867 16.3044L46.5395 25.4964H42.0547L43.8108 16.7566C44.0107 15.7623 43.9372 15.0842 43.5902 14.7226C43.2432 14.361 42.5046 14.1799 41.3751 14.1799H37.8464L35.5723 25.4964H31.1576L35.1278 5.74339H39.5425" fill="white"/>
<path d="M55.784 21.9731C57.4749 21.9731 58.7372 21.6715 59.5358 21.0772C60.326 20.4891 60.8717 19.4699 61.1579 18.0478C61.4246 16.7188 61.323 15.7909 60.8559 15.2901C60.3784 14.7786 59.3461 14.5192 57.7876 14.5192H55.0855L53.5873 21.9732H55.7838L55.784 21.9731ZM46.9458 31.155C46.8204 31.155 46.7013 31.1008 46.6215 31.007C46.5821 30.9608 46.5537 30.9066 46.5384 30.8485C46.5231 30.7904 46.5213 30.7298 46.5331 30.6709L50.5033 10.9179C50.5219 10.8252 50.5733 10.7418 50.6486 10.6817C50.724 10.6217 50.8185 10.5889 50.9161 10.589H59.4727C62.1622 10.589 64.1636 11.2937 65.4219 12.6879C66.6867 14.0879 67.077 16.0449 66.5827 18.5047C66.3812 19.5068 66.0352 20.4373 65.5537 21.2708C65.0716 22.1049 64.4348 22.8768 63.6603 23.5652C62.7331 24.4044 61.6836 25.0129 60.5439 25.371C59.4223 25.7243 57.982 25.9036 56.2626 25.9036H52.7974L51.8083 30.8262C51.7897 30.9189 51.7383 31.0024 51.663 31.0624C51.5877 31.1225 51.4931 31.1553 51.3955 31.1553H46.9457L46.9458 31.155Z" fill="black"/>
<path d="M55.4325 14.9255H57.7881C59.669 14.9255 60.3225 15.3246 60.5445 15.5625C60.9131 15.9574 60.9825 16.7901 60.7456 17.9702C60.4796 19.2916 59.9864 20.2287 59.2799 20.7548C58.5565 21.2933 57.3803 21.5663 55.7846 21.5663H54.0981L55.4326 14.9255H55.4325ZM59.473 10.1821H50.9163C50.7211 10.1821 50.5321 10.2477 50.3815 10.3678C50.2309 10.4878 50.1282 10.6548 50.0909 10.84L46.1209 30.5933C46.0973 30.711 46.1008 30.8324 46.1314 30.9486C46.1619 31.0648 46.2186 31.1731 46.2975 31.2656C46.3764 31.3581 46.4755 31.4326 46.5876 31.4838C46.6998 31.535 46.8222 31.5615 46.9462 31.5615H51.396C51.5912 31.5615 51.7803 31.4959 51.9309 31.3758C52.0815 31.2558 52.1843 31.0888 52.2215 30.9035L53.1447 26.3099H56.263C58.0264 26.3099 59.5109 26.1239 60.675 25.7573C61.8719 25.3812 62.9734 24.7436 63.9483 23.8618C64.7545 23.1449 65.4182 22.3399 65.9214 21.4691C66.4245 20.5984 66.7861 19.6268 66.996 18.5821C67.5167 15.9929 67.0937 13.9196 65.7389 12.4201C64.3974 10.9352 62.2894 10.1822 59.4733 10.1822L59.473 10.1821ZM53.078 22.3796H55.7846C57.5785 22.3796 58.915 22.053 59.7929 21.3992C60.6708 20.7454 61.2633 19.6543 61.5711 18.1253C61.8657 16.6573 61.7316 15.6213 61.1689 15.0177C60.6062 14.414 59.4786 14.1123 57.7884 14.1123H54.7396L53.0781 22.3795L53.078 22.3796ZM59.4735 10.9952C62.0476 10.9952 63.9255 11.6485 65.1058 12.9549C66.2862 14.2614 66.6415 16.0853 66.1706 18.4268C65.9767 19.3914 65.6489 20.2732 65.1874 21.0723C64.7259 21.8714 64.122 22.6028 63.3764 23.2657C62.4878 24.0697 61.5007 24.6426 60.4146 24.9841C59.3284 25.3263 57.9451 25.4967 56.2633 25.4967H52.4518L51.3964 30.7484H46.9467L50.9168 10.9954H59.4736" fill="white"/>
<defs>
<radialGradient id="paint0_radial" cx="0" cy="0" r="1" gradientUnits="userSpaceOnUse" gradientTransform="translate(23.265 6.92975) scale(50.8828 49.204)">
<stop stop-color="#AEB2D5"/>
<stop offset="0.3" stop-color="#AEB2D5"/>
<stop offset="0.75" stop-color="#484C89"/>
<stop offset="1" stop-color="#484C89"/>
</radialGradient>
</defs>
</svg>
