<svg width="94" height="84" viewBox="0 0 94 84" fill="none" xmlns="http://www.w3.org/2000/svg">
<path d="M47.0147 50.126C51.6535 50.126 55.4141 46.3655 55.4141 41.7266C55.4141 37.0877 51.6535 33.3271 47.0147 33.3271C42.3758 33.3271 38.6152 37.0877 38.6152 41.7266C38.6152 46.3655 42.3758 50.126 47.0147 50.126Z" fill="#00D8FF"/>
<path d="M47.0167 60.9694C35.2207 60.9694 24.9138 59.5807 17.2004 56.937C12.1976 55.2304 7.94767 52.9548 4.91919 50.3614C1.70666 47.6174 0 44.6223 0 41.7277C0 36.1727 6.09042 30.7348 16.3136 27.1877C24.6796 24.2763 35.5888 22.6533 47 22.6533C58.2104 22.6533 68.969 24.2261 77.2848 27.104C82.1538 28.7772 86.2531 30.9524 89.1645 33.3618C92.3268 36.0054 94 38.9 94 41.7277C94 47.5002 87.1901 53.3397 76.214 56.9705C68.4503 59.5472 58.0765 60.9694 47.0167 60.9694ZM47.0167 26.669C36.1912 26.669 25.4827 28.2418 17.6522 30.9691C8.24884 34.2485 4.0324 38.7327 4.0324 41.7277C4.0324 44.8399 8.56675 49.7423 18.5055 53.1389C25.8006 55.632 35.6725 56.9538 47.0167 56.9538C57.6582 56.9538 67.5803 55.6152 74.9591 53.1556C85.2827 49.7256 90.0011 44.8231 90.0011 41.7277C90.0011 40.1382 88.7964 38.2642 86.6045 36.4404C84.078 34.3322 80.3969 32.408 75.9964 30.8854C68.0822 28.1749 57.7921 26.669 47.0167 26.669Z" fill="#00D8FF"/>
<path d="M27.9579 83.5906C26.2513 83.5906 24.7454 83.2225 23.4738 82.4863C18.6717 79.7088 16.9985 71.711 19.0231 61.0862C20.6796 52.3689 24.7287 42.1289 30.4343 32.2403C36.0395 22.5358 42.7657 14.0025 49.4083 8.23003C53.2901 4.85018 57.2221 2.37385 60.7693 1.06876C64.6343 -0.353453 67.9807 -0.353453 70.4236 1.05203C75.4264 3.92992 77.0829 12.7644 74.7404 24.0752C73.084 32.1065 69.1352 41.7943 63.6137 51.3817C57.7241 61.5882 51.3659 69.8203 45.2253 75.1912C41.2431 78.6715 37.1438 81.2147 33.3958 82.5365C31.4382 83.2393 29.5977 83.5906 27.9579 83.5906ZM32.1577 33.2443L33.8978 34.2482C28.4934 43.6181 24.4944 53.674 22.9551 61.8391C21.0979 71.6273 22.8882 77.517 25.4649 79.0061C26.1007 79.3742 26.9373 79.575 27.9579 79.575C31.2876 79.575 36.5247 77.4668 42.5817 72.1795C48.3876 67.1097 54.4613 59.2122 60.1334 49.3906C65.4542 40.1713 69.2356 30.9018 70.8084 23.2888C73.0003 12.6305 71.1096 6.10507 68.4157 4.549C67.0437 3.7626 64.8184 3.86299 62.1413 4.85018C59.0459 5.98795 55.5489 8.2133 52.0352 11.2752C45.7273 16.7633 39.2855 24.9285 33.8978 34.2649L32.1577 33.2443Z" fill="#00D8FF"/>
<path d="M66.0739 83.64C61.5228 83.64 55.7503 80.896 49.7268 75.7091C43.0006 69.9198 36.1572 61.3029 30.4349 51.4143C24.813 41.7098 20.7973 31.6204 19.1074 22.97C18.1202 17.917 17.9361 13.2822 18.572 9.55101C19.2747 5.48515 20.9312 2.59052 23.3908 1.16831C28.3769 -1.72632 36.86 1.25197 45.4936 8.93193C51.6175 14.3698 58.0426 22.6354 63.5809 32.2061C69.4872 42.4125 73.4527 52.0334 75.0255 60.0313C76.0462 65.2182 76.2135 70.037 75.494 73.9522C74.7243 78.1185 72.9842 81.08 70.4744 82.5357C69.2195 83.2719 67.7304 83.64 66.0739 83.64ZM33.9151 49.4065C39.3363 58.7764 46.0625 67.2595 52.3537 72.6639C59.8998 79.1559 65.8899 80.5614 68.4833 79.0555C71.1772 77.4994 73.1515 71.1245 71.1102 60.8177C69.6044 53.2548 65.8062 44.0523 60.1174 34.2306C54.7799 25.0113 48.6393 17.0971 42.8333 11.9437C34.7015 4.71548 28.1092 3.09248 25.4153 4.64855C24.0433 5.43495 23.0227 7.42605 22.5374 10.237C21.9853 13.483 22.1526 17.6325 23.0561 22.2004C24.6624 30.4157 28.5107 40.0701 33.9151 49.4065Z" fill="#00D8FF"/>
</svg>
