<svg width="49" height="57" viewBox="0 0 49 57" fill="none" xmlns="http://www.w3.org/2000/svg">
<path d="M42.4295 10.4506C42.2289 10.4316 37.9469 10.114 37.9469 10.114C37.9469 10.114 34.9706 7.14583 34.6448 6.81917C34.3181 6.49068 33.6802 6.58869 33.4316 6.664C33.3962 6.67398 32.7828 6.86544 31.7674 7.1785C30.7729 4.30474 29.0207 1.66419 25.9364 1.66419C25.8511 1.66419 25.7631 1.66781 25.6742 1.67326C24.7976 0.509056 23.7106 0 22.7714 0C15.5856 0 12.152 9.02961 11.0758 13.6184C8.28281 14.4859 6.29741 15.1047 6.04696 15.1864C4.48531 15.6782 4.43722 15.7272 4.23487 17.2026C4.0788 18.3196 0 50.0181 0 50.0181L31.7792 56.0016L49 52.2567C49 52.2567 42.9558 11.1865 42.9176 10.9043C42.8795 10.623 42.6327 10.4669 42.4295 10.4506ZM25.4383 8.83633C25.4383 8.94431 25.4364 9.04594 25.4364 9.14848C23.687 9.69383 21.7887 10.2836 19.8822 10.878C20.952 6.73115 22.9556 4.72578 24.7096 3.96991C25.1497 5.08239 25.4383 6.68124 25.4383 8.83633ZM22.5727 1.93822C22.8866 1.93822 23.197 2.04348 23.4964 2.25128C21.1925 3.33926 18.7253 6.08417 17.6817 11.5622C16.1582 12.0359 14.6701 12.5004 13.2917 12.9287C14.5131 8.74831 17.4113 1.93822 22.5727 1.93822ZM23.8113 26.3584C23.8113 26.3584 21.9511 25.3611 19.6726 25.3611C16.3279 25.3611 16.1591 27.4699 16.1591 27.9999C16.1591 30.899 23.6788 32.0106 23.6788 38.8007C23.6788 44.1436 20.3087 47.5826 15.7608 47.5826C10.3054 47.5826 7.51424 44.1699 7.51424 44.1699L8.97426 39.3198C8.97426 39.3198 11.8417 41.7961 14.2644 41.7961C15.8433 41.7961 16.4867 40.5439 16.4867 39.6301C16.4867 35.848 10.3172 35.6793 10.3172 29.4644C10.3172 24.2369 14.0521 19.1735 21.5945 19.1735C24.4973 19.1735 25.9346 20.0111 25.9346 20.0111L23.8113 26.3584ZM27.322 8.5623C27.322 8.37083 27.3239 8.18391 27.3239 7.97793C27.3239 6.19396 27.0761 4.75572 26.6805 3.61602C28.2703 3.81474 29.3292 5.63318 30.0107 7.72476C29.2131 7.9752 28.3057 8.2565 27.322 8.5623Z" fill="#95C675"/>
<path d="M42.4295 10.4506C42.2289 10.4316 37.9469 10.114 37.9469 10.114C37.9469 10.114 34.9706 7.14583 34.6448 6.81917C34.3181 6.49068 33.6802 6.58869 33.4316 6.664C33.3962 6.67398 32.7828 6.86544 31.7674 7.1785C30.7729 4.30474 29.0207 1.66419 25.9364 1.66419C25.8511 1.66419 25.7631 1.66781 25.6742 1.67326C24.7976 0.509056 23.7106 0 22.7714 0C15.5856 0 13.8126 9.02961 12.7364 13.6184C9.94337 14.4859 7.80007 19.2615 7.54691 19.3414C5.98707 19.8332 5.93898 19.8822 5.73572 21.3586C5.57874 22.4747 0 50.0181 0 50.0181L31.7792 56.0016L49 52.2567C49 52.2567 42.9558 11.1865 42.9176 10.9043C42.8795 10.623 42.6327 10.4669 42.4295 10.4506ZM25.4383 8.83633C25.4383 8.94431 25.4364 9.04594 25.4364 9.14848C23.687 9.69383 21.7887 10.2836 19.8822 10.878C20.952 6.73115 22.9556 4.72578 24.7096 3.96991C25.1497 5.08239 25.4383 6.68124 25.4383 8.83633ZM22.5727 1.93822C22.8866 1.93822 23.197 2.04348 23.4964 2.25128C21.1925 3.33926 18.7253 6.08417 17.6817 11.5622C16.1582 12.0359 14.6701 12.5004 13.2917 12.9287C14.5131 8.74831 17.4113 1.93822 22.5727 1.93822ZM23.8113 26.3584C23.8113 26.3584 21.9511 25.3611 19.6726 25.3611C16.3279 25.3611 16.1591 27.4699 16.1591 27.9999C16.1591 30.899 23.6788 32.0106 23.6788 38.8007C23.6788 44.1436 20.3087 47.5826 15.7608 47.5826C10.3054 47.5826 7.51424 44.1699 7.51424 44.1699L8.97426 39.3198C8.97426 39.3198 11.8417 41.7961 14.2644 41.7961C15.8433 41.7961 16.4867 40.5439 16.4867 39.6301C16.4867 35.848 10.3172 35.6793 10.3172 29.4644C10.3172 24.2369 14.0521 19.1735 21.5945 19.1735C24.4973 19.1735 25.9346 20.0111 25.9346 20.0111L23.8113 26.3584ZM27.322 8.5623C27.322 8.37083 27.3239 8.18391 27.3239 7.97793C27.3239 6.19396 27.0761 4.75572 26.6805 3.61602C28.2703 3.81474 29.3292 5.63318 30.0107 7.72476C29.2131 7.9752 28.3057 8.2565 27.322 8.5623Z" fill="#79B259"/>
<path d="M31.7783 56.0001L48.9991 52.2561C48.9991 52.2561 42.9549 11.1859 42.9168 10.9037C42.8787 10.6215 42.6328 10.4664 42.4286 10.45C42.2281 10.431 37.946 10.1134 37.946 10.1134C37.946 10.1134 34.9697 7.14525 34.6439 6.81858C34.4697 6.64254 34.2093 6.59264 33.9634 6.59082C33.3101 7.69786 33.4453 9.80032 33.4453 9.80032L31.4199 55.932L31.7783 56.0001Z" fill="#55932C"/>
<path d="M25.9378 1.66516C25.8525 1.66516 25.7644 1.66879 25.6755 1.67424C24.799 0.510032 23.7119 0.000976562 22.7727 0.000976562C15.616 0.000976562 12.1796 8.95981 11.0898 13.564L13.3103 12.8753C14.5389 8.69303 17.4344 1.93829 22.574 1.93829C22.888 1.93829 23.1983 2.04355 23.4977 2.25135C21.2002 3.3357 18.7393 6.07063 17.6921 11.5187L19.8971 10.8381C20.9697 6.71761 22.9651 4.72312 24.7128 3.96998C25.1519 5.08337 25.4414 6.68131 25.4414 8.8364C25.4414 8.9344 25.4414 9.02787 25.4396 9.12133L27.3252 8.53787C27.3252 8.35638 27.327 8.1749 27.327 7.978C27.327 6.19403 27.0793 4.75579 26.6836 3.61609C28.268 3.8139 29.326 5.62418 30.0066 7.70668L31.7651 7.16133C30.7679 4.29574 29.0166 1.66516 25.9378 1.66516Z" fill="#4A7A2B"/>
<path d="M38.6656 10.1678C38.2355 10.1342 37.946 10.1134 37.946 10.1134C37.946 10.1134 34.9697 7.14525 34.6439 6.81858C34.4697 6.64254 34.2093 6.59264 33.9634 6.59082C33.3101 7.69786 33.4453 9.80032 33.4453 9.80032L31.4199 55.932L31.7793 56.0001L40.9423 54.0074L38.6656 10.1678Z" fill="#4C822A"/>
</svg>
