<svg width="56" height="25" viewBox="0 0 56 25" fill="none" xmlns="http://www.w3.org/2000/svg">
<path fill-rule="evenodd" clip-rule="evenodd" d="M56 12.9156C56 8.6431 54.0715 5.2708 50.3837 5.2708C46.6823 5.2708 44.4412 8.64237 44.4412 12.8815C44.4412 17.9055 47.0856 20.4421 50.881 20.4421C52.7324 20.4421 54.1324 19.992 55.19 19.3575V16.0193C54.1324 16.587 52.9192 16.937 51.3791 16.937C49.8701 16.937 48.5323 16.3692 48.3611 14.4003H55.9668C55.9668 14.1825 55.998 13.3157 55.998 12.9149L56 12.9156ZM48.3219 11.3308C48.3219 9.44461 49.3951 8.66052 50.3756 8.66052C51.3243 8.66052 52.3359 9.44461 52.3359 11.3308H48.3219ZM38.4446 5.27225C36.9201 5.27225 35.941 6.03964 35.3956 6.57398L35.1926 5.53942H31.7639V25L35.6527 24.1157L35.6683 19.3923C36.2286 19.8265 37.0527 20.4436 38.4223 20.4436C41.2068 20.4436 43.7422 18.0478 43.7422 12.7494C43.7267 7.90911 41.1601 5.27153 38.4372 5.27153L38.4446 5.27225ZM37.5108 16.7722C36.5933 16.7722 36.0493 16.4215 35.6751 15.9881L35.6595 9.79527C36.0641 9.31102 36.6237 8.97779 37.5108 8.97779C38.9264 8.97779 39.9062 10.6803 39.9062 12.8663C39.9062 15.1024 38.942 16.7722 37.5108 16.7722ZM26.4136 4.28779L30.3179 3.38754V0L26.4136 0.884275V4.28779ZM26.4136 5.55612H30.3179V20.1597H26.4136V5.55612ZM22.2284 6.79033L21.9794 5.55612H18.6191V20.1612H22.5079V10.2628C23.4254 8.97778 24.9811 9.21156 25.4635 9.39524V5.55685C24.9655 5.35647 23.146 4.98911 22.2277 6.79106L22.2284 6.79033ZM14.4508 1.92609L10.6554 2.79512L10.6399 16.1638C10.6399 18.6337 12.3667 20.453 14.6687 20.453C15.9442 20.453 16.8773 20.2026 17.3909 19.9013V16.513C16.8929 16.7308 14.4353 17.4975 14.4353 15.0276V9.11137H17.3909V5.55612H14.4339L14.4508 1.92609ZM3.93548 9.78728C3.93548 9.13605 4.4335 8.88703 5.25768 8.88703C6.60298 8.91778 7.92328 9.28311 9.11466 9.95426V6.04037C7.82358 5.4886 6.54807 5.27298 5.25768 5.27298C2.09969 5.27298 0 7.04225 0 9.99637C0 14.6029 5.91133 13.8682 5.91133 15.8552C5.91133 16.6226 5.2888 16.8731 4.41794 16.8731C3.12686 16.8731 1.47783 16.3054 0.171196 15.5372V19.5085C1.6179 20.1764 3.08085 20.4523 4.41794 20.4523C7.65374 20.4523 9.87861 18.7331 9.87861 15.7456C9.86305 10.7725 3.93615 11.6567 3.93615 9.78728H3.93548Z" fill="#6772E5"/>
</svg>
