<svg width="52" height="52" viewBox="0 0 52 52" fill="none" xmlns="http://www.w3.org/2000/svg">
<path d="M0 25.5016V51.0016H51.0016V0H0V25.5016ZM41.1004 23.4696C42.3953 23.7931 43.3835 24.3684 44.2903 25.3072C44.7605 25.8092 45.4561 26.724 45.5127 26.9423C45.5287 27.0061 43.311 28.4963 41.9666 29.3306C41.9188 29.3625 41.7236 29.1529 41.5044 28.8285C40.8486 27.8723 40.1609 27.4603 39.1082 27.3878C37.5623 27.2826 36.5582 28.0922 36.5742 29.4437C36.5742 29.8406 36.63 30.0749 36.7925 30.4C37.1328 31.1044 37.7647 31.5252 39.7473 32.3842C43.3986 33.954 44.9605 34.99 45.9311 36.4642C47.0148 38.1074 47.2587 40.7307 46.5224 42.6814C45.7127 44.8027 43.7054 46.2435 40.8805 46.7216C40.0063 46.8754 37.9336 46.8515 36.9949 46.6817C34.947 46.3176 33.0042 45.3055 31.8057 43.9779C31.3355 43.46 30.4215 42.1077 30.4781 42.0097C30.502 41.9778 30.7132 41.8479 30.9482 41.71L32.8424 40.6183L34.3087 39.768L34.6162 40.2223C35.045 40.8781 35.9845 41.7762 36.5511 42.0758C38.1783 42.934 40.4127 42.8121 41.5132 41.8248C41.9834 41.3961 42.177 40.9506 42.177 40.2948C42.177 39.7035 42.1053 39.4445 41.7969 38.9999C41.4 38.4341 40.5904 37.956 38.2906 36.9599C35.6594 35.8267 34.5262 35.1223 33.4903 34.005C32.891 33.3572 32.3244 32.3213 32.0894 31.455C31.8949 30.7347 31.8463 28.929 32.0001 28.2006C32.542 25.6506 34.4609 23.8855 37.23 23.3596C38.1289 23.1899 40.2183 23.2544 41.0996 23.4728L41.1004 23.4696ZM29.1274 25.5972L29.1433 27.685H22.5053V46.5471H17.8102V27.685H11.1722V25.6371L11.228 23.5333C11.2519 23.5014 15.292 23.4855 20.1896 23.4935L29.1027 23.5174L29.1274 25.5972Z" fill="#007ACC"/>
</svg>
