<svg width="49" height="50" viewBox="0 0 49 50" fill="none" xmlns="http://www.w3.org/2000/svg">
<path d="M24.5 0C10.9913 0 0 11.2153 0 24.9992C0 38.7832 10.9913 50 24.5 50C38.0087 50 49 38.7832 49 24.9992C49 11.2153 38.0087 0 24.5 0ZM2.47297 24.9992C2.47297 21.7399 3.15744 18.6479 4.38091 15.8526L14.8868 45.2267C7.53988 41.5846 2.47297 33.8958 2.47297 24.9992ZM24.5 47.4766C22.3379 47.4766 20.2508 47.1548 18.2785 46.5626L24.8874 26.9663L31.6586 45.8939C31.703 46.0033 31.7566 46.1064 31.8163 46.2017C29.5256 47.0267 27.0664 47.4766 24.5 47.4766ZM27.5349 14.4605C28.861 14.3902 30.0554 14.248 30.0554 14.248C31.2421 14.1042 31.1027 12.3246 29.9145 12.3949C29.9145 12.3949 26.3482 12.6809 24.0437 12.6809C21.8785 12.6809 18.2418 12.3949 18.2418 12.3949C17.0551 12.3231 16.9157 14.1746 18.1024 14.248C18.1024 14.248 19.2264 14.3902 20.4131 14.4605L23.8446 24.0571L19.0243 38.8082L11.0051 14.4605C12.3327 14.3902 13.5255 14.248 13.5255 14.248C14.7092 14.1042 14.5729 12.3246 13.3847 12.3949C13.3847 12.3949 9.81684 12.6809 7.51231 12.6809C7.09888 12.6809 6.61194 12.6715 6.09438 12.6527C10.0358 6.55136 16.8055 2.52336 24.5 2.52336C30.2345 2.52336 35.4561 4.75923 39.3761 8.42474C39.2812 8.41693 39.1877 8.40443 39.0897 8.40443C36.9261 8.40443 35.3903 10.3278 35.3903 12.3949C35.3903 14.248 36.4376 15.8136 37.5539 17.6666C38.3915 19.1619 39.3715 21.0853 39.3715 23.8664C39.3715 25.7883 38.6457 28.021 37.6948 31.1318L35.4959 38.6207L27.5349 14.4605ZM43.829 14.2167C45.5486 17.4198 46.527 21.0915 46.527 24.9992C46.527 33.2927 42.1232 40.53 35.5755 44.4283L42.3038 24.5789C43.5595 21.3728 43.979 18.8088 43.979 16.5307C43.9775 15.7011 43.9254 14.9339 43.829 14.2167Z" fill="#21759B"/>
</svg>
