<svg width="35" height="35" viewBox="0 0 35 35" fill="none" xmlns="http://www.w3.org/2000/svg">
<path d="M17.5129 34.9116C22.1607 34.9116 26.5291 33.1001 29.8209 29.8083C32.8746 26.7546 34.6758 22.6968 34.8932 18.3802C34.9139 17.9558 34.5826 17.5831 34.1582 17.5624C33.7338 17.5417 33.3611 17.873 33.3404 18.2974C33.1438 22.2206 31.4979 25.9161 28.7133 28.7007C25.7217 31.6923 21.7363 33.3485 17.5025 33.3485C13.2687 33.3485 9.2834 31.7026 6.2918 28.7007C0.111913 22.5208 0.111913 12.4591 6.2918 6.27921C11.5607 1.01026 19.7592 0.13038 25.9908 4.09503L24.2414 6.2378L29.2619 5.73058L28.7547 0.710068L26.9846 2.8839C20.1215 -1.58798 11.0225 -0.645987 5.19453 5.18194C-1.59609 11.9726 -1.59609 23.0073 5.19453 29.798C8.49668 33.1001 12.865 34.9116 17.5129 34.9116Z" fill="black"/>
<path d="M25.7207 13.9191C25.7207 13.9088 25.7207 13.8984 25.7104 13.8984C25.7104 13.8777 25.7 13.8674 25.7 13.8467C25.7 13.8363 25.6896 13.8156 25.6896 13.8053C25.6896 13.7949 25.6793 13.7846 25.6793 13.7742C25.6586 13.7225 25.6379 13.6811 25.6068 13.6397L22.315 8.80547C22.1701 8.58809 21.932 8.46387 21.6732 8.46387H13.3299C13.0711 8.46387 12.833 8.58809 12.6881 8.80547L9.39629 13.6293C9.36523 13.6707 9.34453 13.7225 9.32383 13.7639C9.32383 13.7742 9.31348 13.7846 9.31348 13.7949C9.30312 13.8053 9.30313 13.826 9.30313 13.8363C9.30313 13.857 9.29277 13.8674 9.29277 13.8881C9.29277 13.8984 9.29277 13.9088 9.28242 13.9088C9.27207 13.9605 9.26172 14.0123 9.26172 14.0641V25.751C9.26172 26.1754 9.61367 26.5274 10.0381 26.5274H24.9547C25.3791 26.5274 25.7311 26.1754 25.7311 25.751V14.0744C25.7311 14.0123 25.7311 13.9605 25.7207 13.9191ZM13.7439 10.0166H21.2592L23.4848 13.2877H11.508L13.7439 10.0166ZM24.1783 24.985H10.8248V14.8508H24.1887V24.985H24.1783Z" fill="black"/>
</svg>
