<svg width="53" height="32" viewBox="0 0 53 32" fill="none" xmlns="http://www.w3.org/2000/svg">
<path d="M39.8005 26H37.9415C37.6832 25.9909 37.439 25.8796 37.2626 25.6906C37.0861 25.5016 36.9919 25.2504 37.0005 24.992V16.008C36.9919 15.7496 37.0861 15.4984 37.2626 15.3094C37.439 15.1204 37.6832 15.0091 37.9415 15H50.6325C50.6831 15.0018 50.7327 15.0136 50.7787 15.0347C50.8246 15.0559 50.8659 15.0859 50.9001 15.1231C50.9343 15.1603 50.9608 15.204 50.9781 15.2515C50.9953 15.299 51.003 15.3495 51.0005 15.4V24C51.0176 24.5126 50.8305 25.0111 50.4805 25.386C50.1305 25.7609 49.6461 25.9817 49.1335 26H46.3335" fill="white"/>
<path d="M39.8005 26H37.9415C37.6832 25.9909 37.439 25.8796 37.2626 25.6906C37.0861 25.5016 36.9919 25.2504 37.0005 24.992V16.008C36.9919 15.7496 37.0861 15.4984 37.2626 15.3094C37.439 15.1204 37.6832 15.0091 37.9415 15H50.6325C50.6831 15.0018 50.7327 15.0136 50.7787 15.0347C50.8246 15.0559 50.8659 15.0859 50.9001 15.1231C50.9343 15.1603 50.9608 15.204 50.9781 15.2515C50.9953 15.299 51.003 15.3495 51.0005 15.4V24C51.0176 24.5126 50.8305 25.0111 50.4805 25.386C50.1305 25.7609 49.6461 25.9817 49.1335 26H46.3335" stroke="black" stroke-width="2" stroke-miterlimit="10"/>
<path d="M14.9142 1H35C35.5304 1 36.0391 1.21071 36.4142 1.58579C36.7893 1.96086 37 2.46957 37 3V18H7L12.9142 3C12.9142 2.46957 13.1249 1.96086 13.5 1.58579C13.8751 1.21071 14.3838 1 14.9142 1Z" stroke="black" stroke-width="2" stroke-miterlimit="10"/>
<path d="M1 9H16" stroke="black" stroke-width="2" stroke-linecap="round" stroke-linejoin="round"/>
<path d="M2 12H17" stroke="black" stroke-width="2" stroke-linecap="round" stroke-linejoin="round"/>
<path d="M5 15H21" stroke="black" stroke-width="2" stroke-linecap="round" stroke-linejoin="round"/>
<path d="M7 22H10" stroke="black" stroke-width="2" stroke-linecap="round" stroke-linejoin="round"/>
<path d="M37 22H28" stroke="black" stroke-width="2" stroke-linecap="round" stroke-linejoin="round"/>
<path d="M40 18H41" stroke="black" stroke-width="2" stroke-linecap="round" stroke-linejoin="round"/>
<path d="M43.5 31C45.433 31 47 29.433 47 27.5C47 25.567 45.433 24 43.5 24C41.567 24 40 25.567 40 27.5C40 29.433 41.567 31 43.5 31Z" stroke="black" stroke-width="2" stroke-miterlimit="10"/>
<path d="M50.982 14.688C50.9957 14.7238 51.0003 14.7625 50.9953 14.8005C50.9902 14.8385 50.9758 14.8746 50.9532 14.9056C50.9307 14.9366 50.9007 14.9615 50.8661 14.978C50.8315 14.9945 50.7933 15.002 50.755 15H37.355C37.2607 14.9995 37.1704 14.9616 37.1039 14.8947C37.0373 14.8278 37 14.7373 37 14.643V8.359C37.0003 8.26369 37.0383 8.17238 37.1058 8.10509C37.1733 8.03779 37.2647 8 37.36 8H47.648C47.7796 8.00008 47.9084 8.03852 48.0185 8.11063C48.1286 8.18274 48.2153 8.28538 48.268 8.406L50.982 14.688Z" stroke="black" stroke-width="2" stroke-miterlimit="10"/>
<path d="M14.5 31C16.433 31 18 29.433 18 27.5C18 25.567 16.433 24 14.5 24C12.567 24 11 25.567 11 27.5C11 29.433 12.567 31 14.5 31Z" stroke="black" stroke-width="2" stroke-miterlimit="10"/>
<path d="M11 26H9C8.46957 26 7.96086 25.7893 7.58579 25.4142C7.21071 25.0391 7 24.5304 7 24V18H37V26H18" stroke="black" stroke-width="2" stroke-miterlimit="10"/>
<path d="M47 22H51" stroke="black" stroke-width="2" stroke-linecap="round" stroke-linejoin="round"/>
</svg>
