<svg width="7" height="9" viewBox="0 0 7 9" fill="none" xmlns="http://www.w3.org/2000/svg">
<path d="M1.23441 5.06247L1.23385 5.06292L1.24242 5.07133L4.80429 8.57071C4.80439 8.57082 4.8045 8.57092 4.8046 8.57102C5.09366 8.85976 5.53176 8.85966 5.82071 8.57071C6.10964 8.28178 6.10976 7.84372 5.82108 7.55466C5.82096 7.55454 5.82084 7.55441 5.82071 7.55429L2.82751 4.5L5.82071 1.44571C5.82083 1.44559 5.82096 1.44547 5.82108 1.44534C6.10976 1.15629 6.10964 0.71822 5.82071 0.429289C5.75231 0.360886 5.67993 0.305607 5.5953 0.267994C5.51024 0.230188 5.41792 0.2125 5.3125 0.2125C5.20708 0.2125 5.11476 0.230188 5.0297 0.267994C4.9452 0.305548 4.87292 0.360712 4.80461 0.428967L1.24242 3.92867L1.24191 3.92815L1.23441 3.93753C1.09694 4.10938 1.025 4.30283 1.025 4.5C1.025 4.69717 1.09694 4.89062 1.23441 5.06247Z" fill="black" stroke="black" stroke-width="0.2"/>
</svg>
