<svg width="13" height="9" viewBox="0 0 13 9" fill="none" xmlns="http://www.w3.org/2000/svg">
<path d="M11.9194 0.656245C11.6666 0.50729 11.3785 0.428734 11.085 0.428734C10.7916 0.428734 10.5035 0.50729 10.2507 0.656245L7.75065 2.09374C7.75009 1.8014 7.67273 1.51433 7.52633 1.26128C7.37992 1.00823 7.16961 0.798089 6.91644 0.651887C6.66328 0.505684 6.37615 0.428556 6.0838 0.428224C5.79145 0.427892 5.50415 0.504368 5.25065 0.649995L1.0819 3.05624C0.828891 3.2029 0.618861 3.41347 0.472857 3.66686C0.326852 3.92024 0.25 4.20755 0.25 4.5C0.25 4.79244 0.326852 5.07975 0.472857 5.33313C0.618861 5.58652 0.828891 5.79709 1.0819 5.94375L5.25065 8.34999C5.50413 8.49707 5.79197 8.57454 6.08503 8.57454C6.37808 8.57454 6.66593 8.49707 6.9194 8.34999C7.17315 8.20423 7.38375 7.99384 7.52976 7.74024C7.67578 7.48664 7.75199 7.19888 7.75065 6.90624V6.90624L10.2507 8.34999C10.5035 8.49589 10.79 8.57343 11.0819 8.575C11.3768 8.57504 11.6663 8.49512 11.9194 8.34374C12.1731 8.1995 12.3838 7.99031 12.5299 7.73768C12.676 7.48504 12.7522 7.19807 12.7507 6.90624V2.09374C12.7522 1.80192 12.676 1.51495 12.5299 1.26231C12.3838 1.00968 12.1731 0.800492 11.9194 0.656245ZM6.50065 6.90624C6.50158 6.97954 6.48297 7.05177 6.44672 7.11548C6.41046 7.1792 6.35789 7.2321 6.2944 7.26874C6.23035 7.30432 6.15829 7.32298 6.08503 7.32298C6.01176 7.32298 5.9397 7.30432 5.87565 7.26874L1.7069 4.8625C1.64331 4.82572 1.59052 4.77287 1.55381 4.70924C1.51711 4.64561 1.49778 4.57345 1.49778 4.5C1.49778 4.42654 1.51711 4.35438 1.55381 4.29075C1.59052 4.22712 1.64331 4.17427 1.7069 4.1375L5.87565 1.73125C5.93931 1.69449 6.01152 1.67514 6.08503 1.67514C6.15853 1.67514 6.23074 1.69449 6.2944 1.73125C6.35789 1.76789 6.41046 1.82079 6.44672 1.88451C6.48297 1.94822 6.50158 2.02045 6.50065 2.09374V6.90624ZM11.5007 6.90624C11.4992 6.97875 11.479 7.04965 11.442 7.11199C11.4049 7.17434 11.3524 7.22599 11.2893 7.26191C11.2263 7.29782 11.1551 7.31675 11.0826 7.31685C11.0101 7.31696 10.9388 7.29823 10.8757 7.26249L7.75065 5.46249V3.5375L10.8757 1.73749C10.9388 1.70176 11.0101 1.68303 11.0826 1.68314C11.1551 1.68324 11.2263 1.70217 11.2893 1.73808C11.3524 1.774 11.4049 1.82565 11.442 1.888C11.479 1.95034 11.4992 2.02124 11.5007 2.09374V6.90624Z" fill="black"/>
</svg>
