<svg width="258" height="240" viewBox="0 0 258 240" fill="none" xmlns="http://www.w3.org/2000/svg">
<path d="M130.004 129.052L44.6842 82.2316C44.334 82.0375 43.9394 81.9377 43.5391 81.942C43.1387 81.9463 42.7464 82.0547 42.4005 82.2563C42.0546 82.458 41.7671 82.7461 41.5662 83.0924C41.3652 83.4387 41.2577 83.8312 41.2542 84.2316C40.8442 102.232 39.2542 177.782 41.3442 180.232C44.6542 184.112 126.424 231.392 130.014 231.392C133.604 231.392 214.544 182.632 218.684 180.232C222.344 178.122 219.544 102.032 218.834 84.1516C218.816 83.7584 218.698 83.3762 218.492 83.041C218.286 82.7058 217.997 82.4286 217.654 82.2356C217.311 82.0426 216.925 81.94 216.531 81.9375C216.137 81.9351 215.75 82.0328 215.404 82.2216L130.004 129.052Z" fill="#191919"/>
<path d="M130.003 239.362C127.533 239.362 125.193 239.362 81.5634 214.162C38.6434 189.372 36.1734 186.482 35.2434 185.392C32.8634 182.592 31.9634 181.542 32.3534 137.942C32.5434 116.472 33.0434 93.0716 33.2534 84.0116C33.2932 82.2397 33.7892 80.5079 34.6934 78.9835C35.5976 77.459 36.8795 76.1935 38.4154 75.3089C39.9513 74.4244 41.6893 73.9507 43.4617 73.9337C45.234 73.9166 46.9808 74.3568 48.5334 75.2116L130.013 119.922L211.553 75.1816C213.097 74.3362 214.832 73.8997 216.592 73.9137C218.352 73.9276 220.08 74.3916 221.61 75.2615C223.14 76.1314 224.423 77.3783 225.335 78.8835C226.248 80.3888 226.76 82.1025 226.823 83.8616C227.183 92.9516 228.053 116.432 228.393 138.012C228.583 150.252 228.563 160.012 228.393 167.122C228.013 179.282 227.393 184.492 222.733 187.192C222.063 187.582 219.333 189.192 215.233 191.662C135.213 239.362 133.363 239.362 130.003 239.362V239.362ZM48.7334 175.772C60.6634 183.892 116.893 216.382 129.993 222.772C137.993 218.772 163.883 203.672 206.993 177.912L211.913 174.972C212.913 165.812 212.683 134.212 211.203 93.6716L133.853 136.062C132.674 136.709 131.349 137.049 130.003 137.049C128.657 137.049 127.333 136.709 126.153 136.062L49.0434 93.7516C48.1634 135.492 48.0334 166.752 48.7334 175.772V175.772Z" fill="#191919"/>
<path d="M41.334 78.3515L130.004 31.0615L218.674 78.3515L130.004 127.002L41.334 78.3515Z" fill="white"/>
<path d="M131.254 27.9417V123.882L42.584 75.2216L131.254 27.9417Z" fill="#E6E6E6"/>
<path d="M130.005 129.052L41.3351 80.3916C41.3351 80.3916 38.9551 177.392 41.3351 180.202C44.6451 184.082 126.415 231.362 130.005 231.362C133.595 231.362 214.535 182.602 218.675 180.202C222.815 177.802 218.675 80.3916 218.675 80.3916L130.005 129.052Z" fill="#EEB4B4"/>
<path d="M130.004 129.052C129.004 131.112 128.004 231.862 130.004 231.362C136.354 229.802 215.324 184.432 219.004 179.612C220.584 177.522 221.394 81.6816 218.694 80.3916C215.994 79.1016 131.034 126.992 130.004 129.052Z" fill="#F59C9C"/>
<path d="M218.155 74.8615C222.745 72.3315 247.615 58.5315 246.305 57.7715C244.995 57.0115 158.635 11.8315 156.455 11.1715C154.455 10.5615 131.975 25.2715 128.325 27.6715C124.565 25.0615 97.5052 6.4315 94.4252 8.1515C91.1152 9.9515 11.0352 54.6315 8.16525 56.2915C5.52525 57.8615 34.9552 72.6515 39.5052 74.9315C35.2552 77.0815 9.81525 89.5215 11.3852 90.4215C12.9552 91.3215 95.2052 139.861 99.6052 140.341C102.435 140.651 125.405 126.102 128.425 124.102C131.805 126.342 159.425 144.581 162.185 143.021L249.315 93.0215C250.925 92.1415 223.395 77.5815 218.155 74.8615V74.8615ZM128.425 123.721L40.6752 74.9115L128.265 28.1915L216.575 74.7715L128.425 123.721Z" fill="#191919"/>
<path d="M161.873 151.172C157.873 151.172 152.403 148.492 141.403 141.842C136.613 138.942 131.763 135.842 128.403 133.642C125.533 135.442 121.763 137.782 118.073 139.972C104.663 147.862 101.733 148.622 98.7334 148.302C96.1734 148.022 92.9934 147.682 9.36343 98.5216L7.36343 97.3516C6.09038 96.6175 5.04038 95.5518 4.32538 94.268C3.61038 92.9842 3.25718 91.5303 3.30343 90.0616C3.47343 84.5416 7.91343 82.1916 17.6434 77.0616C19.0234 76.3316 20.4634 75.5816 21.8934 74.8516L18.3134 72.8616C4.05343 65.1016 0.163429 62.2216 0.00342856 56.8016C-0.0397341 55.3002 0.325326 53.8152 1.05969 52.505C1.79406 51.1947 2.87021 50.1083 4.17343 49.3616C6.37343 48.0916 50.9534 23.2116 87.9634 2.56157L90.5334 1.13157C95.6934 -1.74843 101.533 0.811574 115.373 9.47157C120.183 12.4716 124.983 15.6716 128.433 18.0116C153.333 1.81157 155.223 2.39157 158.803 3.49157C162.223 4.49157 249.603 50.4016 250.313 50.8216C251.541 51.542 252.56 52.5704 253.268 53.8051C253.977 55.0398 254.351 56.438 254.353 57.8616C254.303 63.2916 250.833 65.3016 237.943 72.7916L234.733 74.6516L239.503 77.2816C253.833 85.2816 257.223 87.3516 257.323 92.7916C257.351 94.2461 256.988 95.6814 256.272 96.9478C255.557 98.2142 254.514 99.2654 253.253 99.9916L174.103 145.372L166.103 149.952C164.829 150.731 163.367 151.153 161.873 151.172V151.172ZM143.623 124.412C151.173 129.152 157.623 132.902 160.993 134.492L166.203 131.492L234.103 92.5616C229.793 90.1316 224.163 87.0516 217.403 83.4616L143.623 124.412ZM26.9134 90.2616C71.1634 116.192 93.0934 128.472 99.8534 131.802C102.763 130.382 108.003 127.342 113.033 124.292L39.9334 83.6616C34.4234 86.4116 30.1734 88.5716 26.9134 90.2616V90.2616ZM57.4034 75.0616L128.403 114.542L199.733 74.9616L128.253 37.2616L57.4034 75.0616ZM22.9534 57.1816C27.5334 59.7516 33.5034 62.9216 39.9534 66.1816L113.233 27.1016C107.573 23.2711 101.704 19.759 95.6534 16.5816C55.0234 39.2516 33.8134 51.1016 22.9434 57.1816H22.9534ZM143.653 27.2716L217.333 66.1316C222.333 63.3516 226.913 60.7416 230.673 58.5416C209.733 47.5416 167.393 25.5416 156.083 19.8316C153.463 21.2416 149.003 23.8616 143.653 27.2716V27.2716Z" fill="#191919"/>
<path d="M219.154 74.8616C219.234 73.5616 247.614 58.5316 246.304 57.7716C244.994 57.0116 158.634 11.8316 156.454 11.1716C154.454 10.5616 128.914 27.6016 128.324 27.6716C127.734 27.7416 97.4941 6.39155 94.4241 8.11156C91.1141 9.95156 11.0341 54.6316 8.16409 56.2916C5.52409 57.8616 39.4341 74.0916 39.5041 74.9316C39.5741 75.7716 9.8141 89.5216 11.3741 90.4216C12.9341 91.3216 95.2041 139.862 99.6041 140.342C102.434 140.652 127.524 124.102 128.424 124.102C129.324 124.102 159.424 144.582 162.184 143.022L249.314 93.0216C250.924 92.1416 219.074 76.1316 219.154 74.8616V74.8616ZM128.424 123.722C127.424 123.642 40.7041 75.5816 40.6841 74.9416C40.6641 74.3016 127.684 28.3116 128.274 28.2216C128.864 28.1316 216.594 73.5516 216.584 74.8016C216.574 76.0516 129.434 123.772 128.424 123.692V123.722Z" fill="white"/>
<path d="M72.8853 174.541L72.4453 138.861C72.4453 136.631 74.4953 136.161 76.1553 138.041L101.595 166.861C103.185 168.671 103.215 171.331 101.655 171.751L76.6553 178.561C75.0253 179.051 72.9153 176.771 72.8853 174.541V174.541Z" fill="white"/>
<path d="M129.405 129.531C128.735 146.701 128.405 207.201 130.015 231.361Z" fill="#D32920"/>
<path d="M130.004 235.361C128.988 235.364 128.01 234.98 127.267 234.287C126.524 233.594 126.072 232.645 126.004 231.631C124.364 206.951 124.734 146.411 125.394 129.381C125.414 128.856 125.538 128.34 125.758 127.863C125.977 127.385 126.289 126.955 126.675 126.598C127.061 126.241 127.513 125.964 128.006 125.782C128.499 125.599 129.024 125.516 129.549 125.536C130.074 125.557 130.59 125.68 131.068 125.9C131.545 126.12 131.975 126.432 132.332 126.818C132.689 127.203 132.966 127.656 133.149 128.149C133.331 128.642 133.414 129.166 133.394 129.691C132.754 146.131 132.394 207.121 133.994 231.101C134.029 231.626 133.961 232.153 133.792 232.651C133.624 233.149 133.359 233.609 133.012 234.005C132.666 234.401 132.245 234.724 131.773 234.957C131.302 235.19 130.789 235.327 130.264 235.361H130.004Z" fill="#191919"/>
</svg>
