<svg width="13" height="9" viewBox="0 0 13 9" fill="none" xmlns="http://www.w3.org/2000/svg">
<path d="M1.0806 0.656245C1.33343 0.50729 1.62153 0.428734 1.91497 0.428734C2.20842 0.428734 2.49652 0.50729 2.74935 0.656245L5.24935 2.09374C5.24991 1.8014 5.32727 1.51433 5.47367 1.26128C5.62008 1.00823 5.83039 0.798089 6.08356 0.651887C6.33672 0.505684 6.62385 0.428556 6.9162 0.428224C7.20855 0.427892 7.49585 0.504368 7.74935 0.649995L11.9181 3.05624C12.1711 3.2029 12.3811 3.41347 12.5271 3.66686C12.6731 3.92024 12.75 4.20755 12.75 4.5C12.75 4.79244 12.6731 5.07975 12.5271 5.33313C12.3811 5.58652 12.1711 5.79709 11.9181 5.94375L7.74935 8.34999C7.49587 8.49707 7.20803 8.57454 6.91497 8.57454C6.62192 8.57454 6.33407 8.49707 6.0806 8.34999C5.82685 8.20423 5.61625 7.99384 5.47024 7.74024C5.32422 7.48664 5.24801 7.19888 5.24935 6.90624V6.90624L2.74935 8.34999C2.4965 8.49589 2.21002 8.57343 1.9181 8.575C1.62316 8.57504 1.33373 8.49512 1.0806 8.34374C0.826909 8.1995 0.616196 7.99031 0.470108 7.73768C0.32402 7.48504 0.247824 7.19807 0.249348 6.90624V2.09374C0.247824 1.80192 0.32402 1.51495 0.470108 1.26231C0.616196 1.00968 0.826909 0.800492 1.0806 0.656245ZM6.49935 6.90624C6.49842 6.97954 6.51703 7.05177 6.55328 7.11548C6.58954 7.1792 6.64211 7.2321 6.7056 7.26874C6.76965 7.30432 6.84171 7.32298 6.91497 7.32298C6.98824 7.32298 7.0603 7.30432 7.12435 7.26874L11.2931 4.8625C11.3567 4.82572 11.4095 4.77287 11.4462 4.70924C11.4829 4.64561 11.5022 4.57345 11.5022 4.5C11.5022 4.42654 11.4829 4.35438 11.4462 4.29075C11.4095 4.22712 11.3567 4.17427 11.2931 4.1375L7.12435 1.73125C7.06069 1.69449 6.98848 1.67514 6.91497 1.67514C6.84147 1.67514 6.76926 1.69449 6.7056 1.73125C6.64211 1.76789 6.58954 1.82079 6.55328 1.88451C6.51703 1.94822 6.49842 2.02045 6.49935 2.09374V6.90624ZM1.49935 6.90624C1.50076 6.97875 1.52097 7.04965 1.55801 7.11199C1.59505 7.17434 1.64765 7.22599 1.71065 7.26191C1.77365 7.29782 1.8449 7.31675 1.91742 7.31685C1.98994 7.31696 2.06124 7.29823 2.12435 7.26249L5.24935 5.46249V3.5375L2.12435 1.73749C2.06124 1.70176 1.98994 1.68303 1.91742 1.68314C1.8449 1.68324 1.77365 1.70217 1.71065 1.73808C1.64765 1.774 1.59505 1.82565 1.55801 1.888C1.52097 1.95034 1.50076 2.02124 1.49935 2.09374V6.90624Z" fill="black"/>
</svg>
