<svg width="17" height="16" viewBox="0 0 17 16" fill="none" xmlns="http://www.w3.org/2000/svg">
<path d="M15.761 8.61226L15.7713 8.62349L8.5 16L1.22875 8.62349L1.23903 8.61226C0.394647 7.61359 -0.0465356 6.32811 0.00389144 5.01339C0.0543185 3.69867 0.592629 2.45185 1.51095 1.52277C2.42928 0.593685 3.65977 0.0509848 4.95587 0.00341363C6.25196 -0.0441575 7.51789 0.406915 8.5 1.26624C9.48211 0.406915 10.748 -0.0441575 12.0441 0.00341363C13.3402 0.0509848 14.5707 0.593685 15.489 1.52277C16.4074 2.45185 16.9457 3.69867 16.9961 5.01339C17.0465 6.32811 16.6054 7.61359 15.761 8.61226V8.61226Z" fill="#E5638D"/>
</svg>
