<svg width="13" height="11" viewBox="0 0 13 11" fill="none" xmlns="http://www.w3.org/2000/svg">
<path d="M6.09309 2.26069L6.02209 2.33111C6.08174 2.39125 6.15271 2.43899 6.2309 2.47157C6.30909 2.50414 6.39296 2.52092 6.47767 2.52092C6.56238 2.52092 6.64625 2.50414 6.72444 2.47157C6.80141 2.4395 6.87138 2.39274 6.93044 2.33393C7.35416 1.96795 7.9009 1.77616 8.46048 1.7973C9.02125 1.81849 9.55302 2.05193 9.94818 2.45038C10.3433 2.84883 10.5724 3.38252 10.5889 3.94345C10.6054 4.50437 10.4082 5.05063 10.0372 5.47166L9.89085 5.63777H9.91391L6.49934 9.04729L2.91394 5.46721C2.91388 5.46715 2.91383 5.46709 2.91377 5.46703C2.60556 5.15748 2.39561 4.76382 2.31024 4.33542C2.22485 3.90693 2.2679 3.46277 2.43397 3.05866C2.60004 2.65454 2.88175 2.30847 3.24376 2.06384C3.60563 1.81931 4.03162 1.68704 4.46834 1.68361C5.05164 1.68517 5.6105 1.9181 6.02225 2.33128L6.09309 2.26069ZM6.09309 2.26069C5.66251 1.82862 5.07806 1.5851 4.46809 1.58361L6.86225 2.26069C6.8119 2.31146 6.75199 2.35176 6.68598 2.37926C6.61997 2.40676 6.54917 2.42092 6.47767 2.42092C6.40616 2.42092 6.33536 2.40676 6.26936 2.37926C6.20335 2.35176 6.14344 2.31146 6.09309 2.26069ZM10.9901 1.42624C10.398 0.834057 9.61315 0.474016 8.77812 0.411593C7.96757 0.351001 7.16204 0.574742 6.49953 1.04301C5.80051 0.545554 4.94207 0.321994 4.08762 0.416611C3.20878 0.51393 2.39945 0.940625 1.82261 1.61077C1.24578 2.28092 0.944285 3.14474 0.978846 4.02827C1.0134 4.91174 1.3814 5.74931 2.00873 6.37234C2.00877 6.37239 2.00882 6.37243 2.00887 6.37248L6.04375 10.4074C6.04381 10.4074 6.04387 10.4075 6.04393 10.4075C6.10355 10.4676 6.17445 10.5153 6.25256 10.5478C6.33076 10.5804 6.41463 10.5972 6.49934 10.5972C6.58404 10.5972 6.66791 10.5804 6.74611 10.5478C6.82422 10.5153 6.89512 10.4676 6.95474 10.4075C6.9548 10.4075 6.95486 10.4074 6.95492 10.4074L10.99 6.37226C10.99 6.37225 10.99 6.37224 10.99 6.37224C11.3149 6.04755 11.5727 5.66204 11.7485 5.23771C11.9243 4.81338 12.0149 4.35856 12.0149 3.89923C12.0149 3.43991 11.9243 2.98508 11.7485 2.56075C11.5727 2.13643 11.3149 1.75092 10.9901 1.42624Z" fill="black" stroke="black" stroke-width="0.2"/>
</svg>
