<svg width="10" height="7" viewBox="0 0 10 7" fill="none" xmlns="http://www.w3.org/2000/svg">
<path d="M0.855116 5.82375C0.807564 5.77444 0.751492 5.73578 0.690116 5.71C0.568386 5.65582 0.431847 5.65582 0.310116 5.71C0.248741 5.73578 0.192668 5.77444 0.145116 5.82375C0.099596 5.87526 0.0639134 5.93601 0.0401163 6.0025C0.00182654 6.10114 -0.0086348 6.20986 0.0100523 6.31494C0.0287393 6.42002 0.0757374 6.51674 0.145116 6.59292C0.193717 6.64076 0.249524 6.67924 0.310116 6.70667C0.369966 6.73532 0.434681 6.75013 0.500116 6.75013C0.565552 6.75013 0.630266 6.73532 0.690116 6.70667C0.750709 6.67924 0.806516 6.64076 0.855116 6.59292C0.924495 6.51674 0.971493 6.42002 0.99018 6.31494C1.00887 6.20986 0.998406 6.10114 0.960116 6.0025C0.936319 5.93601 0.900637 5.87526 0.855116 5.82375V5.82375ZM2.50012 1.33333H9.50012C9.63272 1.33333 9.7599 1.27626 9.85367 1.17468C9.94744 1.0731 10.0001 0.935326 10.0001 0.791667C10.0001 0.648008 9.94744 0.510233 9.85367 0.408651C9.7599 0.307068 9.63272 0.25 9.50012 0.25H2.50012C2.36751 0.25 2.24033 0.307068 2.14656 0.408651C2.05279 0.510233 2.00012 0.648008 2.00012 0.791667C2.00012 0.935326 2.05279 1.0731 2.14656 1.17468C2.24033 1.27626 2.36751 1.33333 2.50012 1.33333ZM0.855116 3.11542C0.784804 3.04026 0.695518 2.98934 0.598523 2.9691C0.501528 2.94885 0.401172 2.96019 0.310116 3.00167C0.249524 3.0291 0.193717 3.06757 0.145116 3.11542C0.099596 3.16693 0.0639134 3.22768 0.0401163 3.29417C0.0136636 3.359 0 3.42911 0 3.5C0 3.57089 0.0136636 3.641 0.0401163 3.70583C0.0654372 3.77147 0.100951 3.83193 0.145116 3.88458C0.193717 3.93243 0.249524 3.9709 0.310116 3.99833C0.369966 4.02699 0.434681 4.04179 0.500116 4.04179C0.565552 4.04179 0.630266 4.02699 0.690116 3.99833C0.750709 3.9709 0.806516 3.93243 0.855116 3.88458C0.899282 3.83193 0.934795 3.77147 0.960116 3.70583C0.986569 3.641 1.00023 3.57089 1.00023 3.5C1.00023 3.42911 0.986569 3.359 0.960116 3.29417C0.936319 3.22768 0.900637 3.16693 0.855116 3.11542V3.11542ZM9.50012 2.95833H2.50012C2.36751 2.95833 2.24033 3.0154 2.14656 3.11698C2.05279 3.21857 2.00012 3.35634 2.00012 3.5C2.00012 3.64366 2.05279 3.78143 2.14656 3.88302C2.24033 3.9846 2.36751 4.04167 2.50012 4.04167H9.50012C9.63272 4.04167 9.7599 3.9846 9.85367 3.88302C9.94744 3.78143 10.0001 3.64366 10.0001 3.5C10.0001 3.35634 9.94744 3.21857 9.85367 3.11698C9.7599 3.0154 9.63272 2.95833 9.50012 2.95833ZM0.855116 0.407083C0.807564 0.35777 0.751492 0.319114 0.690116 0.293333C0.599061 0.251853 0.498704 0.24052 0.401709 0.260764C0.304715 0.281008 0.215428 0.331923 0.145116 0.407083C0.100951 0.459734 0.0654372 0.520191 0.0401163 0.585833C0.0136636 0.650671 0 0.720778 0 0.791667C0 0.862555 0.0136636 0.932662 0.0401163 0.9975C0.0654372 1.06314 0.100951 1.1236 0.145116 1.17625C0.193717 1.2241 0.249524 1.26257 0.310116 1.29C0.401172 1.33148 0.501528 1.34281 0.598523 1.32257C0.695518 1.30232 0.784804 1.25141 0.855116 1.17625C0.899282 1.1236 0.934795 1.06314 0.960116 0.9975C0.986569 0.932662 1.00023 0.862555 1.00023 0.791667C1.00023 0.720778 0.986569 0.650671 0.960116 0.585833C0.934795 0.520191 0.899282 0.459734 0.855116 0.407083V0.407083ZM9.50012 5.66667H2.50012C2.36751 5.66667 2.24033 5.72373 2.14656 5.82532C2.05279 5.9269 2.00012 6.06467 2.00012 6.20833C2.00012 6.35199 2.05279 6.48977 2.14656 6.59135C2.24033 6.69293 2.36751 6.75 2.50012 6.75H9.50012C9.63272 6.75 9.7599 6.69293 9.85367 6.59135C9.94744 6.48977 10.0001 6.35199 10.0001 6.20833C10.0001 6.06467 9.94744 5.9269 9.85367 5.82532C9.7599 5.72373 9.63272 5.66667 9.50012 5.66667Z" fill="black"/>
</svg>
