<svg width="10" height="10" viewBox="0 0 10 10" fill="none" xmlns="http://www.w3.org/2000/svg">
<path d="M8.29648 6.46242H6.40898C6.29848 6.46242 6.1925 6.50632 6.11436 6.58446C6.03622 6.6626 5.99232 6.76858 5.99232 6.87909C5.99232 6.98959 6.03622 7.09557 6.11436 7.17371C6.1925 7.25185 6.29848 7.29575 6.40898 7.29575H7.40898C6.94938 7.77606 6.35665 8.10797 5.70697 8.24883C5.05729 8.3897 4.38032 8.33309 3.76306 8.08627C3.14579 7.83946 2.61643 7.41371 2.24298 6.86374C1.86953 6.31377 1.66906 5.6647 1.66732 4.99992C1.66732 4.88941 1.62342 4.78343 1.54528 4.70529C1.46714 4.62715 1.36116 4.58325 1.25065 4.58325C1.14014 4.58325 1.03416 4.62715 0.956023 4.70529C0.877883 4.78343 0.833984 4.88941 0.833984 4.99992C0.836187 5.81358 1.07658 6.6088 1.52549 7.28743C1.9744 7.96606 2.61218 8.4984 3.36013 8.81876C4.10808 9.13912 4.93346 9.23348 5.73441 9.09019C6.53536 8.94689 7.27683 8.57223 7.86732 8.01242V8.74992C7.86732 8.86043 7.91122 8.96641 7.98936 9.04455C8.0675 9.12269 8.17348 9.16659 8.28398 9.16659C8.39449 9.16659 8.50047 9.12269 8.57861 9.04455C8.65675 8.96641 8.70065 8.86043 8.70065 8.74992V6.87492C8.69962 6.76727 8.65697 6.66419 8.58162 6.58729C8.50628 6.51039 8.40409 6.46564 8.29648 6.46242ZM5.00065 0.833252C3.93248 0.836299 2.90627 1.24947 2.13398 1.98742V1.24992C2.13398 1.13941 2.09009 1.03343 2.01195 0.955291C1.93381 0.877151 1.82782 0.833252 1.71732 0.833252C1.60681 0.833252 1.50083 0.877151 1.42269 0.955291C1.34455 1.03343 1.30065 1.13941 1.30065 1.24992V3.12492C1.30065 3.23543 1.34455 3.34141 1.42269 3.41955C1.50083 3.49769 1.60681 3.54159 1.71732 3.54159H3.59232C3.70282 3.54159 3.80881 3.49769 3.88695 3.41955C3.96509 3.34141 4.00898 3.23543 4.00898 3.12492C4.00898 3.01441 3.96509 2.90843 3.88695 2.83029C3.80881 2.75215 3.70282 2.70825 3.59232 2.70825H2.59232C3.05168 2.2282 3.64402 1.89638 4.29332 1.75538C4.94261 1.61438 5.61923 1.67065 6.23632 1.91694C6.85341 2.16324 7.38282 2.58834 7.75658 3.13767C8.13035 3.687 8.33142 4.3355 8.33398 4.99992C8.33398 5.11043 8.37788 5.21641 8.45602 5.29455C8.53416 5.37269 8.64014 5.41659 8.75065 5.41659C8.86116 5.41659 8.96714 5.37269 9.04528 5.29455C9.12342 5.21641 9.16732 5.11043 9.16732 4.99992C9.16732 4.45274 9.05954 3.91093 8.85015 3.4054C8.64076 2.89988 8.33384 2.44055 7.94693 2.05364C7.56002 1.66673 7.10069 1.35982 6.59517 1.15042C6.08964 0.941026 5.54783 0.833252 5.00065 0.833252V0.833252Z" fill="black"/>
</svg>
