<svg width="11" height="11" viewBox="0 0 11 11" fill="none" xmlns="http://www.w3.org/2000/svg">
<path d="M9.95153 9.29948L8.25112 7.61281C8.91116 6.78983 9.2308 5.74524 9.14432 4.69382C9.05784 3.64241 8.5718 2.66409 7.78615 1.96002C7.00049 1.25596 5.97494 0.879671 4.92037 0.908527C3.8658 0.937384 2.86236 1.36919 2.11639 2.11517C1.37042 2.86114 0.938605 3.86458 0.909748 4.91915C0.880891 5.97372 1.25718 6.99927 1.96124 7.78493C2.66531 8.57058 3.64363 9.05662 4.69504 9.1431C5.74646 9.22958 6.79105 8.90994 7.61403 8.2499L9.3007 9.93656C9.34331 9.97952 9.394 10.0136 9.44985 10.0369C9.5057 10.0602 9.56561 10.0721 9.62612 10.0721C9.68662 10.0721 9.74653 10.0602 9.80238 10.0369C9.85823 10.0136 9.90892 9.97952 9.95153 9.93656C10.0341 9.8511 10.0803 9.73688 10.0803 9.61802C10.0803 9.49916 10.0341 9.38494 9.95153 9.29948V9.29948ZM5.04278 8.2499C4.40823 8.2499 3.78794 8.06173 3.26033 7.70919C2.73272 7.35666 2.3215 6.85558 2.07867 6.26934C1.83584 5.68309 1.7723 5.038 1.8961 4.41565C2.01989 3.79329 2.32545 3.22162 2.77415 2.77293C3.22284 2.32423 3.79451 2.01867 4.41687 1.89488C5.03922 1.77108 5.68431 1.83462 6.27056 2.07745C6.8568 2.32028 7.35788 2.7315 7.71041 3.25911C8.06295 3.78672 8.25112 4.40701 8.25112 5.04156C8.25112 5.89246 7.9131 6.70852 7.31142 7.3102C6.70974 7.91188 5.89369 8.2499 5.04278 8.2499V8.2499Z" fill="#636363"/>
</svg>
