<svg width="13" height="13" viewBox="0 0 13 13" fill="none" xmlns="http://www.w3.org/2000/svg">
<path d="M9.80071 7.5071L9.80005 7.5071C9.46045 7.50935 9.12557 7.5867 8.81946 7.7336C8.5368 7.86924 8.28517 8.06108 8.07981 8.29707L5.42417 7.07498C5.52802 6.70473 5.52802 6.31303 5.42417 5.94278L8.08055 4.72035C8.4221 5.10494 8.88361 5.36454 9.39155 5.45626C9.92484 5.55256 10.4751 5.45763 10.9451 5.18821C11.4152 4.91879 11.7748 4.49217 11.9606 3.98364C12.1464 3.47511 12.1464 2.91737 11.9605 2.40887C11.7746 1.90037 11.4148 1.47383 10.9447 1.20449C10.4747 0.935149 9.92441 0.840319 9.39114 0.936719C8.85787 1.03312 8.3758 1.31456 8.03004 1.7314C7.68428 2.14825 7.49705 2.6737 7.50143 3.21502L7.50144 3.21547C7.50283 3.32591 7.51189 3.43609 7.52854 3.54521L4.75654 4.81932C4.44124 4.52942 4.05071 4.33299 3.62883 4.25286C3.18426 4.16842 2.72463 4.21689 2.30752 4.39219C1.8904 4.56748 1.53434 4.86183 1.28395 5.23835C1.03357 5.61489 0.9 6.05685 0.9 6.50888C0.9 6.96091 1.03357 7.40287 1.28395 7.7794C1.53434 8.15593 1.8904 8.45027 2.30752 8.62557C2.72463 8.80087 3.18426 8.84933 3.62883 8.7649C4.05071 8.68477 4.44124 8.48833 4.75654 8.19844L7.52854 9.47255C7.51189 9.58167 7.50283 9.69185 7.50144 9.80229L7.50143 9.80229V9.80355C7.50143 10.2578 7.6363 10.7018 7.88896 11.0794C8.14163 11.4571 8.50073 11.7514 8.92086 11.9252C9.34098 12.099 9.80327 12.1445 10.2493 12.0559C10.6953 11.9673 11.1049 11.7486 11.4265 11.4274C11.7481 11.1063 11.9671 10.6971 12.0558 10.2516C12.1445 9.8061 12.099 9.34433 11.925 8.9247C11.7509 8.50506 11.4562 8.14641 11.0781 7.89409C10.7 7.64177 10.2554 7.5071 9.80071 7.5071ZM9.80071 2.21598C9.99845 2.21598 10.1917 2.27454 10.3561 2.38425C10.5205 2.49395 10.6486 2.64986 10.7243 2.83225C10.7999 3.01463 10.8197 3.21532 10.7812 3.40893C10.7426 3.60254 10.6474 3.7804 10.5076 3.92001C10.3678 4.05963 10.1897 4.15472 9.99576 4.19325C9.80182 4.23177 9.6008 4.212 9.41813 4.13643C9.23545 4.06086 9.07934 3.9329 8.96951 3.76874C8.85968 3.60459 8.80107 3.41161 8.80107 3.21421C8.80107 2.9495 8.90636 2.69561 9.09381 2.5084C9.28127 2.32118 9.53555 2.21598 9.80071 2.21598ZM3.20286 7.5071C3.00512 7.5071 2.81183 7.44854 2.64744 7.33884C2.48304 7.22914 2.35494 7.07323 2.27929 6.89084C2.20365 6.70846 2.18386 6.50777 2.22242 6.31416C2.26098 6.12055 2.35617 5.94269 2.49596 5.80307C2.63575 5.66346 2.81388 5.56837 3.00781 5.52984C3.20175 5.49131 3.40277 5.51109 3.58545 5.58666C3.76812 5.66223 3.92424 5.79019 4.03406 5.95434C4.14389 6.1185 4.2025 6.31148 4.2025 6.50888C4.2025 6.77358 4.09721 7.02747 3.90976 7.21468C3.7223 7.4019 3.46802 7.5071 3.20286 7.5071ZM9.80071 10.8018C9.60297 10.8018 9.40969 10.7432 9.24529 10.6335C9.0809 10.5238 8.95279 10.3679 8.87715 10.1855C8.8015 10.0031 8.78171 9.80244 8.82027 9.60883C8.85884 9.41522 8.95402 9.23736 9.09381 9.09775C9.23361 8.95813 9.41173 8.86304 9.60567 8.82451C9.79961 8.78599 10.0006 8.80576 10.1833 8.88133C10.366 8.9569 10.5221 9.08486 10.6319 9.24902C10.7417 9.41317 10.8004 9.60615 10.8004 9.80355C10.8004 10.0683 10.6951 10.3221 10.5076 10.5094C10.3202 10.6966 10.0659 10.8018 9.80071 10.8018Z" fill="black" stroke="black" stroke-width="0.2"/>
</svg>
