<svg width="10" height="8" viewBox="0 0 10 8" fill="none" xmlns="http://www.w3.org/2000/svg">
<path d="M2.22039 7.85L2.22017 7.85C1.96776 7.85113 1.71942 7.78636 1.49972 7.66208C1.26312 7.52871 1.06693 7.33395 0.93184 7.09833C0.796878 6.86293 0.727919 6.59549 0.732221 6.32419V1.67516V1.675H0.832221C0.831381 1.42535 0.896917 1.17997 1.02211 0.963987C1.14731 0.748002 1.32767 0.569178 1.54472 0.445833L2.22039 7.85ZM2.22039 7.85C2.48359 7.84824 2.74146 7.77568 2.96696 7.63994C2.96702 7.63991 2.96708 7.63987 2.96714 7.63984L6.56555 5.49278V6.5C6.56555 6.85804 6.70779 7.20142 6.96096 7.45459C7.21413 7.70777 7.55751 7.85 7.91556 7.85C8.2736 7.85 8.61697 7.70777 8.87015 7.45459C9.12332 7.20142 9.26556 6.85804 9.26556 6.5V1.5C9.26556 1.14196 9.12332 0.79858 8.87015 0.545406C8.61698 0.292232 8.2736 0.15 7.91556 0.15C7.55751 0.15 7.21413 0.292232 6.96096 0.545406C6.70779 0.79858 6.56555 1.14196 6.56555 1.5V2.50722L2.9668 0.359962C2.9668 0.359961 2.9668 0.359959 2.96679 0.359958C2.74406 0.227038 2.48952 0.156859 2.23014 0.156859C1.97111 0.156859 1.7169 0.226848 1.49439 0.359417L2.22039 7.85ZM6.35632 4.4125H6.35457L6.33085 4.4267L2.44752 6.7517L2.44686 6.7521C2.3822 6.7915 2.30794 6.81234 2.23222 6.81234C2.1565 6.81234 2.08225 6.7915 2.01759 6.7521L2.01763 6.75203L2.01412 6.75009C1.93847 6.70805 1.87548 6.64646 1.83176 6.57176C1.78803 6.49707 1.76517 6.412 1.76555 6.32544V6.325V1.675H1.76558L1.76553 1.67274C1.76355 1.58537 1.78531 1.49909 1.82847 1.4231C1.87163 1.34711 1.93459 1.28424 2.01065 1.24119L2.01065 1.24119L2.01103 1.24098C2.07506 1.20436 2.1473 1.18453 2.22104 1.18332C2.30043 1.18252 2.37836 1.20465 2.44549 1.24705L2.44547 1.24707L2.44756 1.24832L6.3342 3.57281C6.40643 3.61808 6.466 3.68093 6.50735 3.75548C6.54884 3.8303 6.57062 3.91445 6.57062 4C6.57062 4.08555 6.54884 4.1697 6.50735 4.24452C6.4703 4.31132 6.41863 4.36872 6.35632 4.4125ZM8.23222 6.5C8.23222 6.58399 8.19886 6.66453 8.13947 6.72392C8.08009 6.7833 7.99954 6.81667 7.91556 6.81667C7.83157 6.81667 7.75102 6.7833 7.69164 6.72392C7.63225 6.66453 7.59889 6.58399 7.59889 6.5V1.5C7.59889 1.41601 7.63225 1.33547 7.69164 1.27608C7.75102 1.2167 7.83157 1.18333 7.91556 1.18333C7.99954 1.18333 8.08009 1.2167 8.13947 1.27608C8.19886 1.33547 8.23222 1.41601 8.23222 1.5V6.5Z" fill="black" stroke="black" stroke-width="0.2"/>
</svg>
