<svg width="10" height="8" viewBox="0 0 10 8" fill="none" xmlns="http://www.w3.org/2000/svg">
<mask id="path-1-outside-1" maskUnits="userSpaceOnUse" x="-0.166016" y="-0.758545" width="10" height="9" fill="black">
<rect fill="white" x="-0.166016" y="-0.758545" width="10" height="9"/>
<path d="M8.45065 0.429069C8.24311 0.306252 8.00639 0.241455 7.76523 0.241455C7.52408 0.241455 7.28735 0.306252 7.07982 0.429069L3.33398 2.68324V1.4999C3.33398 1.16838 3.20229 0.85044 2.96787 0.616019C2.73345 0.381599 2.41551 0.249903 2.08398 0.249903C1.75246 0.249903 1.43452 0.381599 1.2001 0.616019C0.96568 0.85044 0.833984 1.16838 0.833984 1.4999V6.4999C0.833984 6.83142 0.96568 7.14937 1.2001 7.38379C1.43452 7.61821 1.75246 7.7499 2.08398 7.7499C2.41551 7.7499 2.73345 7.61821 2.96787 7.38379C3.20229 7.14937 3.33398 6.83142 3.33398 6.4999V5.31657L7.08398 7.55407C7.29536 7.68134 7.53725 7.74901 7.78398 7.7499C8.01939 7.74969 8.25065 7.68793 8.45482 7.57074C8.67576 7.44622 8.85897 7.26434 8.98511 7.04433C9.11126 6.82431 9.17565 6.57431 9.17148 6.32074V1.6749C9.17448 1.42161 9.1091 1.1722 8.98224 0.952944C8.85539 0.733689 8.67174 0.552709 8.45065 0.429069V0.429069ZM2.50065 6.4999C2.50065 6.61041 2.45675 6.71639 2.37861 6.79453C2.30047 6.87267 2.19449 6.91657 2.08398 6.91657C1.97348 6.91657 1.8675 6.87267 1.78936 6.79453C1.71122 6.71639 1.66732 6.61041 1.66732 6.4999V1.4999C1.66732 1.3894 1.71122 1.28342 1.78936 1.20528C1.8675 1.12713 1.97348 1.08324 2.08398 1.08324C2.19449 1.08324 2.30047 1.12713 2.37861 1.20528C2.45675 1.28342 2.50065 1.3894 2.50065 1.4999V6.4999ZM8.33398 6.3249C8.33637 6.43035 8.31012 6.53448 8.25802 6.62619C8.20593 6.7179 8.12994 6.79378 8.03815 6.84574C7.95782 6.89468 7.86556 6.92058 7.77148 6.92058C7.67741 6.92058 7.58515 6.89468 7.50482 6.84574L3.61732 4.5124C3.53035 4.45811 3.45863 4.38258 3.4089 4.29292C3.35918 4.20326 3.33309 4.10243 3.33309 3.9999C3.33309 3.89738 3.35918 3.79654 3.4089 3.70688C3.45863 3.61723 3.53035 3.54169 3.61732 3.4874L7.50065 1.1624C7.58414 1.10967 7.68108 1.08218 7.77982 1.08324C7.87053 1.08467 7.9594 1.10904 8.03815 1.15407C8.12994 1.20603 8.20593 1.2819 8.25802 1.37362C8.31012 1.46533 8.33637 1.56945 8.33398 1.6749V6.3249Z"/>
</mask>
<path d="M8.45065 0.429069C8.24311 0.306252 8.00639 0.241455 7.76523 0.241455C7.52408 0.241455 7.28735 0.306252 7.07982 0.429069L3.33398 2.68324V1.4999C3.33398 1.16838 3.20229 0.85044 2.96787 0.616019C2.73345 0.381599 2.41551 0.249903 2.08398 0.249903C1.75246 0.249903 1.43452 0.381599 1.2001 0.616019C0.96568 0.85044 0.833984 1.16838 0.833984 1.4999V6.4999C0.833984 6.83142 0.96568 7.14937 1.2001 7.38379C1.43452 7.61821 1.75246 7.7499 2.08398 7.7499C2.41551 7.7499 2.73345 7.61821 2.96787 7.38379C3.20229 7.14937 3.33398 6.83142 3.33398 6.4999V5.31657L7.08398 7.55407C7.29536 7.68134 7.53725 7.74901 7.78398 7.7499C8.01939 7.74969 8.25065 7.68793 8.45482 7.57074C8.67576 7.44622 8.85897 7.26434 8.98511 7.04433C9.11126 6.82431 9.17565 6.57431 9.17148 6.32074V1.6749C9.17448 1.42161 9.1091 1.1722 8.98224 0.952944C8.85539 0.733689 8.67174 0.552709 8.45065 0.429069V0.429069ZM2.50065 6.4999C2.50065 6.61041 2.45675 6.71639 2.37861 6.79453C2.30047 6.87267 2.19449 6.91657 2.08398 6.91657C1.97348 6.91657 1.8675 6.87267 1.78936 6.79453C1.71122 6.71639 1.66732 6.61041 1.66732 6.4999V1.4999C1.66732 1.3894 1.71122 1.28342 1.78936 1.20528C1.8675 1.12713 1.97348 1.08324 2.08398 1.08324C2.19449 1.08324 2.30047 1.12713 2.37861 1.20528C2.45675 1.28342 2.50065 1.3894 2.50065 1.4999V6.4999ZM8.33398 6.3249C8.33637 6.43035 8.31012 6.53448 8.25802 6.62619C8.20593 6.7179 8.12994 6.79378 8.03815 6.84574C7.95782 6.89468 7.86556 6.92058 7.77148 6.92058C7.67741 6.92058 7.58515 6.89468 7.50482 6.84574L3.61732 4.5124C3.53035 4.45811 3.45863 4.38258 3.4089 4.29292C3.35918 4.20326 3.33309 4.10243 3.33309 3.9999C3.33309 3.89738 3.35918 3.79654 3.4089 3.70688C3.45863 3.61723 3.53035 3.54169 3.61732 3.4874L7.50065 1.1624C7.58414 1.10967 7.68108 1.08218 7.77982 1.08324C7.87053 1.08467 7.9594 1.10904 8.03815 1.15407C8.12994 1.20603 8.20593 1.2819 8.25802 1.37362C8.31012 1.46533 8.33637 1.56945 8.33398 1.6749V6.3249Z" fill="black"/>
<path d="M7.07982 0.429069L6.97796 0.256946L6.97669 0.257706L7.07982 0.429069ZM3.33398 2.68324H3.13398V3.03701L3.43711 2.8546L3.33398 2.68324ZM2.08398 0.249903V0.0499027V0.249903ZM0.833984 1.4999H0.633984H0.833984ZM0.833984 6.4999H0.633984H0.833984ZM2.08398 7.7499L2.08398 7.9499L2.08398 7.7499ZM3.33398 5.31657L3.43646 5.14482L3.13398 4.96434V5.31657H3.33398ZM7.08398 7.55407L7.18715 7.38273L7.18646 7.38232L7.08398 7.55407ZM7.78398 7.7499L7.78326 7.9499L7.78417 7.9499L7.78398 7.7499ZM8.45482 7.57074L8.35662 7.3965L8.35526 7.39728L8.45482 7.57074ZM9.17148 6.32074L8.97146 6.32074L8.97151 6.32402L9.17148 6.32074ZM9.17148 1.6749L8.97148 1.67254V1.6749H9.17148ZM2.08398 1.08324L2.08398 1.28324L2.08398 1.08324ZM2.50065 1.4999H2.30065H2.50065ZM8.33398 6.3249H8.13393L8.13404 6.32942L8.33398 6.3249ZM8.03815 6.84574L7.93958 6.6716L7.93409 6.67494L8.03815 6.84574ZM7.77148 6.92058L7.77148 6.72058L7.77148 6.92058ZM7.50482 6.84574L7.60889 6.67494L7.60774 6.67425L7.50482 6.84574ZM3.61732 4.5124L3.51139 4.68208L3.51439 4.68389L3.61732 4.5124ZM3.61732 3.4874L3.51456 3.31578L3.51141 3.31775L3.61732 3.4874ZM7.50065 1.1624L7.60342 1.33405L7.60746 1.3315L7.50065 1.1624ZM7.77982 1.08324L7.78297 0.883258L7.78196 0.883248L7.77982 1.08324ZM8.03815 1.15407L7.93887 1.32769L7.93963 1.32812L8.03815 1.15407ZM8.33398 1.6749L8.13398 1.67038V1.6749H8.33398ZM8.55251 0.25695C8.31413 0.115881 8.04223 0.0414551 7.76523 0.0414551V0.441455C7.97055 0.441455 8.1721 0.496623 8.34879 0.601189L8.55251 0.25695ZM7.76523 0.0414551C7.48824 0.0414551 7.21634 0.115881 6.97796 0.25695L7.18168 0.601189C7.35837 0.496623 7.55992 0.441455 7.76523 0.441455V0.0414551ZM6.97669 0.257706L3.23086 2.51187L3.43711 2.8546L7.18294 0.600433L6.97669 0.257706ZM3.53398 2.68324V1.4999H3.13398V2.68324H3.53398ZM3.53398 1.4999C3.53398 1.11534 3.38122 0.746526 3.10929 0.474598L2.82645 0.757441C3.02336 0.954354 3.13398 1.22143 3.13398 1.4999H3.53398ZM3.10929 0.474598C2.83736 0.20267 2.46855 0.0499027 2.08398 0.0499027V0.449903C2.36246 0.449903 2.62953 0.560527 2.82645 0.757441L3.10929 0.474598ZM2.08398 0.0499027C1.69942 0.0499027 1.33061 0.20267 1.05868 0.474598L1.34152 0.757441C1.53844 0.560527 1.80551 0.449903 2.08398 0.449903V0.0499027ZM1.05868 0.474598C0.786752 0.746526 0.633984 1.11534 0.633984 1.4999L1.03398 1.4999C1.03398 1.22143 1.14461 0.954354 1.34152 0.757441L1.05868 0.474598ZM0.633984 1.4999V6.4999H1.03398V1.4999H0.633984ZM0.633984 6.4999C0.633984 6.88447 0.786752 7.25328 1.05868 7.52521L1.34152 7.24237C1.14461 7.04545 1.03398 6.77838 1.03398 6.4999H0.633984ZM1.05868 7.52521C1.33061 7.79714 1.69942 7.9499 2.08398 7.9499L2.08398 7.5499C1.80551 7.5499 1.53844 7.43928 1.34152 7.24237L1.05868 7.52521ZM2.08398 7.9499C2.46855 7.9499 2.83736 7.79714 3.10929 7.52521L2.82645 7.24237C2.62953 7.43928 2.36246 7.5499 2.08398 7.5499L2.08398 7.9499ZM3.10929 7.52521C3.38122 7.25328 3.53398 6.88447 3.53398 6.4999H3.13398C3.13398 6.77838 3.02336 7.04545 2.82645 7.24237L3.10929 7.52521ZM3.53398 6.4999V5.31657H3.13398V6.4999H3.53398ZM3.23151 5.48832L6.98151 7.72582L7.18646 7.38232L3.43646 5.14482L3.23151 5.48832ZM6.98082 7.72541C7.22313 7.8713 7.50042 7.94888 7.78326 7.9499L7.78471 7.5499C7.57408 7.54914 7.36759 7.49137 7.18715 7.38273L6.98082 7.72541ZM7.78417 7.9499C8.05445 7.94966 8.31997 7.87874 8.55438 7.74419L8.35526 7.39728C8.18134 7.49711 7.98434 7.54972 7.7838 7.5499L7.78417 7.9499ZM8.55302 7.74497C8.80533 7.60277 9.01456 7.39507 9.15862 7.14381L8.81161 6.94485C8.70338 7.13362 8.54618 7.28967 8.35662 7.3965L8.55302 7.74497ZM9.15862 7.14381C9.30268 6.89254 9.37621 6.60704 9.37146 6.31745L8.97151 6.32402C8.97508 6.54159 8.91984 6.75608 8.81161 6.94485L9.15862 7.14381ZM9.37148 6.32074V1.6749H8.97148V6.32074H9.37148ZM9.37147 1.67727C9.37489 1.38801 9.30023 1.10317 9.15536 0.852783L8.80913 1.05311C8.91798 1.24122 8.97407 1.45522 8.9715 1.67254L9.37147 1.67727ZM9.15536 0.852783C9.01048 0.602391 8.80075 0.395709 8.54827 0.254511L8.35303 0.603627C8.54272 0.709709 8.70029 0.864988 8.80913 1.05311L9.15536 0.852783ZM2.30065 6.4999C2.30065 6.55737 2.27782 6.61248 2.23719 6.65311L2.52003 6.93595C2.63568 6.8203 2.70065 6.66345 2.70065 6.4999H2.30065ZM2.23719 6.65311C2.19656 6.69374 2.14145 6.71657 2.08398 6.71657V7.11657C2.24753 7.11657 2.40439 7.0516 2.52003 6.93595L2.23719 6.65311ZM2.08398 6.71657C2.02652 6.71657 1.97141 6.69374 1.93078 6.65311L1.64794 6.93595C1.76358 7.0516 1.92043 7.11657 2.08398 7.11657V6.71657ZM1.93078 6.65311C1.89015 6.61248 1.86732 6.55737 1.86732 6.4999H1.46732C1.46732 6.66345 1.53229 6.8203 1.64794 6.93595L1.93078 6.65311ZM1.86732 6.4999V1.4999H1.46732V6.4999H1.86732ZM1.86732 1.4999C1.86732 1.44244 1.89015 1.38733 1.93078 1.3467L1.64794 1.06385C1.53229 1.1795 1.46732 1.33635 1.46732 1.4999H1.86732ZM1.93078 1.3467C1.97141 1.30606 2.02652 1.28324 2.08398 1.28324L2.08398 0.883236C1.92043 0.883236 1.76358 0.948206 1.64794 1.06385L1.93078 1.3467ZM2.08398 1.28324C2.14145 1.28324 2.19656 1.30606 2.23719 1.3467L2.52003 1.06385C2.40439 0.948206 2.24753 0.883236 2.08398 0.883236L2.08398 1.28324ZM2.23719 1.3467C2.27782 1.38733 2.30065 1.44244 2.30065 1.4999L2.70065 1.4999C2.70065 1.33635 2.63568 1.1795 2.52003 1.06385L2.23719 1.3467ZM2.30065 1.4999V6.4999H2.70065V1.4999H2.30065ZM8.13404 6.32942C8.1356 6.39872 8.11835 6.46714 8.08412 6.52741L8.43193 6.72497C8.50188 6.60181 8.53714 6.46199 8.53393 6.32038L8.13404 6.32942ZM8.08412 6.52741C8.04988 6.58768 7.99995 6.63754 7.93963 6.67169L8.13667 7.01979C8.25994 6.95001 8.36197 6.84813 8.43193 6.72497L8.08412 6.52741ZM7.93409 6.67494C7.8851 6.70479 7.82885 6.72058 7.77148 6.72058L7.77148 7.12058C7.90227 7.12058 8.03053 7.08458 8.14222 7.01653L7.93409 6.67494ZM7.77148 6.72058C7.71412 6.72058 7.65787 6.70479 7.60888 6.67494L7.40075 7.01653C7.51244 7.08458 7.6407 7.12058 7.77148 7.12058L7.77148 6.72058ZM7.60774 6.67425L3.72024 4.34092L3.51439 4.68389L7.40189 7.01722L7.60774 6.67425ZM3.72323 4.34275C3.66505 4.30643 3.61707 4.2559 3.58381 4.19592L3.234 4.38992C3.30018 4.50926 3.39565 4.60979 3.51141 4.68206L3.72323 4.34275ZM3.58381 4.19592C3.55054 4.13594 3.53309 4.06849 3.53309 3.9999H3.13309C3.13309 4.13637 3.16782 4.27058 3.234 4.38992L3.58381 4.19592ZM3.53309 3.9999C3.53309 3.93132 3.55054 3.86386 3.58381 3.80388L3.234 3.60988C3.16782 3.72922 3.13309 3.86344 3.13309 3.9999H3.53309ZM3.58381 3.80388C3.61707 3.7439 3.66505 3.69338 3.72323 3.65706L3.51141 3.31775C3.39565 3.39001 3.30018 3.49055 3.234 3.60988L3.58381 3.80388ZM3.72005 3.659L7.60339 1.334L7.39791 0.990807L3.51458 3.31581L3.72005 3.659ZM7.60746 1.3315C7.65836 1.29934 7.71747 1.28258 7.77768 1.28322L7.78196 0.883248C7.64469 0.881779 7.50991 0.919999 7.39385 0.993309L7.60746 1.3315ZM7.77666 1.28321C7.83362 1.28411 7.88942 1.29941 7.93887 1.32769L8.13743 0.980451C8.02937 0.91866 7.90744 0.885226 7.78297 0.883261L7.77666 1.28321ZM7.93963 1.32812C7.99995 1.36226 8.04988 1.41212 8.08412 1.47239L8.43193 1.27484C8.36197 1.15168 8.25994 1.04979 8.13667 0.980019L7.93963 1.32812ZM8.08412 1.47239C8.11835 1.53266 8.1356 1.60109 8.13404 1.67038L8.53393 1.67942C8.53714 1.53782 8.50188 1.398 8.43193 1.27484L8.08412 1.47239ZM8.13398 1.6749V6.3249H8.53398V1.6749H8.13398Z" fill="black" mask="url(#path-1-outside-1)"/>
</svg>
