<svg width="11" height="11" viewBox="0 0 11 11" fill="none" xmlns="http://www.w3.org/2000/svg">
<path d="M7.50879 5.88455C8.03983 5.46674 8.42745 4.8938 8.61771 4.24543C8.80797 3.59707 8.79141 2.90553 8.57034 2.26701C8.34927 1.6285 7.93468 1.07476 7.38424 0.682846C6.83381 0.29093 6.17491 0.0803223 5.49921 0.0803223C4.8235 0.0803223 4.1646 0.29093 3.61417 0.682846C3.06373 1.07476 2.64914 1.6285 2.42807 2.26701C2.207 2.90553 2.19044 3.59707 2.3807 4.24543C2.57096 4.8938 2.95858 5.46674 3.48962 5.88455C2.57966 6.24911 1.78569 6.85378 1.19235 7.63409C0.599016 8.41439 0.228551 9.34109 0.120455 10.3154C0.11263 10.3865 0.118893 10.4585 0.138885 10.5272C0.158878 10.5959 0.192208 10.66 0.236973 10.7158C0.327382 10.8286 0.458879 10.9008 0.602538 10.9166C0.746197 10.9324 0.89025 10.8905 1.00301 10.8001C1.11576 10.7097 1.18799 10.5782 1.20379 10.4345C1.32273 9.37569 1.82762 8.39778 2.62199 7.68764C3.41636 6.97751 4.44453 6.58494 5.51004 6.58494C6.57555 6.58494 7.60371 6.97751 8.39809 7.68764C9.19246 8.39778 9.69735 9.37569 9.81629 10.4345C9.83102 10.5676 9.89452 10.6906 9.99455 10.7796C10.0946 10.8686 10.224 10.9174 10.358 10.9166H10.4175C10.5595 10.9003 10.6893 10.8285 10.7786 10.7169C10.8679 10.6053 10.9094 10.4629 10.8942 10.3208C10.7856 9.34374 10.4131 8.41467 9.81675 7.63316C9.22036 6.85165 8.42253 6.24718 7.50879 5.88455V5.88455ZM5.49921 5.49997C5.07068 5.49997 4.65178 5.37289 4.29547 5.13482C3.93916 4.89674 3.66146 4.55835 3.49747 4.16245C3.33348 3.76654 3.29057 3.3309 3.37417 2.9106C3.45777 2.49031 3.66413 2.10425 3.96714 1.80123C4.27015 1.49822 4.65622 1.29187 5.07651 1.20826C5.4968 1.12466 5.93245 1.16757 6.32835 1.33156C6.72426 1.49555 7.06265 1.77326 7.30072 2.12956C7.5388 2.48587 7.66587 2.90477 7.66587 3.3333C7.66587 3.90793 7.4376 4.45903 7.03127 4.86536C6.62494 5.27169 6.07384 5.49997 5.49921 5.49997Z" fill="black"/>
</svg>
