<svg width="51" height="30" viewBox="0 0 51 30" fill="none" xmlns="http://www.w3.org/2000/svg">
<path d="M0.514029 15.2505L1.68101 0.420842H13.0174V5.2505H4.97358L4.47344 11.523C5.4274 10.7882 6.44157 10.4208 7.51594 10.4208C9.44239 10.4208 10.9521 11.2826 12.0449 13.006C13.1378 14.7295 13.6843 17.1409 13.6843 20.2405C13.6843 22.1242 13.4064 23.8143 12.8507 25.3106C12.3043 26.7936 11.517 27.9492 10.489 28.7776C9.46091 29.5925 8.24762 30 6.84909 30C5.62653 30 4.49196 29.646 3.44538 28.9379C2.3988 28.2164 1.56987 27.2077 0.958594 25.9118C0.356579 24.6159 0.0370471 23.1396 0 21.483H3.9733C4.05666 22.6987 4.34841 23.6473 4.84854 24.3287C5.35794 24.9967 6.02016 25.3307 6.83519 25.3307C7.74285 25.3307 8.44211 24.8631 8.93299 23.9279C9.42386 22.9793 9.6693 21.6433 9.6693 19.9198C9.6693 18.2632 9.38682 16.994 8.82185 16.1122C8.25688 15.2305 7.45573 14.7896 6.41841 14.7896C5.46445 14.7896 4.69109 15.1503 4.09834 15.8717L3.70934 16.3928L0.514029 15.2505Z" fill="white"/>
<path d="M20.3389 12.4449H22.4783C23.4971 12.4449 24.252 12.0775 24.7428 11.3427C25.2337 10.6079 25.4792 9.6326 25.4792 8.41683C25.4792 7.24115 25.2337 6.32599 24.7428 5.67134C24.2612 5.0167 23.5944 4.68938 22.7423 4.68938C21.9736 4.68938 21.3299 4.99666 20.8112 5.61122C20.2926 6.21243 20.0332 7.00067 20.0332 7.97595H16.0183C16.0183 6.45291 16.3007 5.09018 16.8657 3.88778C17.4399 2.67201 18.2364 1.72345 19.2552 1.04208C20.2833 0.360721 21.4132 0.0200401 22.6451 0.0200401C24.7845 0.0200401 26.4609 0.761523 27.6742 2.24449C28.8875 3.71409 29.4941 5.74482 29.4941 8.33667C29.4941 9.67268 29.2117 10.9018 28.6467 12.024C28.0817 13.1463 27.3408 14.008 26.4239 14.6092C27.5631 15.1971 28.4105 16.0788 28.9662 17.2545C29.5312 18.4302 29.8137 19.8196 29.8137 21.4228C29.8137 24.0147 29.1561 26.0922 27.8409 27.6553C26.535 29.2184 24.8031 30 22.6451 30C20.626 30 18.9728 29.2318 17.6854 27.6954C16.4072 26.159 15.7682 24.1283 15.7682 21.6032H19.7832C19.7832 22.6987 20.0656 23.5939 20.6306 24.2886C21.2048 24.9833 21.9087 25.3307 22.7423 25.3307C23.6963 25.3307 24.4418 24.9699 24.979 24.2485C25.5255 23.5137 25.7987 22.5451 25.7987 21.3427C25.7987 18.4302 24.6873 16.9739 22.4645 16.9739H20.3389V12.4449Z" fill="white"/>
<path d="M32.5366 6.03206C32.5366 4.24182 32.9395 2.79225 33.7453 1.68337C34.5511 0.561122 35.6069 0 36.9128 0C38.2373 0 39.3024 0.554442 40.1081 1.66333C40.9139 2.75885 41.3168 4.2485 41.3168 6.13226V7.57515C41.3168 9.37876 40.9139 10.8283 40.1081 11.9238C39.3024 13.0194 38.2465 13.5671 36.9406 13.5671C35.6254 13.5671 34.5603 13.0194 33.7453 11.9238C32.9395 10.815 32.5366 9.32532 32.5366 7.45491V6.03206ZM35.204 7.57515C35.204 8.37675 35.3615 9.02472 35.6764 9.51904C36.0005 10 36.422 10.2405 36.9406 10.2405C37.4593 10.2405 37.8714 9.99332 38.1771 9.499C38.4827 9.00468 38.6355 8.34335 38.6355 7.51503V6.03206C38.6355 5.23046 38.4827 4.5825 38.1771 4.08818C37.8714 3.59385 37.45 3.34669 36.9128 3.34669C36.4034 3.34669 35.9913 3.59385 35.6764 4.08818C35.3615 4.56914 35.204 5.24382 35.204 6.11222V7.57515ZM42.2059 22.4449C42.2059 20.6413 42.6135 19.1917 43.4285 18.0962C44.2435 16.9873 45.2994 16.4329 46.596 16.4329C47.9112 16.4329 48.9717 16.9806 49.7774 18.0762C50.5925 19.1583 51 20.6546 51 22.5651V24.008C51 25.7983 50.6017 27.2478 49.8052 28.3567C49.0087 29.4522 47.9482 30 46.6238 30C45.2901 30 44.2204 29.4456 43.4146 28.3367C42.6088 27.2278 42.2059 25.7582 42.2059 23.9279V22.4449ZM44.8733 24.008C44.8733 24.7428 45.04 25.3707 45.3735 25.8918C45.7069 26.4128 46.1237 26.6733 46.6238 26.6733C47.7537 26.6733 48.3187 25.7715 48.3187 23.9679V22.4449C48.3187 21.6433 48.1613 21.002 47.8464 20.521C47.5315 20.0267 47.1147 19.7796 46.596 19.7796C46.0774 19.7796 45.6606 20.0267 45.3457 20.521C45.0308 21.002 44.8733 21.6633 44.8733 22.505V24.008ZM37.7325 27.4148L35.7736 25.8918L45.6513 3.08617L47.6102 4.60922L37.7325 27.4148Z" fill="white"/>
</svg>
