<svg width="24" height="30" viewBox="0 0 24 30" fill="none" xmlns="http://www.w3.org/2000/svg">
<path fill-rule="evenodd" clip-rule="evenodd" d="M0 27C0 28.6569 1.34315 30 3 30L21 30C22.6569 30 24 28.6569 24 27L24 3.69802C24 2.59345 23.1046 1.69802 22 1.69802H16.5899C16.4443 0.73674 15.6145 7.62939e-06 14.6126 7.62939e-06H9.38179C8.37988 7.62939e-06 7.55003 0.73674 7.40444 1.69802H2C0.895431 1.69802 0 2.59345 0 3.69802L0 27ZM3.12636 14.6341L20.8655 14.6341V6.43256C20.8655 5.32799 19.9701 4.43256 18.8655 4.43256L14.8716 4.43256C14.627 3.60438 13.8607 3.00001 12.9532 3.00001H11.0402C10.1327 3.00001 9.36641 3.60438 9.12181 4.43256H5.12636C4.02179 4.43256 3.12636 5.32799 3.12636 6.43256L3.12636 14.6341Z" fill="white"/>
</svg>
