<svg width="53" height="26" viewBox="0 0 53 26" fill="none" xmlns="http://www.w3.org/2000/svg">
<path fill-rule="evenodd" clip-rule="evenodd" d="M5 0C2.23858 0 0 2.23858 0 5V21C0 23.7614 2.23858 26 5 26H45C47.7614 26 50 23.7614 50 21V18H52C52.5523 18 53 17.5523 53 17V9C53 8.44771 52.5523 8 52 8H50V5C50 2.23858 47.7614 0 45 0H5ZM6 2C3.23858 2 1 4.23858 1 7V19C1 21.7614 3.23858 24 6 24H43.1348C45.8962 24 48.1348 21.7614 48.1348 19V16.6666H50C50.5523 16.6666 51 16.2189 51 15.6666V10.3333C51 9.78097 50.5523 9.33325 50 9.33325H48.1348V7C48.1348 4.23858 45.8962 2 43.1348 2H6ZM7 3C4.23858 3 2 5.23858 2 8V18C2 20.7614 4.23858 23 7 23H39V3H7Z" fill="black"/>
</svg>
