<svg width="30" height="30" viewBox="0 0 30 30" fill="none" xmlns="http://www.w3.org/2000/svg">
<path d="M3.71577 19.2534H2.22226C0.995005 19.2534 0 20.3857 0 21.7824V27.4682C0 28.8663 0.995005 29.9977 2.22226 29.9977H3.71577C4.94302 29.9977 5.93803 28.8663 5.93803 27.4682V21.7824C5.93778 20.3857 4.94277 19.2534 3.71577 19.2534Z" fill="white"/>
<path d="M11.824 12.8368H10.0655C8.83876 12.8368 7.84375 13.9691 7.84375 15.3658V15.7669V27.0688V27.4696C7.84375 28.8675 8.83876 29.9989 10.0655 29.9989H11.824C13.0513 29.9989 14.0463 28.8675 14.0463 27.4696V27.0688V15.7669V15.3658C14.0463 13.9691 13.0513 12.8368 11.824 12.8368Z" fill="white"/>
<path d="M19.8008 6.41772H18.0418C16.8156 6.41772 15.8203 7.55031 15.8203 8.94727V9.7561V26.6615V27.4704C15.8203 28.8685 16.8153 29.9999 18.0418 29.9999H19.8008C21.0281 29.9999 22.0228 28.8685 22.0228 27.4704V26.6615V9.7561V8.94727C22.0228 7.5506 21.0281 6.41772 19.8008 6.41772Z" fill="white"/>
<path d="M27.7774 0H26.0184C24.7919 0 23.7969 1.13259 23.7969 2.52955V9.75618V20.2435V27.4705C23.7969 28.8686 24.7916 30 26.0184 30H27.7774C29.0046 30 29.9989 28.8686 29.9989 27.4705V20.2435V9.75618V2.52955C29.9989 1.13259 29.0046 0 27.7774 0Z" fill="white"/>
</svg>
