<svg width="37" height="30" viewBox="0 0 37 30" fill="none" xmlns="http://www.w3.org/2000/svg">
<path d="M18.4891 30C20.8401 30 22.7459 27.9473 22.7459 25.4153C22.7459 22.8832 20.8401 20.8306 18.4891 20.8306C16.1382 20.8306 14.2324 22.8832 14.2324 25.4153C14.2324 27.9473 16.1382 30 18.4891 30Z" fill="black"/>
<path d="M18.49 0C11.087 0 4.51687 3.6877 0.167619 9.46841C-0.109993 9.86708 -0.0174501 10.3654 0.260162 10.6644L3.68404 14.3521C4.05419 14.7508 4.60941 14.6511 4.88702 14.2525C8.03329 9.76743 12.9378 6.97672 18.49 6.97672C24.0422 6.97672 28.9467 9.8671 32.093 14.2525C32.3706 14.6511 32.9258 14.7508 33.296 14.3521L36.7198 10.6644C36.9974 10.3654 37.09 9.86708 36.8124 9.46841C32.4631 3.6877 25.893 0 18.49 0Z" fill="black"/>
<path d="M18.4884 10.3656C13.6764 10.3656 9.51226 12.957 7.01375 16.844C6.82868 17.2427 6.82867 17.6413 7.10628 17.9403L10.6227 21.7277C10.9929 22.1264 11.6406 22.0267 11.9182 21.5284C13.2137 19.0367 15.6197 17.2427 18.4884 17.2427C21.357 17.2427 23.8555 18.937 25.0585 21.5284C25.3361 22.0267 25.9839 22.1264 26.354 21.7277L29.8705 17.9403C30.1481 17.6413 30.2406 17.143 29.963 16.844C27.4645 12.957 23.3003 10.3656 18.4884 10.3656Z" fill="black"/>
</svg>
