<svg width="20" height="19" viewBox="0 0 20 19" fill="none" xmlns="http://www.w3.org/2000/svg">
<path d="M10.9763 0.613614L13.2028 5.08789C13.3668 5.41205 13.6799 5.63717 14.041 5.68719L19.042 6.41556C19.3341 6.45658 19.5992 6.61066 19.7782 6.84578C19.9552 7.0779 20.0312 7.37205 19.9882 7.6612C19.9532 7.90132 19.8402 8.12343 19.6672 8.29352L16.0434 11.8063C15.7783 12.0514 15.6583 12.4146 15.7223 12.7698L16.6145 17.7083C16.7095 18.3046 16.3144 18.8669 15.7223 18.98C15.4783 19.019 15.2282 18.978 15.0082 18.8659L10.5472 16.5417C10.2161 16.3746 9.82505 16.3746 9.49398 16.5417L5.03303 18.8659C4.48491 19.157 3.80576 18.9589 3.5007 18.4187C3.38767 18.2036 3.34766 17.9584 3.38467 17.7193L4.27686 12.7798C4.34088 12.4256 4.21985 12.0604 3.95579 11.8153L0.332017 8.30452C-0.0990758 7.88831 -0.112079 7.20296 0.30301 6.77175C0.312012 6.76274 0.322015 6.75274 0.332017 6.74273C0.504054 6.56764 0.730102 6.45659 0.974155 6.42757L5.97523 5.6982C6.33531 5.64717 6.64837 5.42406 6.81341 5.09789L8.95987 0.613614C9.15091 0.229419 9.54699 -0.00970288 9.97709 0.000302206H10.1111C10.4842 0.0453251 10.8093 0.276443 10.9763 0.613614Z" fill="#F4BF01"/>
</svg>
