<svg width="21" height="20" viewBox="0 0 21 20" fill="none" xmlns="http://www.w3.org/2000/svg">
<path d="M13.2899 15.29L11.9999 16.59V11C11.9999 10.7348 11.8945 10.4804 11.707 10.2929C11.5195 10.1054 11.2651 10 10.9999 10C10.7347 10 10.4803 10.1054 10.2928 10.2929C10.1052 10.4804 9.99989 10.7348 9.99989 11V16.59L8.70989 15.29C8.61665 15.1968 8.50596 15.1228 8.38414 15.0723C8.26232 15.0219 8.13175 14.9959 7.99989 14.9959C7.86803 14.9959 7.73746 15.0219 7.61564 15.0723C7.49382 15.1228 7.38313 15.1968 7.28989 15.29C7.19665 15.3832 7.12269 15.4939 7.07223 15.6158C7.02177 15.7376 6.9958 15.8681 6.9958 16C6.9958 16.1319 7.02177 16.2624 7.07223 16.3843C7.12269 16.5061 7.19665 16.6168 7.28989 16.71L10.2899 19.71C10.385 19.801 10.4971 19.8724 10.6199 19.92C10.7396 19.9729 10.869 20.0002 10.9999 20.0002C11.1308 20.0002 11.2602 19.9729 11.3799 19.92C11.5026 19.8724 11.6148 19.801 11.7099 19.71L14.7099 16.71C14.8982 16.5217 15.004 16.2663 15.004 16C15.004 15.7337 14.8982 15.4783 14.7099 15.29C14.5216 15.1017 14.2662 14.9959 13.9999 14.9959C13.7336 14.9959 13.4782 15.1017 13.2899 15.29V15.29ZM17.4199 4.22C16.8089 2.81601 15.7544 1.65108 14.418 0.903728C13.0815 0.156378 11.5369 -0.132166 10.0209 0.0823111C8.50477 0.296788 7.10082 1.00245 6.02415 2.09118C4.94747 3.1799 4.25748 4.59162 4.05989 6.11C3.10648 6.33832 2.27011 6.90883 1.70963 7.71319C1.14914 8.51755 0.903574 9.49973 1.01955 10.4732C1.13553 11.4467 1.60498 12.3437 2.33876 12.9939C3.07253 13.644 4.01952 14.0021 4.99989 14C5.26511 14 5.51946 13.8946 5.707 13.7071C5.89453 13.5196 5.99989 13.2652 5.99989 13C5.99989 12.7348 5.89453 12.4804 5.707 12.2929C5.51946 12.1054 5.26511 12 4.99989 12C4.46946 12 3.96075 11.7893 3.58568 11.4142C3.2106 11.0391 2.99989 10.5304 2.99989 10C2.99989 9.46957 3.2106 8.96086 3.58568 8.58579C3.96075 8.21072 4.46946 8 4.99989 8C5.26511 8 5.51946 7.89464 5.707 7.70711C5.89453 7.51957 5.99989 7.26522 5.99989 7C6.00244 5.81728 6.42418 4.67375 7.19016 3.77259C7.95614 2.87142 9.01678 2.27095 10.1836 2.07788C11.3505 1.8848 12.548 2.11161 13.5635 2.71801C14.5789 3.32441 15.3465 4.27114 15.7299 5.39C15.7871 5.56184 15.8898 5.71493 16.0272 5.83293C16.1646 5.95094 16.3314 6.02942 16.5099 6.06C17.176 6.18587 17.7798 6.5336 18.2229 7.04654C18.6661 7.55947 18.9225 8.20736 18.9503 8.88464C18.9781 9.56192 18.7758 10.2287 18.3762 10.7762C17.9766 11.3238 17.4034 11.7199 16.7499 11.9C16.6225 11.9328 16.5028 11.9904 16.3977 12.0695C16.2926 12.1486 16.2041 12.2476 16.1372 12.3609C16.0704 12.4742 16.0265 12.5995 16.0081 12.7298C15.9896 12.86 15.9971 12.9926 16.0299 13.12C16.0627 13.2474 16.1203 13.3671 16.1994 13.4722C16.2785 13.5773 16.3775 13.6658 16.4908 13.7327C16.6041 13.7995 16.7294 13.8434 16.8597 13.8618C16.9899 13.8803 17.1225 13.8728 17.2499 13.84C18.3023 13.5619 19.2352 12.948 19.9069 12.0915C20.5786 11.2349 20.9525 10.1826 20.9717 9.09427C20.991 8.00593 20.6545 6.94104 20.0135 6.06132C19.3724 5.1816 18.4618 4.5351 17.4199 4.22V4.22Z" fill="#3775F6"/>
</svg>
