<svg width="85" height="84" viewBox="0 0 85 84" fill="none" xmlns="http://www.w3.org/2000/svg">
<path d="M42.5 0.777588C19.0652 0.777588 0 19.6185 0 42.7776C0 47.9326 0.935 52.9685 2.77844 57.7448C3.01783 58.365 3.61549 58.7463 4.2495 58.7463C4.43594 58.7463 4.62569 58.7133 4.81014 58.6437C5.62212 58.3376 6.02952 57.4387 5.71974 56.6359C4.01343 52.215 3.14799 47.5525 3.14799 42.7776C3.14815 21.334 20.8011 3.8887 42.5 3.8887C64.1989 3.8887 81.8518 21.334 81.8518 42.7776C81.8518 43.6366 82.5566 44.3331 83.4258 44.3331C84.2951 44.3331 85 43.6366 85 42.7776C85 19.6185 65.9348 0.777588 42.5 0.777588Z" fill="#FF4343"/>
<path d="M42.522 8.55542C33.0744 8.55542 23.287 13.0729 16.3577 20.6394C10.2204 27.3409 7.12802 35.4666 7.88356 42.9326L8.05837 44.6795C9.28805 56.7809 9.28655 56.7809 6.97778 61.2954C6.81707 61.61 6.64541 61.9448 6.46329 62.3041C6.07482 63.0727 6.38958 64.0071 7.16687 64.3913C7.39281 64.503 7.63271 64.5557 7.86945 64.5557C8.44668 64.5557 9.00267 64.2405 9.27859 63.6955C9.45805 63.3405 9.62722 63.0096 9.78626 62.6987C12.5097 57.3739 12.4852 57.1301 11.1881 44.3688L11.011 42.6227C10.3439 36.0298 13.1391 28.7779 18.6807 22.727C25.0227 15.8011 33.9492 11.6664 42.522 11.6664C59.8815 11.6664 74.0258 25.6227 74.0258 42.7775V50.5553C74.0258 51.4143 74.7306 52.1107 75.6 52.1107C76.4694 52.1107 77.1742 51.4143 77.1742 50.5553V42.7777C77.174 23.9074 61.6168 8.55542 42.522 8.55542Z" fill="#FF4343"/>
<path d="M52.3515 18.1835C49.2161 16.9557 45.9011 16.3333 42.4993 16.3333C35.3249 16.3333 28.6066 19.0487 23.5816 23.9792C18.525 28.9413 15.7401 35.6173 15.7401 42.7777C15.7401 46.7501 16.1104 50.2145 16.4375 53.2708C17.2813 61.164 17.7463 65.5121 11.7187 69.4834C10.9955 69.96 10.7998 70.9259 11.2822 71.6405C11.5853 72.0902 12.0846 72.3332 12.5934 72.3332C12.8932 72.3332 13.1967 72.2489 13.465 72.072C21.0771 67.0571 20.4111 60.8288 19.568 52.9443C19.2495 49.9638 18.8882 46.5861 18.8882 42.7777C18.8882 29.6937 29.2595 19.4444 42.4993 19.4444C45.5025 19.4444 48.427 19.9932 51.1917 21.0758C51.999 21.3918 52.9144 21.0013 53.235 20.2027C53.5551 19.4042 53.1596 18.4999 52.3515 18.1835Z" fill="#FF4343"/>
<path d="M69.2594 42.7176C69.2398 34.2277 65.0567 26.2108 58.0606 21.2612C57.3539 20.7615 56.3706 20.9217 55.8644 21.6208C55.3587 22.3192 55.5213 23.2911 56.2283 23.7912C62.4165 28.1692 66.1112 35.2669 66.1112 42.7777C66.1112 42.8175 66.1127 42.8574 66.1159 42.8969C66.1313 43.0966 67.6331 63.0148 64.584 75.0673C64.3735 75.9006 64.886 76.7452 65.7297 76.9537C65.8577 76.9852 65.9861 77.0004 66.1124 77.0004C66.8176 77.0004 67.4594 76.5288 67.6384 75.8216C70.7578 63.4909 69.3693 44.1682 69.2594 42.7176Z" fill="#FF4343"/>
<path d="M60.2492 36.3753C57.5392 29.0396 50.4063 24.1108 42.5005 24.1108C32.0854 24.1108 23.6116 32.4844 23.6116 42.7775C23.6116 42.842 23.6157 42.9067 23.6239 42.9705C23.6393 43.0927 25.1542 55.3303 23.6274 65.891C23.5043 66.7413 24.1023 67.5293 24.9633 67.6509C25.0387 67.6616 25.1135 67.6668 25.1877 67.6668C25.9582 67.6668 26.6319 67.1067 26.7441 66.3308C28.2728 55.7557 26.9178 43.9796 26.7602 42.6848C26.8106 34.1502 33.8524 27.222 42.5005 27.222C49.0893 27.222 55.0335 31.3293 57.2917 37.4424C57.5898 38.2494 58.4946 38.6637 59.3104 38.3702C60.1271 38.0757 60.5471 37.1824 60.2492 36.3753Z" fill="#FF4343"/>
<path d="M42.5222 31.8887C36.4465 31.8887 31.493 36.7733 31.493 42.7775C31.493 42.8382 31.4906 42.8991 31.4979 42.959C31.5287 43.2177 34.4801 68.9345 27.0555 79.2066C26.5502 79.9058 26.7127 80.8772 27.4203 81.3766C27.6977 81.5725 28.0166 81.6664 28.3333 81.6664C28.8241 81.6664 29.3079 81.44 29.615 81.0151C37.5822 69.9922 34.8664 44.7405 34.6305 42.692C34.677 38.4423 38.2118 34.9996 42.5227 34.9996C46.8625 34.9996 50.4149 38.4886 50.4149 42.7773V53.6662C50.4149 54.5252 51.1197 55.2218 51.9891 55.2218C52.8585 55.2218 53.5632 54.5254 53.5632 53.6662V42.7773C53.5631 36.7733 48.5979 31.8887 42.5222 31.8887Z" fill="#FF4343"/>
<path d="M75.7029 54.3273C74.8463 54.2525 74.0731 54.8853 73.9978 55.7412L73.0374 66.5887C72.9613 67.4447 73.602 68.1989 74.4681 68.2737C74.5146 68.2778 74.5611 68.2798 74.6072 68.2798C75.4142 68.2798 76.1017 67.6695 76.1732 66.8599L77.1336 56.0124C77.2099 55.1563 76.5692 54.4021 75.7029 54.3273Z" fill="#FF4343"/>
<path d="M24.4841 71.039C23.7613 70.5624 22.7836 70.7557 22.3014 71.4705L19.1532 76.1371C18.6709 76.8519 18.8665 77.8176 19.5897 78.2942C19.858 78.471 20.1611 78.5554 20.4613 78.5554C20.9701 78.5554 21.4693 78.3122 21.7724 77.8627L24.9206 73.1961C25.403 72.4815 25.2075 71.5156 24.4841 71.039Z" fill="#FF4343"/>
<path d="M61.3536 42.4517C61.1718 41.6117 60.3344 41.0765 59.4847 41.2565C58.6347 41.4365 58.0932 42.2634 58.2753 43.1034C58.3215 43.316 62.7946 64.5199 55.2581 79.4151C54.8697 80.1838 55.1848 81.1181 55.9622 81.5024C56.1882 81.6139 56.4284 81.6667 56.6651 81.6667C57.2424 81.6667 57.7983 81.3516 58.0743 80.8066C66.0993 64.9455 61.5511 43.3629 61.3536 42.4517Z" fill="#FF4343"/>
<path d="M44.0275 40.845C43.8162 40.0111 42.9599 39.5056 42.1187 39.713C41.2751 39.9215 40.7625 40.7661 40.973 41.5994C41.0034 41.7198 43.9578 53.7597 39.4327 67.1749C39.1579 67.99 39.6037 68.8707 40.4283 69.1425C40.5931 69.1968 40.7611 69.2228 40.9263 69.2228C41.5851 69.2228 42.1995 68.8106 42.4193 68.1587C47.2314 53.8929 44.1605 41.3709 44.0275 40.845Z" fill="#FF4343"/>
<path d="M39.936 72.4445C39.1298 72.1254 38.2133 72.5128 37.89 73.3111L34.7419 81.0888C34.4191 81.8863 34.8114 82.7918 35.6188 83.1107C35.8105 83.1867 36.0081 83.2225 36.203 83.2225C36.8275 83.2225 37.4185 82.8525 37.6649 82.2442L40.8131 74.4664C41.1358 73.6689 40.7433 72.7636 39.936 72.4445Z" fill="#FF4343"/>
<path d="M51.9467 59.8276C51.9459 59.8276 51.9455 59.8276 51.9452 59.8276C51.0771 59.8276 50.3727 60.5538 50.371 61.4117C50.371 61.5024 50.3026 70.6006 45.7761 81.0385C45.4337 81.8281 45.8038 82.7504 46.6031 83.0889C46.8053 83.1744 47.0155 83.2187 47.2222 83.2187C47.8328 83.2187 48.4139 82.8674 48.6699 82.2773C53.4642 71.2221 53.5194 61.8067 53.5194 61.4125C53.5192 60.5538 52.8153 59.8276 51.9467 59.8276Z" fill="#FF4343"/>
</svg>
