<svg width="21" height="20" viewBox="0 0 21 20" fill="none" xmlns="http://www.w3.org/2000/svg">
<path d="M10.9014 17.0334C10.598 16.8635 10.228 16.8635 9.92455 17.0334L5.2517 19.6491C4.50711 20.0659 3.61616 19.4186 3.78243 18.5816L4.82593 13.329C4.89369 12.9879 4.77936 12.6361 4.52401 12.4L0.591804 8.76392C-0.0347276 8.18457 0.305551 7.13716 1.15295 7.03666L6.47119 6.40592C6.81652 6.36496 7.11578 6.14754 7.26145 5.83176L9.50496 0.968401C9.86239 0.193581 10.9636 0.193582 11.321 0.968402L13.5645 5.83176C13.7102 6.14754 14.0095 6.36496 14.3548 6.40592L19.6731 7.03666C20.5204 7.13716 20.8607 8.18457 20.2342 8.76392L16.302 12.4C16.0466 12.6361 15.9323 12.9879 16.0001 13.329L17.0436 18.5816C17.2098 19.4186 16.3189 20.0659 15.5743 19.6491L10.9014 17.0334Z" fill="#858585"/>
</svg>
