<svg width="22" height="21" viewBox="0 0 22 21" fill="none" xmlns="http://www.w3.org/2000/svg">
<path d="M11.0009 14.3817C11.0009 14.7438 11.1966 15.0775 11.5125 15.2543L13.3559 16.2861C14.1005 16.7028 14.9915 16.0554 14.8251 15.2184L14.408 13.121C14.3402 12.7799 14.4545 12.4281 14.7098 12.1919L16.2806 10.7389C16.907 10.1595 16.5666 9.11225 15.7193 9.01179L13.5677 8.75669C13.2391 8.71774 12.9544 8.51089 12.8159 8.21046V8.21046C12.3887 7.28412 11.0009 7.58872 11.0009 8.60883V14.3817ZM11.4893 17.5334C11.1859 17.3635 10.8159 17.3635 10.5124 17.5334L5.83959 20.1491C5.095 20.5659 4.20405 19.9186 4.37032 19.0816L5.41382 13.829C5.48159 13.4879 5.36725 13.1361 5.1119 12.9L1.17969 9.26392C0.553163 8.68457 0.893441 7.63716 1.74084 7.53666L7.05908 6.90592C7.40441 6.86496 7.70367 6.64754 7.84934 6.33176L10.0929 1.4684C10.4503 0.693581 11.5515 0.693582 11.9089 1.4684L14.1524 6.33176C14.2981 6.64754 14.5974 6.86496 14.9427 6.90592L20.2609 7.53666C21.1083 7.63716 21.4486 8.68457 20.8221 9.26392L16.8899 12.9C16.6345 13.1361 16.5202 13.4879 16.588 13.829L17.6315 19.0816C17.7977 19.9186 16.9068 20.5659 16.1622 20.1491L11.4893 17.5334Z" fill="#858585"/>
</svg>
