<svg width="18" height="21" viewBox="0 0 18 21" fill="none" xmlns="http://www.w3.org/2000/svg">
<path d="M6.71 5.71L8 4.41V16C8 16.2652 8.10536 16.5196 8.29289 16.7071C8.48043 16.8946 8.73478 17 9 17C9.26522 17 9.51957 16.8946 9.70711 16.7071C9.89464 16.5196 10 16.2652 10 16V4.41L11.29 5.71C11.383 5.80373 11.4936 5.87812 11.6154 5.92889C11.7373 5.97966 11.868 6.0058 12 6.0058C12.132 6.0058 12.2627 5.97966 12.3846 5.92889C12.5064 5.87812 12.617 5.80373 12.71 5.71C12.8037 5.61704 12.8781 5.50644 12.9289 5.38458C12.9797 5.26272 13.0058 5.13201 13.0058 5C13.0058 4.86799 12.9797 4.73728 12.9289 4.61542C12.8781 4.49356 12.8037 4.38296 12.71 4.29L9.71 1.29C9.61704 1.19627 9.50644 1.12188 9.38458 1.07111C9.26272 1.02034 9.13201 0.994202 9 0.994202C8.86799 0.994202 8.73728 1.02034 8.61542 1.07111C8.49356 1.12188 8.38296 1.19627 8.29 1.29L5.29 4.29C5.1017 4.4783 4.99591 4.7337 4.99591 5C4.99591 5.2663 5.1017 5.5217 5.29 5.71C5.4783 5.8983 5.7337 6.00409 6 6.00409C6.2663 6.00409 6.5217 5.8983 6.71 5.71V5.71ZM15 8H13C12.7348 8 12.4804 8.10536 12.2929 8.29289C12.1054 8.48043 12 8.73478 12 9C12 9.26522 12.1054 9.51957 12.2929 9.70711C12.4804 9.89464 12.7348 10 13 10H15C15.2652 10 15.5196 10.1054 15.7071 10.2929C15.8946 10.4804 16 10.7348 16 11V18C16 18.2652 15.8946 18.5196 15.7071 18.7071C15.5196 18.8946 15.2652 19 15 19H3C2.73478 19 2.48043 18.8946 2.29289 18.7071C2.10536 18.5196 2 18.2652 2 18V11C2 10.7348 2.10536 10.4804 2.29289 10.2929C2.48043 10.1054 2.73478 10 3 10H5C5.26522 10 5.51957 9.89464 5.70711 9.70711C5.89464 9.51957 6 9.26522 6 9C6 8.73478 5.89464 8.48043 5.70711 8.29289C5.51957 8.10536 5.26522 8 5 8H3C2.20435 8 1.44129 8.31607 0.87868 8.87868C0.316071 9.44129 0 10.2044 0 11V18C0 18.7956 0.316071 19.5587 0.87868 20.1213C1.44129 20.6839 2.20435 21 3 21H15C15.7956 21 16.5587 20.6839 17.1213 20.1213C17.6839 19.5587 18 18.7956 18 18V11C18 10.2044 17.6839 9.44129 17.1213 8.87868C16.5587 8.31607 15.7956 8 15 8Z" fill="#3775F6"/>
</svg>
