<svg width="27" height="28" viewBox="0 0 27 28" fill="none" xmlns="http://www.w3.org/2000/svg">
<path d="M26.5733 13.1454C26.4682 12.8692 26.3106 12.6169 26.1096 12.4029L15.0679 1.15292C14.862 0.943131 14.6176 0.776719 14.3486 0.663183C14.0795 0.549648 13.7912 0.491211 13.5 0.491211C12.9119 0.491211 12.3479 0.729234 11.9321 1.15292C11.7262 1.3627 11.5628 1.61176 11.4514 1.88586C11.34 2.15996 11.2826 2.45373 11.2826 2.75042C11.2826 3.3496 11.5162 3.92423 11.9321 4.34792L19.2196 11.7504H2.45833C1.87265 11.7504 1.31095 11.9875 0.896806 12.4094C0.482663 12.8314 0.25 13.4037 0.25 14.0004C0.25 14.5972 0.482663 15.1694 0.896806 15.5914C1.31095 16.0134 1.87265 16.2504 2.45833 16.2504H19.2196L11.9321 23.6529C11.7251 23.8621 11.5608 24.1109 11.4487 24.3851C11.3366 24.6593 11.2789 24.9534 11.2789 25.2504C11.2789 25.5474 11.3366 25.8415 11.4487 26.1157C11.5608 26.3899 11.7251 26.6387 11.9321 26.8479C12.1374 27.0588 12.3816 27.2262 12.6507 27.3404C12.9198 27.4547 13.2085 27.5135 13.5 27.5135C13.7915 27.5135 14.0802 27.4547 14.3493 27.3404C14.6184 27.2262 14.8626 27.0588 15.0679 26.8479L26.1096 15.5979C26.3106 15.3839 26.4682 15.1316 26.5733 14.8554C26.7942 14.3076 26.7942 13.6932 26.5733 13.1454Z" fill="black"/>
</svg>
