<svg width="27" height="28" viewBox="0 0 27 28" fill="none" xmlns="http://www.w3.org/2000/svg">
<path d="M24.5424 11.7504H7.78112L15.0686 4.34792C15.4845 3.92423 15.7181 3.3496 15.7181 2.75042C15.7181 2.15124 15.4845 1.5766 15.0686 1.15292C14.6528 0.729234 14.0888 0.491211 13.5007 0.491211C12.9126 0.491211 12.3486 0.729234 11.9328 1.15292L0.891124 12.4029C0.690076 12.6169 0.532478 12.8692 0.427374 13.1454C0.2065 13.6932 0.2065 14.3076 0.427374 14.8554C0.532478 15.1316 0.690076 15.3839 0.891124 15.5979L11.9328 26.8479C12.1381 27.0588 12.3823 27.2262 12.6514 27.3404C12.9205 27.4547 13.2092 27.5135 13.5007 27.5135C13.7922 27.5135 14.0809 27.4547 14.35 27.3404C14.6191 27.2262 14.8633 27.0588 15.0686 26.8479C15.2756 26.6387 15.4399 26.3899 15.552 26.1157C15.6641 25.8415 15.7218 25.5474 15.7218 25.2504C15.7218 24.9534 15.6641 24.6593 15.552 24.3851C15.4399 24.1109 15.2756 23.8621 15.0686 23.6529L7.78112 16.2504H24.5424C25.1281 16.2504 25.6898 16.0134 26.1039 15.5914C26.518 15.1694 26.7507 14.5972 26.7507 14.0004C26.7507 13.4037 26.518 12.8314 26.1039 12.4094C25.6898 11.9875 25.1281 11.7504 24.5424 11.7504Z" fill="black"/>
</svg>
