<svg width="35" height="34" viewBox="0 0 35 34" fill="none" xmlns="http://www.w3.org/2000/svg">
<path d="M17.3346 0.333252C14.0383 0.333252 10.816 1.31073 8.07514 3.14209C5.33432 4.97345 3.19811 7.57643 1.93665 10.6219C0.67519 13.6673 0.345135 17.0184 0.988222 20.2514C1.63131 23.4844 3.21866 26.4542 5.54953 28.785C7.88041 31.1159 10.8501 32.7033 14.0831 33.3463C17.3162 33.9894 20.6673 33.6594 23.7127 32.3979C26.7581 31.1365 29.3611 29.0002 31.1925 26.2594C33.0238 23.5186 34.0013 20.2963 34.0013 16.9999C34.0013 14.8112 33.5702 12.644 32.7326 10.6219C31.8951 8.59977 30.6674 6.76245 29.1198 5.21481C27.5721 3.66716 25.7348 2.4395 23.7127 1.60193C21.6906 0.764348 19.5233 0.333252 17.3346 0.333252V0.333252ZM17.3346 30.3333C14.6976 30.3333 12.1197 29.5513 9.92704 28.0862C7.73438 26.6211 6.02542 24.5387 5.01625 22.1024C4.00708 19.666 3.74304 16.9851 4.25751 14.3987C4.77198 11.8123 6.04185 9.43653 7.90655 7.57183C9.77125 5.70713 12.147 4.43725 14.7334 3.92278C17.3199 3.40831 20.0007 3.67236 22.4371 4.68153C24.8734 5.69069 26.9558 7.39966 28.4209 9.59232C29.886 11.785 30.668 14.3628 30.668 16.9999C30.668 20.5361 29.2632 23.9275 26.7627 26.428C24.2623 28.9285 20.8709 30.3333 17.3346 30.3333V30.3333ZM22.5013 18.0499L19.0013 16.0333V8.66659C19.0013 8.22456 18.8257 7.80064 18.5132 7.48807C18.2006 7.17551 17.7767 6.99992 17.3346 6.99992C16.8926 6.99992 16.4687 7.17551 16.1561 7.48807C15.8436 7.80064 15.668 8.22456 15.668 8.66659V16.9999C15.668 16.9999 15.668 17.1333 15.668 17.1999C15.6778 17.3148 15.706 17.4273 15.7513 17.5333C15.7856 17.6321 15.8303 17.7271 15.8846 17.8166C15.9303 17.9113 15.9861 18.0007 16.0513 18.0833L16.318 18.2999L16.468 18.4499L20.8013 20.9499C21.0553 21.0939 21.3427 21.1686 21.6346 21.1666C22.0037 21.1692 22.3631 21.0492 22.6566 20.8255C22.9501 20.6018 23.1611 20.287 23.2564 19.9305C23.3517 19.574 23.326 19.1959 23.1833 18.8556C23.0407 18.5152 22.7891 18.2319 22.468 18.0499H22.5013Z" fill="black"/>
</svg>
