<svg width="40" height="40" viewBox="0 0 40 40" fill="none" xmlns="http://www.w3.org/2000/svg">
<path d="M30.2337 7.46504C29.7788 7.46504 29.3341 7.59993 28.9559 7.85266C28.5777 8.10539 28.2829 8.4646 28.1088 8.88487C27.9347 9.30514 27.8891 9.76759 27.9779 10.2137C28.0666 10.6599 28.2857 11.0697 28.6074 11.3914C28.929 11.713 29.3388 11.9321 29.785 12.0208C30.2311 12.1096 30.6936 12.064 31.1139 11.89C31.5341 11.7159 31.8934 11.4211 32.1461 11.0429C32.3988 10.6646 32.5337 10.2199 32.5337 9.76504C32.5337 9.15504 32.2914 8.57003 31.86 8.1387C31.4287 7.70736 30.8437 7.46504 30.2337 7.46504ZM39.0504 12.1034C39.0131 10.5131 38.7152 8.93973 38.1687 7.44587C37.6814 6.16771 36.9228 5.01032 35.9454 4.05337C34.9963 3.07094 33.8362 2.31721 32.5529 1.84921C31.063 1.28602 29.4878 0.98136 27.8954 0.948374C25.8637 0.833374 25.212 0.833374 19.9987 0.833374C14.7854 0.833374 14.1337 0.833374 12.102 0.948374C10.5096 0.98136 8.93444 1.28602 7.44453 1.84921C6.16358 2.32195 5.00449 3.07503 4.05203 4.05337C3.0696 5.00246 2.31587 6.16255 1.84786 7.44587C1.28467 8.93578 0.980017 10.5109 0.947031 12.1034C0.832031 14.135 0.832031 14.7867 0.832031 20C0.832031 25.2134 0.832031 25.865 0.947031 27.8967C0.980017 29.4892 1.28467 31.0643 1.84786 32.5542C2.31587 33.8375 3.0696 34.9976 4.05203 35.9467C5.00449 36.925 6.16358 37.6781 7.44453 38.1509C8.93444 38.7141 10.5096 39.0187 12.102 39.0517C14.1337 39.1667 14.7854 39.1667 19.9987 39.1667C25.212 39.1667 25.8637 39.1667 27.8954 39.0517C29.4878 39.0187 31.063 38.7141 32.5529 38.1509C33.8362 37.6829 34.9963 36.9291 35.9454 35.9467C36.9272 34.9933 37.6863 33.8349 38.1687 32.5542C38.7152 31.0604 39.0131 29.487 39.0504 27.8967C39.0504 25.865 39.1654 25.2134 39.1654 20C39.1654 14.7867 39.1654 14.135 39.0504 12.1034ZM35.6004 27.6667C35.5864 28.8834 35.3661 30.0888 34.9487 31.2317C34.6427 32.0658 34.1511 32.8195 33.5112 33.4359C32.8895 34.0693 32.1374 34.5599 31.307 34.8734C30.1641 35.2907 28.9587 35.5111 27.742 35.525C25.8254 35.6209 25.1162 35.64 20.0754 35.64C15.0345 35.64 14.3254 35.64 12.4087 35.525C11.1454 35.5487 9.8875 35.3542 8.69036 34.95C7.89645 34.6205 7.1788 34.1312 6.58203 33.5125C5.94587 32.8968 5.46048 32.1425 5.1637 31.3084C4.69576 30.1491 4.43621 28.9163 4.39703 27.6667C4.39703 25.75 4.28203 25.0409 4.28203 20C4.28203 14.9592 4.28203 14.25 4.39703 12.3334C4.40562 11.0896 4.63269 9.85694 5.06786 8.69171C5.40529 7.8827 5.92321 7.16155 6.58203 6.58337C7.16434 5.92436 7.884 5.40097 8.69036 5.05004C9.85867 4.62846 11.09 4.40811 12.332 4.39837C14.2487 4.39837 14.9579 4.28337 19.9987 4.28337C25.0395 4.28337 25.7487 4.28337 27.6654 4.39837C28.882 4.41233 30.0875 4.63268 31.2304 5.05004C32.1014 5.37329 32.8831 5.89883 33.5112 6.58337C34.1393 7.17213 34.6301 7.89195 34.9487 8.69171C35.3747 9.85883 35.5952 11.091 35.6004 12.3334C35.6962 14.25 35.7154 14.9592 35.7154 20C35.7154 25.0409 35.6962 25.75 35.6004 27.6667ZM19.9987 10.1675C18.0548 10.1713 16.1557 10.7512 14.5413 11.8339C12.9269 12.9166 11.6696 14.4536 10.9283 16.2506C10.1871 18.0476 9.99509 20.0239 10.3766 21.93C10.7582 23.836 11.6962 25.5862 13.072 26.9594C14.4479 28.3326 16.1999 29.2672 18.1067 29.645C20.0135 30.0228 21.9895 29.827 23.785 29.0822C25.5806 28.3375 27.115 27.0772 28.1946 25.4607C29.2742 23.8442 29.8504 21.9439 29.8504 20C29.8529 18.7065 29.5997 17.4252 29.1052 16.2299C28.6108 15.0345 27.8849 13.9488 26.9694 13.035C26.0538 12.1212 24.9666 11.3974 23.7703 10.9053C22.574 10.4132 21.2922 10.1625 19.9987 10.1675ZM19.9987 26.3825C18.7364 26.3825 17.5024 26.0082 16.4528 25.3069C15.4032 24.6056 14.5851 23.6088 14.102 22.4425C13.619 21.2763 13.4926 19.993 13.7388 18.7549C13.9851 17.5168 14.593 16.3795 15.4856 15.4869C16.3782 14.5943 17.5155 13.9864 18.7535 13.7402C19.9916 13.4939 21.2749 13.6203 22.4412 14.1034C23.6074 14.5865 24.6042 15.4045 25.3056 16.4541C26.0069 17.5037 26.3812 18.7377 26.3812 20C26.3812 20.8382 26.2161 21.6682 25.8954 22.4425C25.5746 23.2169 25.1045 23.9205 24.5118 24.5132C23.9191 25.1058 23.2155 25.576 22.4412 25.8967C21.6668 26.2175 20.8369 26.3825 19.9987 26.3825Z" fill="black"/>
</svg>
