<svg width="31" height="32" viewBox="0 0 31 32" fill="none" xmlns="http://www.w3.org/2000/svg">
<path d="M20.9432 19.7837C20.7999 19.6392 20.6294 19.5245 20.4415 19.4462C20.2536 19.368 20.0521 19.3277 19.8486 19.3277C19.6451 19.3277 19.4436 19.368 19.2557 19.4462C19.0679 19.5245 18.8974 19.6392 18.754 19.7837C18.4669 20.0726 18.3057 20.4633 18.3057 20.8706C18.3057 21.2779 18.4669 21.6686 18.754 21.9575L28.2815 31.485C28.4249 31.6295 28.5954 31.7441 28.7832 31.8224C28.9711 31.9007 29.1726 31.941 29.3761 31.941C29.5796 31.941 29.7811 31.9007 29.969 31.8224C30.1569 31.7441 30.3274 31.6295 30.4707 31.485C30.7578 31.1961 30.919 30.8054 30.919 30.3981C30.919 29.9908 30.7578 29.6001 30.4707 29.3112L20.9432 19.7837ZM22.8395 15.945C24.0657 15.9439 25.2413 15.4559 26.1078 14.5883L30.4707 10.2254C30.7578 9.93652 30.919 9.54578 30.919 9.1385C30.919 8.73121 30.7578 8.34047 30.4707 8.05162C30.3274 7.90712 30.1569 7.79243 29.969 7.71416C29.7811 7.63589 29.5796 7.5956 29.3761 7.5956C29.1726 7.5956 28.9711 7.63589 28.7832 7.71416C28.5954 7.79243 28.4249 7.90712 28.2815 8.05162L23.9186 12.4145C23.6298 12.7017 23.239 12.8628 22.8317 12.8628C22.4245 12.8628 22.0337 12.7017 21.7449 12.4145L27.2024 6.95704C27.4895 6.66819 27.6507 6.27745 27.6507 5.87016C27.6507 5.46288 27.4895 5.07214 27.2024 4.78329C27.0591 4.63879 26.8885 4.5241 26.7007 4.44583C26.5128 4.36756 26.3113 4.32726 26.1078 4.32726C25.9043 4.32726 25.7028 4.36756 25.5149 4.44583C25.327 4.5241 25.1565 4.63879 25.0132 4.78329L19.5711 10.2254C19.284 9.93652 19.1228 9.54578 19.1228 9.1385C19.1228 8.73121 19.284 8.34047 19.5711 8.05162L23.9186 3.6887C24.08 3.5505 24.2111 3.38042 24.3036 3.18916C24.3961 2.99789 24.4481 2.78956 24.4563 2.57724C24.4645 2.36493 24.4288 2.15321 24.3513 1.95537C24.2738 1.75754 24.1562 1.57786 24.006 1.42762C23.8557 1.27738 23.676 1.15981 23.4782 1.0823C23.2804 1.0048 23.0686 0.969022 22.8563 0.977223C22.644 0.985424 22.4357 1.03742 22.2444 1.12996C22.0531 1.2225 21.8831 1.35357 21.7449 1.51495L17.3819 5.87787C16.5158 6.74506 16.0294 7.92058 16.0294 9.1462C16.0294 10.3718 16.5158 11.5473 17.3819 12.4145V12.4145L15.5011 14.3262L13.0961 11.952C13.7787 10.7202 14.0368 9.29789 13.8306 7.90474C13.6244 6.51159 12.9654 5.22504 11.9553 4.2437C9.73528 2.0237 3.98486 -0.458379 1.27153 2.3012C-1.4418 5.06079 1.00945 10.7495 3.16778 12.985C4.3731 14.1946 5.99364 14.9001 7.70028 14.9583H7.91611C8.95847 14.9435 9.97885 14.6565 10.8761 14.1258L13.2965 16.5L0.531531 29.265C0.3888 29.4087 0.27578 29.5791 0.198922 29.7666C0.122064 29.954 0.0828742 30.1547 0.08359 30.3573C0.0843058 30.5598 0.124913 30.7603 0.203093 30.9472C0.281274 31.134 0.395496 31.3037 0.539239 31.4464C0.682982 31.5891 0.85343 31.7022 1.04085 31.779C1.22827 31.8559 1.429 31.8951 1.63156 31.8944C1.83413 31.8936 2.03457 31.853 2.22145 31.7749C2.40832 31.6967 2.57797 31.5824 2.7207 31.4387L16.5957 17.5637L19.5557 14.6037C19.9879 15.0324 20.5004 15.3715 21.0639 15.6016C21.6274 15.8318 22.2308 15.9485 22.8395 15.945V15.945ZM9.99737 11.0116C9.70854 11.2987 9.36385 11.5235 8.98464 11.672C8.60543 11.8205 8.19977 11.8896 7.79278 11.875C6.89153 11.8361 6.04046 11.4493 5.41861 10.7958C3.75361 9.13079 2.58195 5.3537 3.4607 4.47495C3.75257 4.25478 4.1132 4.1455 4.4782 4.16662C6.44582 4.32345 8.30821 5.1193 9.78153 6.43287C10.411 7.01519 10.7863 7.82154 10.8267 8.67807C10.8671 9.53459 10.5692 10.3727 9.99737 11.0116V11.0116Z" fill="black"/>
</svg>
