<svg width="80" height="73" viewBox="0 0 80 73" fill="none" xmlns="http://www.w3.org/2000/svg">
<path d="M71.9627 7.86291C67.8044 3.74768 62.2914 1.24567 56.4262 0.811883C50.561 0.378096 44.7332 2.04135 40.0027 5.49916C35.0194 1.832 28.8167 0.169138 22.6437 0.845426C16.4708 1.52171 10.7861 4.48692 6.73444 9.14392C2.68277 13.8009 0.565094 19.8038 0.807845 25.9437C1.05059 32.0836 3.63574 37.9045 8.04271 42.2342L37.2219 71.1029C37.586 71.4661 38.0192 71.7544 38.4964 71.9511C38.9737 72.1478 39.4857 72.2491 40.0027 72.2491C40.5197 72.2491 41.0317 72.1478 41.509 71.9511C41.9862 71.7544 42.4194 71.4661 42.7835 71.1029L71.9627 42.2342C74.2448 39.9778 76.0551 37.2987 77.2902 34.3499C78.5253 31.4012 79.1611 28.2405 79.1611 25.0485C79.1611 21.8566 78.5253 18.6959 77.2902 15.7471C76.0551 12.7983 74.2448 10.1192 71.9627 7.86291ZM66.4402 36.7704L40.0027 62.8879L13.5652 36.7704C11.2355 34.4559 9.64844 31.5122 9.00319 28.3087C8.35794 25.1052 8.6832 21.7846 9.93818 18.7633C11.1932 15.742 13.322 13.1546 16.0576 11.3257C18.7931 9.49681 22.0137 8.50786 25.3152 8.48291C29.7258 8.4936 33.9518 10.2357 37.0652 13.3267C37.4293 13.6899 37.8625 13.9781 38.3398 14.1749C38.8171 14.3716 39.329 14.4729 39.846 14.4729C40.3631 14.4729 40.875 14.3716 41.3523 14.1749C41.8296 13.9781 42.2628 13.6899 42.6269 13.3267C45.832 10.5788 49.9725 9.13834 54.2106 9.29675C58.4486 9.45516 62.4675 11.2006 65.4539 14.1799C68.4403 17.1591 70.1712 21.1497 70.2961 25.3438C70.421 29.5379 68.9307 33.6223 66.1269 36.7704H66.4402Z" fill="black"/>
</svg>
