<svg width="1040" height="359" viewBox="0 0 1040 359" fill="none" xmlns="http://www.w3.org/2000/svg">
<path d="M93.744 267.12C82.608 267.12 70.032 266.16 56.016 264.24C48.336 263.28 43.056 261.264 40.176 258.192C37.296 255.12 36.048 250.128 36.432 243.216C37.776 224.208 40.944 200.784 45.936 172.944C50.928 144.912 56.976 117.936 64.08 92.016C65.424 87.216 68.112 83.856 72.144 81.936C76.176 80.016 81.456 79.056 87.984 79.056C99.696 79.056 105.552 82.32 105.552 88.848C105.552 91.536 104.976 94.608 103.824 98.064C98.832 113.424 93.84 134.064 88.848 159.984C83.856 185.712 80.304 210.288 78.192 233.712C83.952 234.288 90.48 234.576 97.776 234.576C131.376 234.576 156.432 224.4 172.944 204.048C189.648 183.696 198 156.528 198 122.544C198 99.696 191.472 82.032 178.416 69.552C165.36 57.072 146.928 50.832 123.12 50.832C107.76 50.832 92.496 53.232 77.328 58.032C62.352 62.832 48.816 69.168 36.72 77.04C34.224 78.768 31.536 79.632 28.656 79.632C25.392 79.632 22.8 78.288 20.88 75.6C18.96 72.72 18 69.264 18 65.232C18 60.624 18.768 56.88 20.304 54C21.84 50.928 24.432 48.144 28.08 45.648C41.328 36.624 56.88 29.808 74.736 25.2C92.592 20.4 109.776 18 126.288 18C149.712 18 169.968 22.128 187.056 30.384C204.144 38.448 217.296 50.352 226.512 66.096C235.728 81.84 240.336 100.848 240.336 123.12C240.336 152.112 234.576 177.456 223.056 199.152C211.536 220.656 194.736 237.36 172.656 249.264C150.576 261.168 124.272 267.12 93.744 267.12Z" fill="#F4BF01"/>
<path d="M343.108 221.749C344.815 221.749 346.129 222.537 347.048 224.113C348.099 225.689 348.624 227.856 348.624 230.614C348.624 235.867 347.376 239.939 344.881 242.828C340.022 248.738 333.127 254.188 324.196 259.179C315.397 264.17 305.941 266.665 295.828 266.665C282.038 266.665 271.334 262.922 263.717 255.436C256.1 247.95 252.291 237.706 252.291 224.704C252.291 215.642 254.195 207.237 258.004 199.488C261.813 191.608 267.066 185.37 273.764 180.773C280.593 176.176 288.276 173.878 296.813 173.878C304.43 173.878 310.537 176.176 315.134 180.773C319.731 185.238 322.029 191.345 322.029 199.094C322.029 208.156 318.746 215.97 312.179 222.537C305.744 228.972 294.777 234.094 279.28 237.903C282.563 243.944 288.802 246.965 297.995 246.965C303.905 246.965 310.603 244.929 318.089 240.858C325.706 236.655 332.273 231.205 337.789 224.507C339.365 222.668 341.138 221.749 343.108 221.749ZM293.464 193.184C288.605 193.184 284.468 196.008 281.053 201.655C277.77 207.302 276.128 214.132 276.128 222.143V222.537C283.877 220.698 289.984 217.94 294.449 214.263C298.914 210.586 301.147 206.317 301.147 201.458C301.147 198.963 300.425 196.993 298.98 195.548C297.667 193.972 295.828 193.184 293.464 193.184Z" fill="#F4BF01"/>
<path d="M369.226 270.999C362.397 270.999 357.143 269.423 353.466 266.271C349.92 263.119 348.147 259.573 348.147 255.633C348.147 252.218 349.395 249.263 351.89 246.768C354.385 244.273 358.063 243.025 362.922 243.025C364.629 243.025 366.599 243.222 368.832 243.616C371.196 243.879 372.969 244.076 374.151 244.207C374.02 240.792 373.232 237.575 371.787 234.554C370.474 231.533 368.766 228.644 366.665 225.886C364.564 222.997 362.594 220.501 360.755 218.4C356.684 226.149 352.612 232.584 348.541 237.706C344.601 242.828 340.267 247.687 335.539 252.284C333.175 254.648 330.68 255.83 328.053 255.83C325.952 255.83 324.244 255.108 322.931 253.663C321.618 252.087 320.961 250.183 320.961 247.95C320.961 245.323 321.88 242.894 323.719 240.661L326.28 237.509C333.503 228.578 338.954 221.224 342.631 215.445C344.864 211.636 347.49 206.58 350.511 200.276C353.532 193.841 356.487 187.208 359.376 180.379C361.871 174.6 367.059 171.711 374.939 171.711C378.616 171.711 381.177 172.039 382.622 172.696C384.067 173.353 384.789 174.403 384.789 175.848C384.789 176.636 384.526 177.884 384.001 179.591C383.476 181.298 382.753 183.006 381.834 184.713C379.47 189.441 378.288 193.447 378.288 196.73C378.288 198.7 378.945 200.867 380.258 203.231C381.703 205.595 383.87 208.55 386.759 212.096C390.962 217.612 394.114 222.34 396.215 226.28C398.448 230.089 399.564 234.291 399.564 238.888C399.564 240.201 399.433 242.04 399.17 244.404C405.605 241.909 413.157 235.276 421.825 224.507C423.401 222.668 425.174 221.749 427.144 221.749C428.851 221.749 430.165 222.537 431.084 224.113C432.135 225.689 432.66 227.856 432.66 230.614C432.66 235.605 431.412 239.676 428.917 242.828C422.35 250.971 416.046 256.552 410.005 259.573C404.095 262.462 396.74 264.038 387.941 264.301C382.688 268.766 376.449 270.999 369.226 270.999Z" fill="#F4BF01"/>
<path d="M439.31 266.665C431.824 266.665 425.717 263.71 420.989 257.8C416.393 251.89 414.094 244.141 414.094 234.554C414.094 224.047 416.524 214.132 421.383 204.807C426.243 195.351 432.678 187.799 440.689 182.152C448.832 176.373 457.434 173.484 466.496 173.484C469.386 173.484 471.29 174.075 472.209 175.257C473.26 176.308 474.114 178.278 474.77 181.167C477.266 180.642 480.024 180.379 483.044 180.379C486.196 180.379 488.626 181.167 490.333 182.743C492.041 184.319 492.894 186.552 492.894 189.441C492.894 192.462 492.238 197.715 490.924 205.201C489.48 213.212 488.363 220.895 487.575 228.25C486.787 235.473 486.393 243.616 486.393 252.678C486.393 257.669 485.343 261.28 483.241 263.513C481.271 265.614 477.988 266.665 473.391 266.665C468.926 266.665 465.577 265.614 463.344 263.513C461.243 261.28 460.192 257.734 460.192 252.875L460.389 249.723C456.318 261.018 449.292 266.665 439.31 266.665ZM446.993 246.768C450.671 246.768 454.02 244.207 457.04 239.085C460.061 233.963 462.753 224.835 465.117 211.702L468.86 191.805C463.476 191.936 458.485 194.038 453.888 198.109C449.292 202.049 445.614 207.302 442.856 213.869C440.098 220.436 438.719 227.396 438.719 234.751C438.719 238.691 439.442 241.712 440.886 243.813C442.462 245.783 444.498 246.768 446.993 246.768Z" fill="#F4BF01"/>
<path fill-rule="evenodd" clip-rule="evenodd" d="M20.88 75.6C18.96 72.72 18 69.264 18 65.232C18 60.624 18.768 56.88 20.304 54C21.84 50.928 24.432 48.144 28.08 45.648C41.328 36.624 56.88 29.808 74.736 25.2C92.592 20.4 109.776 18 126.288 18C149.712 18 169.968 22.128 187.056 30.384C204.144 38.448 217.296 50.352 226.512 66.096C235.728 81.84 240.336 100.848 240.336 123.12C240.336 152.112 234.576 177.456 223.056 199.152C211.536 220.656 194.736 237.36 172.656 249.264C150.576 261.168 124.272 267.12 93.744 267.12C82.608 267.12 70.032 266.16 56.016 264.24C48.336 263.28 43.056 261.264 40.176 258.192C37.296 255.12 36.048 250.128 36.432 243.216C37.776 224.208 40.944 200.784 45.936 172.944C50.928 144.912 56.976 117.936 64.08 92.016C65.424 87.216 68.112 83.856 72.144 81.936C76.176 80.016 81.456 79.056 87.984 79.056C99.696 79.056 105.552 82.32 105.552 88.848C105.552 91.536 104.976 94.608 103.824 98.064C98.832 113.424 93.84 134.064 88.848 159.984C85.1123 179.237 82.1829 197.846 80.0601 215.809C79.8395 217.675 79.6277 219.534 79.4246 221.386C78.9702 225.53 78.5593 229.638 78.192 233.712C78.1925 233.712 78.193 233.712 78.1936 233.712C79.1062 233.803 80.0381 233.887 80.9893 233.964C85.6021 234.337 90.6684 234.539 96.188 234.571C96.7132 234.574 97.2426 234.576 97.776 234.576C131.376 234.576 156.432 224.4 172.944 204.048C189.648 183.696 198 156.528 198 122.544C198 99.696 191.472 82.032 178.416 69.552C165.36 57.072 146.928 50.832 123.12 50.832C107.76 50.832 92.496 53.232 77.328 58.032C62.352 62.832 48.816 69.168 36.72 77.04C34.224 78.768 31.536 79.632 28.656 79.632C25.392 79.632 22.8 78.288 20.88 75.6ZM45.167 93.0035C38.5802 117.707 32.9321 143.301 28.2166 169.778C23.1611 197.974 19.8818 222.076 18.4768 241.946L18.4672 242.082L18.4597 242.218C17.9712 251.011 19.174 262.108 27.0443 270.503C34.3455 278.291 44.9243 280.982 53.6711 282.087C68.2536 284.081 81.6343 285.12 93.744 285.12C126.613 285.12 155.981 278.703 181.198 265.108C203.876 252.882 221.895 236.012 234.925 214.642C234.501 217.946 234.291 221.302 234.291 224.704C234.291 241.413 239.314 256.691 251.1 268.274C262.983 279.952 278.75 284.665 295.828 284.665C309.036 284.665 321.535 281.371 333.027 274.864C333.949 274.348 334.86 273.824 335.758 273.291C337.42 275.678 339.372 277.827 341.507 279.724L341.629 279.832L341.752 279.938C349.808 286.843 359.844 288.999 369.226 288.999C378.268 288.999 386.767 286.675 394.251 281.951C401.63 281.287 408.693 279.732 415.179 276.988C422.057 282.009 430.256 284.665 439.31 284.665C445.346 284.665 451.249 283.424 456.667 280.734C462.215 283.782 468.24 284.665 473.391 284.665C480.074 284.665 489.421 283.229 496.36 275.838C503.064 268.706 504.393 259.525 504.393 252.678C504.393 244.116 504.766 236.642 505.469 230.202L505.471 230.185L505.473 230.168C506.211 223.281 507.263 216.025 508.638 208.395L508.646 208.353L508.653 208.311C509.957 200.88 510.894 194.213 510.894 189.441C510.894 182.839 508.805 175.298 502.542 169.517C497.076 164.471 490.533 162.723 484.872 162.427C478.5 155.852 469.912 155.484 466.496 155.484C453.332 155.484 441.153 159.758 430.297 167.455C419.735 174.905 411.462 184.747 405.395 196.538C404.299 198.644 403.299 200.778 402.396 202.938C401.964 202.358 401.524 201.774 401.077 201.187L400.899 200.954L400.713 200.726C398.94 198.55 397.639 196.827 396.72 195.514C396.965 194.848 397.323 194 397.837 192.957C399.198 190.39 400.339 187.698 401.205 184.885C401.762 183.074 402.789 179.569 402.789 175.848C402.789 171.986 401.771 167.694 399.08 163.779C396.462 159.971 393.047 157.663 390.07 156.309C384.75 153.891 378.664 153.711 374.939 153.711C368.901 153.711 362.386 154.807 356.38 158.153C350.105 161.647 345.57 166.947 342.851 173.243L342.824 173.304L342.798 173.365C341.189 177.17 339.56 180.907 337.913 184.576C336.003 178.474 332.724 172.797 327.771 167.954C319.234 159.469 308.279 155.878 296.813 155.878C284.836 155.878 273.627 159.167 263.713 165.84L263.646 165.886L263.579 165.932C258.91 169.136 254.785 172.882 251.196 177.111C256.003 160.341 258.336 142.302 258.336 123.12C258.336 98.3554 253.199 76.0549 242.046 57.0028C230.942 38.0334 215.022 23.6948 194.812 14.1408C174.796 4.48615 151.771 0 126.288 0C108.05 0 89.3202 2.6477 70.1501 7.79377C50.6158 12.8441 33.1261 20.4317 17.9466 30.7713L17.9311 30.7819L17.9157 30.7925C12.5084 34.4922 7.55349 39.3609 4.30928 45.742C1.01807 52.0228 0 58.8861 0 65.232C0 72.2176 1.70344 79.2851 5.9031 85.5846L6.0641 85.8261L6.2328 86.0623C11.4832 93.4128 19.496 97.632 28.656 97.632C34.6567 97.632 40.2499 95.9702 45.167 93.0035ZM315.134 180.773C310.537 176.176 304.43 173.878 296.813 173.878C288.276 173.878 280.593 176.176 273.764 180.773C267.066 185.37 261.813 191.608 258.004 199.488C254.195 207.237 252.291 215.642 252.291 224.704C252.291 237.706 256.1 247.95 263.717 255.436C271.334 262.922 282.038 266.665 295.828 266.665C300.376 266.665 304.791 266.16 309.073 265.151C309.107 265.143 309.14 265.135 309.174 265.127C309.706 265.001 310.235 264.867 310.763 264.725C315.399 263.477 319.877 261.629 324.196 259.179C325.527 258.435 326.812 257.681 328.053 256.917C328.766 256.478 329.464 256.036 330.147 255.59C330.161 255.58 330.175 255.571 330.189 255.562C332.041 255.091 333.825 253.998 335.539 252.284C335.89 251.943 336.238 251.6 336.585 251.256C336.611 251.23 336.637 251.204 336.663 251.178C337.255 250.591 337.839 249.999 338.418 249.402C338.574 249.267 338.729 249.132 338.883 248.996C339.129 248.778 339.372 248.56 339.612 248.341C339.621 248.333 339.631 248.324 339.64 248.315C340.663 247.381 341.629 246.434 342.54 245.475C343.366 244.603 344.147 243.721 344.881 242.828C345.356 242.278 345.786 241.685 346.171 241.049C346.381 240.702 346.577 240.342 346.76 239.97C347.058 239.599 347.355 239.226 347.649 238.852C347.949 238.471 348.246 238.089 348.541 237.706C349.154 236.934 349.768 236.132 350.382 235.301C350.446 235.213 350.511 235.125 350.575 235.037C350.653 234.931 350.73 234.825 350.808 234.718C351.75 233.42 352.692 232.052 353.634 230.614C354.699 228.987 355.765 227.27 356.83 225.463C356.97 225.226 357.11 224.987 357.249 224.748C357.355 224.566 357.461 224.384 357.566 224.2C358.629 222.356 359.692 220.423 360.755 218.4C360.921 218.59 361.089 218.784 361.257 218.98C362.79 220.768 364.412 222.823 366.123 225.145C366.161 225.197 366.199 225.248 366.236 225.3C366.379 225.493 366.521 225.689 366.665 225.886C368.003 227.642 369.181 229.451 370.199 231.313C370.406 231.692 370.607 232.073 370.801 232.457C371.151 233.149 371.48 233.848 371.787 234.554C371.874 234.736 371.959 234.919 372.041 235.103C373.324 237.963 374.027 240.998 374.151 244.207L368.832 243.616C368.124 243.491 367.443 243.386 366.788 243.301C366.107 243.212 365.455 243.145 364.831 243.099C364.162 243.05 363.525 243.025 362.922 243.025C360.539 243.025 358.44 243.325 356.626 243.925C356.564 243.945 356.503 243.966 356.443 243.987C356.325 244.028 356.209 244.069 356.094 244.113C354.441 244.733 353.04 245.618 351.89 246.768C351.551 247.107 351.235 247.455 350.941 247.811C350.901 247.86 350.861 247.909 350.822 247.959C349.039 250.188 348.147 252.746 348.147 255.633C348.147 258.2 348.9 260.6 350.405 262.833C350.412 262.844 350.42 262.855 350.427 262.866C351.229 264.048 352.242 265.183 353.466 266.271C357.143 269.423 362.397 270.999 369.226 270.999C372.428 270.999 375.436 270.56 378.25 269.683C381.786 268.581 385.016 266.787 387.941 264.301C388.909 264.272 389.859 264.227 390.791 264.167C391.513 264.12 392.225 264.063 392.925 263.997C396.38 263.672 399.579 263.116 402.525 262.329C402.763 262.266 402.999 262.201 403.234 262.134C405.67 261.443 407.927 260.589 410.005 259.573C412.753 258.199 415.556 256.295 418.412 253.861C419.171 255.254 420.03 256.567 420.989 257.8C424.129 261.725 427.877 264.346 432.232 265.664C434.436 266.332 436.795 266.665 439.31 266.665C441.074 266.665 442.746 266.489 444.326 266.136C445.765 265.814 447.128 265.346 448.414 264.732C452.921 262.578 456.486 258.626 459.11 252.875C459.12 252.853 459.13 252.831 459.14 252.809C459.583 251.832 460 250.803 460.389 249.723L460.192 252.875C460.192 255.9 460.599 258.416 461.414 260.423C461.907 261.64 462.551 262.67 463.344 263.513C465.352 265.403 468.262 266.443 472.075 266.633C472.503 266.654 472.941 266.665 473.391 266.665C477.988 266.665 481.271 265.614 483.241 263.513C485.343 261.28 486.393 257.669 486.393 252.678C486.393 243.616 486.787 235.473 487.575 228.25C488.363 220.895 489.48 213.212 490.924 205.201C492.238 197.715 492.894 192.462 492.894 189.441C492.894 186.552 492.041 184.319 490.333 182.743C489.946 182.385 489.521 182.068 489.06 181.792C487.486 180.85 485.481 180.379 483.044 180.379C480.024 180.379 477.266 180.642 474.77 181.167C474.77 181.167 474.77 181.167 474.77 181.167C474.114 178.278 473.26 176.308 472.209 175.257C471.667 174.56 470.783 174.069 469.556 173.783C468.702 173.584 467.682 173.484 466.496 173.484C457.434 173.484 448.832 176.373 440.689 182.152C432.797 187.716 426.434 195.127 421.6 204.387C421.528 204.527 421.455 204.667 421.383 204.807C418.926 209.523 417.09 214.389 415.875 219.407C415.854 219.494 415.833 219.581 415.813 219.668C415.476 221.085 415.189 222.515 414.951 223.956C414.49 226.753 414.215 229.595 414.126 232.483C414.117 232.758 414.111 233.033 414.106 233.309C413.692 233.735 413.281 234.15 412.873 234.554C411.439 235.974 410.042 237.256 408.682 238.4C408.485 238.565 408.289 238.728 408.093 238.888C404.912 241.492 401.938 243.331 399.17 244.404C399.433 242.04 399.564 240.201 399.564 238.888C399.564 237.402 399.447 235.958 399.214 234.554C398.752 231.776 397.834 229.16 396.458 226.705C396.379 226.563 396.298 226.421 396.215 226.28C396.1 226.064 395.981 225.846 395.86 225.625C393.765 221.819 390.731 217.31 386.759 212.096C383.87 208.55 381.703 205.595 380.258 203.231C378.945 200.867 378.288 198.7 378.288 196.73C378.288 193.447 379.47 189.441 381.834 184.713C382.753 183.006 383.476 181.298 384.001 179.591C384.526 177.884 384.789 176.636 384.789 175.848C384.789 174.403 384.067 173.353 382.622 172.696C381.177 172.039 378.616 171.711 374.939 171.711C367.059 171.711 361.871 174.6 359.376 180.379C357.743 184.238 356.09 188.033 354.415 191.766C353.126 194.64 351.825 197.477 350.511 200.276C349.823 201.711 349.156 203.081 348.51 204.387C347.435 206.557 346.416 208.548 345.454 210.361C344.631 211.912 343.849 213.333 343.108 214.623C342.947 214.903 342.788 215.177 342.631 215.445C341.052 217.926 339.147 220.697 336.915 223.758C336.911 223.764 336.906 223.77 336.902 223.776C336.206 224.73 335.48 225.711 334.721 226.721C334.665 226.796 334.609 226.87 334.552 226.945C333.661 228.13 332.726 229.353 331.748 230.614C331.613 230.787 331.478 230.961 331.342 231.136C331.254 231.249 331.165 231.363 331.076 231.477C331.015 231.555 330.955 231.633 330.894 231.711C330.868 231.744 330.842 231.777 330.816 231.811C330.755 231.865 330.695 231.92 330.634 231.974C330.6 232.005 330.566 232.035 330.532 232.065C330.344 232.233 330.155 232.399 329.966 232.564C329.318 233.129 328.661 233.68 327.992 234.22C327.023 235.001 326.032 235.756 325.018 236.484C325.017 236.485 325.016 236.485 325.015 236.486C323.875 237.305 322.707 238.09 321.51 238.842C321.505 238.846 321.499 238.849 321.493 238.853C320.645 239.385 319.783 239.901 318.907 240.4C318.636 240.554 318.363 240.707 318.089 240.858C312.641 243.821 307.61 245.706 302.996 246.513C301.271 246.814 299.604 246.965 297.995 246.965C289.92 246.965 284.124 244.634 280.609 239.973C280.431 239.737 280.259 239.496 280.093 239.248C279.805 238.818 279.534 238.369 279.28 237.903C279.436 237.865 279.592 237.826 279.747 237.788C286.772 236.039 292.854 234.017 297.995 231.722C300.79 230.474 303.307 229.146 305.545 227.737C306.783 226.957 307.936 226.153 309.004 225.324C309.027 225.305 309.051 225.287 309.075 225.269C310.206 224.386 311.241 223.475 312.179 222.537C318.746 215.97 322.029 208.156 322.029 199.094C322.029 191.345 319.731 185.238 315.134 180.773ZM295.366 213.471C295.072 213.738 294.766 214.002 294.449 214.263C290.292 217.686 284.712 220.313 277.71 222.143C277.19 222.279 276.663 222.41 276.128 222.537V222.143C276.128 221.463 276.14 220.791 276.164 220.128C276.418 213.01 278.035 206.873 281.016 201.719C281.028 201.697 281.041 201.676 281.053 201.655C284.468 196.008 288.605 193.184 293.464 193.184C295.828 193.184 297.667 193.972 298.98 195.548C300.425 196.993 301.147 198.963 301.147 201.458C301.147 205.265 299.777 208.709 297.036 211.791C296.527 212.363 295.97 212.923 295.366 213.471ZM442.688 245.505C443.927 246.347 445.362 246.768 446.993 246.768C447.134 246.768 447.274 246.764 447.413 246.757C448.379 246.705 449.321 246.474 450.241 246.065C450.704 245.858 451.162 245.606 451.614 245.309C453.527 244.049 455.336 241.975 457.04 239.085C460.014 234.043 462.669 225.118 465.007 212.312C465.044 212.11 465.08 211.906 465.117 211.702L468.86 191.805C465.522 191.886 462.336 192.725 459.301 194.32C457.44 195.299 455.635 196.561 453.888 198.109C451.801 199.898 449.904 201.957 448.196 204.287C446.634 206.419 445.23 208.777 443.984 211.362C443.593 212.175 443.217 213.011 442.856 213.869C442.41 214.93 442.001 216.002 441.627 217.084C441.502 217.447 441.381 217.81 441.263 218.175C439.977 222.182 439.178 226.328 438.868 230.614C438.769 231.979 438.719 233.358 438.719 234.751C438.719 238.691 439.442 241.712 440.886 243.813C441.432 244.495 442.032 245.059 442.688 245.505ZM114.681 69.1079C116.634 70.8053 118.428 72.8608 119.902 75.3254C122.534 79.7255 123.552 84.4408 123.552 88.848C123.552 93.9947 122.473 99.0208 120.924 103.685C116.265 118.033 111.444 137.838 106.523 163.388L106.521 163.4L106.518 163.413C102.954 181.785 100.149 199.504 98.0961 216.576C127.748 216.512 146.839 207.654 158.966 192.707L158.998 192.668L159.03 192.628C172.405 176.333 180 153.593 180 122.544C180 103.231 174.594 90.7994 165.978 82.5637C157.229 74.2 143.813 68.832 123.12 68.832C120.306 68.832 117.493 68.9237 114.681 69.1079Z" fill="white"/>
<path d="M583.815 210.02C587.492 210.02 589.331 212.778 589.331 218.294C589.331 228.669 581.188 233.857 564.903 233.857C561.751 233.857 557.22 233.266 551.31 232.084C553.017 240.227 554.396 249.289 555.447 259.27C556.629 269.12 557.22 277.263 557.22 283.698C557.22 297.882 554.922 308.717 550.325 316.203C545.728 323.689 539.687 327.432 532.201 327.432C522.745 327.432 515.981 320.734 511.91 307.338C507.97 293.942 506 273.717 506 246.662C506 221.446 508.692 195.902 514.077 170.029C519.593 144.025 527.079 122.552 536.535 105.61C546.122 88.5367 556.629 80 568.055 80C574.228 80 579.021 82.758 582.436 88.274C585.982 93.79 587.755 101.21 587.755 110.535C587.755 141.398 569.303 175.02 532.398 211.399C531.085 224.27 530.428 235.564 530.428 245.283C530.428 258.81 530.888 272.666 531.807 286.85C532.726 301.165 534.237 308.323 536.338 308.323C540.278 308.323 542.248 301.494 542.248 287.835C542.248 277.591 541.526 267.675 540.081 258.088C538.768 248.501 536.929 238.388 534.565 227.75C534.434 226.043 534.959 223.876 536.141 221.249C537.454 218.622 539.03 216.324 540.869 214.354C542.708 212.384 544.349 211.399 545.794 211.399C548.421 211.399 551.573 211.53 555.25 211.793C556.432 211.924 557.811 211.99 559.387 211.99C564.64 211.99 570.485 211.53 576.92 210.611C577.971 210.48 579.087 210.348 580.269 210.217C581.451 210.086 582.633 210.02 583.815 210.02ZM563.918 99.503C561.554 99.503 558.599 103.509 555.053 111.52C551.638 119.531 548.224 130.169 544.809 143.434C541.394 156.567 538.439 170.489 535.944 185.198C546.451 173.247 554.528 160.836 560.175 147.965C565.822 134.963 568.712 122.815 568.843 111.52C568.843 103.509 567.201 99.503 563.918 99.503Z" fill="black"/>
<path d="M674.94 204.701C676.647 204.701 677.96 205.555 678.88 207.262C679.799 208.969 680.259 211.136 680.259 213.763C680.259 220.067 678.354 223.81 674.546 224.992C666.666 227.75 657.998 229.326 648.542 229.72C646.046 240.752 641.121 249.617 633.767 256.315C626.412 262.882 618.072 266.165 608.748 266.165C600.868 266.165 594.104 264.261 588.457 260.452C582.941 256.643 578.738 251.587 575.849 245.283C572.959 238.979 571.515 232.15 571.515 224.795C571.515 214.814 573.419 205.949 577.228 198.2C581.036 190.32 586.29 184.213 592.988 179.879C599.686 175.414 607.106 173.181 615.249 173.181C625.23 173.181 633.241 176.661 639.283 183.622C645.455 190.451 649.067 198.922 650.118 209.035C656.29 208.641 663.645 207.328 672.182 205.095C673.232 204.832 674.152 204.701 674.94 204.701ZM610.324 245.283C614.526 245.283 618.138 243.576 621.159 240.161C624.311 236.746 626.412 231.821 627.463 225.386C623.391 222.628 620.239 219.016 618.007 214.551C615.905 210.086 614.855 205.358 614.855 200.367C614.855 198.266 615.052 196.164 615.446 194.063H614.461C609.207 194.063 604.808 196.624 601.262 201.746C597.847 206.737 596.14 213.829 596.14 223.022C596.14 230.245 597.519 235.761 600.277 239.57C603.166 243.379 606.515 245.283 610.324 245.283Z" fill="black"/>
<path d="M677.338 266.165C672.347 266.165 668.801 263.538 666.7 258.285C664.73 253.032 663.745 244.626 663.745 233.069C663.745 215.996 666.174 199.776 671.034 184.41C672.216 180.601 674.12 177.843 676.747 176.136C679.505 174.297 683.313 173.378 688.173 173.378C690.799 173.378 692.638 173.706 693.689 174.363C694.739 175.02 695.265 176.267 695.265 178.106C695.265 180.207 694.28 184.935 692.31 192.29C690.996 197.543 689.946 202.14 689.158 206.08C688.37 210.02 687.713 214.879 687.188 220.658C691.522 209.363 696.381 200.17 701.766 193.078C707.15 185.986 712.404 180.93 717.526 177.909C722.779 174.888 727.573 173.378 731.907 173.378C740.443 173.378 744.712 177.646 744.712 186.183C744.712 187.89 744.121 192.027 742.939 198.594C741.888 203.847 741.363 207.131 741.363 208.444C741.363 213.041 743.004 215.339 746.288 215.339C749.965 215.339 754.693 212.45 760.472 206.671C762.179 204.964 763.952 204.11 765.791 204.11C767.498 204.11 768.811 204.898 769.731 206.474C770.781 207.919 771.307 209.889 771.307 212.384C771.307 217.243 769.993 221.052 767.367 223.81C763.689 227.619 759.355 230.902 754.365 233.66C749.505 236.287 744.318 237.6 738.802 237.6C731.841 237.6 726.522 235.827 722.845 232.281C719.299 228.735 717.526 223.941 717.526 217.9C717.526 215.93 717.723 213.96 718.117 211.99C718.379 209.363 718.511 207.59 718.511 206.671C718.511 204.57 717.788 203.519 716.344 203.519C714.374 203.519 711.747 205.752 708.464 210.217C705.312 214.551 702.16 220.33 699.008 227.553C695.856 234.776 693.295 242.394 691.325 250.405C689.88 256.578 688.173 260.78 686.203 263.013C684.364 265.114 681.409 266.165 677.338 266.165Z" fill="black"/>
<path d="M777.232 266.165C769.089 266.165 762.588 263.21 757.729 257.3C752.87 251.39 750.44 243.641 750.44 234.054C750.44 223.547 752.87 213.632 757.729 204.307C762.588 194.851 769.024 187.299 777.035 181.652C785.178 175.873 793.78 172.984 802.842 172.984C805.731 172.984 807.636 173.575 808.555 174.757C809.606 175.808 810.459 177.778 811.116 180.667C813.874 180.142 816.763 179.879 819.784 179.879C826.219 179.879 829.437 182.177 829.437 186.774C829.437 189.532 828.452 196.099 826.482 206.474C823.461 221.577 821.951 232.084 821.951 237.994C821.951 239.964 822.411 241.54 823.33 242.722C824.381 243.904 825.694 244.495 827.27 244.495C829.765 244.495 832.786 242.919 836.332 239.767C839.878 236.484 844.672 231.23 850.713 224.007C852.289 222.168 854.062 221.249 856.032 221.249C857.739 221.249 859.053 222.037 859.972 223.613C861.023 225.189 861.548 227.356 861.548 230.114C861.548 235.367 860.3 239.439 857.805 242.328C852.42 249.026 846.707 254.673 840.666 259.27C834.625 263.867 828.78 266.165 823.133 266.165C818.799 266.165 814.793 264.72 811.116 261.831C807.57 258.81 804.878 254.739 803.039 249.617C796.21 260.649 787.607 266.165 777.232 266.165ZM784.324 246.268C787.213 246.268 789.971 244.561 792.598 241.146C795.225 237.731 797.129 233.2 798.311 227.553L805.6 191.305C800.084 191.436 794.962 193.538 790.234 197.609C785.637 201.549 781.96 206.802 779.202 213.369C776.444 219.936 775.065 226.896 775.065 234.251C775.065 238.322 775.853 241.343 777.429 243.313C779.136 245.283 781.435 246.268 784.324 246.268Z" fill="black"/>
<path d="M957.433 221.249C959.141 221.249 960.454 222.037 961.373 223.613C962.424 225.189 962.949 227.356 962.949 230.114C962.949 235.367 961.702 239.439 959.206 242.328C953.822 248.895 947.912 254.542 941.476 259.27C935.041 263.867 928.671 266.165 922.367 266.165C912.386 266.165 904.769 260.321 899.515 248.632C893.999 255.593 889.14 260.255 884.937 262.619C880.866 264.983 876.072 266.165 870.556 266.165C862.545 266.165 855.913 263.21 850.659 257.3C845.537 251.259 842.976 243.444 842.976 233.857C842.976 223.35 845.209 213.632 849.674 204.701C854.14 195.639 860.247 188.284 867.995 182.637C875.875 176.858 884.675 173.444 894.393 172.393C896.889 146.914 901.617 125.179 908.577 107.186C915.669 89.062 924.928 80 936.354 80C942.002 80 946.664 82.561 950.341 87.683C954.15 92.805 956.054 100.554 956.054 110.929C956.054 125.638 952.443 142.843 945.219 162.543C937.996 182.243 928.343 202.468 916.26 223.219C916.786 230.836 917.902 236.287 919.609 239.57C921.448 242.853 923.746 244.495 926.504 244.495C930.05 244.495 933.662 242.919 937.339 239.767C941.017 236.615 945.942 231.362 952.114 224.007C953.69 222.168 955.463 221.249 957.433 221.249ZM934.187 99.306C931.692 99.306 929.197 103.771 926.701 112.702C924.206 121.501 922.039 133.059 920.2 147.374C918.493 161.689 917.245 176.661 916.457 192.29C931.167 160.245 938.521 134.503 938.521 115.066C938.521 110.075 938.062 106.201 937.142 103.443C936.354 100.685 935.369 99.306 934.187 99.306ZM877.451 246.268C879.947 246.268 882.442 245.283 884.937 243.313C887.433 241.212 890.585 237.403 894.393 231.887C893.08 224.795 892.423 216.849 892.423 208.05C892.423 204.898 892.555 199.776 892.817 192.684C885.594 194.917 879.553 199.776 874.693 207.262C869.965 214.617 867.601 222.825 867.601 231.887C867.601 241.474 870.885 246.268 877.451 246.268Z" fill="black"/>
<path d="M967.654 266.165C960.168 266.165 954.061 263.21 949.333 257.3C944.736 251.39 942.438 243.641 942.438 234.054C942.438 223.547 944.868 213.632 949.727 204.307C954.586 194.851 961.022 187.299 969.033 181.652C977.176 175.873 985.778 172.984 994.84 172.984C997.729 172.984 999.634 173.575 1000.55 174.757C1001.6 175.808 1002.46 177.778 1003.11 180.667C1005.61 180.142 1008.37 179.879 1011.39 179.879C1014.54 179.879 1016.97 180.667 1018.68 182.243C1020.38 183.819 1021.24 186.052 1021.24 188.941C1021.24 191.962 1020.58 197.215 1019.27 204.701C1017.82 212.712 1016.71 220.395 1015.92 227.75C1015.13 234.973 1014.74 243.116 1014.74 252.178C1014.74 257.169 1013.69 260.78 1011.59 263.013C1009.62 265.114 1006.33 266.165 1001.74 266.165C997.27 266.165 993.921 265.114 991.688 263.013C989.587 260.78 988.536 257.234 988.536 252.375L988.733 249.223C984.662 260.518 977.635 266.165 967.654 266.165ZM975.337 246.268C979.014 246.268 982.363 243.707 985.384 238.585C988.405 233.463 991.097 224.335 993.461 211.202L997.204 191.305C991.819 191.436 986.829 193.538 982.232 197.609C977.635 201.549 973.958 206.802 971.2 213.369C968.442 219.936 967.063 226.896 967.063 234.251C967.063 238.191 967.785 241.212 969.23 243.313C970.806 245.283 972.842 246.268 975.337 246.268Z" fill="black"/>
<path fill-rule="evenodd" clip-rule="evenodd" d="M543.45 212.156C544.282 211.651 545.063 211.399 545.794 211.399C548.231 211.399 551.12 211.512 554.461 211.738C554.721 211.756 554.984 211.774 555.25 211.793C555.77 211.851 556.329 211.896 556.925 211.928C557.684 211.969 558.505 211.99 559.387 211.99C563.508 211.99 567.993 211.707 572.842 211.141C573.519 207.855 574.456 204.72 575.652 201.738C575.692 201.638 575.733 201.538 575.773 201.438C576.223 200.338 576.707 199.259 577.228 198.2C577.676 197.272 578.144 196.369 578.633 195.491C579.282 194.323 579.967 193.199 580.687 192.118C584.026 187.104 588.126 183.025 592.988 179.879C599.686 175.414 607.106 173.181 615.249 173.181C620.493 173.181 625.193 174.142 629.35 176.063C631.86 177.223 634.171 178.734 636.285 180.595C637.333 181.518 638.332 182.527 639.283 183.622C643.661 188.466 646.751 194.136 648.552 200.632C649.291 203.294 649.812 206.095 650.118 209.035C652.034 208.913 654.065 208.702 656.21 208.402C659.184 207.986 662.378 207.4 665.792 206.644C666.136 204.485 666.523 202.341 666.953 200.213C667.5 197.51 668.117 194.831 668.803 192.177C668.828 192.079 668.854 191.982 668.879 191.884C669.295 190.289 669.736 188.702 670.203 187.125C670.472 186.217 670.748 185.312 671.034 184.41C672.216 180.601 674.12 177.843 676.747 176.136C679.505 174.297 683.313 173.378 688.173 173.378C690.799 173.378 692.638 173.706 693.689 174.363C693.747 174.4 693.804 174.438 693.859 174.478C694.796 175.16 695.265 176.37 695.265 178.106C695.265 179.644 694.737 182.589 693.682 186.94C693.295 188.535 692.838 190.318 692.31 192.29C692.127 193.019 691.95 193.735 691.778 194.439C691.194 196.827 690.668 199.069 690.2 201.166C689.813 202.904 689.465 204.542 689.158 206.08C689.068 206.528 688.98 206.987 688.894 207.459C688.546 209.366 688.225 211.467 687.932 213.763C687.66 215.894 687.412 218.192 687.188 220.658C688.106 218.265 689.047 215.967 690.013 213.763C691.064 211.363 692.143 209.075 693.25 206.898C694.178 205.074 695.125 203.329 696.092 201.662C696.152 201.558 696.213 201.454 696.273 201.351C696.286 201.328 696.3 201.306 696.313 201.283C697.73 198.866 699.188 196.616 700.689 194.534C700.719 194.492 700.75 194.45 700.78 194.408C701.107 193.956 701.435 193.513 701.766 193.078C703.011 191.437 704.25 189.906 705.482 188.483C708.055 185.51 710.598 183.013 713.11 180.991C714.593 179.798 716.064 178.771 717.526 177.909C722.779 174.888 727.573 173.378 731.907 173.378C740.443 173.378 744.712 177.646 744.712 186.183C744.712 187.192 744.505 189.049 744.093 191.754C743.874 193.188 743.597 194.859 743.263 196.768C743.257 196.8 743.252 196.832 743.246 196.864C743.187 197.201 743.126 197.545 743.064 197.897C743.063 197.898 743.063 197.9 743.063 197.902C743.022 198.129 742.981 198.36 742.939 198.594C741.888 203.847 741.363 207.131 741.363 208.444C741.363 213.041 743.004 215.339 746.288 215.339C748.018 215.339 749.981 214.699 752.177 213.42C752.544 213.205 752.919 212.973 753.3 212.723C753.31 212.716 753.32 212.71 753.33 212.703C753.38 212.67 753.43 212.637 753.481 212.603C753.588 212.531 753.695 212.458 753.804 212.384C753.971 212.269 754.14 212.15 754.31 212.028C754.369 211.867 754.429 211.706 754.489 211.546C754.505 211.505 754.52 211.463 754.536 211.422C754.914 210.423 755.319 209.43 755.75 208.444C756.357 207.052 757.017 205.673 757.729 204.307C757.768 204.231 757.808 204.155 757.847 204.078C757.851 204.071 757.854 204.064 757.858 204.057C758.251 203.299 758.655 202.553 759.068 201.82C759.123 201.722 759.179 201.625 759.234 201.527C759.895 200.368 760.582 199.24 761.294 198.143C762.694 195.988 764.192 193.952 765.791 192.037C767.382 190.129 769.073 188.34 770.861 186.67C772.803 184.857 774.861 183.184 777.035 181.652C785.178 175.873 793.78 172.984 802.842 172.984C804.046 172.984 805.079 173.087 805.941 173.292C807.147 173.579 808.019 174.067 808.555 174.757C809.606 175.808 810.459 177.777 811.116 180.667C811.116 180.667 811.116 180.667 811.116 180.667C813.874 180.141 816.763 179.879 819.784 179.879C822.396 179.879 824.478 180.258 826.03 181.015C828.301 182.123 829.437 184.043 829.437 186.774C829.437 189.532 828.452 196.099 826.482 206.474C823.461 221.577 821.951 232.084 821.951 237.994C821.951 239.964 822.411 241.54 823.33 242.722C824.035 243.516 824.859 244.043 825.801 244.304C826.263 244.431 826.752 244.495 827.27 244.495C828.888 244.495 830.726 243.833 832.784 242.509C833.902 241.79 835.085 240.876 836.332 239.767C836.913 239.229 837.528 238.638 838.176 237.994C838.685 237.488 839.215 236.949 839.766 236.378C839.849 236.292 839.933 236.205 840.017 236.117C840.693 235.412 841.399 234.659 842.136 233.857C842.414 233.555 842.696 233.246 842.982 232.93C842.986 232.621 842.992 232.312 843 232.004C843.114 227.487 843.648 223.118 844.603 218.897C844.611 218.861 844.619 218.826 844.627 218.791C845.743 213.894 847.426 209.198 849.674 204.701C849.79 204.467 849.906 204.234 850.023 204.002C854.456 195.26 860.447 188.138 867.995 182.637C875.875 176.858 884.675 173.444 894.393 172.393C896.889 146.914 901.617 125.179 908.577 107.186C909.837 103.967 911.165 101.034 912.561 98.3864C916.075 91.7253 920.021 86.8741 924.4 83.8328C928.079 81.2776 932.064 80 936.354 80C942.002 80 946.664 82.561 950.341 87.683C953.261 91.6097 955.062 97.08 955.743 104.094C955.95 106.229 956.054 108.508 956.054 110.929C956.054 112.287 956.023 113.666 955.962 115.066C955.357 128.836 951.776 144.661 945.219 162.543C942.157 170.895 938.658 179.341 934.722 187.882C933.924 189.613 933.108 191.348 932.275 193.088C931.433 194.843 930.573 196.603 929.695 198.366C929.596 198.565 929.497 198.763 929.398 198.961C925.395 206.966 921.016 215.052 916.26 223.219C916.786 230.836 917.902 236.287 919.609 239.57C921.146 242.314 923.004 243.911 925.183 244.362C925.611 244.451 926.051 244.495 926.504 244.495C929.1 244.495 931.73 243.651 934.396 241.962C935.372 241.344 936.353 240.612 937.339 239.767C938.834 238.485 940.536 236.856 942.444 234.88C942.441 234.661 942.439 234.442 942.438 234.221C942.438 234.165 942.438 234.11 942.438 234.054C942.438 228.415 943.138 222.946 944.538 217.648C944.547 217.611 944.557 217.575 944.567 217.538C945.751 213.089 947.428 208.761 949.6 204.552C949.642 204.471 949.685 204.389 949.727 204.307C954.586 194.851 961.022 187.299 969.033 181.652C977.176 175.873 985.778 172.984 994.84 172.984C996.026 172.984 997.046 173.084 997.9 173.283C999.127 173.569 1000.01 174.06 1000.55 174.757C1001.6 175.808 1002.46 177.777 1003.11 180.666C1003.11 180.666 1003.11 180.666 1003.11 180.666C1005.61 180.141 1008.37 179.879 1011.39 179.879C1013.82 179.879 1015.83 180.35 1017.4 181.292C1017.87 181.568 1018.29 181.885 1018.68 182.243C1020.38 183.819 1021.24 186.052 1021.24 188.941C1021.24 191.962 1020.58 197.215 1019.27 204.701C1017.82 212.712 1016.71 220.395 1015.92 227.75C1015.13 234.973 1014.74 243.116 1014.74 252.178C1014.74 257.169 1013.69 260.78 1011.59 263.013C1009.62 265.114 1006.33 266.165 1001.74 266.165C1001.29 266.165 1000.85 266.154 1000.42 266.133C996.606 265.943 993.696 264.903 991.688 263.013C990.895 262.17 990.251 261.14 989.757 259.923C988.943 257.916 988.536 255.4 988.536 252.375L988.733 249.223C988.344 250.303 987.927 251.332 987.484 252.309C987.474 252.331 987.464 252.353 987.454 252.375C984.83 258.126 981.265 262.078 976.758 264.231C975.472 264.846 974.109 265.314 972.67 265.636C971.09 265.989 969.418 266.165 967.654 266.165C965.692 266.165 963.825 265.962 962.053 265.556C957.062 264.413 952.822 261.661 949.333 257.3C948.685 256.466 948.082 255.596 947.525 254.689C947.489 254.63 947.453 254.572 947.418 254.514C946.662 255.171 945.898 255.815 945.126 256.444C943.929 257.42 942.712 258.362 941.476 259.27C938.4 261.467 935.34 263.139 932.294 264.286C928.967 265.539 925.658 266.165 922.367 266.165C918.152 266.165 914.359 265.123 910.987 263.038C907.263 260.736 904.053 257.163 901.357 252.318C900.714 251.162 900.1 249.933 899.515 248.632C897.755 250.853 896.062 252.84 894.436 254.593C894.328 254.709 894.221 254.823 894.114 254.937C891.233 258.005 888.564 260.33 886.107 261.913C885.711 262.167 885.322 262.403 884.937 262.619C884.214 263.039 883.468 263.421 882.7 263.767C879.141 265.366 875.093 266.165 870.556 266.165C867.4 266.165 864.457 265.706 861.729 264.789C857.533 263.378 853.843 260.881 850.659 257.3C849.653 256.113 848.745 254.857 847.936 253.533C847.878 253.437 847.82 253.342 847.763 253.245C846.398 254.53 845.015 255.755 843.613 256.923C842.64 257.733 841.657 258.516 840.666 259.27C838.128 261.201 835.625 262.727 833.156 263.847C829.749 265.392 826.408 266.165 823.133 266.165C820.224 266.165 817.463 265.514 814.85 264.212C813.57 263.575 812.325 262.781 811.116 261.831C808.718 259.788 806.711 257.265 805.093 254.261C804.319 252.823 803.634 251.275 803.039 249.617C799.103 255.976 794.578 260.502 789.463 263.195C788.875 263.505 788.278 263.791 787.674 264.053C784.42 265.461 780.939 266.165 777.232 266.165C769.089 266.165 762.588 263.21 757.729 257.3C756.633 255.967 755.66 254.54 754.811 253.019C752.083 248.133 750.632 242.281 750.458 235.462C746.751 236.887 742.865 237.6 738.802 237.6C736.526 237.6 734.426 237.411 732.501 237.032C728.539 236.251 725.32 234.668 722.845 232.281C721.31 230.747 720.108 228.979 719.237 226.977C718.508 225.3 718.012 223.459 717.749 221.455C717.6 220.322 717.526 219.137 717.526 217.9C717.526 217.564 717.531 217.229 717.543 216.893C717.544 216.869 717.544 216.846 717.545 216.822C717.604 215.211 717.795 213.601 718.117 211.99C718.379 209.363 718.511 207.59 718.511 206.671C718.511 204.617 717.82 203.567 716.44 203.521C716.408 203.52 716.376 203.519 716.344 203.519C716.116 203.519 715.88 203.549 715.635 203.608C714.424 203.903 713 204.923 711.362 206.671C710.49 207.601 709.558 208.738 708.565 210.08C708.531 210.125 708.498 210.171 708.464 210.217C708.284 210.464 708.105 210.715 707.926 210.971C707.318 211.838 706.711 212.758 706.103 213.732C705.593 214.551 705.083 215.407 704.572 216.302C704.275 216.822 703.979 217.354 703.682 217.9C702.983 219.185 702.285 220.54 701.586 221.967C701.09 222.979 700.595 224.026 700.099 225.109C700.034 225.251 699.969 225.394 699.904 225.538C699.82 225.723 699.736 225.909 699.652 226.097C699.437 226.576 699.222 227.061 699.008 227.553C695.856 234.776 693.295 242.394 691.325 250.405C689.88 256.578 688.173 260.78 686.203 263.013C684.364 265.114 681.409 266.165 677.338 266.165C672.347 266.165 668.801 263.538 666.7 258.285C665.57 255.273 664.765 251.225 664.283 246.141C664.142 244.659 664.029 243.089 663.944 241.43C663.812 238.881 663.746 236.124 663.745 233.159C663.745 233.129 663.745 233.099 663.745 233.069C663.745 231.344 663.769 229.627 663.819 227.919C658.978 228.897 653.886 229.497 648.542 229.72C648.284 230.859 648 231.976 647.691 233.069C647.147 234.99 646.523 236.84 645.818 238.619C643.044 245.626 639.027 251.525 633.767 256.315C626.412 262.882 618.072 266.165 608.748 266.165C600.868 266.165 594.104 264.261 588.457 260.452C584.59 257.782 581.369 254.499 578.793 250.603C577.694 248.941 576.713 247.168 575.849 245.283C574.126 241.523 572.916 237.577 572.221 233.443C571.493 233.533 570.743 233.609 569.969 233.67C568.379 233.795 566.69 233.857 564.903 233.857C562.246 233.857 558.608 233.437 553.99 232.597C553.972 232.594 553.955 232.59 553.937 232.587C553.094 232.433 552.218 232.266 551.31 232.084C552.529 237.897 553.58 244.179 554.465 250.929C554.675 252.536 554.876 254.17 555.068 255.83C555.075 255.897 555.083 255.964 555.091 256.032C555.214 257.1 555.332 258.18 555.447 259.27C556.629 269.12 557.22 277.263 557.22 283.698C557.22 285.11 557.197 286.489 557.152 287.835C556.74 300.006 554.464 309.462 550.325 316.203C547.31 321.113 543.673 324.413 539.415 326.103C537.181 326.989 534.777 327.432 532.201 327.432C522.745 327.432 515.981 320.734 511.91 307.338C507.97 293.942 506 273.717 506 246.662C506 221.446 508.692 195.902 514.077 170.029C519.593 144.025 527.079 122.552 536.535 105.61C538.602 101.929 540.712 98.6445 542.865 95.757C547.563 89.4545 552.465 85.0427 557.571 82.5215C560.975 80.8405 564.47 80 568.055 80C574.228 80 579.021 82.758 582.436 88.274C585.982 93.79 587.755 101.21 587.755 110.535C587.755 121.149 585.573 132.09 581.208 143.356C579.736 147.154 578.017 150.989 576.05 154.86C576.04 154.879 576.031 154.899 576.021 154.918C569.682 167.38 560.774 180.226 549.298 193.456C548.73 194.111 548.156 194.766 547.575 195.423C546.988 196.088 546.394 196.753 545.794 197.419C542.391 201.196 538.781 205.004 534.965 208.843C534.519 209.292 534.071 209.74 533.619 210.189C533.214 210.592 532.807 210.995 532.398 211.399C532.2 213.342 532.017 215.248 531.848 217.119C531.791 217.757 531.735 218.39 531.681 219.019C531.675 219.091 531.669 219.162 531.663 219.234C531.519 220.925 531.388 222.586 531.269 224.216C531.175 225.504 531.089 226.773 531.011 228.023C531 228.198 530.989 228.373 530.979 228.547C530.612 234.566 530.428 240.145 530.428 245.283C530.428 249.946 530.483 254.647 530.592 259.388C530.593 259.431 530.594 259.474 530.595 259.517C530.803 268.489 531.207 277.6 531.807 286.85C531.828 287.182 531.85 287.511 531.872 287.835C531.945 288.913 532.022 289.949 532.102 290.943C532.775 299.3 533.697 304.643 534.869 306.973C535.321 307.873 535.811 308.323 536.338 308.323C536.661 308.323 536.971 308.277 537.267 308.185C540.262 307.258 541.906 301.649 542.2 291.359C542.232 290.239 542.248 289.065 542.248 287.835C542.248 287.282 542.246 286.731 542.242 286.18C542.242 286.178 542.242 286.176 542.242 286.174C542.235 285.346 542.224 284.521 542.208 283.698C542.06 275.963 541.492 268.418 540.505 261.063C540.495 260.991 540.485 260.918 540.475 260.846C540.351 259.924 540.219 259.004 540.081 258.088C539.51 253.919 538.839 249.651 538.07 245.283C537.491 241.998 536.856 238.657 536.164 235.26C535.661 232.786 535.128 230.283 534.565 227.75C534.434 226.043 534.959 223.876 536.141 221.249C536.816 219.9 537.56 218.637 538.373 217.461C539.143 216.347 539.975 215.312 540.869 214.354C541.597 213.574 542.295 212.948 542.961 212.477C543.126 212.36 543.289 212.253 543.45 212.156ZM599.937 239.082C600.048 239.248 600.161 239.41 600.277 239.57C603.166 243.379 606.515 245.283 610.324 245.283C614.526 245.283 618.138 243.576 621.159 240.161C624.311 236.746 626.412 231.821 627.463 225.386C623.391 222.628 620.239 219.016 618.007 214.551C616.815 212.019 615.962 209.403 615.446 206.702C615.052 204.64 614.855 202.528 614.855 200.367C614.855 198.266 615.052 196.164 615.446 194.063H614.461C609.702 194.063 605.644 196.164 602.286 200.367C602.181 200.499 602.076 200.634 601.971 200.77C601.731 201.084 601.495 201.41 601.262 201.746C599.731 203.983 598.543 206.643 597.699 209.724C596.996 212.289 596.531 215.145 596.303 218.294C596.194 219.803 596.14 221.379 596.14 223.022C596.14 229.943 597.406 235.296 599.937 239.082ZM564.137 99.5091C564.065 99.505 563.992 99.503 563.918 99.503C562.231 99.503 560.243 101.543 557.953 105.624C557.056 107.223 556.113 109.135 555.124 111.36C555.1 111.413 555.077 111.467 555.053 111.52C554.749 112.234 554.444 112.969 554.14 113.725C551.202 121.022 548.263 130.263 545.325 141.449C545.32 141.469 545.315 141.489 545.31 141.508C545.143 142.144 544.976 142.786 544.809 143.434C541.767 155.136 539.089 167.463 536.776 180.416C536.493 182.001 536.216 183.595 535.944 185.198C546.451 173.247 554.528 160.836 560.175 147.965C560.245 147.804 560.314 147.644 560.383 147.483C560.388 147.471 560.393 147.459 560.399 147.447C561.897 143.958 563.196 140.53 564.296 137.164C566.523 130.351 567.932 123.791 568.525 117.483C568.532 117.412 568.538 117.341 568.545 117.271C568.559 117.113 568.573 116.955 568.586 116.797C568.737 115.018 568.823 113.259 568.843 111.52C568.843 103.689 567.274 99.685 564.137 99.5091ZM594.001 159.139C601.656 142.968 605.755 126.758 605.755 110.535C605.755 99.2 603.64 88.0429 597.659 78.6682C591.161 68.2581 580.784 62 568.055 62C546.443 62 531.271 78.2209 520.84 96.7968L520.829 96.8171L520.817 96.8374C510.225 115.815 502.231 139.13 496.469 166.294L496.462 166.328L496.455 166.361C490.831 193.383 488 220.156 488 246.662C488 274.145 489.952 296.474 494.641 312.417L494.664 312.495L494.688 312.572C497.213 320.88 501.101 328.989 507.371 335.198C514.098 341.86 522.694 345.432 532.201 345.432C547.122 345.432 558.461 337.353 565.664 325.622C572.764 314.059 575.22 299.36 575.22 283.698C575.22 280.336 575.082 276.667 574.817 272.709C575.913 273.598 577.051 274.451 578.229 275.264L578.311 275.32L578.392 275.375C587.459 281.49 597.859 284.165 608.748 284.165C622.764 284.165 635.308 279.069 645.755 269.742L645.821 269.683L645.887 269.623C647.385 268.258 648.804 266.836 650.145 265.359C652.103 270.101 655.243 274.972 660.221 278.659C665.493 282.564 671.512 284.165 677.338 284.165C684.166 284.165 693.149 282.393 699.731 274.887C704.834 269.083 707.307 261.077 708.826 254.612C709.546 251.693 710.352 248.846 711.243 246.069C718.475 252.57 727.435 255.124 736.165 255.538C737.972 260.237 740.489 264.674 743.825 268.732C752.348 279.097 764.102 284.165 777.232 284.165C786.436 284.165 794.494 281.544 801.398 277.04C807.683 281.563 815.048 284.165 823.133 284.165C831.653 284.165 839.442 281.396 846.343 277.176C853.429 281.795 861.639 284.165 870.556 284.165C878.658 284.165 886.643 282.415 893.871 278.246C895.197 277.494 896.501 276.651 897.782 275.729C897.924 275.841 898.067 275.952 898.211 276.063C905.295 281.497 913.583 284.165 922.367 284.165C930.72 284.165 938.509 281.805 945.606 277.91C952.034 282.009 959.497 284.165 967.654 284.165C973.69 284.165 979.593 282.924 985.011 280.234C990.559 283.282 996.584 284.165 1001.74 284.165C1008.42 284.165 1017.78 282.727 1024.72 275.324C1031.41 268.194 1032.74 259.02 1032.74 252.178C1032.74 243.616 1033.11 236.142 1033.81 229.702L1033.81 229.685L1033.82 229.668C1034.55 222.781 1035.61 215.525 1036.98 207.895L1036.99 207.853L1037 207.811C1038.3 200.38 1039.24 193.713 1039.24 188.941C1039.24 182.339 1037.15 174.798 1030.89 169.017C1025.42 163.971 1018.88 162.223 1013.22 161.927C1006.84 155.352 998.256 154.984 994.84 154.984C983.791 154.984 973.436 157.995 963.975 163.513C970.471 144.594 974.054 126.977 974.054 110.929C974.054 98.9602 971.966 86.6809 964.878 77.0669C958.276 67.938 948.488 62 936.354 62C913.094 62 899.517 80.9443 891.815 100.627L891.802 100.659L891.79 100.692C885.374 117.275 880.834 136.288 877.99 157.546C870.652 159.899 863.757 163.428 857.372 168.106C853.21 171.142 849.424 174.544 846.015 178.29C844.528 174.049 841.799 170.036 837.486 166.956C832.014 163.047 825.881 162.054 821.194 161.902C814.824 155.351 806.254 154.984 802.842 154.984C789.676 154.984 777.495 159.259 766.639 166.958C764.305 168.605 762.082 170.368 759.971 172.244C758.672 169.297 756.821 166.434 754.238 163.851C747.538 157.151 738.95 155.378 731.907 155.378C723.415 155.378 715.503 158.308 708.553 162.305L708.467 162.354L708.382 162.404C708.153 162.54 707.924 162.677 707.696 162.816C706.479 161.472 705.007 160.21 703.229 159.099C697.537 155.542 691.158 155.378 688.173 155.378C681.357 155.378 673.623 156.619 666.85 161.101C661.352 164.702 657.722 169.654 655.418 174.861C654.574 173.78 653.687 172.721 652.756 171.685C643.001 160.525 629.897 155.181 615.249 155.181C607.822 155.181 600.699 156.506 594.001 159.139ZM775.927 240.476C775.352 238.784 775.065 236.709 775.065 234.251C775.065 233.265 775.09 232.286 775.139 231.315C775.141 231.282 775.143 231.25 775.144 231.217C775.474 224.976 776.826 219.026 779.202 213.369C779.341 213.037 779.483 212.709 779.627 212.384C781.104 209.05 782.829 206.068 784.8 203.44C785.513 202.488 786.259 201.582 787.038 200.723C788.049 199.607 789.114 198.569 790.234 197.609C791.989 196.098 793.798 194.858 795.662 193.889C798.819 192.249 802.132 191.388 805.6 191.305L798.311 227.553C797.129 233.2 795.225 237.731 792.598 241.146C792.233 241.621 791.865 242.062 791.495 242.471C789.202 245.002 786.812 246.268 784.324 246.268C783.779 246.268 783.254 246.233 782.751 246.163C780.588 245.861 778.814 244.911 777.429 243.313C776.804 242.532 776.304 241.586 775.927 240.476ZM877.093 246.263C877.211 246.266 877.331 246.268 877.451 246.268C879.947 246.268 882.442 245.283 884.937 243.313C885.973 242.44 887.123 241.273 888.385 239.812C890.163 237.754 892.166 235.113 894.393 231.887C894.105 230.328 893.848 228.728 893.622 227.087C893.041 222.848 892.671 218.335 892.512 213.547C892.453 211.753 892.423 209.921 892.423 208.05C892.423 204.898 892.555 199.776 892.817 192.684C885.594 194.917 879.553 199.776 874.693 207.262C874.603 207.403 874.513 207.545 874.424 207.686C873.809 208.666 873.235 209.661 872.703 210.671C871.637 212.695 870.738 214.779 870.006 216.923C869.889 217.266 869.777 217.611 869.668 217.957C868.458 221.817 867.779 225.87 867.632 230.114C867.611 230.701 867.601 231.292 867.601 231.887C867.601 240.946 870.533 245.725 876.396 246.224C876.624 246.244 876.856 246.257 877.093 246.263ZM916.457 192.29C922.29 179.582 926.967 167.866 930.487 157.141C931.397 154.366 932.23 151.658 932.986 149.016C932.997 148.978 933.008 148.941 933.019 148.903C936.482 136.772 938.31 126.041 938.504 116.712C938.509 116.491 938.512 116.271 938.515 116.052C938.515 116.036 938.515 116.019 938.516 116.003C938.519 115.689 938.521 115.377 938.521 115.066C938.521 113.589 938.481 112.21 938.4 110.929C938.296 109.258 938.122 107.754 937.88 106.415C937.681 105.312 937.435 104.321 937.142 103.443C936.354 100.685 935.369 99.306 934.187 99.306C934.044 99.306 933.901 99.3206 933.759 99.3499C932.168 99.676 930.577 101.817 928.986 105.773C928.948 105.868 928.909 105.964 928.871 106.061C928.85 106.114 928.83 106.167 928.809 106.221C928.106 108.027 927.404 110.188 926.701 112.702C926.484 113.469 926.269 114.257 926.056 115.066C926.048 115.096 926.041 115.125 926.033 115.155C923.817 123.612 921.873 134.352 920.2 147.374C918.82 158.946 917.74 170.948 916.961 183.378C916.776 186.325 916.608 189.295 916.457 192.29ZM977.978 245.808C978.181 245.736 978.383 245.654 978.585 245.565C979.048 245.358 979.506 245.106 979.958 244.809C981.871 243.549 983.68 241.475 985.384 238.585C988.358 233.543 991.013 224.618 993.351 211.812C993.388 211.61 993.424 211.406 993.461 211.202L997.204 191.305C993.866 191.386 990.68 192.225 987.645 193.82C985.783 194.799 983.979 196.061 982.232 197.609C980.145 199.398 978.248 201.457 976.54 203.787C975.252 205.544 974.072 207.456 972.999 209.521C972.361 210.749 971.762 212.032 971.2 213.369C970.528 214.97 969.937 216.595 969.429 218.243C969.345 218.513 969.264 218.784 969.185 219.056C968.145 222.633 967.487 226.319 967.212 230.114C967.113 231.479 967.063 232.858 967.063 234.251C967.063 238.191 967.785 241.212 969.23 243.313C969.776 243.995 970.376 244.559 971.032 245.005C972.27 245.847 973.706 246.268 975.337 246.268C976.237 246.268 977.117 246.115 977.978 245.808Z" fill="white"/>
<path d="M630.846 305.986C630.797 306.214 630.691 306.393 630.528 306.523C630.366 306.654 630.187 306.719 629.991 306.719C629.698 306.719 629.462 306.629 629.283 306.45C629.104 306.255 629.015 306.035 629.015 305.791C629.015 305.547 629.039 305.311 629.088 305.083C629.137 304.839 629.161 304.603 629.161 304.375C629.161 303.187 628.795 302.121 628.062 301.177C627.33 300.233 626.288 299.443 624.938 298.809C623.603 298.158 621.975 297.661 620.055 297.319C618.134 296.978 615.994 296.807 613.634 296.807C611.827 296.807 610.004 296.929 608.165 297.173C606.342 297.401 604.584 297.743 602.892 298.198C601.215 298.638 599.645 299.199 598.18 299.883C596.715 300.55 595.437 301.331 594.347 302.227C593.272 303.105 592.426 304.09 591.808 305.181C591.189 306.255 590.88 307.435 590.88 308.721C590.88 309.714 591.091 310.592 591.515 311.357C591.954 312.106 592.548 312.765 593.297 313.335C594.046 313.888 594.924 314.368 595.934 314.775C596.959 315.166 598.066 315.5 599.254 315.776C600.442 316.037 601.679 316.257 602.965 316.436C604.251 316.598 605.545 316.737 606.847 316.851L610.606 317.168C612.478 317.331 614.155 317.502 615.636 317.681C617.117 317.86 618.419 318.088 619.542 318.364C621.414 318.836 622.797 319.512 623.692 320.391C624.588 321.27 625.035 322.441 625.035 323.906C625.035 325.322 624.645 326.567 623.863 327.642C623.082 328.716 622.016 329.619 620.665 330.352C619.314 331.084 617.735 331.637 615.929 332.012C614.122 332.386 612.185 332.573 610.118 332.573C607.872 332.573 605.895 332.419 604.186 332.109C602.493 331.816 601.069 331.491 599.913 331.133C598.774 330.758 597.903 330.417 597.301 330.107C596.699 329.798 596.373 329.627 596.324 329.595C596.031 329.432 595.885 329.172 595.885 328.813C595.885 328.537 595.982 328.317 596.178 328.154C596.373 327.975 596.585 327.886 596.812 327.886C596.992 327.886 597.154 327.935 597.301 328.032C597.317 328.032 597.594 328.179 598.131 328.472C598.684 328.748 599.498 329.058 600.572 329.399C601.663 329.741 603.006 330.05 604.601 330.327C606.196 330.604 608.051 330.742 610.167 330.742C612.267 330.742 614.122 330.571 615.733 330.229C617.345 329.888 618.696 329.416 619.786 328.813C620.893 328.195 621.723 327.479 622.276 326.665C622.846 325.835 623.131 324.94 623.131 323.979C623.131 323.41 623.025 322.922 622.813 322.515C622.618 322.091 622.341 321.733 621.983 321.44C621.625 321.131 621.194 320.871 620.689 320.659C620.201 320.448 619.664 320.269 619.078 320.122C618.46 319.959 617.792 319.821 617.076 319.707C616.376 319.593 615.652 319.495 614.903 319.414C614.155 319.333 613.398 319.259 612.633 319.194C611.884 319.129 611.144 319.064 610.411 318.999L606.651 318.682C603.689 318.438 601.101 318.063 598.888 317.559C596.69 317.038 594.859 316.379 593.395 315.581C591.93 314.767 590.831 313.799 590.099 312.676C589.366 311.553 589 310.243 589 308.745C589 307.215 589.342 305.815 590.025 304.546C590.725 303.26 591.669 302.104 592.857 301.079C594.062 300.054 595.462 299.167 597.057 298.418C598.668 297.653 600.385 297.018 602.208 296.514C604.031 296.009 605.919 295.635 607.872 295.391C609.825 295.13 611.746 295 613.634 295C615.994 295 618.045 295.146 619.786 295.439C621.544 295.716 623.041 296.082 624.278 296.538C625.532 296.978 626.557 297.482 627.354 298.052C628.152 298.621 628.795 299.183 629.283 299.736C630.439 301.087 631.017 302.625 631.017 304.351C631.017 304.92 630.96 305.465 630.846 305.986Z" fill="black"/>
<path d="M641.075 324.81C641.075 326.307 640.807 327.585 640.27 328.643C639.732 329.701 639.073 330.506 638.292 331.06H638.39C639.35 331.06 640.221 330.848 641.002 330.425C641.799 329.985 642.516 329.432 643.15 328.765C643.785 328.081 644.355 327.324 644.859 326.494C645.364 325.664 645.812 324.858 646.202 324.077C646.284 323.898 646.397 323.76 646.544 323.662C646.707 323.564 646.878 323.516 647.057 323.516C647.333 323.516 647.553 323.613 647.716 323.809C647.879 324.004 647.96 324.215 647.96 324.443C647.96 324.574 647.936 324.696 647.887 324.81C647.464 325.754 646.959 326.706 646.373 327.666C645.787 328.61 645.104 329.465 644.322 330.229C643.541 330.994 642.662 331.613 641.686 332.085C640.709 332.573 639.627 332.817 638.438 332.817C637.576 332.817 636.738 332.679 635.924 332.402C635.11 332.142 634.394 331.727 633.775 331.157C633.548 330.978 633.352 330.791 633.189 330.596C633.027 330.384 632.896 330.189 632.799 330.01C632.766 329.977 632.75 329.945 632.75 329.912C632.652 329.766 632.604 329.611 632.604 329.448C632.604 329.237 632.677 329.041 632.823 328.862C632.84 328.83 632.856 328.813 632.872 328.813C632.888 328.797 632.905 328.781 632.921 328.765C633.084 328.618 633.263 328.537 633.458 328.521H633.531C633.613 328.521 633.67 328.529 633.702 328.545C633.718 328.545 633.727 328.553 633.727 328.569C633.743 328.569 633.759 328.569 633.775 328.569C633.824 328.569 633.881 328.586 633.946 328.618C633.963 328.634 633.979 328.643 633.995 328.643C634.142 328.74 634.264 328.862 634.361 329.009C634.475 329.204 634.605 329.383 634.752 329.546C634.882 329.676 635.037 329.798 635.216 329.912C635.395 330.01 635.598 330.059 635.826 330.059C636.233 330.059 636.64 329.937 637.047 329.692C637.454 329.448 637.82 329.098 638.146 328.643C638.471 328.187 638.731 327.633 638.927 326.982C639.138 326.331 639.244 325.607 639.244 324.81C639.244 324.224 639.179 323.727 639.049 323.32C638.935 322.897 638.78 322.555 638.585 322.295C638.406 322.035 638.211 321.847 637.999 321.733C637.787 321.603 637.584 321.538 637.389 321.538C636.949 321.538 636.502 321.766 636.046 322.222C635.606 322.677 635.167 323.255 634.728 323.955C634.288 324.655 633.849 325.428 633.409 326.274C632.986 327.121 632.555 327.943 632.115 328.74C632.083 331.377 632.034 333.892 631.969 336.284C631.92 338.677 631.822 340.898 631.676 342.949C631.546 345 631.358 346.855 631.114 348.516C630.87 350.176 630.536 351.592 630.113 352.764C629.69 353.952 629.169 354.863 628.551 355.498C627.932 356.133 627.175 356.45 626.28 356.45C626.004 356.45 625.686 356.393 625.328 356.279C624.97 356.165 624.636 355.929 624.327 355.571C624.018 355.229 623.757 354.733 623.546 354.082C623.334 353.431 623.229 352.56 623.229 351.47C623.229 350.086 623.399 348.483 623.741 346.66C624.083 344.837 624.571 342.9 625.206 340.85C625.825 338.815 626.565 336.724 627.428 334.575C628.29 332.427 629.243 330.335 630.284 328.301C630.284 327.731 630.284 327.17 630.284 326.616C630.3 326.063 630.309 325.526 630.309 325.005C630.097 325.249 629.845 325.371 629.552 325.371C629.275 325.371 629.055 325.273 628.893 325.078C628.73 324.883 628.648 324.671 628.648 324.443C628.648 324.329 628.673 324.207 628.722 324.077C629.112 323.182 629.413 322.336 629.625 321.538C629.837 320.724 629.991 320.016 630.089 319.414C630.203 318.796 630.268 318.307 630.284 317.949C630.3 317.591 630.309 317.404 630.309 317.388C630.309 317.144 630.398 316.932 630.577 316.753C630.756 316.574 630.976 316.484 631.236 316.484C631.48 316.484 631.692 316.574 631.871 316.753C632.05 316.916 632.14 317.127 632.14 317.388V324.883C632.514 324.248 632.888 323.621 633.263 323.003C633.637 322.384 634.028 321.831 634.435 321.343C634.858 320.854 635.305 320.464 635.777 320.171C636.266 319.862 636.803 319.707 637.389 319.707C637.942 319.707 638.447 319.837 638.902 320.098C639.358 320.358 639.749 320.716 640.074 321.172C640.4 321.628 640.644 322.173 640.807 322.808C640.986 323.426 641.075 324.093 641.075 324.81ZM630.235 332.646C629.438 334.437 628.714 336.235 628.062 338.042C627.428 339.849 626.891 341.59 626.451 343.267C625.995 344.943 625.646 346.514 625.401 347.979C625.157 349.443 625.035 350.729 625.035 351.836C625.035 352.113 625.051 352.414 625.084 352.739C625.117 353.065 625.182 353.366 625.279 353.643C625.377 353.919 625.515 354.147 625.694 354.326C625.873 354.521 626.109 354.619 626.402 354.619C626.939 354.619 627.403 354.277 627.794 353.594C628.185 352.926 628.51 352.015 628.771 350.859C629.047 349.72 629.275 348.402 629.454 346.904C629.633 345.423 629.771 343.869 629.869 342.241C629.983 340.614 630.064 338.97 630.113 337.31C630.162 335.666 630.203 334.111 630.235 332.646Z" fill="black"/>
<path d="M665.099 324.81C665.034 324.94 664.895 325.216 664.684 325.64C664.488 326.047 664.228 326.519 663.902 327.056C663.593 327.593 663.227 328.154 662.804 328.74C662.381 329.326 661.909 329.863 661.388 330.352C660.867 330.84 660.305 331.247 659.703 331.572C659.101 331.882 658.466 332.036 657.799 332.036C656.855 332.036 656.057 331.735 655.406 331.133C654.771 330.531 654.308 329.774 654.015 328.862C653.461 329.79 652.802 330.531 652.037 331.084C651.272 331.621 650.507 331.89 649.742 331.89C649.14 331.89 648.595 331.784 648.106 331.572C647.618 331.344 647.203 331.035 646.861 330.645C646.52 330.238 646.251 329.766 646.056 329.229C645.877 328.691 645.787 328.105 645.787 327.471C645.787 326.201 645.999 325.086 646.422 324.126C646.861 323.149 647.415 322.336 648.082 321.685C648.749 321.034 649.482 320.545 650.279 320.22C651.093 319.894 651.874 319.731 652.623 319.731C653.128 319.731 653.591 319.805 654.015 319.951C654.438 320.081 654.796 320.228 655.089 320.391C655.398 320.553 655.634 320.708 655.797 320.854C655.96 320.985 656.049 321.058 656.065 321.074C656.244 321.286 656.334 321.506 656.334 321.733C656.334 321.978 656.244 322.197 656.065 322.393C655.886 322.572 655.675 322.661 655.431 322.661C655.17 322.661 654.951 322.572 654.771 322.393C654.739 322.36 654.666 322.303 654.552 322.222C654.438 322.124 654.283 322.026 654.088 321.929C653.893 321.831 653.657 321.75 653.38 321.685C653.119 321.603 652.818 321.562 652.477 321.562C651.972 321.562 651.435 321.676 650.865 321.904C650.296 322.132 649.775 322.49 649.303 322.979C648.831 323.451 648.432 324.053 648.106 324.785C647.797 325.501 647.643 326.356 647.643 327.349C647.643 327.658 647.675 327.975 647.74 328.301C647.805 328.61 647.919 328.895 648.082 329.155C648.245 329.416 648.465 329.627 648.741 329.79C649.018 329.953 649.36 330.034 649.767 330.034C650.06 330.034 650.393 329.937 650.768 329.741C651.158 329.546 651.524 329.245 651.866 328.838C652.224 328.431 652.542 327.918 652.818 327.3C653.111 326.681 653.315 325.949 653.429 325.103C653.461 324.875 653.567 324.688 653.746 324.541C653.925 324.378 654.137 324.297 654.381 324.297C654.609 324.297 654.804 324.386 654.967 324.565C655.146 324.744 655.243 324.948 655.26 325.176C655.276 325.485 655.309 325.924 655.357 326.494C655.406 327.048 655.512 327.601 655.675 328.154C655.854 328.708 656.114 329.188 656.456 329.595C656.798 330.002 657.27 330.205 657.872 330.205C658.263 330.205 658.645 330.099 659.02 329.888C659.41 329.676 659.785 329.399 660.143 329.058C660.517 328.7 660.867 328.301 661.192 327.861C661.534 327.406 661.843 326.95 662.12 326.494C662.397 326.038 662.641 325.599 662.853 325.176C663.064 324.753 663.243 324.386 663.39 324.077C663.471 323.898 663.585 323.76 663.731 323.662C663.894 323.564 664.065 323.516 664.244 323.516C664.521 323.516 664.741 323.621 664.903 323.833C665.082 324.028 665.172 324.24 665.172 324.468C665.172 324.582 665.147 324.696 665.099 324.81Z" fill="black"/>
<path d="M668.834 329.424C669.094 328.887 669.396 328.301 669.737 327.666C670.079 327.015 670.445 326.364 670.836 325.713C671.227 325.046 671.633 324.386 672.057 323.735C672.496 323.084 672.952 322.466 673.424 321.88C673.896 321.31 674.368 320.903 674.84 320.659C675.328 320.399 675.784 320.269 676.207 320.269C677.053 320.269 677.68 320.578 678.087 321.196C678.494 321.815 678.697 322.58 678.697 323.491C678.697 323.703 678.681 323.963 678.648 324.272C678.632 324.565 678.608 324.883 678.575 325.225C678.559 325.566 678.535 325.916 678.502 326.274C678.486 326.616 678.478 326.942 678.478 327.251C678.478 327.642 678.494 328.016 678.526 328.374C678.575 328.732 678.657 329.049 678.771 329.326C678.884 329.587 679.047 329.798 679.259 329.961C679.47 330.107 679.747 330.181 680.089 330.181C680.707 330.181 681.31 329.945 681.896 329.473C682.481 328.984 683.019 328.415 683.507 327.764C684.011 327.096 684.443 326.421 684.801 325.737C685.175 325.054 685.452 324.5 685.631 324.077C685.712 323.898 685.826 323.76 685.973 323.662C686.135 323.564 686.306 323.516 686.485 323.516C686.762 323.516 686.982 323.621 687.145 323.833C687.324 324.028 687.413 324.24 687.413 324.468C687.413 324.582 687.389 324.696 687.34 324.81C687.275 324.94 687.145 325.208 686.949 325.615C686.754 326.022 686.493 326.494 686.168 327.031C685.859 327.552 685.493 328.114 685.069 328.716C684.646 329.302 684.174 329.839 683.653 330.327C683.149 330.815 682.595 331.222 681.993 331.548C681.407 331.873 680.789 332.036 680.138 332.036C679.405 332.036 678.811 331.898 678.355 331.621C677.9 331.328 677.542 330.954 677.281 330.498C677.021 330.026 676.842 329.513 676.744 328.96C676.663 328.39 676.622 327.821 676.622 327.251C676.622 327.007 676.63 326.73 676.646 326.421C676.679 326.112 676.712 325.786 676.744 325.444C676.793 325.103 676.826 324.761 676.842 324.419C676.874 324.077 676.891 323.752 676.891 323.442C676.891 322.922 676.809 322.572 676.646 322.393C676.484 322.197 676.337 322.1 676.207 322.1C675.947 322.1 675.646 322.254 675.304 322.563C674.978 322.856 674.628 323.247 674.254 323.735C673.896 324.224 673.521 324.777 673.131 325.396C672.757 325.998 672.398 326.6 672.057 327.202C671.731 327.804 671.422 328.382 671.129 328.936C670.852 329.473 670.632 329.92 670.47 330.278C670.144 330.962 669.819 331.418 669.493 331.646C669.168 331.89 668.834 332.012 668.492 332.012C668.02 332.012 667.638 331.873 667.345 331.597C667.068 331.304 666.93 330.897 666.93 330.376C666.93 330.262 666.946 330.042 666.979 329.717C667.011 329.375 667.052 328.976 667.101 328.521C667.149 328.049 667.198 327.544 667.247 327.007C667.296 326.47 667.345 325.941 667.394 325.42C667.442 324.883 667.483 324.386 667.516 323.931C667.548 323.475 667.564 323.092 667.564 322.783C667.564 322.376 667.548 321.986 667.516 321.611C667.483 321.237 667.418 321.009 667.32 320.928C667.174 320.977 666.913 321.286 666.539 321.855C666.165 322.409 665.685 323.394 665.099 324.81C665.017 324.989 664.895 325.127 664.732 325.225C664.57 325.322 664.399 325.371 664.22 325.371C663.943 325.371 663.723 325.282 663.561 325.103C663.398 324.907 663.316 324.688 663.316 324.443C663.316 324.329 663.341 324.207 663.39 324.077C664.122 322.336 664.806 321.058 665.44 320.244C666.091 319.414 666.734 318.999 667.369 318.999C667.743 318.999 668.061 319.097 668.321 319.292C668.582 319.471 668.785 319.715 668.932 320.024C669.094 320.334 669.208 320.675 669.273 321.05C669.355 321.424 669.396 321.807 669.396 322.197C669.396 322.49 669.371 322.946 669.322 323.564C669.29 324.183 669.241 324.85 669.176 325.566C669.111 326.266 669.046 326.966 668.98 327.666C668.932 328.366 668.883 328.952 668.834 329.424Z" fill="black"/>
<path d="M689.659 312.456C689.659 313.075 689.439 313.604 689 314.043C688.577 314.466 688.056 314.678 687.438 314.678C686.819 314.678 686.29 314.466 685.851 314.043C685.427 313.604 685.216 313.075 685.216 312.456C685.216 312.147 685.273 311.862 685.387 311.602C685.501 311.325 685.655 311.089 685.851 310.894C686.062 310.682 686.298 310.519 686.559 310.405C686.835 310.291 687.128 310.234 687.438 310.234C687.747 310.234 688.032 310.291 688.292 310.405C688.569 310.519 688.805 310.682 689 310.894C689.212 311.089 689.374 311.325 689.488 311.602C689.602 311.862 689.659 312.147 689.659 312.456ZM685.704 326.763C685.704 324.419 685.851 322.083 686.144 319.756C686.176 319.528 686.274 319.333 686.437 319.17C686.616 318.991 686.843 318.901 687.12 318.901C687.364 318.901 687.568 318.999 687.73 319.194C687.893 319.373 687.975 319.585 687.975 319.829C687.975 319.927 687.95 320.22 687.901 320.708C687.869 321.196 687.82 321.782 687.755 322.466C687.706 323.133 687.657 323.849 687.608 324.614C687.576 325.363 687.56 326.055 687.56 326.689C687.56 327.552 687.641 328.252 687.804 328.789C687.983 329.31 688.202 329.717 688.463 330.01C688.74 330.303 689.024 330.498 689.317 330.596C689.627 330.693 689.92 330.742 690.196 330.742C690.652 330.742 691.124 330.579 691.612 330.254C692.101 329.928 692.597 329.473 693.102 328.887C693.622 328.301 694.143 327.601 694.664 326.787C695.185 325.957 695.698 325.037 696.202 324.028C696.284 323.866 696.397 323.743 696.544 323.662C696.69 323.564 696.853 323.516 697.032 323.516C697.293 323.516 697.504 323.613 697.667 323.809C697.846 324.004 697.936 324.215 697.936 324.443C697.936 324.606 697.903 324.744 697.838 324.858C697.643 325.233 697.398 325.688 697.105 326.226C696.812 326.763 696.479 327.316 696.104 327.886C695.73 328.455 695.315 329.025 694.859 329.595C694.42 330.148 693.948 330.653 693.443 331.108C692.939 331.548 692.41 331.906 691.856 332.183C691.303 332.459 690.742 332.598 690.172 332.598C689.439 332.598 688.797 332.443 688.243 332.134C687.69 331.825 687.218 331.41 686.827 330.889C686.453 330.368 686.168 329.757 685.973 329.058C685.794 328.341 685.704 327.576 685.704 326.763ZM688.292 312.456C688.292 312.228 688.202 312.033 688.023 311.87C687.861 311.691 687.665 311.602 687.438 311.602C687.21 311.602 687.014 311.691 686.852 311.87C686.689 312.033 686.607 312.228 686.607 312.456C686.607 312.684 686.689 312.879 686.852 313.042C687.014 313.205 687.21 313.286 687.438 313.286C687.665 313.286 687.861 313.205 688.023 313.042C688.202 312.879 688.292 312.684 688.292 312.456Z" fill="black"/>
<path d="M698.888 322.588C698.79 322.848 698.668 323.141 698.521 323.467C698.391 323.792 698.237 324.134 698.058 324.492C697.911 324.769 697.757 324.989 697.594 325.151C697.447 325.298 697.252 325.371 697.008 325.371C696.731 325.371 696.511 325.29 696.349 325.127C696.186 324.948 696.104 324.744 696.104 324.517C696.104 324.435 696.113 324.37 696.129 324.321C696.145 324.256 696.186 324.159 696.251 324.028C696.674 323.215 696.983 322.507 697.179 321.904C697.39 321.286 697.561 320.643 697.691 319.976C697.577 319.601 697.496 319.284 697.447 319.023C697.398 318.763 697.374 318.494 697.374 318.218C697.374 317.681 697.488 317.249 697.716 316.924C697.944 316.582 698.261 316.411 698.668 316.411C699.042 316.411 699.335 316.574 699.547 316.899C699.775 317.225 699.889 317.624 699.889 318.096C699.889 318.356 699.864 318.617 699.815 318.877C699.767 319.137 699.701 319.463 699.62 319.854C699.994 320.781 700.369 321.603 700.743 322.319C701.118 323.035 701.451 323.695 701.744 324.297C702.037 324.883 702.273 325.436 702.452 325.957C702.647 326.478 702.745 326.999 702.745 327.52C702.745 328.203 702.607 328.854 702.33 329.473C702.053 330.091 701.598 330.612 700.963 331.035C701.044 331.051 701.126 331.06 701.207 331.06C701.288 331.06 701.37 331.06 701.451 331.06C702.379 331.06 703.233 330.848 704.015 330.425C704.796 330.002 705.496 329.456 706.114 328.789C706.749 328.105 707.311 327.357 707.799 326.543C708.287 325.713 708.71 324.891 709.068 324.077C709.231 323.703 709.459 323.516 709.752 323.516C710.029 323.516 710.24 323.613 710.387 323.809C710.549 324.004 710.631 324.215 710.631 324.443C710.631 324.574 710.606 324.696 710.558 324.81C710.379 325.249 710.143 325.754 709.85 326.323C709.573 326.877 709.231 327.454 708.824 328.057C708.434 328.643 707.978 329.22 707.457 329.79C706.936 330.36 706.35 330.872 705.699 331.328C705.064 331.768 704.365 332.118 703.6 332.378C702.835 332.655 701.996 332.793 701.085 332.793C699.994 332.793 698.977 332.598 698.033 332.207C697.105 331.833 696.349 331.206 695.763 330.327C695.665 330.181 695.616 330.026 695.616 329.863C695.616 329.619 695.706 329.408 695.885 329.229C696.08 329.033 696.3 328.936 696.544 328.936C696.804 328.936 697.024 329.025 697.203 329.204C697.219 329.237 697.276 329.294 697.374 329.375C697.472 329.44 697.586 329.521 697.716 329.619C697.862 329.701 698.025 329.774 698.204 329.839C698.399 329.904 698.595 329.937 698.79 329.937C699.181 329.937 699.506 329.855 699.767 329.692C700.043 329.53 700.263 329.334 700.426 329.106C700.589 328.862 700.702 328.61 700.768 328.35C700.849 328.073 700.89 327.837 700.89 327.642C700.89 327.235 700.825 326.828 700.694 326.421C700.564 326.014 700.393 325.607 700.182 325.2C699.986 324.793 699.767 324.378 699.522 323.955C699.295 323.516 699.083 323.06 698.888 322.588Z" fill="black"/>
<path d="M710.802 329.546C711.062 328.993 711.363 328.398 711.705 327.764C712.047 327.113 712.413 326.453 712.804 325.786C713.194 325.103 713.609 324.427 714.049 323.76C714.488 323.092 714.944 322.466 715.416 321.88C715.888 321.31 716.36 320.903 716.832 320.659C717.32 320.399 717.776 320.269 718.199 320.269C718.622 320.269 718.989 320.358 719.298 320.537C719.623 320.7 719.884 320.928 720.079 321.221C720.291 321.514 720.445 321.855 720.543 322.246C720.657 322.637 720.714 323.06 720.714 323.516C720.714 323.89 720.673 324.395 720.592 325.029C720.527 325.648 720.494 326.299 720.494 326.982C720.494 327.373 720.51 327.764 720.543 328.154C720.592 328.529 720.665 328.87 720.763 329.18C720.877 329.473 721.039 329.717 721.251 329.912C721.463 330.091 721.739 330.181 722.081 330.181C722.472 330.181 722.862 330.075 723.253 329.863C723.644 329.635 724.026 329.342 724.4 328.984C724.775 328.61 725.133 328.203 725.475 327.764C725.816 327.308 726.126 326.86 726.402 326.421C726.679 325.965 726.923 325.534 727.135 325.127C727.346 324.704 727.517 324.354 727.647 324.077C727.81 323.703 728.095 323.516 728.502 323.516C728.779 323.516 728.998 323.613 729.161 323.809C729.324 324.004 729.405 324.215 729.405 324.443C729.405 324.574 729.381 324.696 729.332 324.81C729.267 324.94 729.137 325.208 728.941 325.615C728.762 326.022 728.51 326.494 728.185 327.031C727.875 327.568 727.509 328.13 727.086 328.716C726.663 329.302 726.191 329.847 725.67 330.352C725.165 330.84 724.612 331.247 724.01 331.572C723.424 331.882 722.805 332.036 722.154 332.036C721.406 332.036 720.803 331.882 720.348 331.572C719.892 331.247 719.534 330.84 719.273 330.352C719.029 329.863 718.858 329.318 718.761 328.716C718.679 328.114 718.639 327.528 718.639 326.958C718.639 326.665 718.647 326.356 718.663 326.03C718.696 325.688 718.728 325.355 718.761 325.029C718.793 324.704 718.818 324.403 718.834 324.126C718.867 323.833 718.883 323.589 718.883 323.394C718.883 322.889 718.81 322.547 718.663 322.368C718.533 322.189 718.378 322.1 718.199 322.1C717.939 322.1 717.638 322.254 717.296 322.563C716.97 322.856 716.62 323.247 716.246 323.735C715.888 324.224 715.522 324.777 715.147 325.396C714.789 325.998 714.439 326.6 714.098 327.202C713.756 327.804 713.447 328.382 713.17 328.936C712.893 329.473 712.665 329.92 712.486 330.278C712.145 330.962 711.795 331.418 711.437 331.646C711.095 331.89 710.785 332.012 710.509 332.012C710.004 332.012 709.614 331.816 709.337 331.426C709.076 331.019 708.946 330.531 708.946 329.961V328.423C708.946 325.347 708.946 322.417 708.946 319.634C708.963 316.834 709.003 314.238 709.068 311.846C709.15 309.437 709.272 307.264 709.435 305.327C709.614 303.374 709.874 301.714 710.216 300.347C710.558 298.963 710.989 297.897 711.51 297.148C712.047 296.4 712.714 296.025 713.512 296.025C714.195 296.025 714.773 296.213 715.245 296.587C715.717 296.961 716.1 297.474 716.393 298.125C716.686 298.76 716.897 299.508 717.027 300.371C717.158 301.217 717.223 302.113 717.223 303.057C717.223 304.977 717.044 306.865 716.686 308.721C716.344 310.56 715.88 312.358 715.294 314.116C714.708 315.874 714.024 317.591 713.243 319.268C712.462 320.928 711.64 322.547 710.777 324.126C710.777 324.419 710.777 324.769 710.777 325.176C710.777 325.583 710.777 325.99 710.777 326.396C710.777 326.803 710.777 327.186 710.777 327.544C710.777 327.902 710.777 328.187 710.777 328.398L710.802 329.546ZM710.802 320.537C711.485 319.04 712.104 317.583 712.657 316.167C713.227 314.735 713.707 313.311 714.098 311.895C714.505 310.479 714.822 309.046 715.05 307.598C715.278 306.133 715.392 304.611 715.392 303.032C715.392 302.772 715.375 302.357 715.343 301.787C715.326 301.217 715.253 300.64 715.123 300.054C715.009 299.468 714.822 298.955 714.562 298.516C714.317 298.076 713.967 297.856 713.512 297.856C713.154 297.856 712.844 298.101 712.584 298.589C712.324 299.061 712.096 299.712 711.9 300.542C711.705 301.356 711.542 302.308 711.412 303.398C711.282 304.489 711.176 305.645 711.095 306.865C711.013 308.086 710.948 309.339 710.899 310.625C710.867 311.911 710.842 313.164 710.826 314.385C710.81 315.589 710.802 316.72 710.802 317.778C710.802 318.836 710.802 319.756 710.802 320.537Z" fill="black"/>
<path d="M760.582 295.708C762.584 295.708 764.627 295.895 766.71 296.27C768.793 296.628 770.82 297.181 772.789 297.93C774.758 298.678 776.614 299.622 778.355 300.762C780.097 301.885 781.619 303.203 782.921 304.717C784.223 306.23 785.248 307.939 785.997 309.844C786.762 311.748 787.145 313.856 787.145 316.167C787.145 318.478 786.738 320.618 785.924 322.588C785.11 324.557 783.971 326.258 782.506 327.69C781.041 329.123 779.291 330.246 777.257 331.06C775.222 331.873 772.984 332.28 770.543 332.28C769.387 332.28 768.191 332.191 766.954 332.012C765.717 331.849 764.48 331.589 763.243 331.23C762.006 330.872 760.785 330.433 759.581 329.912C758.393 329.375 757.254 328.74 756.163 328.008C754.877 329.277 753.388 330.27 751.695 330.986C750.019 331.686 748.245 332.036 746.373 332.036C745.364 332.036 744.42 331.922 743.541 331.694C742.662 331.466 741.897 331.141 741.246 330.718C740.611 330.295 740.107 329.782 739.732 329.18C739.374 328.577 739.195 327.91 739.195 327.178C739.195 326.543 739.35 325.949 739.659 325.396C739.985 324.842 740.432 324.354 741.002 323.931C741.588 323.507 742.28 323.174 743.077 322.93C743.891 322.686 744.778 322.563 745.738 322.563C748.57 322.563 751.923 323.605 755.797 325.688C756.513 324.793 757.099 323.784 757.555 322.661C758.059 321.408 758.45 320.122 758.727 318.804C759.02 317.469 759.272 316.143 759.483 314.824C759.711 313.506 759.939 312.22 760.167 310.967C760.411 309.714 760.737 308.534 761.144 307.427C761.567 306.32 762.112 305.311 762.779 304.399C763.463 303.472 764.35 302.682 765.44 302.031C765.603 301.95 765.75 301.909 765.88 301.909C766.108 301.909 766.319 301.991 766.515 302.153C766.726 302.316 766.832 302.544 766.832 302.837C766.832 303.179 766.677 303.439 766.368 303.618C765.506 304.123 764.798 304.757 764.244 305.522C763.707 306.271 763.259 307.118 762.901 308.062C762.543 309.006 762.258 310.023 762.047 311.113C761.835 312.204 761.632 313.343 761.437 314.531C761.274 315.508 761.095 316.533 760.899 317.607C760.704 318.665 760.46 319.723 760.167 320.781C759.874 321.823 759.5 322.848 759.044 323.857C758.604 324.85 758.059 325.77 757.408 326.616C757.441 326.632 757.457 326.649 757.457 326.665C757.473 326.665 757.498 326.673 757.53 326.689C759.597 327.926 761.746 328.862 763.976 329.497C766.205 330.132 768.386 330.449 770.519 330.449C772.83 330.449 774.897 330.067 776.72 329.302C778.559 328.537 780.113 327.511 781.383 326.226C782.652 324.924 783.621 323.41 784.288 321.685C784.955 319.959 785.289 318.136 785.289 316.216C785.289 314.263 784.964 312.448 784.312 310.771C783.661 309.079 782.766 307.541 781.627 306.157C780.504 304.774 779.161 303.545 777.599 302.471C776.052 301.396 774.376 300.501 772.569 299.785C770.779 299.053 768.891 298.499 766.905 298.125C764.936 297.734 762.958 297.539 760.973 297.539C758.303 297.539 755.862 297.767 753.648 298.223C751.451 298.662 749.555 299.313 747.96 300.176C746.381 301.038 745.152 302.096 744.273 303.35C743.395 304.603 742.955 306.027 742.955 307.622C742.955 308.534 743.085 309.339 743.346 310.039C743.622 310.739 743.964 311.349 744.371 311.87C744.794 312.375 745.25 312.806 745.738 313.164C746.227 313.522 746.682 313.815 747.105 314.043C747.529 314.255 747.887 314.409 748.18 314.507C748.489 314.604 748.668 314.661 748.717 314.678C748.928 314.727 749.091 314.84 749.205 315.02C749.335 315.182 749.4 315.369 749.4 315.581C749.4 315.858 749.303 316.069 749.107 316.216C748.912 316.362 748.701 316.436 748.473 316.436C748.147 316.436 747.74 316.362 747.252 316.216C746.764 316.053 746.243 315.817 745.689 315.508C745.152 315.182 744.607 314.784 744.054 314.312C743.517 313.823 743.028 313.254 742.589 312.603C742.149 311.951 741.791 311.211 741.515 310.381C741.254 309.551 741.124 308.631 741.124 307.622C741.124 305.783 741.588 304.131 742.516 302.666C743.46 301.185 744.786 299.932 746.495 298.906C748.204 297.881 750.247 297.091 752.623 296.538C755.016 295.985 757.669 295.708 760.582 295.708ZM754.479 327.08C752.786 326.185 751.215 325.509 749.767 325.054C748.318 324.598 746.992 324.37 745.787 324.37C745.104 324.37 744.469 324.451 743.883 324.614C743.313 324.761 742.817 324.964 742.394 325.225C741.97 325.485 741.637 325.786 741.393 326.128C741.148 326.47 741.026 326.828 741.026 327.202C741.026 327.56 741.132 327.918 741.344 328.276C741.572 328.634 741.905 328.952 742.345 329.229C742.8 329.505 743.362 329.733 744.029 329.912C744.697 330.091 745.478 330.181 746.373 330.181C747.903 330.181 749.36 329.912 750.743 329.375C752.143 328.822 753.388 328.057 754.479 327.08Z" fill="black"/>
<path d="M792.711 328.936C793.053 329.408 793.492 329.79 794.029 330.083C794.566 330.36 795.226 330.498 796.007 330.498C796.804 330.498 797.529 330.311 798.18 329.937C798.831 329.546 799.425 329.041 799.962 328.423C800.499 327.804 800.979 327.113 801.402 326.348C801.826 325.583 802.208 324.818 802.55 324.053C802.631 323.874 802.745 323.743 802.892 323.662C803.038 323.564 803.201 323.516 803.38 323.516C803.657 323.516 803.876 323.613 804.039 323.809C804.218 324.004 804.308 324.215 804.308 324.443C804.308 324.525 804.299 324.598 804.283 324.663C804.267 324.712 804.243 324.769 804.21 324.834C803.087 327.308 801.858 329.172 800.523 330.425C799.205 331.678 797.708 332.321 796.031 332.354C794.957 332.354 794.029 332.142 793.248 331.719C792.467 331.312 791.824 330.783 791.319 330.132C790.815 329.465 790.44 328.716 790.196 327.886C789.952 327.056 789.83 326.226 789.83 325.396C789.83 324.565 789.928 323.8 790.123 323.101C790.335 322.401 790.628 321.79 791.002 321.27C791.393 320.749 791.848 320.342 792.369 320.049C792.906 319.756 793.492 319.609 794.127 319.609C794.501 319.609 794.868 319.691 795.226 319.854C795.6 320 795.934 320.22 796.227 320.513C796.52 320.789 796.756 321.131 796.935 321.538C797.114 321.945 797.203 322.409 797.203 322.93C797.203 323.597 797.089 324.224 796.861 324.81C796.633 325.396 796.316 325.941 795.909 326.445C795.519 326.95 795.047 327.414 794.493 327.837C793.94 328.26 793.346 328.626 792.711 328.936ZM791.979 327.349C792.483 327.137 792.939 326.868 793.346 326.543C793.769 326.217 794.127 325.859 794.42 325.469C794.713 325.078 794.941 324.671 795.104 324.248C795.266 323.809 795.348 323.369 795.348 322.93C795.348 322.441 795.226 322.075 794.981 321.831C794.737 321.571 794.452 321.44 794.127 321.44C793.688 321.44 793.313 321.562 793.004 321.807C792.695 322.051 792.442 322.368 792.247 322.759C792.052 323.149 791.905 323.589 791.808 324.077C791.726 324.549 791.686 325.021 791.686 325.493C791.686 325.786 791.71 326.095 791.759 326.421C791.824 326.746 791.897 327.056 791.979 327.349Z" fill="black"/>
<path d="M816.466 324.858C816.287 325.233 816.059 325.68 815.782 326.201C815.522 326.706 815.221 327.235 814.879 327.788C814.537 328.341 814.155 328.895 813.731 329.448C813.308 329.985 812.844 330.474 812.34 330.913C811.852 331.336 811.323 331.678 810.753 331.938C810.2 332.215 809.605 332.354 808.971 332.354C807.994 332.354 807.156 332.052 806.456 331.45C805.756 330.848 805.162 330.059 804.674 329.082C804.186 328.105 803.787 326.999 803.478 325.762C803.185 324.508 802.957 323.239 802.794 321.953C802.631 320.651 802.517 319.39 802.452 318.169C802.403 316.948 802.379 315.866 802.379 314.922C802.379 313.555 802.42 312.139 802.501 310.674C802.599 309.209 802.745 307.777 802.94 306.377C803.136 304.977 803.38 303.651 803.673 302.397C803.982 301.144 804.34 300.046 804.747 299.102C805.17 298.158 805.65 297.409 806.188 296.855C806.725 296.302 807.335 296.025 808.019 296.025C808.556 296.025 809.036 296.156 809.459 296.416C809.898 296.66 810.265 297.067 810.558 297.637C810.851 298.206 811.078 298.947 811.241 299.858C811.404 300.77 811.485 301.885 811.485 303.203C811.485 304.831 811.314 306.515 810.973 308.257C810.631 309.982 810.167 311.724 809.581 313.481C808.995 315.239 808.303 316.997 807.506 318.755C806.708 320.496 805.854 322.197 804.942 323.857C805.349 325.924 805.895 327.552 806.578 328.74C807.262 329.912 808.084 330.498 809.044 330.498C809.695 330.498 810.322 330.246 810.924 329.741C811.526 329.22 812.079 328.61 812.584 327.91C813.089 327.21 813.528 326.502 813.902 325.786C814.293 325.054 814.594 324.468 814.806 324.028C814.887 323.866 815.001 323.743 815.147 323.662C815.294 323.564 815.457 323.516 815.636 323.516C815.912 323.516 816.132 323.613 816.295 323.809C816.474 324.004 816.563 324.224 816.563 324.468C816.563 324.565 816.531 324.696 816.466 324.858ZM804.234 315.044C804.234 316.086 804.259 317.087 804.308 318.047C804.356 319.007 804.422 319.927 804.503 320.806C805.187 319.487 805.838 318.088 806.456 316.606C807.075 315.109 807.62 313.604 808.092 312.09C808.564 310.56 808.938 309.046 809.215 307.549C809.508 306.035 809.654 304.595 809.654 303.228C809.654 301.307 809.5 299.932 809.19 299.102C808.881 298.271 808.466 297.856 807.945 297.856C807.604 297.856 807.27 298.092 806.944 298.564C806.635 299.036 806.342 299.679 806.065 300.493C805.789 301.307 805.536 302.267 805.309 303.374C805.081 304.481 804.885 305.669 804.723 306.938C804.576 308.208 804.454 309.535 804.356 310.918C804.275 312.301 804.234 313.677 804.234 315.044Z" fill="black"/>
<path d="M818.81 312.456C818.81 313.075 818.59 313.604 818.15 314.043C817.727 314.466 817.206 314.678 816.588 314.678C815.969 314.678 815.44 314.466 815.001 314.043C814.578 313.604 814.366 313.075 814.366 312.456C814.366 312.147 814.423 311.862 814.537 311.602C814.651 311.325 814.806 311.089 815.001 310.894C815.213 310.682 815.449 310.519 815.709 310.405C815.986 310.291 816.279 310.234 816.588 310.234C816.897 310.234 817.182 310.291 817.442 310.405C817.719 310.519 817.955 310.682 818.15 310.894C818.362 311.089 818.525 311.325 818.639 311.602C818.753 311.862 818.81 312.147 818.81 312.456ZM814.854 326.763C814.854 324.419 815.001 322.083 815.294 319.756C815.326 319.528 815.424 319.333 815.587 319.17C815.766 318.991 815.994 318.901 816.271 318.901C816.515 318.901 816.718 318.999 816.881 319.194C817.044 319.373 817.125 319.585 817.125 319.829C817.125 319.927 817.101 320.22 817.052 320.708C817.019 321.196 816.97 321.782 816.905 322.466C816.856 323.133 816.808 323.849 816.759 324.614C816.726 325.363 816.71 326.055 816.71 326.689C816.71 327.552 816.791 328.252 816.954 328.789C817.133 329.31 817.353 329.717 817.613 330.01C817.89 330.303 818.175 330.498 818.468 330.596C818.777 330.693 819.07 330.742 819.347 330.742C819.802 330.742 820.274 330.579 820.763 330.254C821.251 329.928 821.747 329.473 822.252 328.887C822.773 328.301 823.294 327.601 823.814 326.787C824.335 325.957 824.848 325.037 825.353 324.028C825.434 323.866 825.548 323.743 825.694 323.662C825.841 323.564 826.004 323.516 826.183 323.516C826.443 323.516 826.655 323.613 826.817 323.809C826.996 324.004 827.086 324.215 827.086 324.443C827.086 324.606 827.053 324.744 826.988 324.858C826.793 325.233 826.549 325.688 826.256 326.226C825.963 326.763 825.629 327.316 825.255 327.886C824.881 328.455 824.465 329.025 824.01 329.595C823.57 330.148 823.098 330.653 822.594 331.108C822.089 331.548 821.56 331.906 821.007 332.183C820.453 332.459 819.892 332.598 819.322 332.598C818.59 332.598 817.947 332.443 817.394 332.134C816.84 331.825 816.368 331.41 815.978 330.889C815.603 330.368 815.318 329.757 815.123 329.058C814.944 328.341 814.854 327.576 814.854 326.763ZM817.442 312.456C817.442 312.228 817.353 312.033 817.174 311.87C817.011 311.691 816.816 311.602 816.588 311.602C816.36 311.602 816.165 311.691 816.002 311.87C815.839 312.033 815.758 312.228 815.758 312.456C815.758 312.684 815.839 312.879 816.002 313.042C816.165 313.205 816.36 313.286 816.588 313.286C816.816 313.286 817.011 313.205 817.174 313.042C817.353 312.879 817.442 312.684 817.442 312.456Z" fill="black"/>
<path d="M834.166 334.014C837.226 330.026 839.35 326.714 840.538 324.077C840.619 323.898 840.725 323.768 840.855 323.687C841.002 323.589 841.165 323.54 841.344 323.54C841.62 323.54 841.848 323.638 842.027 323.833C842.206 324.012 842.296 324.224 842.296 324.468C842.296 324.582 842.271 324.696 842.223 324.81C841.507 326.437 840.489 328.252 839.171 330.254C837.853 332.256 836.184 334.518 834.166 337.041C834.166 338.066 834.174 339.092 834.19 340.117C834.207 341.143 834.215 342.266 834.215 343.486C834.215 344.707 834.182 345.911 834.117 347.1C834.068 348.304 833.971 349.443 833.824 350.518C833.678 351.608 833.474 352.609 833.214 353.521C832.97 354.448 832.644 355.246 832.237 355.913C831.847 356.597 831.367 357.126 830.797 357.5C830.243 357.891 829.584 358.086 828.819 358.086C827.729 358.086 826.891 357.671 826.305 356.841C825.719 356.011 825.426 354.831 825.426 353.301C825.426 352.487 825.499 351.6 825.646 350.64C825.808 349.696 826.036 348.719 826.329 347.71C826.622 346.701 826.972 345.675 827.379 344.634C827.802 343.608 828.266 342.607 828.771 341.631C829.275 340.654 829.82 339.718 830.406 338.823C831.008 337.928 831.643 337.114 832.311 336.382C832.327 335.243 832.335 334.111 832.335 332.988C832.351 331.865 832.376 330.832 832.408 329.888C831.92 330.506 831.334 330.994 830.65 331.353C829.983 331.711 829.316 331.89 828.648 331.89C828.079 331.89 827.558 331.784 827.086 331.572C826.63 331.344 826.24 331.035 825.914 330.645C825.589 330.238 825.336 329.766 825.157 329.229C824.978 328.691 824.889 328.105 824.889 327.471C824.889 326.201 825.1 325.086 825.523 324.126C825.963 323.149 826.516 322.336 827.184 321.685C827.851 321.034 828.583 320.545 829.381 320.22C830.195 319.894 830.976 319.731 831.725 319.731C832.229 319.731 832.693 319.797 833.116 319.927C833.539 320.057 833.897 320.203 834.19 320.366C834.5 320.529 834.736 320.684 834.898 320.83C835.061 320.977 835.151 321.058 835.167 321.074C835.346 321.27 835.436 321.489 835.436 321.733C835.436 321.978 835.346 322.197 835.167 322.393C834.988 322.572 834.776 322.661 834.532 322.661C834.304 322.661 834.085 322.572 833.873 322.393C833.808 322.344 833.718 322.279 833.604 322.197C833.507 322.1 833.368 322.002 833.189 321.904C833.027 321.807 832.823 321.725 832.579 321.66C832.351 321.595 832.075 321.562 831.749 321.562C831.261 321.562 830.724 321.676 830.138 321.904C829.552 322.116 829.007 322.458 828.502 322.93C827.997 323.402 827.574 324.012 827.232 324.761C826.891 325.493 826.72 326.38 826.72 327.422C826.72 328.203 826.891 328.838 827.232 329.326C827.574 329.798 828.103 330.034 828.819 330.034C829.161 330.034 829.519 329.937 829.894 329.741C830.284 329.546 830.659 329.245 831.017 328.838C831.375 328.431 831.684 327.918 831.944 327.3C832.221 326.681 832.416 325.949 832.53 325.103C832.563 324.875 832.669 324.688 832.848 324.541C833.027 324.378 833.238 324.297 833.482 324.297C833.759 324.297 833.971 324.395 834.117 324.59C834.28 324.785 834.361 325.005 834.361 325.249C834.361 325.265 834.353 325.518 834.337 326.006C834.321 326.478 834.304 327.113 834.288 327.91C834.272 328.708 834.247 329.635 834.215 330.693C834.199 331.735 834.182 332.842 834.166 334.014ZM832.311 339.36C831.546 340.418 830.854 341.566 830.235 342.803C829.617 344.056 829.088 345.317 828.648 346.587C828.209 347.856 827.867 349.085 827.623 350.273C827.395 351.478 827.281 352.552 827.281 353.496C827.281 354.098 827.33 354.578 827.428 354.937C827.542 355.295 827.672 355.571 827.818 355.767C827.981 355.962 828.152 356.092 828.331 356.157C828.526 356.222 828.705 356.255 828.868 356.255C829.373 356.255 829.812 356.051 830.187 355.645C830.561 355.238 830.878 354.692 831.139 354.009C831.399 353.341 831.611 352.568 831.773 351.689C831.936 350.811 832.058 349.899 832.14 348.955C832.221 348.027 832.278 347.1 832.311 346.172C832.343 345.244 832.359 344.39 832.359 343.608C832.359 342.909 832.359 342.209 832.359 341.509C832.359 340.809 832.343 340.093 832.311 339.36Z" fill="black"/>
<path d="M842.491 329.546C842.752 328.993 843.053 328.398 843.395 327.764C843.736 327.113 844.103 326.453 844.493 325.786C844.884 325.103 845.299 324.427 845.738 323.76C846.178 323.092 846.633 322.466 847.105 321.88C847.577 321.31 848.049 320.903 848.521 320.659C849.01 320.399 849.465 320.269 849.889 320.269C850.312 320.269 850.678 320.358 850.987 320.537C851.313 320.7 851.573 320.928 851.769 321.221C851.98 321.514 852.135 321.855 852.232 322.246C852.346 322.637 852.403 323.06 852.403 323.516C852.403 323.89 852.363 324.395 852.281 325.029C852.216 325.648 852.184 326.299 852.184 326.982C852.184 327.373 852.2 327.764 852.232 328.154C852.281 328.529 852.354 328.87 852.452 329.18C852.566 329.473 852.729 329.717 852.94 329.912C853.152 330.091 853.429 330.181 853.771 330.181C854.161 330.181 854.552 330.075 854.942 329.863C855.333 329.635 855.715 329.342 856.09 328.984C856.464 328.61 856.822 328.203 857.164 327.764C857.506 327.308 857.815 326.86 858.092 326.421C858.368 325.965 858.613 325.534 858.824 325.127C859.036 324.704 859.207 324.354 859.337 324.077C859.5 323.703 859.785 323.516 860.191 323.516C860.468 323.516 860.688 323.613 860.851 323.809C861.013 324.004 861.095 324.215 861.095 324.443C861.095 324.574 861.07 324.696 861.021 324.81C860.956 324.94 860.826 325.208 860.631 325.615C860.452 326.022 860.2 326.494 859.874 327.031C859.565 327.568 859.199 328.13 858.775 328.716C858.352 329.302 857.88 329.847 857.359 330.352C856.855 330.84 856.301 331.247 855.699 331.572C855.113 331.882 854.495 332.036 853.844 332.036C853.095 332.036 852.493 331.882 852.037 331.572C851.581 331.247 851.223 330.84 850.963 330.352C850.719 329.863 850.548 329.318 850.45 328.716C850.369 328.114 850.328 327.528 850.328 326.958C850.328 326.665 850.336 326.356 850.353 326.03C850.385 325.688 850.418 325.355 850.45 325.029C850.483 324.704 850.507 324.403 850.523 324.126C850.556 323.833 850.572 323.589 850.572 323.394C850.572 322.889 850.499 322.547 850.353 322.368C850.222 322.189 850.068 322.1 849.889 322.1C849.628 322.1 849.327 322.254 848.985 322.563C848.66 322.856 848.31 323.247 847.936 323.735C847.577 324.224 847.211 324.777 846.837 325.396C846.479 325.998 846.129 326.6 845.787 327.202C845.445 327.804 845.136 328.382 844.859 328.936C844.583 329.473 844.355 329.92 844.176 330.278C843.834 330.962 843.484 331.418 843.126 331.646C842.784 331.89 842.475 332.012 842.198 332.012C841.694 332.012 841.303 331.816 841.026 331.426C840.766 331.019 840.636 330.531 840.636 329.961V328.423C840.636 325.347 840.636 322.417 840.636 319.634C840.652 316.834 840.693 314.238 840.758 311.846C840.839 309.437 840.961 307.264 841.124 305.327C841.303 303.374 841.563 301.714 841.905 300.347C842.247 298.963 842.678 297.897 843.199 297.148C843.736 296.4 844.404 296.025 845.201 296.025C845.885 296.025 846.463 296.213 846.935 296.587C847.407 296.961 847.789 297.474 848.082 298.125C848.375 298.76 848.587 299.508 848.717 300.371C848.847 301.217 848.912 302.113 848.912 303.057C848.912 304.977 848.733 306.865 848.375 308.721C848.033 310.56 847.569 312.358 846.983 314.116C846.397 315.874 845.714 317.591 844.933 319.268C844.151 320.928 843.329 322.547 842.467 324.126C842.467 324.419 842.467 324.769 842.467 325.176C842.467 325.583 842.467 325.99 842.467 326.396C842.467 326.803 842.467 327.186 842.467 327.544C842.467 327.902 842.467 328.187 842.467 328.398L842.491 329.546ZM842.491 320.537C843.175 319.04 843.793 317.583 844.347 316.167C844.916 314.735 845.396 313.311 845.787 311.895C846.194 310.479 846.511 309.046 846.739 307.598C846.967 306.133 847.081 304.611 847.081 303.032C847.081 302.772 847.065 302.357 847.032 301.787C847.016 301.217 846.943 300.64 846.812 300.054C846.699 299.468 846.511 298.955 846.251 298.516C846.007 298.076 845.657 297.856 845.201 297.856C844.843 297.856 844.534 298.101 844.273 298.589C844.013 299.061 843.785 299.712 843.59 300.542C843.395 301.356 843.232 302.308 843.102 303.398C842.971 304.489 842.866 305.645 842.784 306.865C842.703 308.086 842.638 309.339 842.589 310.625C842.556 311.911 842.532 313.164 842.516 314.385C842.499 315.589 842.491 316.72 842.491 317.778C842.491 318.836 842.491 319.756 842.491 320.537Z" fill="black"/>
<path d="M879.137 307.183C879.137 307.443 879.047 307.655 878.868 307.817C878.689 307.964 878.469 308.037 878.209 308.037H865.831V308.306C865.831 309.299 865.758 310.356 865.611 311.479C865.465 312.603 865.261 313.726 865.001 314.849C864.757 315.955 864.472 317.038 864.146 318.096C863.837 319.154 863.512 320.13 863.17 321.025C862.844 321.921 862.519 322.702 862.193 323.369C861.868 324.02 861.575 324.508 861.314 324.834C861.526 325.583 861.778 326.283 862.071 326.934C862.364 327.568 862.69 328.13 863.048 328.618C863.422 329.09 863.821 329.465 864.244 329.741C864.667 330.018 865.123 330.156 865.611 330.156C866.181 330.156 866.743 329.92 867.296 329.448C867.866 328.96 868.386 328.39 868.858 327.739C869.347 327.072 869.77 326.405 870.128 325.737C870.502 325.054 870.771 324.508 870.934 324.102C871.096 323.711 871.381 323.516 871.788 323.516C872.065 323.516 872.285 323.613 872.447 323.809C872.626 324.004 872.716 324.215 872.716 324.443C872.716 324.557 872.691 324.671 872.643 324.785C872.594 324.899 872.472 325.16 872.276 325.566C872.097 325.973 871.853 326.445 871.544 326.982C871.251 327.52 870.901 328.089 870.494 328.691C870.104 329.277 869.656 329.814 869.151 330.303C868.663 330.791 868.134 331.198 867.564 331.523C866.995 331.849 866.393 332.012 865.758 332.012C864.635 332.012 863.626 331.646 862.73 330.913C861.835 330.181 861.07 329.155 860.436 327.837C859.817 326.519 859.345 324.956 859.02 323.149C858.694 321.343 858.531 319.365 858.531 317.217C858.531 316.68 858.539 316.053 858.556 315.337C858.572 314.604 858.604 313.84 858.653 313.042C858.702 312.228 858.775 311.398 858.873 310.552C858.971 309.689 859.101 308.851 859.264 308.037H850.499C850.239 308.037 850.019 307.964 849.84 307.817C849.661 307.655 849.571 307.443 849.571 307.183C849.571 306.922 849.661 306.719 849.84 306.572C850.019 306.41 850.239 306.328 850.499 306.328H859.679C859.841 305.742 860.029 305.205 860.24 304.717C860.468 304.229 860.72 303.805 860.997 303.447C861.29 303.089 861.607 302.812 861.949 302.617C862.307 302.406 862.698 302.3 863.121 302.3C863.528 302.3 863.878 302.406 864.171 302.617C864.48 302.812 864.741 303.089 864.952 303.447C865.164 303.805 865.326 304.229 865.44 304.717C865.571 305.205 865.668 305.742 865.733 306.328H878.209C878.469 306.328 878.689 306.41 878.868 306.572C879.047 306.719 879.137 306.922 879.137 307.183ZM860.753 322.393C861.241 321.318 861.681 320.163 862.071 318.926C862.478 317.673 862.82 316.411 863.097 315.142C863.39 313.872 863.609 312.627 863.756 311.406C863.919 310.186 864 309.062 864 308.037H861.119C860.891 309.046 860.704 310.299 860.558 311.797C860.427 313.278 860.362 315.085 860.362 317.217C860.362 318.405 860.395 319.406 860.46 320.22C860.525 321.017 860.623 321.742 860.753 322.393ZM863.023 304.131C862.877 304.131 862.665 304.294 862.389 304.619C862.112 304.928 861.835 305.498 861.559 306.328H863.902C863.821 305.645 863.699 305.107 863.536 304.717C863.39 304.326 863.219 304.131 863.023 304.131ZM861.144 324.15V324.175V324.15Z" fill="black"/>
</svg>
