<svg width="82" height="81" viewBox="0 0 82 81" fill="none" xmlns="http://www.w3.org/2000/svg">
<path d="M20.5846 32.4168C19.777 32.4168 18.9876 32.6539 18.3161 33.098C17.6446 33.5421 17.1212 34.1733 16.8121 34.9118C16.5031 35.6503 16.4222 36.463 16.5798 37.247C16.7373 38.031 17.1262 38.7512 17.6973 39.3164C18.2684 39.8816 18.9959 40.2666 19.788 40.4225C20.5801 40.5785 21.4011 40.4984 22.1473 40.1925C22.8934 39.8866 23.5311 39.3686 23.9798 38.7039C24.4285 38.0393 24.668 37.2579 24.668 36.4585C24.668 35.3866 24.2378 34.3586 23.472 33.6006C22.7062 32.8427 21.6676 32.4168 20.5846 32.4168ZM69.5846 16.2502H65.5013V4.12516C65.5013 3.05325 65.0711 2.02523 64.3053 1.26727C63.5396 0.509313 62.5009 0.0834961 61.418 0.0834961H20.5846C19.5017 0.0834961 18.4631 0.509313 17.6973 1.26727C16.9315 2.02523 16.5013 3.05325 16.5013 4.12516V16.2502H12.418C9.16907 16.2502 6.05323 17.5276 3.75591 19.8015C1.45859 22.0754 0.167969 25.1594 0.167969 28.3752V52.6252C0.167969 55.8409 1.45859 58.925 3.75591 61.1988C6.05323 63.4727 9.16907 64.7502 12.418 64.7502H16.5013V76.8752C16.5013 77.9471 16.9315 78.9751 17.6973 79.7331C18.4631 80.491 19.5017 80.9168 20.5846 80.9168H61.418C62.5009 80.9168 63.5396 80.491 64.3053 79.7331C65.0711 78.9751 65.5013 77.9471 65.5013 76.8752V64.7502H69.5846C72.8335 64.7502 75.9494 63.4727 78.2467 61.1988C80.544 58.925 81.8346 55.8409 81.8346 52.6252V28.3752C81.8346 25.1594 80.544 22.0754 78.2467 19.8015C75.9494 17.5276 72.8335 16.2502 69.5846 16.2502ZM24.668 8.16683H57.3346V16.2502H24.668V8.16683ZM57.3346 72.8335H24.668V56.6668H57.3346V72.8335ZM73.668 52.6252C73.668 53.6971 73.2378 54.7251 72.472 55.4831C71.7062 56.241 70.6676 56.6668 69.5846 56.6668H65.5013V52.6252C65.5013 51.5532 65.0711 50.5252 64.3053 49.7673C63.5396 49.0093 62.5009 48.5835 61.418 48.5835H20.5846C19.5017 48.5835 18.4631 49.0093 17.6973 49.7673C16.9315 50.5252 16.5013 51.5532 16.5013 52.6252V56.6668H12.418C11.335 56.6668 10.2964 56.241 9.53062 55.4831C8.76484 54.7251 8.33464 53.6971 8.33464 52.6252V28.3752C8.33464 27.3032 8.76484 26.2752 9.53062 25.5173C10.2964 24.7593 11.335 24.3335 12.418 24.3335H69.5846C70.6676 24.3335 71.7062 24.7593 72.472 25.5173C73.2378 26.2752 73.668 27.3032 73.668 28.3752V52.6252Z" fill="black"/>
</svg>
