<svg width="50" height="35" viewBox="0 0 50 35" fill="none" xmlns="http://www.w3.org/2000/svg">
<path d="M48.0568 12.7727L48.0559 12.7986V12.8245C48.0559 14.2014 48.0547 21.5773 47.9714 22.7435L47.967 22.8055L47.9677 22.8676C47.9951 25.2527 47.6321 27.6261 46.8931 29.8939L46.8909 29.9007C46.6976 30.5036 46.3639 31.0519 45.9173 31.5006C45.2268 32.1734 44.3522 32.6253 43.4049 32.7996C35.4781 33.4085 28.7637 33.5176 21.0899 33.408L21.0631 33.4076L21.0364 33.4082C16.3287 33.5088 11.6199 33.2709 6.94635 32.6964C6.02871 32.5173 5.18304 32.075 4.51257 31.4234C3.93113 30.7595 3.51996 29.9638 3.31493 29.105L3.31133 29.0899L3.30743 29.075C2.95768 27.7331 2.7514 26.3579 2.69205 24.9724L2.69127 24.9542L2.69005 24.936C2.37442 20.2423 2.37415 15.5328 2.68925 10.8392C2.69235 10.8019 2.69544 10.7647 2.69854 10.7276C2.80786 9.41345 2.91391 8.13867 3.20195 6.96971C3.4961 5.77594 3.94562 4.85046 4.6395 4.21054L4.64685 4.20377L4.65411 4.19689C5.32058 3.56561 6.15256 3.13729 7.05263 2.96129C13.0988 2.4233 19.1692 2.20622 25.2384 2.31098L25.2637 2.31141L25.2889 2.311C31.381 2.21078 37.474 2.43519 43.5421 2.98328C44.604 3.18921 45.5683 3.73729 46.2882 4.54216C47.5472 7.09696 48.1552 9.92442 48.0568 12.7727Z" stroke="black" stroke-width="3"/>
<path d="M21.5 23.6237V12.3293C21.5 11.9521 21.9018 11.7108 22.2348 11.8879L33.0647 17.6491C33.4256 17.8412 33.3908 18.3004 33.083 18.4632C31.4792 19.3115 29.7712 20.1901 28.0023 21.1L27.8515 21.1776C26.0318 22.1137 24.1512 23.0818 22.2726 24.0752C21.9128 24.2654 21.5 23.9962 21.5 23.6237Z" stroke="black" stroke-width="3"/>
</svg>
