<svg width="14" height="14" viewBox="0 0 14 14" fill="none" xmlns="http://www.w3.org/2000/svg">
<path d="M5.83278 7.58333H8.16611C8.32082 7.58333 8.4692 7.52187 8.57859 7.41248C8.68799 7.30308 8.74945 7.15471 8.74945 7C8.74945 6.84529 8.68799 6.69692 8.57859 6.58752C8.4692 6.47812 8.32082 6.41667 8.16611 6.41667H5.83278C5.67807 6.41667 5.5297 6.47812 5.4203 6.58752C5.31091 6.69692 5.24945 6.84529 5.24945 7C5.24945 7.15471 5.31091 7.30308 5.4203 7.41248C5.5297 7.52187 5.67807 7.58333 5.83278 7.58333V7.58333ZM11.0828 1.75H2.91611C2.50571 1.75318 2.10949 1.90051 1.7967 2.16622C1.48391 2.43193 1.27446 2.79912 1.20496 3.2036C1.13547 3.60809 1.21034 4.02413 1.4165 4.37901C1.62266 4.73388 1.94698 5.00501 2.33278 5.145V10.5C2.33278 10.9641 2.51716 11.4092 2.84534 11.7374C3.17353 12.0656 3.61865 12.25 4.08278 12.25H9.91611C10.3802 12.25 10.8254 12.0656 11.1536 11.7374C11.4817 11.4092 11.6661 10.9641 11.6661 10.5V5.145C12.0519 5.00501 12.3762 4.73388 12.5824 4.37901C12.7886 4.02413 12.8634 3.60809 12.7939 3.2036C12.7244 2.79912 12.515 2.43193 12.2022 2.16622C11.8894 1.90051 11.4932 1.75318 11.0828 1.75ZM10.4994 10.5C10.4994 10.6547 10.438 10.8031 10.3286 10.9125C10.2192 11.0219 10.0708 11.0833 9.91611 11.0833H4.08278C3.92807 11.0833 3.7797 11.0219 3.6703 10.9125C3.56091 10.8031 3.49945 10.6547 3.49945 10.5V5.25H10.4994V10.5ZM11.0828 4.08333H2.91611C2.7614 4.08333 2.61303 4.02187 2.50364 3.91248C2.39424 3.80308 2.33278 3.65471 2.33278 3.5C2.33278 3.34529 2.39424 3.19692 2.50364 3.08752C2.61303 2.97812 2.7614 2.91667 2.91611 2.91667H11.0828C11.2375 2.91667 11.3859 2.97812 11.4953 3.08752C11.6047 3.19692 11.6661 3.34529 11.6661 3.5C11.6661 3.65471 11.6047 3.80308 11.4953 3.91248C11.3859 4.02187 11.2375 4.08333 11.0828 4.08333Z" fill="black"/>
</svg>
