<svg width="7" height="7" viewBox="0 0 7 7" fill="none" xmlns="http://www.w3.org/2000/svg">
<path d="M4.08464 3.93766V2.3335C4.08464 2.02408 3.96172 1.72733 3.74293 1.50854C3.52413 1.28975 3.22739 1.16683 2.91797 1.16683C2.60855 1.16683 2.3118 1.28975 2.09301 1.50854C1.87422 1.72733 1.7513 2.02408 1.7513 2.3335V3.93766C1.7513 4.44047 1.95104 4.92268 2.30658 5.27822C2.66212 5.63376 3.14433 5.8335 3.64714 5.8335C4.14994 5.8335 4.63215 5.63376 4.98769 5.27822C5.34323 4.92268 5.54297 4.44047 5.54297 3.93766V1.16683H6.1263V3.93766C6.1263 4.59518 5.8651 5.22576 5.40017 5.6907C4.93524 6.15563 4.30465 6.41683 3.64714 6.41683C2.98962 6.41683 2.35903 6.15563 1.8941 5.6907C1.42917 5.22576 1.16797 4.59518 1.16797 3.93766V2.3335C1.16797 1.86937 1.35234 1.42425 1.68053 1.09606C2.00872 0.767871 2.45384 0.583496 2.91797 0.583496C3.3821 0.583496 3.82722 0.767871 4.15541 1.09606C4.48359 1.42425 4.66797 1.86937 4.66797 2.3335V3.93766C4.66797 4.2084 4.56042 4.46806 4.36897 4.6595C4.17753 4.85094 3.91788 4.9585 3.64714 4.9585C3.37639 4.9585 3.11674 4.85094 2.9253 4.6595C2.73385 4.46806 2.6263 4.2084 2.6263 3.93766V2.3335H3.20964V3.93766C3.20964 4.0537 3.25573 4.16498 3.33778 4.24702C3.41982 4.32907 3.5311 4.37516 3.64714 4.37516C3.76317 4.37516 3.87445 4.32907 3.95649 4.24702C4.03854 4.16498 4.08464 4.0537 4.08464 3.93766V3.93766Z" fill="#9B9B9B"/>
</svg>
