<svg width="106" height="331" viewBox="0 0 106 331" fill="none" xmlns="http://www.w3.org/2000/svg">
<g opacity="0.2">
<rect width="106" height="331" fill="white"/>
<path d="M4.50004 19.5039H8.00002V11.0039L3 7.25391V18.004C3 18.8327 3.67126 19.504 4.50004 19.504V19.5039Z" fill="#4285F4"/>
<path d="M20 19.5039H23.5C24.3287 19.5039 25 18.8327 25 18.0039V7.25391L20 11.0039V19.5039Z" fill="#34A853"/>
<path d="M20 4.50402V11.004L25 7.25401V5.25404C25 3.40029 22.8838 2.34154 21.4 3.45404L20 4.50402Z" fill="#FBBC04"/>
<path fill-rule="evenodd" clip-rule="evenodd" d="M8 11.0039V4.50391L14 9.00394L20 4.50391V11.0039L14 15.5039L8 11.0039Z" fill="#EA4335"/>
<path d="M3 5.25404V7.25401L8.00002 11.004V4.50402L6.60001 3.45404C5.11621 2.34155 3 3.40029 3 5.25395V5.25404Z" fill="#C5221F"/>
<path d="M23.5 24H20V32.5L25 36.25V25.4999C25 24.6712 24.3287 23.9999 23.5 23.9999V24Z" fill="#4285F4"/>
<path d="M8 24H4.5C3.67126 24 3.00001 24.6713 3.00001 25.5L3.00001 36.25L8 32.5L8 24Z" fill="#34A853"/>
<path d="M8 38.9999L8 32.4999L3.00001 36.2499L3.00001 38.2499C3.00001 40.1036 5.11621 41.1624 6.6 40.0499L8 38.9999Z" fill="#FBBC04"/>
<path fill-rule="evenodd" clip-rule="evenodd" d="M20 32.5V39L14 34.5L8.00003 39V32.5L14 28L20 32.5Z" fill="#EA4335"/>
<path d="M25 38.2499V36.2499L20 32.4999V38.9999L21.4 40.0499C22.8838 41.1624 25 40.1036 25 38.25V38.2499Z" fill="#C5221F"/>
<path d="M30.5 19.5039H34V11.0039L29 7.25391V18.004C29 18.8327 29.6713 19.504 30.5 19.504V19.5039Z" fill="#4285F4"/>
<path d="M46 19.5039H49.5C50.3287 19.5039 51 18.8327 51 18.0039V7.25391L46 11.0039V19.5039Z" fill="#34A853"/>
<path d="M46 4.50402V11.004L51 7.25401V5.25404C51 3.40029 48.8838 2.34154 47.4 3.45404L46 4.50402Z" fill="#FBBC04"/>
<path fill-rule="evenodd" clip-rule="evenodd" d="M34 11.0039V4.50391L40 9.00394L46 4.50391V11.0039L40 15.5039L34 11.0039Z" fill="#EA4335"/>
<path d="M29 5.25404V7.25401L34 11.004V4.50402L32.6 3.45404C31.1162 2.34155 29 3.40029 29 5.25395V5.25404Z" fill="#C5221F"/>
<path d="M49.5 24H46V32.5L51 36.25V25.4999C51 24.6712 50.3287 23.9999 49.5 23.9999V24Z" fill="#4285F4"/>
<path d="M34 24H30.5C29.6713 24 29 24.6713 29 25.5V36.25L34 32.5V24Z" fill="#34A853"/>
<path d="M34 38.9999V32.4999L29 36.2499V38.2499C29 40.1036 31.1162 41.1624 32.6 40.0499L34 38.9999Z" fill="#FBBC04"/>
<path fill-rule="evenodd" clip-rule="evenodd" d="M46 32.5V39L40 34.5L34 39V32.5L40 28L46 32.5Z" fill="#EA4335"/>
<path d="M51 38.2499V36.2499L46 32.4999V38.9999L47.4 40.0499C48.8838 41.1624 51 40.1036 51 38.25V38.2499Z" fill="#C5221F"/>
<path d="M56.5 19.5039H60V11.0039L55 7.25391V18.004C55 18.8327 55.6713 19.504 56.5 19.504V19.5039Z" fill="#4285F4"/>
<path d="M72 19.5039H75.5C76.3287 19.5039 77 18.8327 77 18.0039V7.25391L72 11.0039V19.5039Z" fill="#34A853"/>
<path d="M72 4.50402V11.004L77 7.25401V5.25404C77 3.40029 74.8838 2.34154 73.4 3.45404L72 4.50402Z" fill="#FBBC04"/>
<path fill-rule="evenodd" clip-rule="evenodd" d="M60 11.0039V4.50391L66 9.00394L72 4.50391V11.0039L66 15.5039L60 11.0039Z" fill="#EA4335"/>
<path d="M55 5.25404V7.25401L60 11.004V4.50402L58.6 3.45404C57.1162 2.34155 55 3.40029 55 5.25395V5.25404Z" fill="#C5221F"/>
<path d="M75.5 24H72V32.5L77 36.25V25.4999C77 24.6712 76.3287 23.9999 75.5 23.9999V24Z" fill="#4285F4"/>
<path d="M60 24H56.5C55.6713 24 55 24.6713 55 25.5V36.25L60 32.5V24Z" fill="#34A853"/>
<path d="M60 38.9999V32.4999L55 36.2499V38.2499C55 40.1036 57.1162 41.1624 58.6 40.0499L60 38.9999Z" fill="#FBBC04"/>
<path fill-rule="evenodd" clip-rule="evenodd" d="M72 32.5V39L66 34.5L60 39V32.5L66 28L72 32.5Z" fill="#EA4335"/>
<path d="M77 38.2499V36.2499L72 32.4999V38.9999L73.4 40.0499C74.8838 41.1624 77 40.1036 77 38.25V38.2499Z" fill="#C5221F"/>
<path d="M82.5 19.5039H86V11.0039L81 7.25391V18.004C81 18.8327 81.6713 19.504 82.5 19.504V19.5039Z" fill="#4285F4"/>
<path d="M98 19.5039H101.5C102.329 19.5039 103 18.8327 103 18.0039V7.25391L98 11.0039V19.5039Z" fill="#34A853"/>
<path d="M98 4.50402V11.004L103 7.25401V5.25404C103 3.40029 100.884 2.34154 99.4 3.45404L98 4.50402Z" fill="#FBBC04"/>
<path fill-rule="evenodd" clip-rule="evenodd" d="M86 11.0039V4.50391L92 9.00394L98 4.50391V11.0039L92 15.5039L86 11.0039Z" fill="#EA4335"/>
<path d="M81 5.25404V7.25401L86 11.004V4.50402L84.6 3.45404C83.1162 2.34155 81 3.40029 81 5.25395V5.25404Z" fill="#C5221F"/>
<path d="M101.5 24H98V32.5L103 36.25V25.4999C103 24.6712 102.329 23.9999 101.5 23.9999V24Z" fill="#4285F4"/>
<path d="M86 24H82.5C81.6713 24 81 24.6713 81 25.5V36.25L86 32.5V24Z" fill="#34A853"/>
<path d="M86 38.9999V32.4999L81 36.2499V38.2499C81 40.1036 83.1162 41.1624 84.6 40.0499L86 38.9999Z" fill="#FBBC04"/>
<path fill-rule="evenodd" clip-rule="evenodd" d="M98 32.5V39L92 34.5L86 39V32.5L92 28L98 32.5Z" fill="#EA4335"/>
<path d="M103 38.2499V36.2499L98 32.4999V38.9999L99.4 40.0499C100.884 41.1624 103 40.1036 103 38.25V38.2499Z" fill="#C5221F"/>
<path d="M4.50004 60.5039H8.00002V52.0039L3 48.2539V59.004C3 59.8327 3.67126 60.504 4.50004 60.504V60.5039Z" fill="#4285F4"/>
<path d="M20 60.5039H23.5C24.3287 60.5039 25 59.8327 25 59.0039V48.2539L20 52.0039V60.5039Z" fill="#34A853"/>
<path d="M20 45.504V52.004L25 48.254V46.254C25 44.4003 22.8838 43.3415 21.4 44.454L20 45.504Z" fill="#FBBC04"/>
<path fill-rule="evenodd" clip-rule="evenodd" d="M8 52.0039V45.5039L14 50.0039L20 45.5039V52.0039L14 56.5039L8 52.0039Z" fill="#EA4335"/>
<path d="M3 46.254V48.254L8.00002 52.004V45.504L6.60001 44.454C5.11621 43.3415 3 44.4003 3 46.254V46.254Z" fill="#C5221F"/>
<path d="M23.5 65H20V73.5L25 77.25V66.4999C25 65.6712 24.3287 64.9999 23.5 64.9999V65Z" fill="#4285F4"/>
<path d="M8 65H4.5C3.67126 65 3.00001 65.6713 3.00001 66.5L3.00001 77.25L8 73.5L8 65Z" fill="#34A853"/>
<path d="M8 79.9999L8 73.4999L3.00001 77.2499L3.00001 79.2499C3.00001 81.1036 5.11621 82.1624 6.6 81.0499L8 79.9999Z" fill="#FBBC04"/>
<path fill-rule="evenodd" clip-rule="evenodd" d="M20 73.5V80L14 75.5L8.00003 80V73.5L14 69L20 73.5Z" fill="#EA4335"/>
<path d="M25 79.2499V77.2499L20 73.4999V79.9999L21.4 81.0499C22.8838 82.1624 25 81.1036 25 79.25V79.2499Z" fill="#C5221F"/>
<path d="M30.5 60.5039H34V52.0039L29 48.2539V59.004C29 59.8327 29.6713 60.504 30.5 60.504V60.5039Z" fill="#4285F4"/>
<path d="M46 60.5039H49.5C50.3287 60.5039 51 59.8327 51 59.0039V48.2539L46 52.0039V60.5039Z" fill="#34A853"/>
<path d="M46 45.504V52.004L51 48.254V46.254C51 44.4003 48.8838 43.3415 47.4 44.454L46 45.504Z" fill="#FBBC04"/>
<path fill-rule="evenodd" clip-rule="evenodd" d="M34 52.0039V45.5039L40 50.0039L46 45.5039V52.0039L40 56.5039L34 52.0039Z" fill="#EA4335"/>
<path d="M29 46.254V48.254L34 52.004V45.504L32.6 44.454C31.1162 43.3415 29 44.4003 29 46.254V46.254Z" fill="#C5221F"/>
<path d="M49.5 65H46V73.5L51 77.25V66.4999C51 65.6712 50.3287 64.9999 49.5 64.9999V65Z" fill="#4285F4"/>
<path d="M34 65H30.5C29.6713 65 29 65.6713 29 66.5V77.25L34 73.5V65Z" fill="#34A853"/>
<path d="M34 79.9999V73.4999L29 77.2499V79.2499C29 81.1036 31.1162 82.1624 32.6 81.0499L34 79.9999Z" fill="#FBBC04"/>
<path fill-rule="evenodd" clip-rule="evenodd" d="M46 73.5V80L40 75.5L34 80V73.5L40 69L46 73.5Z" fill="#EA4335"/>
<path d="M51 79.2499V77.2499L46 73.4999V79.9999L47.4 81.0499C48.8838 82.1624 51 81.1036 51 79.25V79.2499Z" fill="#C5221F"/>
<path d="M56.5 60.5039H60V52.0039L55 48.2539V59.004C55 59.8327 55.6713 60.504 56.5 60.504V60.5039Z" fill="#4285F4"/>
<path d="M72 60.5039H75.5C76.3287 60.5039 77 59.8327 77 59.0039V48.2539L72 52.0039V60.5039Z" fill="#34A853"/>
<path d="M72 45.504V52.004L77 48.254V46.254C77 44.4003 74.8838 43.3415 73.4 44.454L72 45.504Z" fill="#FBBC04"/>
<path fill-rule="evenodd" clip-rule="evenodd" d="M60 52.0039V45.5039L66 50.0039L72 45.5039V52.0039L66 56.5039L60 52.0039Z" fill="#EA4335"/>
<path d="M55 46.254V48.254L60 52.004V45.504L58.6 44.454C57.1162 43.3415 55 44.4003 55 46.254V46.254Z" fill="#C5221F"/>
<path d="M75.5 65H72V73.5L77 77.25V66.4999C77 65.6712 76.3287 64.9999 75.5 64.9999V65Z" fill="#4285F4"/>
<path d="M60 65H56.5C55.6713 65 55 65.6713 55 66.5V77.25L60 73.5V65Z" fill="#34A853"/>
<path d="M60 79.9999V73.4999L55 77.2499V79.2499C55 81.1036 57.1162 82.1624 58.6 81.0499L60 79.9999Z" fill="#FBBC04"/>
<path fill-rule="evenodd" clip-rule="evenodd" d="M72 73.5V80L66 75.5L60 80V73.5L66 69L72 73.5Z" fill="#EA4335"/>
<path d="M77 79.2499V77.2499L72 73.4999V79.9999L73.4 81.0499C74.8838 82.1624 77 81.1036 77 79.25V79.2499Z" fill="#C5221F"/>
<path d="M82.5 60.5039H86V52.0039L81 48.2539V59.004C81 59.8327 81.6713 60.504 82.5 60.504V60.5039Z" fill="#4285F4"/>
<path d="M98 60.5039H101.5C102.329 60.5039 103 59.8327 103 59.0039V48.2539L98 52.0039V60.5039Z" fill="#34A853"/>
<path d="M98 45.504V52.004L103 48.254V46.254C103 44.4003 100.884 43.3415 99.4 44.454L98 45.504Z" fill="#FBBC04"/>
<path fill-rule="evenodd" clip-rule="evenodd" d="M86 52.0039V45.5039L92 50.0039L98 45.5039V52.0039L92 56.5039L86 52.0039Z" fill="#EA4335"/>
<path d="M81 46.254V48.254L86 52.004V45.504L84.6 44.454C83.1162 43.3415 81 44.4003 81 46.254V46.254Z" fill="#C5221F"/>
<path d="M101.5 65H98V73.5L103 77.25V66.4999C103 65.6712 102.329 64.9999 101.5 64.9999V65Z" fill="#4285F4"/>
<path d="M86 65H82.5C81.6713 65 81 65.6713 81 66.5V77.25L86 73.5V65Z" fill="#34A853"/>
<path d="M86 79.9999V73.4999L81 77.2499V79.2499C81 81.1036 83.1162 82.1624 84.6 81.0499L86 79.9999Z" fill="#FBBC04"/>
<path fill-rule="evenodd" clip-rule="evenodd" d="M98 73.5V80L92 75.5L86 80V73.5L92 69L98 73.5Z" fill="#EA4335"/>
<path d="M103 79.2499V77.2499L98 73.4999V79.9999L99.4 81.0499C100.884 82.1624 103 81.1036 103 79.25V79.2499Z" fill="#C5221F"/>
<path d="M4.50004 101.504H8.00002V93.0039L3 89.2539V100.004C3 100.833 3.67126 101.504 4.50004 101.504V101.504Z" fill="#4285F4"/>
<path d="M20 101.504H23.5C24.3287 101.504 25 100.833 25 100.004V89.2539L20 93.0039V101.504Z" fill="#34A853"/>
<path d="M20 86.504V93.004L25 89.254V87.254C25 85.4003 22.8838 84.3415 21.4 85.454L20 86.504Z" fill="#FBBC04"/>
<path fill-rule="evenodd" clip-rule="evenodd" d="M8 93.0039V86.5039L14 91.0039L20 86.5039V93.0039L14 97.5039L8 93.0039Z" fill="#EA4335"/>
<path d="M3 87.254V89.254L8.00002 93.004V86.504L6.60001 85.454C5.11621 84.3415 3 85.4003 3 87.254V87.254Z" fill="#C5221F"/>
<path d="M23.5 106H20V114.5L25 118.25V107.5C25 106.671 24.3287 106 23.5 106V106Z" fill="#4285F4"/>
<path d="M8 106H4.5C3.67126 106 3.00001 106.671 3.00001 107.5L3.00001 118.25L8 114.5L8 106Z" fill="#34A853"/>
<path d="M8 121L8 114.5L3.00001 118.25L3.00001 120.25C3.00001 122.104 5.11621 123.162 6.6 122.05L8 121Z" fill="#FBBC04"/>
<path fill-rule="evenodd" clip-rule="evenodd" d="M20 114.5V121L14 116.5L8.00003 121V114.5L14 110L20 114.5Z" fill="#EA4335"/>
<path d="M25 120.25V118.25L20 114.5V121L21.4 122.05C22.8838 123.162 25 122.104 25 120.25V120.25Z" fill="#C5221F"/>
<path d="M30.5 101.504H34V93.0039L29 89.2539V100.004C29 100.833 29.6713 101.504 30.5 101.504V101.504Z" fill="#4285F4"/>
<path d="M46 101.504H49.5C50.3287 101.504 51 100.833 51 100.004V89.2539L46 93.0039V101.504Z" fill="#34A853"/>
<path d="M46 86.504V93.004L51 89.254V87.254C51 85.4003 48.8838 84.3415 47.4 85.454L46 86.504Z" fill="#FBBC04"/>
<path fill-rule="evenodd" clip-rule="evenodd" d="M34 93.0039V86.5039L40 91.0039L46 86.5039V93.0039L40 97.5039L34 93.0039Z" fill="#EA4335"/>
<path d="M29 87.254V89.254L34 93.004V86.504L32.6 85.454C31.1162 84.3415 29 85.4003 29 87.254V87.254Z" fill="#C5221F"/>
<path d="M49.5 106H46V114.5L51 118.25V107.5C51 106.671 50.3287 106 49.5 106V106Z" fill="#4285F4"/>
<path d="M34 106H30.5C29.6713 106 29 106.671 29 107.5V118.25L34 114.5V106Z" fill="#34A853"/>
<path d="M34 121V114.5L29 118.25V120.25C29 122.104 31.1162 123.162 32.6 122.05L34 121Z" fill="#FBBC04"/>
<path fill-rule="evenodd" clip-rule="evenodd" d="M46 114.5V121L40 116.5L34 121V114.5L40 110L46 114.5Z" fill="#EA4335"/>
<path d="M51 120.25V118.25L46 114.5V121L47.4 122.05C48.8838 123.162 51 122.104 51 120.25V120.25Z" fill="#C5221F"/>
<path d="M56.5 101.504H60V93.0039L55 89.2539V100.004C55 100.833 55.6713 101.504 56.5 101.504V101.504Z" fill="#4285F4"/>
<path d="M72 101.504H75.5C76.3287 101.504 77 100.833 77 100.004V89.2539L72 93.0039V101.504Z" fill="#34A853"/>
<path d="M72 86.504V93.004L77 89.254V87.254C77 85.4003 74.8838 84.3415 73.4 85.454L72 86.504Z" fill="#FBBC04"/>
<path fill-rule="evenodd" clip-rule="evenodd" d="M60 93.0039V86.5039L66 91.0039L72 86.5039V93.0039L66 97.5039L60 93.0039Z" fill="#EA4335"/>
<path d="M55 87.254V89.254L60 93.004V86.504L58.6 85.454C57.1162 84.3415 55 85.4003 55 87.254V87.254Z" fill="#C5221F"/>
<path d="M75.5 106H72V114.5L77 118.25V107.5C77 106.671 76.3287 106 75.5 106V106Z" fill="#4285F4"/>
<path d="M60 106H56.5C55.6713 106 55 106.671 55 107.5V118.25L60 114.5V106Z" fill="#34A853"/>
<path d="M60 121V114.5L55 118.25V120.25C55 122.104 57.1162 123.162 58.6 122.05L60 121Z" fill="#FBBC04"/>
<path fill-rule="evenodd" clip-rule="evenodd" d="M72 114.5V121L66 116.5L60 121V114.5L66 110L72 114.5Z" fill="#EA4335"/>
<path d="M77 120.25V118.25L72 114.5V121L73.4 122.05C74.8838 123.162 77 122.104 77 120.25V120.25Z" fill="#C5221F"/>
<path d="M82.5 101.504H86V93.0039L81 89.2539V100.004C81 100.833 81.6713 101.504 82.5 101.504V101.504Z" fill="#4285F4"/>
<path d="M98 101.504H101.5C102.329 101.504 103 100.833 103 100.004V89.2539L98 93.0039V101.504Z" fill="#34A853"/>
<path d="M98 86.504V93.004L103 89.254V87.254C103 85.4003 100.884 84.3415 99.4 85.454L98 86.504Z" fill="#FBBC04"/>
<path fill-rule="evenodd" clip-rule="evenodd" d="M86 93.0039V86.5039L92 91.0039L98 86.5039V93.0039L92 97.5039L86 93.0039Z" fill="#EA4335"/>
<path d="M81 87.254V89.254L86 93.004V86.504L84.6 85.454C83.1162 84.3415 81 85.4003 81 87.254V87.254Z" fill="#C5221F"/>
<path d="M101.5 106H98V114.5L103 118.25V107.5C103 106.671 102.329 106 101.5 106V106Z" fill="#4285F4"/>
<path d="M86 106H82.5C81.6713 106 81 106.671 81 107.5V118.25L86 114.5V106Z" fill="#34A853"/>
<path d="M86 121V114.5L81 118.25V120.25C81 122.104 83.1162 123.162 84.6 122.05L86 121Z" fill="#FBBC04"/>
<path fill-rule="evenodd" clip-rule="evenodd" d="M98 114.5V121L92 116.5L86 121V114.5L92 110L98 114.5Z" fill="#EA4335"/>
<path d="M103 120.25V118.25L98 114.5V121L99.4 122.05C100.884 123.162 103 122.104 103 120.25V120.25Z" fill="#C5221F"/>
<path d="M4.50004 142.504H8.00002V134.004L3 130.254V141.004C3 141.833 3.67126 142.504 4.50004 142.504V142.504Z" fill="#4285F4"/>
<path d="M20 142.504H23.5C24.3287 142.504 25 141.833 25 141.004V130.254L20 134.004V142.504Z" fill="#34A853"/>
<path d="M20 127.504V134.004L25 130.254V128.254C25 126.4 22.8838 125.342 21.4 126.454L20 127.504Z" fill="#FBBC04"/>
<path fill-rule="evenodd" clip-rule="evenodd" d="M8 134.004V127.504L14 132.004L20 127.504V134.004L14 138.504L8 134.004Z" fill="#EA4335"/>
<path d="M3 128.254V130.254L8.00002 134.004V127.504L6.60001 126.454C5.11621 125.342 3 126.4 3 128.254V128.254Z" fill="#C5221F"/>
<path d="M23.5 147H20V155.5L25 159.25V148.5C25 147.671 24.3287 147 23.5 147V147Z" fill="#4285F4"/>
<path d="M8 147H4.5C3.67126 147 3.00001 147.671 3.00001 148.5L3.00001 159.25L8 155.5L8 147Z" fill="#34A853"/>
<path d="M8 162L8 155.5L3.00001 159.25L3.00001 161.25C3.00001 163.104 5.11621 164.162 6.6 163.05L8 162Z" fill="#FBBC04"/>
<path fill-rule="evenodd" clip-rule="evenodd" d="M20 155.5V162L14 157.5L8.00003 162V155.5L14 151L20 155.5Z" fill="#EA4335"/>
<path d="M25 161.25V159.25L20 155.5V162L21.4 163.05C22.8838 164.162 25 163.104 25 161.25V161.25Z" fill="#C5221F"/>
<path d="M30.5 142.504H34V134.004L29 130.254V141.004C29 141.833 29.6713 142.504 30.5 142.504V142.504Z" fill="#4285F4"/>
<path d="M46 142.504H49.5C50.3287 142.504 51 141.833 51 141.004V130.254L46 134.004V142.504Z" fill="#34A853"/>
<path d="M46 127.504V134.004L51 130.254V128.254C51 126.4 48.8838 125.342 47.4 126.454L46 127.504Z" fill="#FBBC04"/>
<path fill-rule="evenodd" clip-rule="evenodd" d="M34 134.004V127.504L40 132.004L46 127.504V134.004L40 138.504L34 134.004Z" fill="#EA4335"/>
<path d="M29 128.254V130.254L34 134.004V127.504L32.6 126.454C31.1162 125.342 29 126.4 29 128.254V128.254Z" fill="#C5221F"/>
<path d="M49.5 147H46V155.5L51 159.25V148.5C51 147.671 50.3287 147 49.5 147V147Z" fill="#4285F4"/>
<path d="M34 147H30.5C29.6713 147 29 147.671 29 148.5V159.25L34 155.5V147Z" fill="#34A853"/>
<path d="M34 162V155.5L29 159.25V161.25C29 163.104 31.1162 164.162 32.6 163.05L34 162Z" fill="#FBBC04"/>
<path fill-rule="evenodd" clip-rule="evenodd" d="M46 155.5V162L40 157.5L34 162V155.5L40 151L46 155.5Z" fill="#EA4335"/>
<path d="M51 161.25V159.25L46 155.5V162L47.4 163.05C48.8838 164.162 51 163.104 51 161.25V161.25Z" fill="#C5221F"/>
<path d="M56.5 142.504H60V134.004L55 130.254V141.004C55 141.833 55.6713 142.504 56.5 142.504V142.504Z" fill="#4285F4"/>
<path d="M72 142.504H75.5C76.3287 142.504 77 141.833 77 141.004V130.254L72 134.004V142.504Z" fill="#34A853"/>
<path d="M72 127.504V134.004L77 130.254V128.254C77 126.4 74.8838 125.342 73.4 126.454L72 127.504Z" fill="#FBBC04"/>
<path fill-rule="evenodd" clip-rule="evenodd" d="M60 134.004V127.504L66 132.004L72 127.504V134.004L66 138.504L60 134.004Z" fill="#EA4335"/>
<path d="M55 128.254V130.254L60 134.004V127.504L58.6 126.454C57.1162 125.342 55 126.4 55 128.254V128.254Z" fill="#C5221F"/>
<path d="M75.5 147H72V155.5L77 159.25V148.5C77 147.671 76.3287 147 75.5 147V147Z" fill="#4285F4"/>
<path d="M60 147H56.5C55.6713 147 55 147.671 55 148.5V159.25L60 155.5V147Z" fill="#34A853"/>
<path d="M60 162V155.5L55 159.25V161.25C55 163.104 57.1162 164.162 58.6 163.05L60 162Z" fill="#FBBC04"/>
<path fill-rule="evenodd" clip-rule="evenodd" d="M72 155.5V162L66 157.5L60 162V155.5L66 151L72 155.5Z" fill="#EA4335"/>
<path d="M77 161.25V159.25L72 155.5V162L73.4 163.05C74.8838 164.162 77 163.104 77 161.25V161.25Z" fill="#C5221F"/>
<path d="M82.5 142.504H86V134.004L81 130.254V141.004C81 141.833 81.6713 142.504 82.5 142.504V142.504Z" fill="#4285F4"/>
<path d="M98 142.504H101.5C102.329 142.504 103 141.833 103 141.004V130.254L98 134.004V142.504Z" fill="#34A853"/>
<path d="M98 127.504V134.004L103 130.254V128.254C103 126.4 100.884 125.342 99.4 126.454L98 127.504Z" fill="#FBBC04"/>
<path fill-rule="evenodd" clip-rule="evenodd" d="M86 134.004V127.504L92 132.004L98 127.504V134.004L92 138.504L86 134.004Z" fill="#EA4335"/>
<path d="M81 128.254V130.254L86 134.004V127.504L84.6 126.454C83.1162 125.342 81 126.4 81 128.254V128.254Z" fill="#C5221F"/>
<path d="M101.5 147H98V155.5L103 159.25V148.5C103 147.671 102.329 147 101.5 147V147Z" fill="#4285F4"/>
<path d="M86 147H82.5C81.6713 147 81 147.671 81 148.5V159.25L86 155.5V147Z" fill="#34A853"/>
<path d="M86 162V155.5L81 159.25V161.25C81 163.104 83.1162 164.162 84.6 163.05L86 162Z" fill="#FBBC04"/>
<path fill-rule="evenodd" clip-rule="evenodd" d="M98 155.5V162L92 157.5L86 162V155.5L92 151L98 155.5Z" fill="#EA4335"/>
<path d="M103 161.25V159.25L98 155.5V162L99.4 163.05C100.884 164.162 103 163.104 103 161.25V161.25Z" fill="#C5221F"/>
<path d="M4.50004 183.504H8.00002V175.004L3 171.254V182.004C3 182.833 3.67126 183.504 4.50004 183.504V183.504Z" fill="#4285F4"/>
<path d="M20 183.504H23.5C24.3287 183.504 25 182.833 25 182.004V171.254L20 175.004V183.504Z" fill="#34A853"/>
<path d="M20 168.504V175.004L25 171.254V169.254C25 167.4 22.8838 166.342 21.4 167.454L20 168.504Z" fill="#FBBC04"/>
<path fill-rule="evenodd" clip-rule="evenodd" d="M8 175.004V168.504L14 173.004L20 168.504V175.004L14 179.504L8 175.004Z" fill="#EA4335"/>
<path d="M3 169.254V171.254L8.00002 175.004V168.504L6.60001 167.454C5.11621 166.342 3 167.4 3 169.254V169.254Z" fill="#C5221F"/>
<path d="M23.5 188H20V196.5L25 200.25V189.5C25 188.671 24.3287 188 23.5 188V188Z" fill="#4285F4"/>
<path d="M8 188H4.5C3.67126 188 3.00001 188.671 3.00001 189.5L3.00001 200.25L8 196.5L8 188Z" fill="#34A853"/>
<path d="M8 203L8 196.5L3.00001 200.25L3.00001 202.25C3.00001 204.104 5.11621 205.162 6.6 204.05L8 203Z" fill="#FBBC04"/>
<path fill-rule="evenodd" clip-rule="evenodd" d="M20 196.5V203L14 198.5L8.00003 203V196.5L14 192L20 196.5Z" fill="#EA4335"/>
<path d="M25 202.25V200.25L20 196.5V203L21.4 204.05C22.8838 205.162 25 204.104 25 202.25V202.25Z" fill="#C5221F"/>
<path d="M30.5 183.504H34V175.004L29 171.254V182.004C29 182.833 29.6713 183.504 30.5 183.504V183.504Z" fill="#4285F4"/>
<path d="M46 183.504H49.5C50.3287 183.504 51 182.833 51 182.004V171.254L46 175.004V183.504Z" fill="#34A853"/>
<path d="M46 168.504V175.004L51 171.254V169.254C51 167.4 48.8838 166.342 47.4 167.454L46 168.504Z" fill="#FBBC04"/>
<path fill-rule="evenodd" clip-rule="evenodd" d="M34 175.004V168.504L40 173.004L46 168.504V175.004L40 179.504L34 175.004Z" fill="#EA4335"/>
<path d="M29 169.254V171.254L34 175.004V168.504L32.6 167.454C31.1162 166.342 29 167.4 29 169.254V169.254Z" fill="#C5221F"/>
<path d="M49.5 188H46V196.5L51 200.25V189.5C51 188.671 50.3287 188 49.5 188V188Z" fill="#4285F4"/>
<path d="M34 188H30.5C29.6713 188 29 188.671 29 189.5V200.25L34 196.5V188Z" fill="#34A853"/>
<path d="M34 203V196.5L29 200.25V202.25C29 204.104 31.1162 205.162 32.6 204.05L34 203Z" fill="#FBBC04"/>
<path fill-rule="evenodd" clip-rule="evenodd" d="M46 196.5V203L40 198.5L34 203V196.5L40 192L46 196.5Z" fill="#EA4335"/>
<path d="M51 202.25V200.25L46 196.5V203L47.4 204.05C48.8838 205.162 51 204.104 51 202.25V202.25Z" fill="#C5221F"/>
<path d="M56.5 183.504H60V175.004L55 171.254V182.004C55 182.833 55.6713 183.504 56.5 183.504V183.504Z" fill="#4285F4"/>
<path d="M72 183.504H75.5C76.3287 183.504 77 182.833 77 182.004V171.254L72 175.004V183.504Z" fill="#34A853"/>
<path d="M72 168.504V175.004L77 171.254V169.254C77 167.4 74.8838 166.342 73.4 167.454L72 168.504Z" fill="#FBBC04"/>
<path fill-rule="evenodd" clip-rule="evenodd" d="M60 175.004V168.504L66 173.004L72 168.504V175.004L66 179.504L60 175.004Z" fill="#EA4335"/>
<path d="M55 169.254V171.254L60 175.004V168.504L58.6 167.454C57.1162 166.342 55 167.4 55 169.254V169.254Z" fill="#C5221F"/>
<path d="M75.5 188H72V196.5L77 200.25V189.5C77 188.671 76.3287 188 75.5 188V188Z" fill="#4285F4"/>
<path d="M60 188H56.5C55.6713 188 55 188.671 55 189.5V200.25L60 196.5V188Z" fill="#34A853"/>
<path d="M60 203V196.5L55 200.25V202.25C55 204.104 57.1162 205.162 58.6 204.05L60 203Z" fill="#FBBC04"/>
<path fill-rule="evenodd" clip-rule="evenodd" d="M72 196.5V203L66 198.5L60 203V196.5L66 192L72 196.5Z" fill="#EA4335"/>
<path d="M77 202.25V200.25L72 196.5V203L73.4 204.05C74.8838 205.162 77 204.104 77 202.25V202.25Z" fill="#C5221F"/>
<path d="M82.5 183.504H86V175.004L81 171.254V182.004C81 182.833 81.6713 183.504 82.5 183.504V183.504Z" fill="#4285F4"/>
<path d="M98 183.504H101.5C102.329 183.504 103 182.833 103 182.004V171.254L98 175.004V183.504Z" fill="#34A853"/>
<path d="M98 168.504V175.004L103 171.254V169.254C103 167.4 100.884 166.342 99.4 167.454L98 168.504Z" fill="#FBBC04"/>
<path fill-rule="evenodd" clip-rule="evenodd" d="M86 175.004V168.504L92 173.004L98 168.504V175.004L92 179.504L86 175.004Z" fill="#EA4335"/>
<path d="M81 169.254V171.254L86 175.004V168.504L84.6 167.454C83.1162 166.342 81 167.4 81 169.254V169.254Z" fill="#C5221F"/>
<path d="M101.5 188H98V196.5L103 200.25V189.5C103 188.671 102.329 188 101.5 188V188Z" fill="#4285F4"/>
<path d="M86 188H82.5C81.6713 188 81 188.671 81 189.5V200.25L86 196.5V188Z" fill="#34A853"/>
<path d="M86 203V196.5L81 200.25V202.25C81 204.104 83.1162 205.162 84.6 204.05L86 203Z" fill="#FBBC04"/>
<path fill-rule="evenodd" clip-rule="evenodd" d="M98 196.5V203L92 198.5L86 203V196.5L92 192L98 196.5Z" fill="#EA4335"/>
<path d="M103 202.25V200.25L98 196.5V203L99.4 204.05C100.884 205.162 103 204.104 103 202.25V202.25Z" fill="#C5221F"/>
<path d="M4.50004 224.504H8.00002V216.004L3 212.254V223.004C3 223.833 3.67126 224.504 4.50004 224.504V224.504Z" fill="#4285F4"/>
<path d="M20 224.504H23.5C24.3287 224.504 25 223.833 25 223.004V212.254L20 216.004V224.504Z" fill="#34A853"/>
<path d="M20 209.504V216.004L25 212.254V210.254C25 208.4 22.8838 207.342 21.4 208.454L20 209.504Z" fill="#FBBC04"/>
<path fill-rule="evenodd" clip-rule="evenodd" d="M8 216.004V209.504L14 214.004L20 209.504V216.004L14 220.504L8 216.004Z" fill="#EA4335"/>
<path d="M3 210.254V212.254L8.00002 216.004V209.504L6.60001 208.454C5.11621 207.342 3 208.4 3 210.254V210.254Z" fill="#C5221F"/>
<path d="M23.5 229H20V237.5L25 241.25V230.5C25 229.671 24.3287 229 23.5 229V229Z" fill="#4285F4"/>
<path d="M8 229H4.5C3.67126 229 3.00001 229.671 3.00001 230.5L3.00001 241.25L8 237.5L8 229Z" fill="#34A853"/>
<path d="M8 244L8 237.5L3.00001 241.25L3.00001 243.25C3.00001 245.104 5.11621 246.162 6.6 245.05L8 244Z" fill="#FBBC04"/>
<path fill-rule="evenodd" clip-rule="evenodd" d="M20 237.5V244L14 239.5L8.00003 244V237.5L14 233L20 237.5Z" fill="#EA4335"/>
<path d="M25 243.25V241.25L20 237.5V244L21.4 245.05C22.8838 246.162 25 245.104 25 243.25V243.25Z" fill="#C5221F"/>
<path d="M30.5 224.504H34V216.004L29 212.254V223.004C29 223.833 29.6713 224.504 30.5 224.504V224.504Z" fill="#4285F4"/>
<path d="M46 224.504H49.5C50.3287 224.504 51 223.833 51 223.004V212.254L46 216.004V224.504Z" fill="#34A853"/>
<path d="M46 209.504V216.004L51 212.254V210.254C51 208.4 48.8838 207.342 47.4 208.454L46 209.504Z" fill="#FBBC04"/>
<path fill-rule="evenodd" clip-rule="evenodd" d="M34 216.004V209.504L40 214.004L46 209.504V216.004L40 220.504L34 216.004Z" fill="#EA4335"/>
<path d="M29 210.254V212.254L34 216.004V209.504L32.6 208.454C31.1162 207.342 29 208.4 29 210.254V210.254Z" fill="#C5221F"/>
<path d="M49.5 229H46V237.5L51 241.25V230.5C51 229.671 50.3287 229 49.5 229V229Z" fill="#4285F4"/>
<path d="M34 229H30.5C29.6713 229 29 229.671 29 230.5V241.25L34 237.5V229Z" fill="#34A853"/>
<path d="M34 244V237.5L29 241.25V243.25C29 245.104 31.1162 246.162 32.6 245.05L34 244Z" fill="#FBBC04"/>
<path fill-rule="evenodd" clip-rule="evenodd" d="M46 237.5V244L40 239.5L34 244V237.5L40 233L46 237.5Z" fill="#EA4335"/>
<path d="M51 243.25V241.25L46 237.5V244L47.4 245.05C48.8838 246.162 51 245.104 51 243.25V243.25Z" fill="#C5221F"/>
<path d="M56.5 224.504H60V216.004L55 212.254V223.004C55 223.833 55.6713 224.504 56.5 224.504V224.504Z" fill="#4285F4"/>
<path d="M72 224.504H75.5C76.3287 224.504 77 223.833 77 223.004V212.254L72 216.004V224.504Z" fill="#34A853"/>
<path d="M72 209.504V216.004L77 212.254V210.254C77 208.4 74.8838 207.342 73.4 208.454L72 209.504Z" fill="#FBBC04"/>
<path fill-rule="evenodd" clip-rule="evenodd" d="M60 216.004V209.504L66 214.004L72 209.504V216.004L66 220.504L60 216.004Z" fill="#EA4335"/>
<path d="M55 210.254V212.254L60 216.004V209.504L58.6 208.454C57.1162 207.342 55 208.4 55 210.254V210.254Z" fill="#C5221F"/>
<path d="M75.5 229H72V237.5L77 241.25V230.5C77 229.671 76.3287 229 75.5 229V229Z" fill="#4285F4"/>
<path d="M60 229H56.5C55.6713 229 55 229.671 55 230.5V241.25L60 237.5V229Z" fill="#34A853"/>
<path d="M60 244V237.5L55 241.25V243.25C55 245.104 57.1162 246.162 58.6 245.05L60 244Z" fill="#FBBC04"/>
<path fill-rule="evenodd" clip-rule="evenodd" d="M72 237.5V244L66 239.5L60 244V237.5L66 233L72 237.5Z" fill="#EA4335"/>
<path d="M77 243.25V241.25L72 237.5V244L73.4 245.05C74.8838 246.162 77 245.104 77 243.25V243.25Z" fill="#C5221F"/>
<path d="M82.5 224.504H86V216.004L81 212.254V223.004C81 223.833 81.6713 224.504 82.5 224.504V224.504Z" fill="#4285F4"/>
<path d="M98 224.504H101.5C102.329 224.504 103 223.833 103 223.004V212.254L98 216.004V224.504Z" fill="#34A853"/>
<path d="M98 209.504V216.004L103 212.254V210.254C103 208.4 100.884 207.342 99.4 208.454L98 209.504Z" fill="#FBBC04"/>
<path fill-rule="evenodd" clip-rule="evenodd" d="M86 216.004V209.504L92 214.004L98 209.504V216.004L92 220.504L86 216.004Z" fill="#EA4335"/>
<path d="M81 210.254V212.254L86 216.004V209.504L84.6 208.454C83.1162 207.342 81 208.4 81 210.254V210.254Z" fill="#C5221F"/>
<path d="M101.5 229H98V237.5L103 241.25V230.5C103 229.671 102.329 229 101.5 229V229Z" fill="#4285F4"/>
<path d="M86 229H82.5C81.6713 229 81 229.671 81 230.5V241.25L86 237.5V229Z" fill="#34A853"/>
<path d="M86 244V237.5L81 241.25V243.25C81 245.104 83.1162 246.162 84.6 245.05L86 244Z" fill="#FBBC04"/>
<path fill-rule="evenodd" clip-rule="evenodd" d="M98 237.5V244L92 239.5L86 244V237.5L92 233L98 237.5Z" fill="#EA4335"/>
<path d="M103 243.25V241.25L98 237.5V244L99.4 245.05C100.884 246.162 103 245.104 103 243.25V243.25Z" fill="#C5221F"/>
<path d="M4.50004 265.504H8.00002V257.004L3 253.254V264.004C3 264.833 3.67126 265.504 4.50004 265.504V265.504Z" fill="#4285F4"/>
<path d="M20 265.504H23.5C24.3287 265.504 25 264.833 25 264.004V253.254L20 257.004V265.504Z" fill="#34A853"/>
<path d="M20 250.504V257.004L25 253.254V251.254C25 249.4 22.8838 248.342 21.4 249.454L20 250.504Z" fill="#FBBC04"/>
<path fill-rule="evenodd" clip-rule="evenodd" d="M8 257.004V250.504L14 255.004L20 250.504V257.004L14 261.504L8 257.004Z" fill="#EA4335"/>
<path d="M3 251.254V253.254L8.00002 257.004V250.504L6.60001 249.454C5.11621 248.342 3 249.4 3 251.254V251.254Z" fill="#C5221F"/>
<path d="M23.5 270H20V278.5L25 282.25V271.5C25 270.671 24.3287 270 23.5 270V270Z" fill="#4285F4"/>
<path d="M8 270H4.5C3.67126 270 3.00001 270.671 3.00001 271.5L3.00001 282.25L8 278.5L8 270Z" fill="#34A853"/>
<path d="M8 285L8 278.5L3.00001 282.25L3.00001 284.25C3.00001 286.104 5.11621 287.162 6.6 286.05L8 285Z" fill="#FBBC04"/>
<path fill-rule="evenodd" clip-rule="evenodd" d="M20 278.5V285L14 280.5L8.00003 285V278.5L14 274L20 278.5Z" fill="#EA4335"/>
<path d="M25 284.25V282.25L20 278.5V285L21.4 286.05C22.8838 287.162 25 286.104 25 284.25V284.25Z" fill="#C5221F"/>
<path d="M30.5 265.504H34V257.004L29 253.254V264.004C29 264.833 29.6713 265.504 30.5 265.504V265.504Z" fill="#4285F4"/>
<path d="M46 265.504H49.5C50.3287 265.504 51 264.833 51 264.004V253.254L46 257.004V265.504Z" fill="#34A853"/>
<path d="M46 250.504V257.004L51 253.254V251.254C51 249.4 48.8838 248.342 47.4 249.454L46 250.504Z" fill="#FBBC04"/>
<path fill-rule="evenodd" clip-rule="evenodd" d="M34 257.004V250.504L40 255.004L46 250.504V257.004L40 261.504L34 257.004Z" fill="#EA4335"/>
<path d="M29 251.254V253.254L34 257.004V250.504L32.6 249.454C31.1162 248.342 29 249.4 29 251.254V251.254Z" fill="#C5221F"/>
<path d="M49.5 270H46V278.5L51 282.25V271.5C51 270.671 50.3287 270 49.5 270V270Z" fill="#4285F4"/>
<path d="M34 270H30.5C29.6713 270 29 270.671 29 271.5V282.25L34 278.5V270Z" fill="#34A853"/>
<path d="M34 285V278.5L29 282.25V284.25C29 286.104 31.1162 287.162 32.6 286.05L34 285Z" fill="#FBBC04"/>
<path fill-rule="evenodd" clip-rule="evenodd" d="M46 278.5V285L40 280.5L34 285V278.5L40 274L46 278.5Z" fill="#EA4335"/>
<path d="M51 284.25V282.25L46 278.5V285L47.4 286.05C48.8838 287.162 51 286.104 51 284.25V284.25Z" fill="#C5221F"/>
<path d="M56.5 265.504H60V257.004L55 253.254V264.004C55 264.833 55.6713 265.504 56.5 265.504V265.504Z" fill="#4285F4"/>
<path d="M72 265.504H75.5C76.3287 265.504 77 264.833 77 264.004V253.254L72 257.004V265.504Z" fill="#34A853"/>
<path d="M72 250.504V257.004L77 253.254V251.254C77 249.4 74.8838 248.342 73.4 249.454L72 250.504Z" fill="#FBBC04"/>
<path fill-rule="evenodd" clip-rule="evenodd" d="M60 257.004V250.504L66 255.004L72 250.504V257.004L66 261.504L60 257.004Z" fill="#EA4335"/>
<path d="M55 251.254V253.254L60 257.004V250.504L58.6 249.454C57.1162 248.342 55 249.4 55 251.254V251.254Z" fill="#C5221F"/>
<path d="M75.5 270H72V278.5L77 282.25V271.5C77 270.671 76.3287 270 75.5 270V270Z" fill="#4285F4"/>
<path d="M60 270H56.5C55.6713 270 55 270.671 55 271.5V282.25L60 278.5V270Z" fill="#34A853"/>
<path d="M60 285V278.5L55 282.25V284.25C55 286.104 57.1162 287.162 58.6 286.05L60 285Z" fill="#FBBC04"/>
<path fill-rule="evenodd" clip-rule="evenodd" d="M72 278.5V285L66 280.5L60 285V278.5L66 274L72 278.5Z" fill="#EA4335"/>
<path d="M77 284.25V282.25L72 278.5V285L73.4 286.05C74.8838 287.162 77 286.104 77 284.25V284.25Z" fill="#C5221F"/>
<path d="M82.5 265.504H86V257.004L81 253.254V264.004C81 264.833 81.6713 265.504 82.5 265.504V265.504Z" fill="#4285F4"/>
<path d="M98 265.504H101.5C102.329 265.504 103 264.833 103 264.004V253.254L98 257.004V265.504Z" fill="#34A853"/>
<path d="M98 250.504V257.004L103 253.254V251.254C103 249.4 100.884 248.342 99.4 249.454L98 250.504Z" fill="#FBBC04"/>
<path fill-rule="evenodd" clip-rule="evenodd" d="M86 257.004V250.504L92 255.004L98 250.504V257.004L92 261.504L86 257.004Z" fill="#EA4335"/>
<path d="M81 251.254V253.254L86 257.004V250.504L84.6 249.454C83.1162 248.342 81 249.4 81 251.254V251.254Z" fill="#C5221F"/>
<path d="M101.5 270H98V278.5L103 282.25V271.5C103 270.671 102.329 270 101.5 270V270Z" fill="#4285F4"/>
<path d="M86 270H82.5C81.6713 270 81 270.671 81 271.5V282.25L86 278.5V270Z" fill="#34A853"/>
<path d="M86 285V278.5L81 282.25V284.25C81 286.104 83.1162 287.162 84.6 286.05L86 285Z" fill="#FBBC04"/>
<path fill-rule="evenodd" clip-rule="evenodd" d="M98 278.5V285L92 280.5L86 285V278.5L92 274L98 278.5Z" fill="#EA4335"/>
<path d="M103 284.25V282.25L98 278.5V285L99.4 286.05C100.884 287.162 103 286.104 103 284.25V284.25Z" fill="#C5221F"/>
<path d="M4.50004 306.504H8.00002V298.004L3 294.254V305.004C3 305.833 3.67126 306.504 4.50004 306.504V306.504Z" fill="#4285F4"/>
<path d="M20 306.504H23.5C24.3287 306.504 25 305.833 25 305.004V294.254L20 298.004V306.504Z" fill="#34A853"/>
<path d="M20 291.504V298.004L25 294.254V292.254C25 290.4 22.8838 289.342 21.4 290.454L20 291.504Z" fill="#FBBC04"/>
<path fill-rule="evenodd" clip-rule="evenodd" d="M8 298.004V291.504L14 296.004L20 291.504V298.004L14 302.504L8 298.004Z" fill="#EA4335"/>
<path d="M3 292.254V294.254L8.00002 298.004V291.504L6.60001 290.454C5.11621 289.342 3 290.4 3 292.254V292.254Z" fill="#C5221F"/>
<path d="M23.5 311H20V319.5L25 323.25V312.5C25 311.671 24.3287 311 23.5 311V311Z" fill="#4285F4"/>
<path d="M8 311H4.5C3.67126 311 3.00001 311.671 3.00001 312.5L3.00001 323.25L8 319.5L8 311Z" fill="#34A853"/>
<path d="M8 326L8 319.5L3.00001 323.25L3.00001 325.25C3.00001 327.104 5.11621 328.162 6.6 327.05L8 326Z" fill="#FBBC04"/>
<path fill-rule="evenodd" clip-rule="evenodd" d="M20 319.5V326L14 321.5L8.00003 326V319.5L14 315L20 319.5Z" fill="#EA4335"/>
<path d="M25 325.25V323.25L20 319.5V326L21.4 327.05C22.8838 328.162 25 327.104 25 325.25V325.25Z" fill="#C5221F"/>
<path d="M30.5 306.504H34V298.004L29 294.254V305.004C29 305.833 29.6713 306.504 30.5 306.504V306.504Z" fill="#4285F4"/>
<path d="M46 306.504H49.5C50.3287 306.504 51 305.833 51 305.004V294.254L46 298.004V306.504Z" fill="#34A853"/>
<path d="M46 291.504V298.004L51 294.254V292.254C51 290.4 48.8838 289.342 47.4 290.454L46 291.504Z" fill="#FBBC04"/>
<path fill-rule="evenodd" clip-rule="evenodd" d="M34 298.004V291.504L40 296.004L46 291.504V298.004L40 302.504L34 298.004Z" fill="#EA4335"/>
<path d="M29 292.254V294.254L34 298.004V291.504L32.6 290.454C31.1162 289.342 29 290.4 29 292.254V292.254Z" fill="#C5221F"/>
<path d="M49.5 311H46V319.5L51 323.25V312.5C51 311.671 50.3287 311 49.5 311V311Z" fill="#4285F4"/>
<path d="M34 311H30.5C29.6713 311 29 311.671 29 312.5V323.25L34 319.5V311Z" fill="#34A853"/>
<path d="M34 326V319.5L29 323.25V325.25C29 327.104 31.1162 328.162 32.6 327.05L34 326Z" fill="#FBBC04"/>
<path fill-rule="evenodd" clip-rule="evenodd" d="M46 319.5V326L40 321.5L34 326V319.5L40 315L46 319.5Z" fill="#EA4335"/>
<path d="M51 325.25V323.25L46 319.5V326L47.4 327.05C48.8838 328.162 51 327.104 51 325.25V325.25Z" fill="#C5221F"/>
<path d="M56.5 306.504H60V298.004L55 294.254V305.004C55 305.833 55.6713 306.504 56.5 306.504V306.504Z" fill="#4285F4"/>
<path d="M72 306.504H75.5C76.3287 306.504 77 305.833 77 305.004V294.254L72 298.004V306.504Z" fill="#34A853"/>
<path d="M72 291.504V298.004L77 294.254V292.254C77 290.4 74.8838 289.342 73.4 290.454L72 291.504Z" fill="#FBBC04"/>
<path fill-rule="evenodd" clip-rule="evenodd" d="M60 298.004V291.504L66 296.004L72 291.504V298.004L66 302.504L60 298.004Z" fill="#EA4335"/>
<path d="M55 292.254V294.254L60 298.004V291.504L58.6 290.454C57.1162 289.342 55 290.4 55 292.254V292.254Z" fill="#C5221F"/>
<path d="M75.5 311H72V319.5L77 323.25V312.5C77 311.671 76.3287 311 75.5 311V311Z" fill="#4285F4"/>
<path d="M60 311H56.5C55.6713 311 55 311.671 55 312.5V323.25L60 319.5V311Z" fill="#34A853"/>
<path d="M60 326V319.5L55 323.25V325.25C55 327.104 57.1162 328.162 58.6 327.05L60 326Z" fill="#FBBC04"/>
<path fill-rule="evenodd" clip-rule="evenodd" d="M72 319.5V326L66 321.5L60 326V319.5L66 315L72 319.5Z" fill="#EA4335"/>
<path d="M77 325.25V323.25L72 319.5V326L73.4 327.05C74.8838 328.162 77 327.104 77 325.25V325.25Z" fill="#C5221F"/>
<path d="M82.5 306.504H86V298.004L81 294.254V305.004C81 305.833 81.6713 306.504 82.5 306.504V306.504Z" fill="#4285F4"/>
<path d="M98 306.504H101.5C102.329 306.504 103 305.833 103 305.004V294.254L98 298.004V306.504Z" fill="#34A853"/>
<path d="M98 291.504V298.004L103 294.254V292.254C103 290.4 100.884 289.342 99.4 290.454L98 291.504Z" fill="#FBBC04"/>
<path fill-rule="evenodd" clip-rule="evenodd" d="M86 298.004V291.504L92 296.004L98 291.504V298.004L92 302.504L86 298.004Z" fill="#EA4335"/>
<path d="M81 292.254V294.254L86 298.004V291.504L84.6 290.454C83.1162 289.342 81 290.4 81 292.254V292.254Z" fill="#C5221F"/>
<path d="M101.5 311H98V319.5L103 323.25V312.5C103 311.671 102.329 311 101.5 311V311Z" fill="#4285F4"/>
<path d="M86 311H82.5C81.6713 311 81 311.671 81 312.5V323.25L86 319.5V311Z" fill="#34A853"/>
<path d="M86 326V319.5L81 323.25V325.25C81 327.104 83.1162 328.162 84.6 327.05L86 326Z" fill="#FBBC04"/>
<path fill-rule="evenodd" clip-rule="evenodd" d="M98 319.5V326L92 321.5L86 326V319.5L92 315L98 319.5Z" fill="#EA4335"/>
<path d="M103 325.25V323.25L98 319.5V326L99.4 327.05C100.884 328.162 103 327.104 103 325.25V325.25Z" fill="#C5221F"/>
</g>
</svg>
