<svg width="15" height="15" viewBox="0 0 15 15" fill="none" xmlns="http://www.w3.org/2000/svg">
<path d="M5 7.5H6.25C6.41576 7.5 6.57473 7.43415 6.69194 7.31694C6.80915 7.19973 6.875 7.04076 6.875 6.875C6.875 6.70924 6.80915 6.55027 6.69194 6.43306C6.57473 6.31585 6.41576 6.25 6.25 6.25H5C4.83424 6.25 4.67527 6.31585 4.55806 6.43306C4.44085 6.55027 4.375 6.70924 4.375 6.875C4.375 7.04076 4.44085 7.19973 4.55806 7.31694C4.67527 7.43415 4.83424 7.5 5 7.5ZM10.625 3.75H7.5V2.5H8.125C8.29076 2.5 8.44973 2.43415 8.56694 2.31694C8.68415 2.19973 8.75 2.04076 8.75 1.875C8.75 1.70924 8.68415 1.55027 8.56694 1.43306C8.44973 1.31585 8.29076 1.25 8.125 1.25H6.875C6.70924 1.25 6.55027 1.31585 6.43306 1.43306C6.31585 1.55027 6.25 1.70924 6.25 1.875V3.75H4.375C3.71196 3.75 3.07607 4.01339 2.60723 4.48223C2.13839 4.95107 1.875 5.58696 1.875 6.25V10C1.875 10.1658 1.94085 10.3247 2.05806 10.4419C2.17527 10.5592 2.33424 10.625 2.5 10.625H6.25V13.125C6.25 13.2908 6.31585 13.4497 6.43306 13.5669C6.55027 13.6842 6.70924 13.75 6.875 13.75C7.04076 13.75 7.19973 13.6842 7.31694 13.5669C7.43415 13.4497 7.5 13.2908 7.5 13.125V10.625H12.5C12.6658 10.625 12.8247 10.5592 12.9419 10.4419C13.0592 10.3247 13.125 10.1658 13.125 10V6.25C13.125 5.58696 12.8616 4.95107 12.3928 4.48223C11.9239 4.01339 11.288 3.75 10.625 3.75ZM8.125 6.25V9.375H3.125V6.25C3.125 5.91848 3.2567 5.60054 3.49112 5.36612C3.72554 5.1317 4.04348 5 4.375 5H8.475C8.24778 5.3775 8.12685 5.8094 8.125 6.25ZM11.875 9.375H9.375V6.25C9.375 5.91848 9.5067 5.60054 9.74112 5.36612C9.97554 5.1317 10.2935 5 10.625 5C10.9565 5 11.2745 5.1317 11.5089 5.36612C11.7433 5.60054 11.875 5.91848 11.875 6.25V9.375Z" fill="black"/>
</svg>
