<svg width="12" height="12" viewBox="0 0 12 12" fill="none" xmlns="http://www.w3.org/2000/svg">
<path d="M3.5 5C3.40111 5 3.30444 5.02932 3.22221 5.08427C3.13999 5.13921 3.0759 5.2173 3.03806 5.30866C3.00022 5.40002 2.99031 5.50055 3.00961 5.59755C3.0289 5.69454 3.07652 5.78363 3.14645 5.85355C3.21637 5.92348 3.30546 5.9711 3.40245 5.99039C3.49945 6.00969 3.59998 5.99978 3.69134 5.96194C3.7827 5.9241 3.86079 5.86001 3.91573 5.77779C3.97068 5.69556 4 5.59889 4 5.5C4 5.36739 3.94732 5.24021 3.85355 5.14645C3.75979 5.05268 3.63261 5 3.5 5ZM9.5 3H9V1.5C9 1.36739 8.94732 1.24021 8.85355 1.14645C8.75979 1.05268 8.63261 1 8.5 1H3.5C3.36739 1 3.24021 1.05268 3.14645 1.14645C3.05268 1.24021 3 1.36739 3 1.5V3H2.5C2.10218 3 1.72064 3.15804 1.43934 3.43934C1.15804 3.72064 1 4.10218 1 4.5V7.5C1 7.89782 1.15804 8.27936 1.43934 8.56066C1.72064 8.84196 2.10218 9 2.5 9H3V10.5C3 10.6326 3.05268 10.7598 3.14645 10.8536C3.24021 10.9473 3.36739 11 3.5 11H8.5C8.63261 11 8.75979 10.9473 8.85355 10.8536C8.94732 10.7598 9 10.6326 9 10.5V9H9.5C9.89782 9 10.2794 8.84196 10.5607 8.56066C10.842 8.27936 11 7.89782 11 7.5V4.5C11 4.10218 10.842 3.72064 10.5607 3.43934C10.2794 3.15804 9.89782 3 9.5 3ZM4 2H8V3H4V2ZM8 10H4V8H8V10ZM10 7.5C10 7.63261 9.94732 7.75979 9.85355 7.85355C9.75979 7.94732 9.63261 8 9.5 8H9V7.5C9 7.36739 8.94732 7.24021 8.85355 7.14645C8.75979 7.05268 8.63261 7 8.5 7H3.5C3.36739 7 3.24021 7.05268 3.14645 7.14645C3.05268 7.24021 3 7.36739 3 7.5V8H2.5C2.36739 8 2.24021 7.94732 2.14645 7.85355C2.05268 7.75979 2 7.63261 2 7.5V4.5C2 4.36739 2.05268 4.24021 2.14645 4.14645C2.24021 4.05268 2.36739 4 2.5 4H9.5C9.63261 4 9.75979 4.05268 9.85355 4.14645C9.94732 4.24021 10 4.36739 10 4.5V7.5Z" fill="black"/>
</svg>
