<svg width="8" height="8" viewBox="0 0 8 8" fill="none" xmlns="http://www.w3.org/2000/svg">
<path d="M7.33251 3.22338C7.31146 3.16241 7.27317 3.10886 7.22229 3.06922C7.1714 3.02957 7.11011 3.00555 7.04584 3.00005L5.14918 2.72338L4.29918 1.00005C4.27188 0.943691 4.22927 0.896162 4.17621 0.862906C4.12315 0.82965 4.0618 0.812012 3.99918 0.812012C3.93656 0.812012 3.87521 0.82965 3.82215 0.862906C3.76909 0.896162 3.72647 0.943691 3.69918 1.00005L2.84918 2.72005L0.952512 3.00005C0.890819 3.00882 0.83282 3.0347 0.785095 3.07477C0.737371 3.11483 0.701832 3.16747 0.682512 3.22671C0.664827 3.28461 0.66324 3.34622 0.677921 3.40495C0.692603 3.46367 0.722998 3.51729 0.765845 3.56005L2.14251 4.89338L1.80918 6.78671C1.79728 6.84921 1.80351 6.9138 1.82714 6.97287C1.85076 7.03193 1.8908 7.083 1.94251 7.12005C1.99292 7.15608 2.05237 7.17736 2.11419 7.18148C2.17602 7.1856 2.23777 7.17241 2.29251 7.14338L3.99918 6.25338L5.69918 7.14671C5.74596 7.17311 5.7988 7.18689 5.85251 7.18671C5.92312 7.18697 5.99199 7.16479 6.04918 7.12338C6.10089 7.08634 6.14093 7.03526 6.16455 6.9762C6.18818 6.91713 6.19441 6.85254 6.18251 6.79005L5.84918 4.89671L7.22584 3.56338C7.27397 3.52261 7.30954 3.46902 7.32842 3.40883C7.34731 3.34865 7.34872 3.28434 7.33251 3.22338ZM5.28251 4.55671C5.24342 4.59453 5.21417 4.64133 5.19732 4.69304C5.18047 4.74475 5.17653 4.7998 5.18585 4.85338L5.42585 6.25005L4.17251 5.58338C4.12428 5.5577 4.07048 5.54427 4.01585 5.54427C3.96121 5.54427 3.90741 5.5577 3.85918 5.58338L2.60585 6.25005L2.84585 4.85338C2.85516 4.7998 2.85122 4.74475 2.83437 4.69304C2.81752 4.64133 2.78827 4.59453 2.74918 4.55671L1.74918 3.55671L3.15251 3.35338C3.20651 3.34587 3.25784 3.32523 3.30201 3.29327C3.34618 3.2613 3.38183 3.21899 3.40585 3.17005L3.99918 1.90005L4.62585 3.17338C4.64986 3.22233 4.68551 3.26464 4.72968 3.2966C4.77385 3.32856 4.82518 3.3492 4.87918 3.35671L6.28251 3.56005L5.28251 4.55671Z" fill="#9B9B9B"/>
</svg>
