<svg width="6" height="6" viewBox="0 0 6 6" fill="none" xmlns="http://www.w3.org/2000/svg">
<path d="M3 1.75C3.09889 1.75 3.19556 1.72068 3.27779 1.66574C3.36001 1.61079 3.4241 1.53271 3.46194 1.44134C3.49978 1.34998 3.50969 1.24945 3.49039 1.15246C3.4711 1.05546 3.42348 0.966373 3.35355 0.896447C3.28363 0.826521 3.19454 0.7789 3.09755 0.759608C3.00056 0.740315 2.90002 0.750217 2.80866 0.78806C2.7173 0.825904 2.63921 0.889991 2.58427 0.972215C2.52932 1.05444 2.5 1.15111 2.5 1.25C2.5 1.38261 2.55268 1.50979 2.64645 1.60355C2.74022 1.69732 2.86739 1.75 3 1.75ZM3 4.25C2.90111 4.25 2.80444 4.27932 2.72222 4.33427C2.63999 4.38921 2.5759 4.4673 2.53806 4.55866C2.50022 4.65002 2.49031 4.75055 2.50961 4.84755C2.5289 4.94454 2.57652 5.03363 2.64645 5.10355C2.71637 5.17348 2.80546 5.2211 2.90246 5.24039C2.99945 5.25969 3.09998 5.24978 3.19134 5.21194C3.28271 5.1741 3.36079 5.11001 3.41574 5.02779C3.47068 4.94556 3.5 4.84889 3.5 4.75C3.5 4.61739 3.44732 4.49022 3.35355 4.39645C3.25979 4.30268 3.13261 4.25 3 4.25ZM3 2.5C2.90111 2.5 2.80444 2.52932 2.72222 2.58427C2.63999 2.63921 2.5759 2.7173 2.53806 2.80866C2.50022 2.90002 2.49031 3.00055 2.50961 3.09755C2.5289 3.19454 2.57652 3.28363 2.64645 3.35355C2.71637 3.42348 2.80546 3.4711 2.90246 3.49039C2.99945 3.50969 3.09998 3.49978 3.19134 3.46194C3.28271 3.4241 3.36079 3.36001 3.41574 3.27779C3.47068 3.19556 3.5 3.09889 3.5 3C3.5 2.86739 3.44732 2.74022 3.35355 2.64645C3.25979 2.55268 3.13261 2.5 3 2.5Z" fill="#9B9B9B"/>
</svg>
