<svg width="11" height="7" viewBox="0 0 11 7" fill="none" xmlns="http://www.w3.org/2000/svg">
<path d="M4.5358 1.04921L0.295798 5.28921C0.20207 5.38217 0.127675 5.49277 0.0769067 5.61463C0.026138 5.73649 0 5.8672 0 5.99921C0 6.13122 0.026138 6.26192 0.0769067 6.38378C0.127675 6.50564 0.20207 6.61625 0.295798 6.70921C0.483161 6.89546 0.736612 7 1.0008 7C1.26498 7 1.51844 6.89546 1.7058 6.70921L5.2458 3.16921L8.7858 6.70921C8.97316 6.89546 9.22661 7 9.4908 7C9.75498 7 10.0084 6.89546 10.1958 6.70921C10.2885 6.61577 10.3618 6.50495 10.4116 6.38311C10.4613 6.26128 10.4866 6.13081 10.4858 5.99921C10.4866 5.8676 10.4613 5.73714 10.4116 5.6153C10.3618 5.49346 10.2885 5.38265 10.1958 5.28921L5.9558 1.04921C5.86284 0.95548 5.75223 0.88109 5.63037 0.83032C5.50852 0.77955 5.37781 0.75341 5.2458 0.75341C5.11379 0.75341 4.98308 0.77955 4.86122 0.83032C4.73936 0.88109 4.62876 0.95548 4.5358 1.04921Z" fill="white"/>
</svg>
