<svg width="87" height="30" viewBox="0 0 87 30" fill="none" xmlns="http://www.w3.org/2000/svg">
<path d="M86.659 13.2415H0.344828C0.153257 13.2415 0 13.8353 0 14.571C0 15.3066 0.153257 15.9005 0.344828 15.9005H86.6552C86.8467 15.9005 87 15.3066 87 14.571C87 13.8392 86.8467 13.2415 86.659 13.2415Z" fill="white"/>
<path d="M4.27416 12.7051H5.78757V16.5173H4.27416C3.96381 16.5173 3.71094 15.6629 3.71094 14.6093C3.71094 13.5557 3.96381 12.7051 4.27416 12.7051Z" fill="white"/>
<path d="M5.96839 29.2184C5.29789 29.2184 4.75 22.6782 4.75 14.6092C4.75 6.54023 5.29406 0 5.96839 0H9.24808V29.2184H5.96839Z" fill="white"/>
<path opacity="0.3" d="M8.98497 28.9541V0.264404H6.03478C5.94283 0.402335 5.61716 1.12264 5.3413 4.69352C5.13057 7.39467 5.01562 10.9196 5.01562 14.6092C5.01562 18.3027 5.13057 21.8238 5.3413 24.5249C5.61716 28.0958 5.94283 28.8161 6.03478 28.9541H8.98497Z" fill="white"/>
<path d="M9.24964 29.2184C9.92254 29.2184 10.468 22.6776 10.468 14.6092C10.468 6.54076 9.92254 0 9.24964 0C8.57674 0 8.03125 6.54076 8.03125 14.6092C8.03125 22.6776 8.57674 29.2184 9.24964 29.2184Z" fill="white"/>
<path d="M9.81605 29.2184C9.14555 29.2184 8.59766 22.6782 8.59766 14.6092C8.59766 6.54023 9.14172 0 9.81605 0H13.0957V29.2184H9.81605Z" fill="white"/>
<path opacity="0.3" d="M12.8326 28.9541V0.264404H9.88244C9.79048 0.402335 9.46481 1.12264 9.18895 4.69352C8.97822 7.39467 8.86328 10.9196 8.86328 14.6092C8.86328 18.3027 8.97822 21.8238 9.18895 24.5249C9.46481 28.0958 9.79048 28.8161 9.88244 28.9541H12.8326Z" fill="white"/>
<path d="M13.0934 29.2184C13.7663 29.2184 14.3118 22.6776 14.3118 14.6092C14.3118 6.54076 13.7663 0 13.0934 0C12.4205 0 11.875 6.54076 11.875 14.6092C11.875 22.6776 12.4205 29.2184 13.0934 29.2184Z" fill="white"/>
<path d="M13.6637 29.2184C12.9932 29.2184 12.4453 22.6782 12.4453 14.6092C12.4453 6.54023 12.9894 0 13.6637 0H16.9434V29.2184H13.6637Z" fill="white"/>
<path opacity="0.3" d="M16.6803 28.9541V0.264404H13.7301C13.6381 0.402335 13.3125 1.12264 13.0366 4.69352C12.8259 7.39467 12.7109 10.9196 12.7109 14.6092C12.7109 18.3027 12.8259 21.8238 13.0366 24.5249C13.3125 28.0958 13.6381 28.8161 13.7301 28.9541H16.6803Z" fill="white"/>
<path d="M16.941 29.2184C17.6139 29.2184 18.1594 22.6776 18.1594 14.6092C18.1594 6.54076 17.6139 0 16.941 0C16.2682 0 15.7227 6.54076 15.7227 14.6092C15.7227 22.6776 16.2682 29.2184 16.941 29.2184Z" fill="white"/>
<path d="M82.7283 12.7051H81.2148V16.5173H82.7283C83.0386 16.5173 83.2915 15.6629 83.2915 14.6093C83.2915 13.5557 83.0386 12.7051 82.7283 12.7051Z" fill="white"/>
<path d="M81.0336 29.2184C81.7041 29.2184 82.252 22.6782 82.252 14.6092C82.252 6.54023 81.7079 0 81.0336 0H77.7539V29.2184H81.0336Z" fill="white"/>
<path opacity="0.3" d="M78.0195 28.9541V0.264404H80.9697C81.0617 0.402335 81.3873 1.12264 81.6632 4.69352C81.8739 7.39467 81.9889 10.9196 81.9889 14.6092C81.9889 18.3027 81.8739 21.8238 81.6632 24.5249C81.3873 28.0958 81.0617 28.8161 80.9697 28.9541H78.0195Z" fill="white"/>
<path d="M77.7535 29.2184C78.4264 29.2184 78.9719 22.6776 78.9719 14.6092C78.9719 6.54076 78.4264 0 77.7535 0C77.0807 0 76.5352 6.54076 76.5352 14.6092C76.5352 22.6776 77.0807 29.2184 77.7535 29.2184Z" fill="white"/>
<path d="M77.1898 29.2184C77.8603 29.2184 78.4082 22.6782 78.4082 14.6092C78.4082 6.54023 77.8642 0 77.1898 0H73.9102V29.2184H77.1898Z" fill="white"/>
<path opacity="0.3" d="M74.1719 28.9541V0.264404H77.1221C77.214 0.402335 77.5397 1.12264 77.8156 4.69352C78.0263 7.39467 78.1412 10.9196 78.1412 14.6092C78.1412 18.3027 78.0263 21.8238 77.8156 24.5249C77.5397 28.0958 77.214 28.8161 77.1221 28.9541H74.1719Z" fill="white"/>
<path d="M73.9098 29.2184C74.5827 29.2184 75.1282 22.6776 75.1282 14.6092C75.1282 6.54076 74.5827 0 73.9098 0C73.2369 0 72.6914 6.54076 72.6914 14.6092C72.6914 22.6776 73.2369 29.2184 73.9098 29.2184Z" fill="white"/>
<path d="M18.9788 13.2413L16.9596 12.5938C16.9519 12.59 16.9481 12.5862 16.9404 12.5862C16.8025 12.5862 16.6914 13.4904 16.6914 14.6053C16.6914 15.7203 16.8025 16.6245 16.9404 16.6245C16.9481 16.6245 16.9558 16.6207 16.9634 16.6168L18.9826 15.8965V13.2413H18.9788Z" fill="white"/>
<path d="M73.3344 29.2184C74.0049 29.2184 74.5528 22.6782 74.5528 14.6092C74.5528 6.54023 74.0087 0 73.3344 0H70.0547V29.2184H73.3344Z" fill="white"/>
<path opacity="0.3" d="M70.3203 28.9541V0.264404H73.2705C73.3625 0.402335 73.6881 1.12264 73.964 4.69352C74.1747 7.39467 74.2897 10.9196 74.2897 14.6092C74.2897 18.3027 74.1747 21.8238 73.964 24.5249C73.6881 28.0958 73.3625 28.8161 73.2705 28.9541H70.3203Z" fill="white"/>
<path d="M70.0543 29.2184C70.7272 29.2184 71.2727 22.6776 71.2727 14.6092C71.2727 6.54076 70.7272 0 70.0543 0C69.3814 0 68.8359 6.54076 68.8359 14.6092C68.8359 22.6776 69.3814 29.2184 70.0543 29.2184Z" fill="white"/>
<path d="M68.0195 13.2413L70.0386 12.5938C70.0463 12.59 70.0501 12.5862 70.0578 12.5862C70.1957 12.5862 70.3068 13.4904 70.3068 14.6053C70.3068 15.7203 70.1957 16.6245 70.0578 16.6245C70.0501 16.6245 70.0424 16.6207 70.0348 16.6168L68.0156 15.8965V13.2413H68.0195Z" fill="white"/>
</svg>
