<svg width="53" height="27" viewBox="0 0 53 27" fill="none" xmlns="http://www.w3.org/2000/svg">
<path d="M52.7115 11.5798H0.28853C0.127621 11.5798 0 12.4121 0 13.4331C0 14.454 0.127621 15.2863 0.28853 15.2863H52.7115C52.8724 15.2863 53 14.454 53 13.4331C53 12.4121 52.8668 11.5798 52.7115 11.5798Z" fill="white"/>
<path d="M1.82422 13.4329C1.82422 14.9033 2.05726 16.0962 2.34024 16.0962H3.73293V10.7751H2.34024C2.05726 10.7751 1.82422 11.9625 1.82422 13.4329Z" fill="white"/>
<path d="M50.6466 10.7751H49.2539V16.0962H50.6466C50.9296 16.0962 51.1626 14.9033 51.1626 13.4329C51.1682 11.9625 50.9351 10.7751 50.6466 10.7751Z" fill="white"/>
<path d="M3.89816 22.2055C3.28226 22.2055 2.77734 18.2771 2.77734 13.4332C2.77734 8.58928 3.27671 4.66089 3.89816 4.66089H6.91104V22.2055H3.89816V22.2055Z" fill="white"/>
<path d="M6.92941 24.3805C6.31351 24.3805 5.80859 19.4811 5.80859 13.4332C5.80859 7.38523 6.30796 2.48584 6.92941 2.48584H9.94229V24.3805H6.92941Z" fill="white"/>
<path d="M9.80831 26.8662C9.19242 26.8662 8.6875 20.8515 8.6875 13.4331C8.6875 6.01466 9.18687 0 9.80831 0H12.8212V26.8607H9.80831V26.8662Z" fill="white"/>
<path d="M12.824 26.8662C13.443 26.8662 13.9448 20.852 13.9448 13.4331C13.9448 6.0142 13.443 0 12.824 0C12.2049 0 11.7031 6.0142 11.7031 13.4331C11.7031 20.852 12.2049 26.8662 12.824 26.8662Z" fill="white"/>
<path d="M14.6967 11.5245L12.8379 10.6256C12.8323 10.6201 12.8268 10.6145 12.8212 10.6145C12.6936 10.6145 12.5938 11.874 12.5938 13.4332C12.5938 14.9868 12.6936 16.2519 12.8212 16.2519C12.8268 16.2519 12.8323 16.2463 12.8434 16.2408L14.6967 15.2365V11.5245V11.5245Z" fill="white"/>
<path d="M49.0949 22.2055C49.7108 22.2055 50.2157 18.2771 50.2157 13.4332C50.2157 8.58928 49.7164 4.66089 49.0949 4.66089H46.082V22.2055H49.0949V22.2055Z" fill="white"/>
<path d="M46.0597 24.3805C46.6756 24.3805 47.1806 19.4811 47.1806 13.4332C47.1806 7.38523 46.6812 2.48584 46.0597 2.48584H43.0469V24.3805H46.0597Z" fill="white"/>
<path d="M43.1808 26.8662C43.7967 26.8662 44.3017 20.8515 44.3017 13.4331C44.3017 6.01466 43.8023 0 43.1808 0H40.168V26.8607H43.1808V26.8662Z" fill="white"/>
<path d="M40.1677 26.8662C40.7867 26.8662 41.2885 20.852 41.2885 13.4331C41.2885 6.0142 40.7867 0 40.1677 0C39.5487 0 39.0469 6.0142 39.0469 13.4331C39.0469 20.852 39.5487 26.8662 40.1677 26.8662Z" fill="white"/>
<path d="M38.2891 11.5245L40.1478 10.6256C40.1534 10.6201 40.1589 10.6145 40.1645 10.6145C40.2921 10.6145 40.392 11.874 40.392 13.4332C40.392 14.9868 40.2921 16.2519 40.1645 16.2519C40.1589 16.2519 40.1534 16.2463 40.1423 16.2408L38.2891 15.2365V11.5245Z" fill="white"/>
</svg>
