<svg width="68" height="68" viewBox="0 0 68 68" fill="none" xmlns="http://www.w3.org/2000/svg">
<path d="M51.7725 11.6775C50.9715 11.6775 50.1885 11.915 49.5224 12.3601C48.8564 12.8051 48.3373 13.4376 48.0308 14.1776C47.7243 14.9177 47.6441 15.732 47.8003 16.5176C47.9566 17.3032 48.3423 18.0249 48.9087 18.5913C49.4751 19.1577 50.1968 19.5434 50.9824 19.6997C51.768 19.856 52.5823 19.7757 53.3224 19.4692C54.0624 19.1627 54.6949 18.6436 55.14 17.9776C55.585 17.3115 55.8225 16.5285 55.8225 15.7275C55.8225 14.6534 55.3958 13.6232 54.6363 12.8637C53.8768 12.1042 52.8466 11.6775 51.7725 11.6775V11.6775ZM67.2975 19.845C67.2319 17.0448 66.7074 14.2742 65.745 11.6438C64.8869 9.39307 63.5512 7.35507 61.83 5.67C60.1588 3.94006 58.116 2.61285 55.8563 1.78875C53.2327 0.797043 50.4591 0.260584 47.655 0.2025C44.0775 -1.88593e-07 42.93 0 33.75 0C24.57 0 23.4225 -1.88593e-07 19.845 0.2025C17.0409 0.260584 14.2673 0.797043 11.6438 1.78875C9.38816 2.62119 7.34715 3.94727 5.67 5.67C3.94006 7.34123 2.61285 9.38398 1.78875 11.6438C0.797043 14.2673 0.260584 17.0409 0.2025 19.845C-1.88593e-07 23.4225 0 24.57 0 33.75C0 42.93 -1.88593e-07 44.0775 0.2025 47.655C0.260584 50.4591 0.797043 53.2327 1.78875 55.8563C2.61285 58.116 3.94006 60.1588 5.67 61.83C7.34715 63.5527 9.38816 64.8788 11.6438 65.7113C14.2673 66.703 17.0409 67.2394 19.845 67.2975C23.4225 67.5 24.57 67.5 33.75 67.5C42.93 67.5 44.0775 67.5 47.655 67.2975C50.4591 67.2394 53.2327 66.703 55.8563 65.7113C58.116 64.8872 60.1588 63.5599 61.83 61.83C63.5588 60.1512 64.8956 58.1114 65.745 55.8563C66.7074 53.2258 67.2319 50.4553 67.2975 47.655C67.2975 44.0775 67.5 42.93 67.5 33.75C67.5 24.57 67.5 23.4225 67.2975 19.845V19.845ZM61.2225 47.25C61.1979 49.3924 60.8099 51.515 60.075 53.5275C59.5361 54.9963 58.6706 56.3234 57.5438 57.4088C56.4491 58.5242 55.1246 59.388 53.6625 59.94C51.65 60.6749 49.5274 61.0629 47.385 61.0875C44.01 61.2563 42.7613 61.29 33.885 61.29C25.0088 61.29 23.76 61.29 20.385 61.0875C18.1605 61.1292 15.9455 60.7866 13.8375 60.075C12.4395 59.4948 11.1758 58.6332 10.125 57.5438C9.0048 56.4595 8.1501 55.1313 7.6275 53.6625C6.80352 51.6211 6.3465 49.4503 6.2775 47.25C6.2775 43.875 6.075 42.6263 6.075 33.75C6.075 24.8738 6.075 23.625 6.2775 20.25C6.29263 18.0598 6.69246 15.8893 7.45875 13.8375C8.05291 12.413 8.9649 11.1431 10.125 10.125C11.1504 8.96457 12.4176 8.04295 13.8375 7.425C15.8947 6.68265 18.063 6.29464 20.25 6.2775C23.625 6.2775 24.8738 6.075 33.75 6.075C42.6263 6.075 43.875 6.075 47.25 6.2775C49.3924 6.30207 51.515 6.69008 53.5275 7.425C55.0612 7.9942 56.4377 8.91961 57.5438 10.125C58.6497 11.1617 59.514 12.4292 60.075 13.8375C60.8251 15.8927 61.2134 18.0623 61.2225 20.25C61.3913 23.625 61.425 24.8738 61.425 33.75C61.425 42.6263 61.3913 43.875 61.2225 47.25ZM33.75 16.4363C30.3271 16.4429 26.983 17.464 24.1402 19.3705C21.2974 21.277 19.0835 23.9834 17.7783 27.1477C16.473 30.3119 16.1349 33.7921 16.8068 37.1484C17.4787 40.5047 19.1303 43.5866 21.553 46.0046C23.9757 48.4226 27.0608 50.0682 30.4184 50.7335C33.776 51.3988 37.2555 51.054 40.4172 49.7426C43.5789 48.4311 46.281 46.212 48.1819 43.3655C50.0829 40.519 51.0975 37.1729 51.0975 33.75C51.102 31.4722 50.6561 29.2161 49.7854 27.1112C48.9148 25.0064 47.6366 23.0945 46.0244 21.4854C44.4122 19.8764 42.4978 18.6019 40.3913 17.7354C38.2848 16.8689 36.0278 16.4273 33.75 16.4363V16.4363ZM33.75 44.9888C31.5272 44.9888 29.3543 44.3296 27.5061 43.0947C25.6579 41.8598 24.2174 40.1045 23.3668 38.0509C22.5161 35.9973 22.2936 33.7375 22.7272 31.5574C23.1609 29.3773 24.2312 27.3748 25.803 25.803C27.3748 24.2312 29.3773 23.1609 31.5574 22.7272C33.7375 22.2936 35.9973 22.5161 38.0509 23.3668C40.1045 24.2174 41.8598 25.6579 43.0947 27.5061C44.3296 29.3543 44.9888 31.5272 44.9888 33.75C44.9888 35.2259 44.6981 36.6873 44.1333 38.0509C43.5685 39.4144 42.7406 40.6534 41.697 41.697C40.6534 42.7406 39.4144 43.5685 38.0509 44.1333C36.6873 44.6981 35.2259 44.9888 33.75 44.9888V44.9888Z" fill="white"/>
</svg>
