<svg width="28" height="28" viewBox="0 0 28 28" fill="none" xmlns="http://www.w3.org/2000/svg">
<path d="M21.1213 5.27984C20.8049 5.27984 20.4955 5.37368 20.2324 5.54949C19.9693 5.7253 19.7642 5.97518 19.6431 6.26754C19.522 6.55991 19.4903 6.88161 19.552 7.19198C19.6138 7.50235 19.7662 7.78744 19.9899 8.01121C20.2137 8.23497 20.4988 8.38736 20.8092 8.44909C21.1195 8.51083 21.4412 8.47914 21.7336 8.35804C22.026 8.23694 22.2758 8.03187 22.4517 7.76875C22.6275 7.50563 22.7213 7.19629 22.7213 6.87984C22.7213 6.45549 22.5527 6.04852 22.2527 5.74847C21.9526 5.44841 21.5457 5.27984 21.1213 5.27984V5.27984ZM27.2546 8.5065C27.2287 7.40024 27.0215 6.30571 26.6413 5.2665C26.3023 4.37735 25.7746 3.57221 25.0946 2.9065C24.4344 2.22307 23.6274 1.69874 22.7346 1.37317C21.6982 0.981385 20.6024 0.769451 19.4946 0.746504C18.0813 0.666504 17.628 0.666504 14.0013 0.666504C10.3746 0.666504 9.9213 0.666504 8.50797 0.746504C7.40017 0.769451 6.30443 0.981385 5.26797 1.37317C4.37687 1.70204 3.57055 2.22592 2.90797 2.9065C2.22454 3.56674 1.7002 4.37376 1.37464 5.2665C0.98285 6.30296 0.770915 7.39871 0.747969 8.5065C0.667969 9.91984 0.667969 10.3732 0.667969 13.9998C0.667969 17.6265 0.667969 18.0798 0.747969 19.4932C0.770915 20.601 0.98285 21.6967 1.37464 22.7332C1.7002 23.6259 2.22454 24.4329 2.90797 25.0932C3.57055 25.7738 4.37687 26.2976 5.26797 26.6265C6.30443 27.0183 7.40017 27.2302 8.50797 27.2532C9.9213 27.3332 10.3746 27.3332 14.0013 27.3332C17.628 27.3332 18.0813 27.3332 19.4946 27.2532C20.6024 27.2302 21.6982 27.0183 22.7346 26.6265C23.6274 26.3009 24.4344 25.7766 25.0946 25.0932C25.7776 24.4299 26.3058 23.6241 26.6413 22.7332C27.0215 21.694 27.2287 20.5994 27.2546 19.4932C27.2546 18.0798 27.3346 17.6265 27.3346 13.9998C27.3346 10.3732 27.3346 9.91984 27.2546 8.5065V8.5065ZM24.8546 19.3332C24.8449 20.1795 24.6916 21.0181 24.4013 21.8132C24.1884 22.3934 23.8465 22.9177 23.4013 23.3465C22.9688 23.7872 22.4456 24.1284 21.868 24.3465C21.0729 24.6368 20.2343 24.7901 19.388 24.7998C18.0546 24.8665 17.5613 24.8798 14.0546 24.8798C10.548 24.8798 10.0546 24.8798 8.7213 24.7998C7.84249 24.8163 6.96743 24.681 6.13464 24.3998C5.58234 24.1706 5.08311 23.8302 4.66797 23.3998C4.22542 22.9715 3.88776 22.4468 3.6813 21.8665C3.35578 21.06 3.17523 20.2024 3.14797 19.3332C3.14797 17.9998 3.06797 17.5065 3.06797 13.9998C3.06797 10.4932 3.06797 9.99984 3.14797 8.6665C3.15395 7.80124 3.3119 6.94376 3.61464 6.13317C3.84937 5.57039 4.20966 5.06872 4.66797 4.6665C5.07305 4.20806 5.57369 3.84397 6.13464 3.59984C6.94737 3.30656 7.80397 3.15328 8.66797 3.1465C10.0013 3.1465 10.4946 3.0665 14.0013 3.0665C17.508 3.0665 18.0013 3.0665 19.3346 3.1465C20.181 3.15621 21.0196 3.3095 21.8146 3.59984C22.4205 3.82471 22.9644 4.1903 23.4013 4.6665C23.8382 5.07608 24.1797 5.57681 24.4013 6.13317C24.6976 6.94508 24.851 7.80221 24.8546 8.6665C24.9213 9.99984 24.9346 10.4932 24.9346 13.9998C24.9346 17.5065 24.9213 17.9998 24.8546 19.3332ZM14.0013 7.15984C12.6491 7.16247 11.3279 7.56587 10.2048 8.31906C9.08177 9.07225 8.20714 10.1414 7.69148 11.3915C7.17582 12.6416 7.04227 14.0165 7.30769 15.3424C7.57312 16.6684 8.22562 17.8859 9.18274 18.8411C10.1399 19.7964 11.3587 20.4465 12.6851 20.7094C14.0116 20.9722 15.3862 20.836 16.6353 20.3179C17.8843 19.7998 18.9518 18.9231 19.7028 17.7985C20.4538 16.674 20.8546 15.3521 20.8546 13.9998C20.8564 13.1 20.6802 12.2086 20.3363 11.3771C19.9923 10.5456 19.4874 9.79025 18.8505 9.15457C18.2135 8.51889 17.4572 8.01541 16.625 7.67308C15.7928 7.33074 14.9012 7.15632 14.0013 7.15984V7.15984ZM14.0013 18.4398C13.1232 18.4398 12.2647 18.1794 11.5346 17.6916C10.8044 17.2037 10.2353 16.5103 9.89928 15.699C9.56322 14.8876 9.4753 13.9949 9.64662 13.1336C9.81793 12.2724 10.2408 11.4812 10.8617 10.8603C11.4827 10.2393 12.2738 9.81647 13.1351 9.64515C13.9964 9.47383 14.8891 9.56176 15.7004 9.89781C16.5117 10.2339 17.2052 10.803 17.693 11.5331C18.1809 12.2633 18.4413 13.1217 18.4413 13.9998C18.4413 14.5829 18.3265 15.1603 18.1033 15.699C17.8802 16.2376 17.5532 16.7271 17.1409 17.1394C16.7286 17.5517 16.2391 17.8787 15.7004 18.1019C15.1617 18.325 14.5844 18.4398 14.0013 18.4398V18.4398Z" fill="black"/>
</svg>
