<svg width="37" height="53" viewBox="0 0 37 53" fill="none" xmlns="http://www.w3.org/2000/svg">
<path d="M33.8014 7.66662C29.7059 -0.56641 18.4854 0.00863932 18.4854 0.00863932C18.4854 0.00863932 7.26495 -0.56641 3.16947 7.66662C-0.926009 15.8997 4.97877 21.4818 2.81883 29.1959L10.6591 19.6305C10.6591 19.6305 7.05456 19.2518 6.50756 15.016C5.94654 10.7803 8.20466 4.62306 18.4995 4.62306C28.7943 4.62306 31.0384 10.7803 30.4914 15.016C29.9303 19.2518 26.3398 19.6305 26.3398 19.6305L34.1801 29.1959C32.0061 21.4818 37.8969 15.8997 33.8014 7.66662Z" fill="white"/>
<path d="M18.4878 4.62299C25.697 4.62299 28.9509 7.6385 30.073 10.9065C29.1894 5.21207 23.5932 3.43082 16.398 3.59912C9.20289 3.75341 4.95312 8.14342 4.95312 14.6092C4.95312 18.7608 7.44968 20.5982 9.23094 21.3836L10.6615 19.6444C10.6615 19.6444 7.05697 19.2657 6.50997 15.03C5.94895 10.7802 8.20707 4.62299 18.4878 4.62299Z" fill="white"/>
<path d="M33.8038 7.66676C31.8122 3.65544 28.1094 1.73393 24.8555 0.822266C33.4812 4.46892 35.2344 12.6599 32.7519 18.4805C30.2694 24.3011 31.7981 25.5073 31.7981 25.5073L32.0927 26.6995L34.1404 29.1961C32.0085 21.482 37.8993 15.8998 33.8038 7.66676Z" fill="white"/>
<path d="M37 36.349C37 26.0823 28.6407 17.7651 18.36 17.8493C8.1914 17.9194 -0.0696848 26.2927 0.000443207 36.4612C0.0284944 42.338 2.80557 47.5555 7.09741 50.9217C8.82256 52.2681 10.9404 52.9974 13.1284 52.9974H23.872C26.06 52.9974 28.1779 52.2821 29.889 50.9357C34.2089 47.5415 37 42.2679 37 36.349Z" fill="white"/>
<path d="M18.5163 17.8625C24.8302 18.2125 31.8951 22.8468 33.6891 29.4831C35.3858 35.7274 34.607 47.53 21.562 49.7981C8.61434 52.0522 2.64813 45.3039 2.55078 45.1919C3.7468 47.404 5.38786 49.3361 7.34878 50.8762C9.05937 52.2202 11.1594 52.9483 13.3289 52.9483H23.9819C26.1514 52.9483 28.2514 52.2342 29.9481 50.8902C34.2454 47.516 36.999 42.2517 36.999 36.3294C37.0129 26.0949 28.7103 17.7925 18.5163 17.8625Z" fill="white"/>
<path d="M18.4844 44.3155C23.4032 44.3155 27.3906 40.328 27.3906 35.4092C27.3906 30.4904 23.4032 26.5029 18.4844 26.5029C13.5656 26.5029 9.57812 30.4904 9.57812 35.4092C9.57812 40.328 13.5656 44.3155 18.4844 44.3155Z" fill="white"/>
</svg>
