<svg width="174" height="76" viewBox="0 0 174 76" fill="none" xmlns="http://www.w3.org/2000/svg">
<g filter="url(#filter0_d)">
<path d="M53.8906 52.5977C51.9922 54.707 49.2148 56.4062 45.5586 57.6953C41.9023 58.9844 37.8945 59.6289 33.5352 59.6289C26.832 59.6289 21.4766 57.5781 17.4688 53.4766C13.4609 49.375 11.3164 43.668 11.0352 36.3555L11 31.9258C11 26.8867 11.8906 22.4922 13.6719 18.7422C15.4531 14.9688 17.9961 12.0742 21.3008 10.0586C24.6289 8.01953 28.4727 7 32.832 7C39.207 7 44.1523 8.46484 47.668 11.3945C51.207 14.3008 53.2695 18.6484 53.8555 24.4375H41.9727C41.5508 21.5781 40.6367 19.5391 39.2305 18.3203C37.8242 17.1016 35.832 16.4922 33.2539 16.4922C30.1602 16.4922 27.7695 17.8047 26.082 20.4297C24.3945 23.0547 23.5391 26.8047 23.5156 31.6797V34.7734C23.5156 39.8828 24.3828 43.7266 26.1172 46.3047C27.875 48.8594 30.6289 50.1367 34.3789 50.1367C37.5898 50.1367 39.9805 49.4219 41.5508 47.9922V40.0469H32.9727V31.5742H53.8906V52.5977Z" fill="white"/>
</g>
<g filter="url(#filter1_d)">
<path d="M123.207 9L134.633 44.6133L146.023 9H162.266V60.1875H149.891V48.2344L151.086 23.7656L138.711 60.1875H130.555L118.145 23.7305L119.34 48.2344V60.1875H107V9H123.207Z" fill="white"/>
</g>
<g filter="url(#filter2_d)">
<path d="M80.7109 31.2188L90.1328 9H103.457L86.9688 41.8008V60.1875H74.4531V41.8008L58 9H71.2539L80.7109 31.2188Z" fill="url(#paint0_linear)"/>
</g>
<defs>
<filter id="filter0_d" x="0" y="0" width="64.8906" height="74.6289" filterUnits="userSpaceOnUse" color-interpolation-filters="sRGB">
<feFlood flood-opacity="0" result="BackgroundImageFix"/>
<feColorMatrix in="SourceAlpha" type="matrix" values="0 0 0 0 0 0 0 0 0 0 0 0 0 0 0 0 0 0 127 0"/>
<feOffset dy="4"/>
<feGaussianBlur stdDeviation="5.5"/>
<feColorMatrix type="matrix" values="0 0 0 0 0 0 0 0 0 0 0 0 0 0 0 0 0 0 0.68 0"/>
<feBlend mode="normal" in2="BackgroundImageFix" result="effect1_dropShadow"/>
<feBlend mode="normal" in="SourceGraphic" in2="effect1_dropShadow" result="shape"/>
</filter>
<filter id="filter1_d" x="96" y="2" width="77.2656" height="73.1875" filterUnits="userSpaceOnUse" color-interpolation-filters="sRGB">
<feFlood flood-opacity="0" result="BackgroundImageFix"/>
<feColorMatrix in="SourceAlpha" type="matrix" values="0 0 0 0 0 0 0 0 0 0 0 0 0 0 0 0 0 0 127 0"/>
<feOffset dy="4"/>
<feGaussianBlur stdDeviation="5.5"/>
<feColorMatrix type="matrix" values="0 0 0 0 0 0 0 0 0 0 0 0 0 0 0 0 0 0 0.68 0"/>
<feBlend mode="normal" in2="BackgroundImageFix" result="effect1_dropShadow"/>
<feBlend mode="normal" in="SourceGraphic" in2="effect1_dropShadow" result="shape"/>
</filter>
<filter id="filter2_d" x="47" y="2" width="67.457" height="73.1875" filterUnits="userSpaceOnUse" color-interpolation-filters="sRGB">
<feFlood flood-opacity="0" result="BackgroundImageFix"/>
<feColorMatrix in="SourceAlpha" type="matrix" values="0 0 0 0 0 0 0 0 0 0 0 0 0 0 0 0 0 0 127 0"/>
<feOffset dy="4"/>
<feGaussianBlur stdDeviation="5.5"/>
<feColorMatrix type="matrix" values="0 0 0 0 0 0 0 0 0 0 0 0 0 0 0 0 0 0 0.68 0"/>
<feBlend mode="normal" in2="BackgroundImageFix" result="effect1_dropShadow"/>
<feBlend mode="normal" in="SourceGraphic" in2="effect1_dropShadow" result="shape"/>
</filter>
<linearGradient id="paint0_linear" x1="81.1055" y1="-6.8125" x2="81.1055" y2="77.1875" gradientUnits="userSpaceOnUse">
<stop stop-color="#FFAD4D"/>
<stop offset="1" stop-color="#E84839"/>
</linearGradient>
</defs>
</svg>
