<svg width="17" height="18" viewBox="0 0 17 18" fill="none" xmlns="http://www.w3.org/2000/svg">
<path d="M12.1498 11.3208H11.3819L11.1098 11.0429C12.0623 9.86964 12.6358 8.34648 12.6358 6.68954C12.6358 2.99485 9.80732 0 6.3179 0C2.82847 0 0 2.99485 0 6.68954C0 10.3842 2.82847 13.3791 6.3179 13.3791C7.88279 13.3791 9.32133 12.7719 10.4294 11.7633L10.6918 12.0515V12.8645L15.5517 18L17 16.4666L12.1498 11.3208ZM6.3179 11.3208C3.89766 11.3208 1.94397 9.25214 1.94397 6.68954C1.94397 4.12693 3.89766 2.05832 6.3179 2.05832C8.73814 2.05832 10.6918 4.12693 10.6918 6.68954C10.6918 9.25214 8.73814 11.3208 6.3179 11.3208Z" fill="#1A73E8"/>
</svg>
