<svg width="503" height="216" viewBox="0 0 503 216" fill="none" xmlns="http://www.w3.org/2000/svg">
<g clip-path="url(#clip0)">
<rect width="503" height="216" fill="white"/>
<path fill-rule="evenodd" clip-rule="evenodd" d="M181.976 -74.4167L290.917 -95.9528C294.697 -63.1181 338.965 -34.5987 380.774 -19.3077C422.584 -4.01674 461.934 -1.95407 520.867 -11.8522C579.801 -21.7504 621.61 -6.45938 659.994 13.8695C698.378 34.1983 733.338 59.5649 750.818 72.2482L768.297 84.9316L645.003 266.294L533.669 285.405C512.764 277.76 524.553 292.568 482.744 277.277C440.935 261.986 185.102 98.0925 164.198 90.447L143.293 82.8015L181.976 -74.4167Z" fill="url(#paint0_linear)"/>
<path fill-rule="evenodd" clip-rule="evenodd" d="M169.004 -45.9521L285.265 -45.952C289.702 -19.8783 298.575 32.269 334.074 45.2519C369.572 58.2348 431.695 32.0532 480.506 25.4539C529.316 18.8546 564.815 31.8375 597.65 48.7368C630.486 65.6361 660.659 86.4519 675.746 96.8598L690.833 107.268L690.833 305.847C726.331 318.83 673.084 299.356 690.833 305.847C655.334 292.864 366.964 301.102 349.215 294.61L263.503 171.243L169.004 -45.9521Z" fill="url(#paint1_linear)"/>
<path fill-rule="evenodd" clip-rule="evenodd" d="M136.559 -100.497L150.168 -81.5153C163.778 -62.5338 190.997 -24.5706 222.599 2.26443C254.2 29.0995 290.185 44.8064 330.552 49.3853C370.919 53.9642 415.669 47.415 444.349 81.6687C473.029 115.922 485.639 190.979 491.944 228.508L498.249 266.036L489.484 288.292L471.492 280.439C453.5 272.585 417.515 256.878 381.531 241.171C345.546 225.464 309.562 209.757 273.578 194.05C237.593 178.343 201.609 162.637 165.624 146.93C129.64 131.223 93.6554 115.516 75.6632 107.662L57.671 99.8087L136.559 -100.497Z" fill="url(#paint2_linear)"/>
<path fill-rule="evenodd" clip-rule="evenodd" d="M23.4102 -82.0673L34.5246 -65.1597C45.639 -48.252 67.8678 -14.4367 94.1483 9.09079C120.429 32.6183 150.761 45.8581 185.145 48.8102C219.529 51.7622 257.964 44.4265 281.544 74.8126C305.123 105.199 313.846 173.306 318.208 207.36L322.569 241.414L314.466 261.99L299.3 255.37C284.134 248.75 253.802 235.51 223.47 222.27C193.137 209.03 162.805 195.791 132.473 182.551C102.141 169.311 71.8086 156.071 41.4764 142.831C11.1442 129.592 -19.188 116.352 -34.3541 109.732L-49.5202 103.112L23.4102 -82.0673Z" fill="url(#paint3_linear)"/>
<path fill-rule="evenodd" clip-rule="evenodd" d="M40.5137 -260L60.8365 -235.12C81.1593 -210.24 121.805 -160.48 147.557 -78.4484C173.31 3.58363 184.169 117.888 232.261 151.512C280.353 185.135 365.679 138.079 428.665 139.43C491.65 140.782 532.296 190.542 552.619 215.421L572.942 240.301L505.922 385.526L478.152 376.782C450.383 368.038 394.843 350.551 339.304 333.063C283.765 315.575 228.226 298.088 172.687 280.6C117.148 263.113 61.6095 245.625 6.07045 228.137C-49.4686 210.65 -105.008 193.162 -132.777 184.418L-160.547 175.674L40.5137 -260Z" fill="url(#paint4_linear)"/>
<path fill-rule="evenodd" clip-rule="evenodd" d="M92.1571 -47.964L95.5358 -34.1482C98.9145 -20.3324 105.672 7.29932 99.8424 49.6627C94.0129 92.0261 75.5964 149.121 88.6473 169.387C101.698 189.653 146.217 173.089 171.855 178.623C197.492 184.157 204.25 211.789 207.629 225.605L211.007 239.421L154.366 305.714L-86.3993 305.714C-67.0549 318.614 -96.0715 299.264 -86.3993 305.714C-76.7271 312.164 -105.744 292.814 -86.3993 305.714L-83.4101 -47.964L92.1571 -47.964Z" fill="url(#paint5_linear)"/>
</g>
<defs>
<linearGradient id="paint0_linear" x1="555.576" y1="27.5712" x2="434.626" y2="153.044" gradientUnits="userSpaceOnUse">
<stop stop-color="#1C7BB1"/>
<stop offset="1" stop-color="#3A99CF" stop-opacity="0.772917"/>
</linearGradient>
<linearGradient id="paint1_linear" x1="511.017" y1="57.3928" x2="419.962" y2="158.698" gradientUnits="userSpaceOnUse">
<stop stop-color="#1C7BB1"/>
<stop offset="1" stop-color="#3A99CF" stop-opacity="0.772917"/>
</linearGradient>
<linearGradient id="paint2_linear" x1="275.782" y1="125.404" x2="358.462" y2="29.6793" gradientUnits="userSpaceOnUse">
<stop stop-color="#FFDFA1"/>
<stop offset="0.477083" stop-color="#FFA692"/>
<stop offset="0.794792" stop-color="#FFA090"/>
<stop offset="1" stop-color="#FFA090"/>
</linearGradient>
<linearGradient id="paint3_linear" x1="136.239" y1="119.842" x2="214.251" y2="34.271" gradientUnits="userSpaceOnUse">
<stop stop-color="#FFDFA1"/>
<stop offset="0.477083" stop-color="#FFA692"/>
<stop offset="0.794792" stop-color="#FFA090"/>
<stop offset="1" stop-color="#FFA090"/>
</linearGradient>
<linearGradient id="paint4_linear" x1="267.777" y1="24.8491" x2="220.631" y2="289.152" gradientUnits="userSpaceOnUse">
<stop stop-color="#F73247"/>
<stop offset="1" stop-color="#FF814B"/>
</linearGradient>
<linearGradient id="paint5_linear" x1="128.608" y1="109.795" x2="70.3296" y2="242.394" gradientUnits="userSpaceOnUse">
<stop stop-color="#F73247"/>
<stop offset="1" stop-color="#FF814B"/>
</linearGradient>
<clipPath id="clip0">
<rect width="503" height="216" fill="white"/>
</clipPath>
</defs>
</svg>
