<svg width="3" height="12" viewBox="0 0 3 12" fill="none" xmlns="http://www.w3.org/2000/svg">
<path d="M1.5 2.89093C2.325 2.89093 3 2.28002 3 1.53336C3 0.78669 2.325 0.175781 1.5 0.175781C0.675 0.175781 0 0.78669 0 1.53336C0 2.28002 0.675 2.89093 1.5 2.89093ZM1.5 4.24851C0.675 4.24851 0 4.85942 0 5.60608C0 6.35275 0.675 6.96366 1.5 6.96366C2.325 6.96366 3 6.35275 3 5.60608C3 4.85942 2.325 4.24851 1.5 4.24851ZM1.5 8.32123C0.675 8.32123 0 8.93214 0 9.67881C0 10.4255 0.675 11.0364 1.5 11.0364C2.325 11.0364 3 10.4255 3 9.67881C3 8.93214 2.325 8.32123 1.5 8.32123Z" fill="#5C5C5C"/>
</svg>
