<svg width="24" height="36" viewBox="0 0 24 36" fill="none" xmlns="http://www.w3.org/2000/svg">
<g filter="url(#filter0_d)">
<path d="M2.47151 13.6647C2.79731 12.8939 3.28073 12.1997 3.89072 11.6268C4.50071 11.0539 5.22379 10.6149 6.01351 10.338C6.80323 10.0611 7.64213 9.95245 8.47633 10.019C9.31053 10.0856 10.1216 10.3259 10.8574 10.7245C11.5932 11.1231 12.2375 11.6712 12.749 12.3336C13.2604 12.996 13.6276 13.758 13.8271 14.5708C14.0265 15.3835 14.0538 16.229 13.9071 17.0529C13.7604 17.8768 13.443 18.6609 12.9753 19.3548V19.3548L2 34.0002V33.9987H14" stroke="url(#paint0_linear)" stroke-width="4" stroke-linecap="round" stroke-linejoin="round"/>
</g>
<defs>
<filter id="filter0_d" x="0" y="0" width="24" height="36.0003" filterUnits="userSpaceOnUse" color-interpolation-filters="sRGB">
<feFlood flood-opacity="0" result="BackgroundImageFix"/>
<feColorMatrix in="SourceAlpha" type="matrix" values="0 0 0 0 0 0 0 0 0 0 0 0 0 0 0 0 0 0 127 0"/>
<feOffset dx="4" dy="-4"/>
<feGaussianBlur stdDeviation="2"/>
<feColorMatrix type="matrix" values="0 0 0 0 1 0 0 0 0 0.670588 0 0 0 0 0.737255 0 0 0 0.25 0"/>
<feBlend mode="normal" in2="BackgroundImageFix" result="effect1_dropShadow"/>
<feBlend mode="normal" in="SourceGraphic" in2="effect1_dropShadow" result="shape"/>
</filter>
<linearGradient id="paint0_linear" x1="8" y1="10" x2="8" y2="34.0002" gradientUnits="userSpaceOnUse">
<stop stop-color="#FFABBC"/>
<stop offset="1" stop-color="#A4B3FF"/>
</linearGradient>
</defs>
</svg>
