<svg width="24" height="36" viewBox="0 0 24 36" fill="none" xmlns="http://www.w3.org/2000/svg">
<g filter="url(#filter0_d)">
<path d="M2 10H13.9984L7.00092 20.0011C8.152 20.0011 9.28532 20.2849 10.3005 20.8275C11.3157 21.3701 12.1814 22.1547 12.8209 23.1117C13.4604 24.0688 13.854 25.1688 13.9669 26.3143C14.0797 27.4599 13.9083 28.6156 13.4679 29.679C13.0274 30.7425 12.3314 31.6809 11.4416 32.4111C10.5519 33.1414 9.49571 33.6409 8.36676 33.8655C7.2378 34.0901 6.07089 34.0328 4.96938 33.6986C3.86787 33.3645 2.86576 32.7638 2.05183 31.9499" stroke="url(#paint0_linear)" stroke-width="4" stroke-linecap="round" stroke-linejoin="round"/>
</g>
<defs>
<filter id="filter0_d" x="0" y="0" width="24.0006" height="36" filterUnits="userSpaceOnUse" color-interpolation-filters="sRGB">
<feFlood flood-opacity="0" result="BackgroundImageFix"/>
<feColorMatrix in="SourceAlpha" type="matrix" values="0 0 0 0 0 0 0 0 0 0 0 0 0 0 0 0 0 0 127 0"/>
<feOffset dx="4" dy="-4"/>
<feGaussianBlur stdDeviation="2"/>
<feColorMatrix type="matrix" values="0 0 0 0 0.278431 0 0 0 0 0.666667 0 0 0 0 0.988235 0 0 0 0.25 0"/>
<feBlend mode="normal" in2="BackgroundImageFix" result="effect1_dropShadow"/>
<feBlend mode="normal" in="SourceGraphic" in2="effect1_dropShadow" result="shape"/>
</filter>
<linearGradient id="paint0_linear" x1="8.0003" y1="10" x2="8.0003" y2="34" gradientUnits="userSpaceOnUse">
<stop stop-color="#47AAFC"/>
<stop offset="1" stop-color="#4561FF"/>
</linearGradient>
</defs>
</svg>
