<svg width="95" height="65" viewBox="0 0 95 65" fill="none" xmlns="http://www.w3.org/2000/svg">
<g filter="url(#filter0_d)">
<path fill-rule="evenodd" clip-rule="evenodd" d="M17.7834 18.2636C16.813 16.5653 14.6495 15.9753 12.9512 16.9458C11.2529 17.9162 10.6629 20.0797 11.6334 21.7779L17.5372 32.1097C8.2849 38.4365 1.90075 48.6501 0.73414 60.4C0.635321 61.3953 0.961947 62.386 1.63334 63.1274C2.30473 63.8687 3.25829 64.2916 4.25848 64.2916H74.7421C75.7423 64.2916 76.6959 63.8687 77.3672 63.1274C78.0386 62.386 78.3653 61.3953 78.2664 60.4C77.0464 48.1122 70.12 37.5045 60.1746 31.2653L65.5959 21.7779C66.5664 20.0797 65.9763 17.9162 64.278 16.9458C62.5798 15.9753 60.4163 16.5653 59.4459 18.2636L53.8479 28.0601C49.4077 26.3004 44.5671 25.3333 39.5002 25.3333C33.8845 25.3333 28.5466 26.5213 23.724 28.6597L17.7834 18.2636ZM70.5861 57.2083H8.41448C11.6342 43.0147 24.3314 32.4166 39.5002 32.4166C54.669 32.4166 67.3662 43.0147 70.5861 57.2083ZM23.5626 51.8958C25.5186 51.8958 27.1042 50.3101 27.1042 48.3541C27.1042 46.3981 25.5186 44.8125 23.5626 44.8125C21.6065 44.8125 20.0209 46.3981 20.0209 48.3541C20.0209 50.3101 21.6065 51.8958 23.5626 51.8958ZM55.4375 51.8958C57.3936 51.8958 58.9792 50.3101 58.9792 48.3541C58.9792 46.3981 57.3936 44.8125 55.4375 44.8125C53.4815 44.8125 51.8959 46.3981 51.8959 48.3541C51.8959 50.3101 53.4815 51.8958 55.4375 51.8958Z" fill="white"/>
</g>
<defs>
<filter id="filter0_d" x="0.716797" y="0.478516" width="93.567" height="63.8131" filterUnits="userSpaceOnUse" color-interpolation-filters="sRGB">
<feFlood flood-opacity="0" result="BackgroundImageFix"/>
<feColorMatrix in="SourceAlpha" type="matrix" values="0 0 0 0 0 0 0 0 0 0 0 0 0 0 0 0 0 0 127 0"/>
<feOffset dx="8" dy="-8"/>
<feGaussianBlur stdDeviation="4"/>
<feColorMatrix type="matrix" values="0 0 0 0 1 0 0 0 0 1 0 0 0 0 1 0 0 0 0.3 0"/>
<feBlend mode="normal" in2="BackgroundImageFix" result="effect1_dropShadow"/>
<feBlend mode="normal" in="SourceGraphic" in2="effect1_dropShadow" result="shape"/>
</filter>
</defs>
</svg>
