<svg width="81" height="95" viewBox="0 0 81 95" fill="none" xmlns="http://www.w3.org/2000/svg">
<g filter="url(#filter0_d)">
<path d="M62.6186 68.7586C60.4517 67.8318 58.6059 66.2871 57.3117 64.3175C56.0175 62.3478 55.3323 60.0406 55.3416 57.6838C55.3697 55.5801 55.9331 53.5182 56.9787 51.6925C58.0244 49.8669 59.5178 48.3376 61.3182 47.249C61.7255 46.9973 62.0776 46.6656 62.3531 46.2739C62.6286 45.8823 62.8218 45.4388 62.9211 44.9704C63.0203 44.502 63.0235 44.0183 62.9305 43.5485C62.8375 43.0788 62.6502 42.6328 62.38 42.2376C60.7616 39.884 58.6517 37.9097 56.196 36.4509C53.7403 34.9921 50.9972 34.0836 48.1563 33.7881C50.8005 29.5917 52.0005 24.646 51.5734 19.7044C51.49 18.8071 51.0623 17.9769 50.38 17.3882C49.6978 16.7994 48.814 16.4978 47.9141 16.5466C41.8329 17.0886 36.1956 19.9569 32.1772 24.5534C29.63 27.505 27.8325 31.0276 26.9374 34.8222C25.088 34.1963 23.1517 33.8648 21.1995 33.8399C17.5851 33.9424 14.0586 34.9769 10.9618 36.8433C7.86493 38.7097 5.30287 41.3446 3.52399 44.4925C-3.16161 56.0997 0.928267 73.4934 8.17066 83.9627C11.0759 88.1581 15.4356 94.4563 22.0122 94.4563C22.1419 94.4563 22.2733 94.4563 22.4048 94.4492C24.6083 94.3242 26.7656 93.7659 28.7531 92.8063C30.3407 92.0016 32.0922 91.5732 33.872 91.5543C35.5456 91.5747 37.1916 91.9844 38.6795 92.751C40.8536 93.7797 43.223 94.3304 45.6279 94.3662C52.4035 94.2382 56.4052 88.3931 59.3277 84.1216C61.6337 80.7287 63.4381 77.0209 64.6851 73.1127C64.951 72.2601 64.8859 71.3386 64.503 70.5317C64.12 69.7248 63.4473 69.0918 62.6186 68.7586ZM37.5399 29.1777C39.4 27.097 41.7309 25.4913 44.3379 24.4947C43.7675 27.3005 42.5055 29.9195 40.6665 32.1141C39.4182 33.6118 37.8994 34.8614 36.1893 35.7977L36.1789 35.8013C36.0786 35.8428 35.9783 35.8808 35.8779 35.9223C35.2173 36.1817 34.401 36.5033 33.7716 36.7109C34.3795 33.9247 35.6749 31.335 37.5399 29.1777ZM53.4826 80.1238C50.6361 84.2811 48.3967 87.2313 45.4983 87.2832C44.0972 87.2787 42.7196 86.9232 41.4914 86.249C39.1172 85.0922 36.513 84.4845 33.872 84.4711C31.1392 84.4849 28.4435 85.105 25.9793 86.2869C24.7813 86.8985 23.4743 87.2676 22.1333 87.3729H22.0278C19.1484 87.3729 16.0513 82.9008 13.9951 79.9298C8.8503 72.4937 4.10504 57.6768 9.66312 48.0272C10.8286 45.9391 12.5141 44.1877 14.556 42.943C16.598 41.6983 18.927 41.0025 21.317 40.9233L21.4364 40.9198C23.4526 41.0911 25.4214 41.6242 27.2487 42.4935C27.7139 42.6768 28.1721 42.8601 28.6269 43.0295C28.7428 43.078 28.8621 43.1229 28.9832 43.161C30.2435 43.6679 31.5823 43.9523 32.9399 44.0014C34.8621 43.8487 36.7398 43.3434 38.479 42.5108C40.9308 41.3208 43.6259 40.7181 46.3509 40.7503C49.2658 40.8644 52.064 41.9256 54.3214 43.7732C52.3922 45.5506 50.8562 47.712 49.812 50.1184C48.7679 52.5248 48.2387 55.1231 48.2584 57.7462V57.7497C48.2384 60.9252 49.0242 64.054 50.5425 66.8431C52.0608 69.6322 54.2618 71.9906 56.9396 73.6976C56.0072 75.9508 54.8489 78.1039 53.4826 80.1238Z" fill="white"/>
</g>
<defs>
<filter id="filter0_d" x="0.136719" y="0.541504" width="80.7094" height="93.9148" filterUnits="userSpaceOnUse" color-interpolation-filters="sRGB">
<feFlood flood-opacity="0" result="BackgroundImageFix"/>
<feColorMatrix in="SourceAlpha" type="matrix" values="0 0 0 0 0 0 0 0 0 0 0 0 0 0 0 0 0 0 127 0"/>
<feOffset dx="8" dy="-8"/>
<feGaussianBlur stdDeviation="4"/>
<feColorMatrix type="matrix" values="0 0 0 0 1 0 0 0 0 1 0 0 0 0 1 0 0 0 0.3 0"/>
<feBlend mode="normal" in2="BackgroundImageFix" result="effect1_dropShadow"/>
<feBlend mode="normal" in="SourceGraphic" in2="effect1_dropShadow" result="shape"/>
</filter>
</defs>
</svg>
