<svg width="26" height="26" viewBox="0 0 26 26" fill="none" xmlns="http://www.w3.org/2000/svg">
<path d="M22.2993 14.2502C22.0243 14.2502 21.7368 14.1627 21.4618 14.1002C20.9049 13.9775 20.3576 13.8146 19.8243 13.6127C19.2444 13.4017 18.607 13.4127 18.0347 13.6435C17.4624 13.8742 16.9956 14.3085 16.7243 14.8627L16.4493 15.4252C15.2318 14.7479 14.113 13.9067 13.1243 12.9252C12.1427 11.9365 11.3015 10.8177 10.6243 9.6002L11.1493 9.2502C11.7035 8.97885 12.1377 8.51211 12.3685 7.93982C12.5993 7.36752 12.6102 6.73009 12.3993 6.1502C12.2008 5.61573 12.0379 5.0687 11.9118 4.5127C11.8493 4.2377 11.7993 3.9502 11.7618 3.6627C11.61 2.78223 11.1488 1.98488 10.4613 1.41425C9.77379 0.843622 8.90514 0.537212 8.01177 0.550201H4.26177C3.72306 0.545143 3.18958 0.656218 2.69766 0.875864C2.20573 1.09551 1.76691 1.41857 1.41106 1.82305C1.05521 2.22754 0.79069 2.70394 0.635507 3.21984C0.480323 3.73574 0.438121 4.27902 0.511771 4.8127C1.17769 10.0494 3.56931 14.915 7.30884 18.641C11.0484 22.3669 15.9227 24.7408 21.1618 25.3877H21.6368C22.5585 25.3891 23.4485 25.0509 24.1368 24.4377C24.5322 24.084 24.8481 23.6504 25.0636 23.1656C25.2791 22.6808 25.3892 22.1557 25.3868 21.6252V17.8752C25.3715 17.0069 25.0553 16.1709 24.4922 15.5098C23.9291 14.8487 23.154 14.4035 22.2993 14.2502V14.2502ZM22.9243 21.7502C22.924 21.9277 22.886 22.1031 22.8127 22.2647C22.7395 22.4264 22.6326 22.5706 22.4993 22.6877C22.3596 22.8083 22.1963 22.8984 22.0198 22.9522C21.8433 23.006 21.6575 23.0224 21.4743 23.0002C16.7929 22.4 12.4446 20.2583 9.11517 16.9131C5.78577 13.5678 3.66478 9.20937 3.08677 4.5252C3.06688 4.3421 3.08431 4.15686 3.13802 3.98069C3.19174 3.80452 3.28061 3.64106 3.39927 3.5002C3.51641 3.36687 3.6606 3.26 3.82224 3.18672C3.98389 3.11344 4.15929 3.07543 4.33677 3.0752H8.08677C8.37745 3.06873 8.6613 3.1638 8.88945 3.34404C9.1176 3.52428 9.27578 3.77841 9.33677 4.0627C9.38677 4.40437 9.44927 4.74187 9.52427 5.0752C9.66867 5.73413 9.86085 6.38168 10.0993 7.0127L8.34927 7.8252C8.19964 7.89385 8.06505 7.99138 7.95322 8.1122C7.84139 8.23301 7.75452 8.37472 7.69761 8.52919C7.6407 8.68367 7.61486 8.84787 7.62158 9.01235C7.6283 9.17684 7.66745 9.33838 7.73677 9.4877C9.53577 13.3411 12.6333 16.4387 16.4868 18.2377C16.7911 18.3627 17.1324 18.3627 17.4368 18.2377C17.5927 18.1819 17.7359 18.0958 17.8582 17.9842C17.9805 17.8726 18.0795 17.7378 18.1493 17.5877L18.9243 15.8377C19.5705 16.0688 20.23 16.2608 20.8993 16.4127C21.2326 16.4877 21.5701 16.5502 21.9118 16.6002C22.1961 16.6612 22.4502 16.8194 22.6304 17.0475C22.8107 17.2757 22.9057 17.5595 22.8993 17.8502L22.9243 21.7502Z" fill="black"/>
</svg>
