<svg width="42" height="42" viewBox="0 0 42 42" fill="none" xmlns="http://www.w3.org/2000/svg">
<g filter="url(#filter0_d)">
<path d="M33.3008 24.8L29.9675 20.6334C29.8122 20.437 29.6148 20.278 29.3897 20.1684C29.1647 20.0587 28.9178 20.0012 28.6675 20H18.6675V10C18.6675 9.55801 18.4919 9.13409 18.1793 8.82153C17.8667 8.50897 17.4428 8.33337 17.0008 8.33337C16.5588 8.33337 16.1348 8.50897 15.8223 8.82153C15.5097 9.13409 15.3341 9.55801 15.3341 10V11.6667H5.33413C5.08378 11.6679 4.83692 11.7254 4.61186 11.835C4.3868 11.9447 4.18934 12.1036 4.03413 12.3L0.700794 16.4667C0.468279 16.761 0.341797 17.125 0.341797 17.5C0.341797 17.8751 0.468279 18.2391 0.700794 18.5334L4.03413 22.7C4.18934 22.8965 4.3868 23.0554 4.61186 23.165C4.83692 23.2747 5.08378 23.3322 5.33413 23.3334H15.3341V38.3334H12.0008C11.5588 38.3334 11.1348 38.509 10.8223 38.8215C10.5097 39.1341 10.3341 39.558 10.3341 40C10.3341 40.4421 10.5097 40.866 10.8223 41.1786C11.1348 41.4911 11.5588 41.6667 12.0008 41.6667H22.0008C22.4428 41.6667 22.8667 41.4911 23.1793 41.1786C23.4919 40.866 23.6675 40.4421 23.6675 40C23.6675 39.558 23.4919 39.1341 23.1793 38.8215C22.8667 38.509 22.4428 38.3334 22.0008 38.3334H18.6675V31.6667H28.6675C28.9178 31.6656 29.1647 31.608 29.3897 31.4984C29.6148 31.3887 29.8122 31.2298 29.9675 31.0334L33.3008 26.8667C33.5333 26.5725 33.6598 26.2084 33.6598 25.8334C33.6598 25.4584 33.5333 25.0943 33.3008 24.8V24.8ZM15.3341 20H6.13413L4.13413 17.5L6.13413 15H15.3341V20ZM27.8675 28.3334H18.6675V23.3334H27.8675L29.8675 25.8334L27.8675 28.3334Z" fill="url(#paint0_linear)"/>
</g>
<defs>
<filter id="filter0_d" x="0.341797" y="0.333374" width="41.318" height="41.3333" filterUnits="userSpaceOnUse" color-interpolation-filters="sRGB">
<feFlood flood-opacity="0" result="BackgroundImageFix"/>
<feColorMatrix in="SourceAlpha" type="matrix" values="0 0 0 0 0 0 0 0 0 0 0 0 0 0 0 0 0 0 127 0"/>
<feOffset dx="4" dy="-4"/>
<feGaussianBlur stdDeviation="2"/>
<feColorMatrix type="matrix" values="0 0 0 0 0.984314 0 0 0 0 0.513726 0 0 0 0 0.513726 0 0 0 0.25 0"/>
<feBlend mode="normal" in2="BackgroundImageFix" result="effect1_dropShadow"/>
<feBlend mode="normal" in="SourceGraphic" in2="effect1_dropShadow" result="shape"/>
</filter>
<linearGradient id="paint0_linear" x1="0.341797" y1="25" x2="33.6598" y2="25" gradientUnits="userSpaceOnUse">
<stop stop-color="#FB8383"/>
<stop offset="1" stop-color="#FE5196"/>
</linearGradient>
</defs>
</svg>
