<svg width="27" height="28" viewBox="0 0 27 28" fill="none" xmlns="http://www.w3.org/2000/svg">
<path d="M11.5874 24.6284C11.5874 24.4451 11.547 24.264 11.4692 24.098C11.3914 23.9321 11.2781 23.7852 11.1372 23.6679C10.9963 23.5506 10.8313 23.4657 10.654 23.4193C10.4767 23.3729 10.2913 23.366 10.111 23.3992C8.47463 23.6995 6.40859 23.7446 5.85926 22.2017C5.38027 21.0067 4.58686 19.9636 3.56313 19.1829C3.49008 19.1432 3.42047 19.0975 3.355 19.0462C3.26541 18.8099 3.10627 18.6062 2.89858 18.4622C2.69089 18.3181 2.44442 18.2404 2.19166 18.2393H2.18556C1.85506 18.2392 1.53797 18.37 1.3037 18.6031C1.06943 18.8363 0.937062 19.1527 0.935564 19.4832C0.930677 20.5025 1.94931 21.1556 2.36256 21.3765C2.84987 21.8661 3.2415 22.4424 3.51735 23.0757C3.97268 24.355 5.29591 26.296 9.09963 26.0457C9.10088 26.0897 9.10206 26.1312 9.10268 26.169L9.10816 26.5035C9.10816 26.835 9.23986 27.153 9.47428 27.3874C9.7087 27.6218 10.0266 27.7535 10.3582 27.7535C10.6897 27.7535 11.0076 27.6218 11.242 27.3874C11.4765 27.153 11.6082 26.835 11.6082 26.5035L11.6021 26.1056C11.596 25.8687 11.5874 25.5256 11.5874 24.6284ZM24.9212 5.72093C24.9608 5.56468 24.9999 5.39134 25.0341 5.19603C25.2363 3.80301 25.06 2.38127 24.5238 1.07978C24.4562 0.910108 24.3522 0.757288 24.2193 0.632032C24.0863 0.506777 23.9276 0.412118 23.7542 0.354691C23.3092 0.204541 21.6662 -0.0908713 18.5241 1.91719C15.9123 1.30256 13.1934 1.30256 10.5816 1.91719C7.45229 -0.0614588 5.81776 0.207041 5.37709 0.348641C5.19942 0.403742 5.03633 0.497899 4.89978 0.624214C4.76322 0.750528 4.65666 0.905797 4.5879 1.07864C4.04078 2.40512 3.86645 3.85586 4.08375 5.27419C4.11428 5.4341 4.14723 5.58182 4.18141 5.7173C3.14588 7.09661 2.5943 8.77901 2.6122 10.5037C2.60883 10.8885 2.62655 11.2732 2.6653 11.656C3.0828 17.4092 6.8328 19.1365 9.44569 19.7298C9.39138 19.886 9.34194 20.0532 9.29799 20.2303C9.21966 20.5519 9.27208 20.8914 9.44374 21.1745C9.6154 21.4575 9.89229 21.6609 10.2137 21.7401C10.5351 21.8193 10.8748 21.7678 11.1583 21.5968C11.4418 21.4259 11.6459 21.1496 11.726 20.8284C11.8055 20.4119 12.0094 20.0293 12.3107 19.731C12.4929 19.5715 12.6248 19.3624 12.6904 19.1293C12.756 18.8962 12.7524 18.6491 12.6801 18.418C12.6078 18.1869 12.4699 17.9818 12.2832 17.8276C12.0964 17.6734 11.8689 17.5768 11.6283 17.5496C7.31069 17.0564 5.43629 15.2974 5.15431 11.4265C5.12308 11.12 5.10902 10.8119 5.1122 10.5037C5.09215 9.27451 5.49824 8.07629 6.26149 7.11258C6.33818 7.01211 6.41987 6.91555 6.50624 6.82327C6.65928 6.65202 6.76217 6.44192 6.80363 6.21602C6.84509 5.99013 6.8235 5.75718 6.74124 5.54275C6.65691 5.31717 6.59198 5.08479 6.54715 4.84817C6.44532 4.17531 6.47872 3.4889 6.6454 2.82912C7.73182 3.13596 8.7543 3.63542 9.66415 4.30372C9.81461 4.40393 9.98487 4.47063 10.1634 4.49927C10.3419 4.52792 10.5244 4.51785 10.6987 4.46974C13.2251 3.78412 15.8886 3.78455 18.4148 4.47099C18.59 4.51904 18.7735 4.52854 18.9527 4.49883C19.132 4.46911 19.3026 4.4009 19.453 4.29888C20.3586 3.6278 21.3768 3.12388 22.4596 2.81084C22.6255 3.45478 22.6626 4.12516 22.5688 4.78349C22.5235 5.04291 22.4528 5.29724 22.3576 5.54278C22.2754 5.75721 22.2538 5.99016 22.2952 6.21605C22.3367 6.44194 22.4396 6.65204 22.5926 6.82329C22.6891 6.93193 22.7855 7.04912 22.8722 7.15898C23.63 8.10638 24.0292 9.29082 23.9995 10.5037C24.0018 10.8282 23.9861 11.1526 23.9525 11.4754C23.6773 15.2949 21.7956 17.0552 17.4578 17.5496C17.2171 17.577 16.9896 17.6737 16.8029 17.8281C16.6161 17.9824 16.4783 18.1876 16.4061 18.4188C16.3339 18.6501 16.3304 18.8973 16.396 19.1304C16.4617 19.3636 16.5937 19.5727 16.776 19.7322C17.0868 20.0385 17.2911 20.4364 17.3589 20.8674C17.4434 21.2021 17.4822 21.5466 17.4743 21.8916V24.8091C17.462 25.6184 17.462 26.2251 17.462 26.5034C17.462 26.835 17.5937 27.1529 17.8281 27.3873C18.0626 27.6217 18.3805 27.7534 18.712 27.7534C19.0435 27.7534 19.3615 27.6217 19.5959 27.3873C19.8303 27.1529 19.962 26.835 19.962 26.5034C19.962 26.2324 19.962 25.638 19.9742 24.8286V21.8916C19.9843 21.3389 19.9192 20.7874 19.7808 20.2522C19.7412 20.0765 19.6927 19.903 19.6355 19.7322C21.5371 19.4163 23.2648 18.4359 24.5113 16.9655C25.7577 15.4951 26.4419 13.63 26.4421 11.7024C26.4833 11.3042 26.5025 10.904 26.4995 10.5037C26.5273 8.77714 25.9711 7.09184 24.9212 5.72095L24.9212 5.72093Z" fill="black"/>
</svg>
