<svg width="95" height="91" viewBox="0 0 95 91" fill="none" xmlns="http://www.w3.org/2000/svg">
<g filter="url(#filter0_di)">
<path d="M47.7244 19.9831C47.968 18.0423 46.5922 16.2716 44.6514 16.0279C42.7106 15.7843 40.9398 17.1602 40.6962 19.101L32.2499 86.3926C32.0063 88.3334 33.3821 90.1042 35.3229 90.3478C37.2637 90.5914 39.0345 89.2156 39.2781 87.2748L47.7244 19.9831Z" fill="url(#paint0_radial)"/>
<path d="M27.7923 31.1605C29.1997 32.5189 29.2393 34.761 27.8809 36.1684L9.09217 55.6338L27.7907 73.6589C29.1989 75.0164 29.24 77.2585 27.8825 78.6667C26.525 80.0749 24.2829 80.1161 22.8747 78.7585L1.62469 58.2739C0.948141 57.6217 0.558516 56.7274 0.541591 55.7878C0.524665 54.8483 0.881828 53.9405 1.53444 53.2644L22.7844 31.2491C24.1429 29.8417 26.385 29.802 27.7923 31.1605Z" fill="url(#paint1_radial)"/>
<path d="M51.2064 31.1605C52.6137 29.802 54.8558 29.8417 56.2143 31.2491L77.4643 53.2644C78.1169 53.9405 78.474 54.8483 78.4571 55.7878C78.4402 56.7274 78.0506 57.6217 77.374 58.2739L56.124 78.7585C54.7158 80.1161 52.4737 80.0749 51.1162 78.6667C49.7587 77.2585 49.7998 75.0164 51.208 73.6589L69.9065 55.6338L51.1178 36.1684C49.7593 34.761 49.799 32.5189 51.2064 31.1605Z" fill="url(#paint2_radial)"/>
</g>
<defs>
<filter id="filter0_di" x="0.541016" y="0" width="93.9167" height="90.3757" filterUnits="userSpaceOnUse" color-interpolation-filters="sRGB">
<feFlood flood-opacity="0" result="BackgroundImageFix"/>
<feColorMatrix in="SourceAlpha" type="matrix" values="0 0 0 0 0 0 0 0 0 0 0 0 0 0 0 0 0 0 127 0"/>
<feOffset dx="8" dy="-8"/>
<feGaussianBlur stdDeviation="4"/>
<feColorMatrix type="matrix" values="0 0 0 0 0.0941176 0 0 0 0 0.568627 0 0 0 0 0.964706 0 0 0 0.2 0"/>
<feBlend mode="normal" in2="BackgroundImageFix" result="effect1_dropShadow"/>
<feBlend mode="normal" in="SourceGraphic" in2="effect1_dropShadow" result="shape"/>
<feColorMatrix in="SourceAlpha" type="matrix" values="0 0 0 0 0 0 0 0 0 0 0 0 0 0 0 0 0 0 127 0" result="hardAlpha"/>
<feOffset dx="10" dy="-10"/>
<feGaussianBlur stdDeviation="10"/>
<feComposite in2="hardAlpha" operator="arithmetic" k2="-1" k3="1"/>
<feColorMatrix type="matrix" values="0 0 0 0 1 0 0 0 0 1 0 0 0 0 1 0 0 0 0.24 0"/>
<feBlend mode="normal" in2="shape" result="effect2_innerShadow"/>
</filter>
<radialGradient id="paint0_radial" cx="0" cy="0" r="1" gradientUnits="userSpaceOnUse" gradientTransform="translate(69.5838 23.4376) rotate(136.12) scale(80.7737 80.7142)">
<stop stop-color="#47AAFC"/>
<stop offset="1" stop-color="#4561FF"/>
</radialGradient>
<radialGradient id="paint1_radial" cx="0" cy="0" r="1" gradientUnits="userSpaceOnUse" gradientTransform="translate(69.5838 23.4376) rotate(136.12) scale(80.7737 80.7142)">
<stop stop-color="#47AAFC"/>
<stop offset="1" stop-color="#4561FF"/>
</radialGradient>
<radialGradient id="paint2_radial" cx="0" cy="0" r="1" gradientUnits="userSpaceOnUse" gradientTransform="translate(69.5838 23.4376) rotate(136.12) scale(80.7737 80.7142)">
<stop stop-color="#47AAFC"/>
<stop offset="1" stop-color="#4561FF"/>
</radialGradient>
</defs>
</svg>
