<svg width="97" height="78" viewBox="0 0 97 78" fill="none" xmlns="http://www.w3.org/2000/svg">
<g filter="url(#filter0_d)">
<path fill-rule="evenodd" clip-rule="evenodd" d="M14.9062 23.4062C14.3261 23.4062 13.7697 23.6367 13.3595 24.047C12.9492 24.4572 12.7188 25.0136 12.7188 25.5938V59.0625H68.2812V25.5938C68.2812 25.0136 68.0508 24.4572 67.6405 24.047C67.2303 23.6367 66.6739 23.4062 66.0938 23.4062H14.9062ZM5.71875 25.5938V59.0625H3.53125C1.59825 59.0625 0.03125 60.6295 0.03125 62.5625V68.25C0.03125 70.6867 0.999216 73.0236 2.72221 74.7465C4.4452 76.4695 6.78207 77.4375 9.21875 77.4375H71.7812C74.2179 77.4375 76.5548 76.4695 78.2778 74.7465C80.0008 73.0236 80.9688 70.6867 80.9688 68.25V62.5625C80.9688 60.6295 79.4017 59.0625 77.4688 59.0625H75.2812V25.5938C75.2812 23.1571 74.3133 20.8202 72.5903 19.0972C70.8673 17.3742 68.5304 16.4062 66.0938 16.4062H14.9062C12.4696 16.4062 10.1327 17.3742 8.40971 19.0972C6.68672 20.8202 5.71875 23.1571 5.71875 25.5938ZM9.21875 66.0625H71.7812H73.9688V68.25C73.9688 68.8302 73.7383 69.3866 73.328 69.7968C72.9178 70.207 72.3614 70.4375 71.7812 70.4375H9.21875C8.63859 70.4375 8.08219 70.207 7.67195 69.7968C7.26172 69.3866 7.03125 68.8302 7.03125 68.25V66.0625H9.21875ZM34.8125 27.7812C32.8795 27.7812 31.3125 29.3483 31.3125 31.2812C31.3125 33.2142 32.8795 34.7812 34.8125 34.7812H46.1875C48.1205 34.7812 49.6875 33.2142 49.6875 31.2812C49.6875 29.3483 48.1205 27.7812 46.1875 27.7812H34.8125Z" fill="white"/>
</g>
<defs>
<filter id="filter0_d" x="0.03125" y="0.40625" width="96.9375" height="77.0312" filterUnits="userSpaceOnUse" color-interpolation-filters="sRGB">
<feFlood flood-opacity="0" result="BackgroundImageFix"/>
<feColorMatrix in="SourceAlpha" type="matrix" values="0 0 0 0 0 0 0 0 0 0 0 0 0 0 0 0 0 0 127 0"/>
<feOffset dx="8" dy="-8"/>
<feGaussianBlur stdDeviation="4"/>
<feColorMatrix type="matrix" values="0 0 0 0 1 0 0 0 0 1 0 0 0 0 1 0 0 0 0.3 0"/>
<feBlend mode="normal" in2="BackgroundImageFix" result="effect1_dropShadow"/>
<feBlend mode="normal" in="SourceGraphic" in2="effect1_dropShadow" result="shape"/>
</filter>
</defs>
</svg>
