<svg width="28" height="28" viewBox="0 0 28 28" fill="none" xmlns="http://www.w3.org/2000/svg">
<path d="M20.8755 10.2484C19.7564 10.2479 18.6547 10.5247 17.6687 11.0541C17.5788 10.8171 17.4188 10.6131 17.2102 10.4692C17.0015 10.3253 16.754 10.2483 16.5005 10.2484H11.5005C11.3363 10.2483 11.1737 10.2806 11.022 10.3434C10.8703 10.4061 10.7325 10.4982 10.6164 10.6143C10.5003 10.7304 10.4083 10.8682 10.3455 11.0199C10.2827 11.1716 10.2504 11.3342 10.2505 11.4984V26.4984C10.2504 26.6626 10.2827 26.8252 10.3455 26.9769C10.4083 27.1286 10.5003 27.2664 10.6164 27.3825C10.7325 27.4986 10.8703 27.5907 11.022 27.6534C11.1737 27.7162 11.3363 27.7485 11.5005 27.7484H16.5005C16.6647 27.7485 16.8273 27.7162 16.979 27.6534C17.1307 27.5907 17.2685 27.4986 17.3846 27.3825C17.5007 27.2664 17.5928 27.1286 17.6556 26.9769C17.7183 26.8252 17.7506 26.6626 17.7505 26.4984V19.6234C17.7505 19.2919 17.8822 18.9739 18.1166 18.7395C18.351 18.5051 18.669 18.3734 19.0005 18.3734C19.332 18.3734 19.65 18.5051 19.8844 18.7395C20.1188 18.9739 20.2505 19.2919 20.2505 19.6234V26.4984C20.2504 26.6626 20.2827 26.8252 20.3455 26.9769C20.4083 27.1286 20.5003 27.2664 20.6164 27.3825C20.7325 27.4986 20.8703 27.5907 21.022 27.6534C21.1737 27.7162 21.3363 27.7485 21.5005 27.7484H26.5005C26.6647 27.7485 26.8273 27.7162 26.979 27.6534C27.1307 27.5907 27.2685 27.4986 27.3846 27.3825C27.5007 27.2664 27.5928 27.1286 27.6556 26.9769C27.7183 26.8252 27.7506 26.6626 27.7505 26.4984V17.1234C27.7482 15.3007 27.0232 13.5534 25.7344 12.2645C24.4455 10.9757 22.6982 10.2507 20.8755 10.2484V10.2484ZM25.2505 25.2484H22.7505V19.6234C22.7505 18.6288 22.3554 17.675 21.6522 16.9717C20.9489 16.2685 19.9951 15.8734 19.0005 15.8734C18.006 15.8734 17.0521 16.2685 16.3489 16.9717C15.6456 17.675 15.2505 18.6288 15.2505 19.6234V25.2484H12.7505V12.7484H15.2505V13.6273C15.2507 13.8863 15.3312 14.1389 15.4811 14.3501C15.6309 14.5614 15.8427 14.7209 16.0871 14.8066C16.3314 14.8924 16.5964 14.9001 16.8454 14.8288C17.0944 14.7575 17.3151 14.6107 17.4771 14.4086C18.038 13.6961 18.8075 13.1766 19.678 12.9226C20.5485 12.6686 21.4766 12.6928 22.3327 12.9918C23.1888 13.2908 23.9301 13.8496 24.4532 14.5903C24.9763 15.331 25.2551 16.2166 25.2505 17.1234V25.2484ZM7.75051 10.2484H2.75051C2.58633 10.2483 2.42375 10.2806 2.27205 10.3434C2.12035 10.4061 1.98251 10.4982 1.86642 10.6143C1.75033 10.7304 1.65826 10.8682 1.59547 11.0199C1.53269 11.1716 1.50042 11.3342 1.50051 11.4984V26.4984C1.50042 26.6626 1.53268 26.8252 1.59547 26.9769C1.65825 27.1286 1.75032 27.2664 1.86642 27.3825C1.98251 27.4986 2.12035 27.5907 2.27205 27.6534C2.42375 27.7162 2.58633 27.7485 2.75051 27.7484H7.75051C7.91469 27.7485 8.07728 27.7162 8.22898 27.6534C8.38068 27.5907 8.51852 27.4986 8.63461 27.3825C8.7507 27.2664 8.84277 27.1286 8.90556 26.9769C8.96834 26.8252 9.00061 26.6626 9.00051 26.4984V11.4984C9.00061 11.3342 8.96834 11.1716 8.90555 11.0199C8.84277 10.8682 8.7507 10.7304 8.63461 10.6143C8.51851 10.4982 8.38068 10.4061 8.22898 10.3434C8.07728 10.2806 7.91469 10.2483 7.75051 10.2484V10.2484ZM6.50051 25.2484H4.00051V12.7484H6.50051V25.2484ZM5.26883 0.927142C4.72178 0.894397 4.17378 0.973264 3.65817 1.15895C3.14256 1.34463 2.6701 1.63325 2.26953 2.00726C1.86897 2.38126 1.54866 2.83284 1.32809 3.33452C1.10752 3.8362 0.991292 4.3775 0.986484 4.92551C0.981676 5.47351 1.08838 6.01677 1.30012 6.52225C1.51185 7.02772 1.82419 7.48484 2.21813 7.86582C2.61208 8.24679 3.0794 8.54366 3.59167 8.73836C4.10395 8.93307 4.65047 9.02154 5.19801 8.99839H5.23341C5.78191 9.03097 6.33129 8.95137 6.84798 8.76446C7.36468 8.57754 7.83783 8.28724 8.23854 7.91128C8.63925 7.53532 8.95909 7.08161 9.17852 6.57787C9.39796 6.07412 9.51237 5.53092 9.51478 4.98147C9.51719 4.43201 9.40754 3.88783 9.19254 3.38218C8.97753 2.87653 8.66168 2.42003 8.26429 2.04057C7.86689 1.66112 7.3963 1.36667 6.88127 1.17523C6.36623 0.983792 5.81757 0.899376 5.26881 0.927142H5.26883ZM5.23343 6.49839H5.19801C4.98185 6.52464 4.76257 6.50437 4.55488 6.43893C4.34719 6.37349 4.15589 6.2644 3.99382 6.11897C3.83174 5.97355 3.70264 5.79515 3.61515 5.59574C3.52767 5.39633 3.48384 5.18052 3.4866 4.96278C3.4866 4.03016 4.18606 3.42713 5.26883 3.42713C5.4872 3.39802 5.70927 3.41604 5.92009 3.47999C6.13092 3.54393 6.32559 3.65231 6.49099 3.79782C6.6564 3.94333 6.78871 4.1226 6.879 4.32356C6.96929 4.52451 7.01547 4.74248 7.01443 4.96278C7.01443 5.89539 6.31496 6.49839 5.23343 6.49839Z" fill="black"/>
</svg>
