<svg width="220" height="79" viewBox="0 0 220 79" fill="none" xmlns="http://www.w3.org/2000/svg">
<g filter="url(#filter0_d)">
<path d="M38.772 51.1099L27.6421 37.063V51.736C27.6421 52.2549 27.4356 52.7525 27.0681 53.1194C26.7007 53.4863 26.2023 53.6924 25.6826 53.6924H20V20.6488C20 20.1299 20.2065 19.6323 20.5739 19.2654C20.9414 18.8985 21.4398 18.6924 21.9595 18.6924H27.7204V35.0674L38.3606 21.7248C39.1128 20.7793 40.0691 20.0155 41.1582 19.4904C42.2473 18.9653 43.4411 18.6925 44.6506 18.6924H49.7257L35.774 35.9087L50 53.5163H43.9843C42.9914 53.5245 42.0091 53.313 41.1078 52.8969C40.2066 52.4808 39.4089 51.8706 38.772 51.1099Z" fill="white"/>
<path d="M47.6914 40.585C47.6914 32.2174 53.3125 26.7706 59.1274 26.7706C60.8156 26.7402 62.4828 27.1549 63.967 27.9745C65.4513 28.794 66.702 29.9905 67.5978 31.4478V31.4478C67.8212 30.3334 68.416 29.3318 69.2813 28.6126C70.1467 27.8933 71.2296 27.5006 72.3467 27.5008H74.6145V50.9064C74.6145 51.2786 74.5422 51.6472 74.4017 51.9909C74.2612 52.3346 74.0553 52.6466 73.7958 52.9089C73.5364 53.1712 73.2285 53.3787 72.89 53.5193C72.5515 53.66 72.189 53.7311 71.8233 53.7285H68.3344L67.5978 49.7815C66.7092 51.2455 65.4599 52.4474 63.974 53.2678C62.4881 54.0883 60.8173 54.4988 59.1274 54.4587C53.3125 54.2613 47.6914 48.775 47.6914 40.585ZM67.3071 40.585C67.3071 36.4999 64.7485 33.6186 61.3177 33.6186C59.6947 33.8692 58.2137 34.7038 57.1434 35.9711C56.0732 37.2385 55.4847 38.8545 55.4847 40.5258C55.4847 42.1972 56.0732 43.8132 57.1434 45.0805C58.2137 46.3478 59.6947 47.1825 61.3177 47.433C62.1654 47.4017 62.998 47.1948 63.7646 46.8249C64.5311 46.455 65.2156 45.9298 65.7761 45.2816C66.3367 44.6333 66.7615 43.8754 67.0247 43.0544C67.288 42.2333 67.384 41.3662 67.3071 40.5061V40.585Z" fill="white"/>
<path d="M128.678 36.7424H128.54L123.729 53.6922H115.055L108.076 27.5975H113.636C114.303 27.5998 114.95 27.8295 115.47 28.2487C115.99 28.6678 116.351 29.2515 116.494 29.9034L119.905 45.6706H120.043L124.991 27.5383H132.266L137.115 45.6706H137.253L141.354 27.5383H148.845L141.827 53.6331H133.251L128.678 36.7424Z" fill="white"/>
<path d="M152.31 20.0514C152.306 19.5023 152.418 18.9584 152.639 18.453C152.86 17.9476 153.186 17.4914 153.595 17.1125C154.005 16.7336 154.49 16.44 155.021 16.2496C155.552 16.0593 156.117 15.9763 156.682 16.0058C157.684 16.0396 158.641 16.4175 159.382 17.0721C160.124 17.7267 160.602 18.6155 160.731 19.58C160.81 20.1411 160.769 20.7121 160.61 21.257C160.451 21.802 160.178 22.3091 159.807 22.7466C159.436 23.184 158.976 23.5423 158.456 23.7988C157.935 24.0554 157.366 24.2047 156.783 24.2373C156.2 24.2699 155.617 24.1852 155.069 23.9884C154.522 23.7916 154.022 23.4871 153.602 23.0939C153.182 22.7007 152.85 22.2274 152.628 21.7038C152.405 21.1802 152.297 20.6176 152.31 20.0514V20.0514ZM155.245 27.6908H160.427V50.8644C160.422 51.6128 160.113 52.3291 159.567 52.8583C159.022 53.3876 158.283 53.6872 157.512 53.6923H152.694V30.126C152.705 29.4765 152.978 28.8572 153.455 28.4016C153.933 27.946 154.575 27.6907 155.245 27.6908V27.6908Z" fill="white"/>
<path d="M175.843 46.8574H186.681V53.6922H164.23L176.444 34.3336H165.898V27.5383H188.077L175.843 46.8574Z" fill="white"/>
<path d="M86.6104 31.4828C87.4992 30.1085 88.7151 28.9799 90.1472 28.2C91.5794 27.42 93.1824 27.0133 94.8103 27.017C100.824 27.017 106.154 32.368 106.154 40.6898C106.154 49.0115 100.55 54.461 94.537 54.461C92.8597 54.4791 91.2061 54.0614 89.7356 53.2482C88.2651 52.4349 87.0274 51.2536 86.1418 49.8181L85.8099 51.5887C85.688 52.2138 85.3548 52.7769 84.8671 53.1823C84.3794 53.5876 83.7674 53.8101 83.1352 53.8118H79.2305V19.9346C79.2305 18.8911 79.6419 17.8903 80.3741 17.1524C81.1064 16.4146 82.0996 16 83.1352 16H86.6104V31.4828ZM86.6104 40.6898C86.6104 44.7818 89.1289 47.595 92.6237 47.595C93.4791 47.5744 94.3212 47.3768 95.0978 47.0147C95.8744 46.6525 96.5689 46.1335 97.1382 45.4898C97.7074 44.846 98.1394 44.0913 98.4073 43.2724C98.6752 42.4535 98.7733 41.5878 98.6955 40.7291C98.7703 39.8639 98.6693 38.9924 98.3987 38.1678C98.1281 37.3431 97.6937 36.5827 97.1219 35.9329C96.55 35.283 95.8528 34.7574 95.0727 34.388C94.2927 34.0187 93.4461 33.8133 92.5846 33.7845C89.0313 33.7845 86.5128 36.6568 86.5128 40.6898H86.6104Z" fill="white"/>
<path d="M191.943 20.0504C191.943 19.5022 192.052 18.9596 192.264 18.4555C192.476 17.9514 192.786 17.4963 193.177 17.118C193.567 16.7396 194.029 16.4458 194.534 16.2545C195.04 16.0631 195.578 15.9782 196.117 16.0048C197.073 16.0425 197.984 16.4217 198.691 17.0756C199.398 17.7295 199.855 18.6161 199.982 19.5791C200.034 20.1289 199.977 20.6837 199.813 21.2103C199.649 21.7369 199.382 22.2245 199.028 22.6439C198.675 23.0632 198.241 23.4057 197.754 23.6508C197.267 23.8959 196.737 24.0386 196.194 24.0703C195.651 24.1021 195.108 24.0222 194.597 23.8355C194.085 23.6488 193.616 23.3591 193.217 22.9837C192.819 22.6084 192.499 22.1551 192.276 21.6511C192.054 21.1471 191.934 20.6027 191.924 20.0504H191.943ZM199.673 27.6901V46.1902C199.673 48.1799 198.895 50.0881 197.511 51.495C196.126 52.9019 194.249 53.6923 192.291 53.6923V53.6923V35.2119C192.288 34.2234 192.478 33.2441 192.849 32.3303C193.22 31.4166 193.765 30.5864 194.453 29.8874C195.141 29.1884 195.958 28.6344 196.857 28.2574C197.756 27.8803 198.72 27.6875 199.692 27.6901H199.673Z" fill="#FFED91"/>
</g>
<defs>
<filter id="filter0_d" x="0" y="0" width="220.001" height="78.4615" filterUnits="userSpaceOnUse" color-interpolation-filters="sRGB">
<feFlood flood-opacity="0" result="BackgroundImageFix"/>
<feColorMatrix in="SourceAlpha" type="matrix" values="0 0 0 0 0 0 0 0 0 0 0 0 0 0 0 0 0 0 127 0"/>
<feOffset dy="4"/>
<feGaussianBlur stdDeviation="10"/>
<feColorMatrix type="matrix" values="0 0 0 0 0.620833 0 0 0 0 0.620833 0 0 0 0 0.620833 0 0 0 0.25 0"/>
<feBlend mode="normal" in2="BackgroundImageFix" result="effect1_dropShadow"/>
<feBlend mode="normal" in="SourceGraphic" in2="effect1_dropShadow" result="shape"/>
</filter>
</defs>
</svg>
