<svg width="204" height="55" viewBox="0 0 204 55" fill="none" xmlns="http://www.w3.org/2000/svg">
<g filter="url(#filter0_d)">
<path d="M23.5229 38.1099L11.9477 24.063V38.736C11.9477 39.2548 11.733 39.7525 11.3509 40.1194C10.9687 40.4863 10.4503 40.6924 9.90986 40.6924H4V7.64877C4 7.1299 4.21471 6.63228 4.59689 6.26539C4.97907 5.89849 5.4974 5.69237 6.03788 5.69237H12.0293V22.0674L23.095 8.7248C23.8773 7.77924 24.8718 7.01545 26.0045 6.49038C27.1372 5.96532 28.3788 5.69253 29.6366 5.69237H34.9147L20.405 22.9087L35.2 40.5163H28.9437C27.9111 40.5245 26.8894 40.3129 25.9521 39.8969C25.0148 39.4808 24.1852 38.8705 23.5229 38.1099Z" fill="white"/>
<path d="M32.7988 27.5851C32.7988 19.2175 38.6448 13.7707 44.6923 13.7707C46.448 13.7403 48.1819 14.155 49.7255 14.9746C51.2691 15.7941 52.5699 16.9907 53.5015 18.4479V18.4479C53.7339 17.3335 54.3524 16.3319 55.2524 15.6127C56.1523 14.8934 57.2785 14.5007 58.4403 14.5009H60.7988V37.9065C60.7989 38.2787 60.7236 38.6473 60.5775 38.991C60.4314 39.3347 60.2172 39.6467 59.9474 39.909C59.6776 40.1713 59.3574 40.3788 59.0054 40.5194C58.6533 40.6601 58.2763 40.7312 57.896 40.7286H54.2675L53.5015 36.7816C52.5773 38.2456 51.2781 39.4475 49.7327 40.2679C48.1874 41.0884 46.4498 41.4989 44.6923 41.4588C38.6448 41.2614 32.7988 35.7751 32.7988 27.5851ZM53.1991 27.5851C53.1991 23.5 50.5382 20.6187 46.9702 20.6187C45.2822 20.8693 43.742 21.7039 42.6289 22.9712C41.5159 24.2386 40.9038 25.8546 40.9038 27.5259C40.9038 29.1973 41.5159 30.8133 42.6289 32.0806C43.742 33.3479 45.2822 34.1826 46.9702 34.4331C47.8518 34.4018 48.7177 34.1949 49.5149 33.825C50.3122 33.4551 51.024 32.9299 51.607 32.2817C52.1899 31.6334 52.6318 30.8755 52.9055 30.0545C53.1793 29.2334 53.2792 28.3663 53.1991 27.5062V27.5851Z" fill="white"/>
<path d="M117.025 23.7426H116.882L111.879 40.6923H102.858L95.5996 14.5976H101.381C102.076 14.5999 102.749 14.8296 103.289 15.2488C103.829 15.668 104.205 16.2516 104.354 16.9035L107.901 32.6707H108.045L113.191 14.5384H120.757L125.8 32.6707H125.944L130.208 14.5384H138L130.701 40.6332H121.782L117.025 23.7426Z" fill="white"/>
<path d="M141.603 7.05135C141.599 6.50233 141.716 5.95842 141.946 5.45302C142.175 4.94763 142.514 4.49145 142.94 4.11253C143.366 3.73361 143.87 3.43996 144.422 3.24964C144.974 3.05932 145.562 2.97633 146.15 3.0058C147.192 3.03961 148.187 3.4175 148.958 4.0721C149.73 4.72671 150.226 5.6155 150.36 6.58003C150.443 7.1411 150.401 7.71207 150.235 8.25703C150.07 8.80199 149.786 9.30914 149.4 9.74659C149.014 10.184 148.536 10.5423 147.995 10.7988C147.453 11.0554 146.861 11.2047 146.255 11.2373C145.649 11.2699 145.042 11.1852 144.473 10.9884C143.903 10.7916 143.384 10.4871 142.947 10.0939C142.51 9.7007 142.165 9.22742 141.934 8.70381C141.702 8.18019 141.59 7.61758 141.603 7.05135V7.05135ZM144.655 14.6908H150.045V37.8644C150.039 38.6128 149.718 39.3291 149.151 39.8583C148.583 40.3876 147.815 40.6872 147.013 40.6923H142.003V17.126C142.014 16.4765 142.298 15.8572 142.794 15.4016C143.291 14.946 143.959 14.6907 144.655 14.6908V14.6908Z" fill="white"/>
<path d="M166.077 33.8575H177.348V40.6923H154L166.702 21.3337H155.734V14.5384H178.8L166.077 33.8575Z" fill="white"/>
<path d="M73.2747 18.4828C74.1991 17.1085 75.4636 15.9799 76.953 15.2C78.4425 14.42 80.1096 14.0133 81.8027 14.017C88.0565 14.017 93.5996 19.368 93.5996 27.6898C93.5996 36.0115 87.7722 41.461 81.5184 41.461C79.774 41.4791 78.0542 41.0614 76.5249 40.2482C74.9956 39.4349 73.7084 38.2536 72.7874 36.8181L72.4423 38.5887C72.3155 39.2138 71.9689 39.7769 71.4617 40.1823C70.9545 40.5876 70.318 40.8101 69.6605 40.8118H65.5996V6.93463C65.5996 5.8911 66.0275 4.89032 66.789 4.15244C67.5506 3.41455 68.5835 3 69.6605 3H73.2747V18.4828ZM73.2747 27.6898C73.2747 31.7818 75.894 34.595 79.5285 34.595C80.4182 34.5744 81.294 34.3768 82.1016 34.0147C82.9093 33.6525 83.6315 33.1335 84.2236 32.4898C84.8157 31.846 85.2649 31.0913 85.5435 30.2724C85.8221 29.4535 85.9242 28.5878 85.8433 27.7291C85.921 26.8639 85.8159 25.9924 85.5346 25.1678C85.2532 24.3431 84.8014 23.5827 84.2067 22.9329C83.612 22.283 82.8868 21.7574 82.0756 21.388C81.2643 21.0187 80.3838 20.8133 79.4879 20.7845C75.7925 20.7845 73.1732 23.6568 73.1732 27.6898H73.2747Z" fill="white"/>
<path d="M182.821 7.05043C182.82 6.50221 182.934 5.95958 183.154 5.45548C183.375 4.95139 183.698 4.49634 184.104 4.11798C184.51 3.73962 184.99 3.44583 185.516 3.25447C186.042 3.06311 186.602 2.97816 187.162 3.00477C188.155 3.04246 189.103 3.42169 189.839 4.0756C190.574 4.7295 191.05 5.6161 191.181 6.5791C191.236 7.12888 191.176 7.68369 191.005 8.2103C190.835 8.73692 190.557 9.2245 190.189 9.64385C189.822 10.0632 189.371 10.4057 188.864 10.6508C188.358 10.8959 187.806 11.0386 187.242 11.0703C186.677 11.1021 186.112 11.0222 185.58 10.8355C185.049 10.6488 184.561 10.3591 184.146 9.98374C183.731 9.6084 183.398 9.15515 183.167 8.65112C182.936 8.14709 182.812 7.60266 182.801 7.05043H182.821ZM190.86 14.6901V33.1902C190.86 35.1799 190.051 37.0881 188.611 38.495C187.171 39.9019 185.219 40.6923 183.183 40.6923V40.6923V22.2119C183.18 21.2234 183.377 20.2441 183.763 19.3303C184.149 18.4166 184.716 17.5864 185.431 16.8874C186.146 16.1884 186.996 15.6344 187.931 15.2574C188.866 14.8803 189.868 14.6875 190.88 14.6901H190.86Z" fill="#FFED91"/>
</g>
<defs>
<filter id="filter0_d" x="0" y="0" width="203.201" height="54.4615" filterUnits="userSpaceOnUse" color-interpolation-filters="sRGB">
<feFlood flood-opacity="0" result="BackgroundImageFix"/>
<feColorMatrix in="SourceAlpha" type="matrix" values="0 0 0 0 0 0 0 0 0 0 0 0 0 0 0 0 0 0 127 0"/>
<feOffset dx="4" dy="5"/>
<feGaussianBlur stdDeviation="4"/>
<feColorMatrix type="matrix" values="0 0 0 0 0 0 0 0 0 0 0 0 0 0 0 0 0 0 0.1 0"/>
<feBlend mode="normal" in2="BackgroundImageFix" result="effect1_dropShadow"/>
<feBlend mode="normal" in="SourceGraphic" in2="effect1_dropShadow" result="shape"/>
</filter>
</defs>
</svg>
