<svg width="32" height="42" viewBox="0 0 32 42" fill="none" xmlns="http://www.w3.org/2000/svg">
<g filter="url(#filter0_d)">
<path d="M13.184 32.15L12.934 31.95C12.8411 31.887 12.7402 31.8365 12.634 31.8L12.334 31.6667C12.0637 31.6102 11.7836 31.6217 11.5189 31.7003C11.2541 31.7788 11.0131 31.9219 10.8173 32.1167C10.6701 32.2787 10.5517 32.4647 10.4673 32.6667C10.3412 32.9704 10.3077 33.3046 10.3711 33.6272C10.4345 33.9499 10.5919 34.2466 10.8235 34.48C11.0551 34.7134 11.3506 34.8731 11.6728 34.9389C11.9949 35.0048 12.3294 34.9738 12.634 34.85C12.8331 34.7534 13.0182 34.63 13.184 34.4834C13.4152 34.249 13.5719 33.9514 13.6342 33.6281C13.6965 33.3047 13.6616 32.9702 13.534 32.6667C13.4509 32.474 13.3321 32.2987 13.184 32.15V32.15ZM18.6673 8.33337H5.33398C4.0079 8.33337 2.73613 8.86016 1.79845 9.79784C0.860769 10.7355 0.333984 12.0073 0.333984 13.3334V36.6667C0.333984 37.9928 0.860769 39.2646 1.79845 40.2022C2.73613 41.1399 4.0079 41.6667 5.33398 41.6667H18.6673C19.9934 41.6667 21.2652 41.1399 22.2029 40.2022C23.1405 39.2646 23.6673 37.9928 23.6673 36.6667V13.3334C23.6673 12.0073 23.1405 10.7355 22.2029 9.79784C21.2652 8.86016 19.9934 8.33337 18.6673 8.33337ZM20.334 36.6667C20.334 37.1087 20.1584 37.5327 19.8458 37.8452C19.5333 38.1578 19.1093 38.3334 18.6673 38.3334H5.33398C4.89196 38.3334 4.46803 38.1578 4.15547 37.8452C3.84291 37.5327 3.66732 37.1087 3.66732 36.6667V13.3334C3.66732 12.8913 3.84291 12.4674 4.15547 12.1549C4.46803 11.8423 4.89196 11.6667 5.33398 11.6667H18.6673C19.1093 11.6667 19.5333 11.8423 19.8458 12.1549C20.1584 12.4674 20.334 12.8913 20.334 13.3334V36.6667Z" fill="url(#paint0_linear)"/>
</g>
<defs>
<filter id="filter0_d" x="0.333984" y="0.333374" width="31.3333" height="41.3333" filterUnits="userSpaceOnUse" color-interpolation-filters="sRGB">
<feFlood flood-opacity="0" result="BackgroundImageFix"/>
<feColorMatrix in="SourceAlpha" type="matrix" values="0 0 0 0 0 0 0 0 0 0 0 0 0 0 0 0 0 0 127 0"/>
<feOffset dx="4" dy="-4"/>
<feGaussianBlur stdDeviation="2"/>
<feColorMatrix type="matrix" values="0 0 0 0 0.698039 0 0 0 0 0.968627 0 0 0 0 0.388235 0 0 0 0.25 0"/>
<feBlend mode="normal" in2="BackgroundImageFix" result="effect1_dropShadow"/>
<feBlend mode="normal" in="SourceGraphic" in2="effect1_dropShadow" result="shape"/>
</filter>
<linearGradient id="paint0_linear" x1="23.6673" y1="8.33337" x2="0.343696" y2="27.4281" gradientUnits="userSpaceOnUse">
<stop stop-color="#B2F763"/>
<stop offset="1" stop-color="#26AB3F"/>
</linearGradient>
</defs>
</svg>
