<svg width="95" height="91" viewBox="0 0 95 91" fill="none" xmlns="http://www.w3.org/2000/svg">
<g filter="url(#filter0_di)">
<path d="M78.4577 78.2917C78.4577 85.805 68.6927 90.6875 57.2077 90.6875C49.9304 90.6875 43.3437 88.7272 39.4942 85.3795C35.6519 88.7282 29.0666 90.6875 21.791 90.6875C10.6164 90.6875 1.07011 86.0654 0.562256 78.895L0.541016 78.2917V28.7083L0.562256 28.105C1.07011 20.9346 10.6163 16.3125 21.791 16.3125C33.2761 16.3125 43.041 21.195 43.041 28.7083L43.0391 44.0807C46.8358 42.1732 51.8334 41.1042 57.2077 41.1042C68.6928 41.1042 78.4577 45.9866 78.4577 53.5V53.4858V78.2917ZM21.791 78.2917C16.4176 78.2917 11.4208 77.2229 7.62431 75.3161L7.62435 78.2917C7.62435 80.5583 13.716 83.6042 21.791 83.6042C29.5775 83.6042 35.52 80.772 35.9346 78.5373L35.9577 78.2917L35.9631 75.3134C32.1659 77.2219 27.1669 78.2917 21.791 78.2917ZM57.2077 78.2917C51.8343 78.2917 46.8375 77.2229 43.041 75.3161L43.041 78.2917C43.041 80.5583 49.1328 83.6042 57.2077 83.6042C64.9942 83.6042 70.9367 80.772 71.3512 78.5373L71.3743 78.2917L71.3797 75.3134C67.5826 77.2219 62.5836 78.2917 57.2077 78.2917ZM21.791 65.8958C16.4176 65.8958 11.4208 64.8271 7.62431 62.9202L7.62435 65.8958C7.62435 68.1625 13.716 71.2083 21.791 71.2083C29.5775 71.2083 35.52 68.3761 35.9346 66.1415L35.9577 65.8958L35.9631 62.9175C32.1659 64.8261 27.1669 65.8958 21.791 65.8958ZM71.3798 62.9175C67.5826 64.8261 62.5836 65.8958 57.2077 65.8958C51.8334 65.8958 46.8358 64.8268 43.0391 62.9193L43.041 65.8958C43.041 68.1625 49.1328 71.2083 57.2077 71.2083C64.9942 71.2083 70.9367 68.3761 71.3512 66.1415L71.3743 65.8958L71.3798 62.9175ZM21.791 53.5C16.4176 53.5 11.4208 52.4313 7.62431 50.5244L7.62435 53.5C7.62435 55.7666 13.716 58.8125 21.791 58.8125C29.5775 58.8125 35.52 55.9803 35.9346 53.7457L35.9577 53.5L35.9631 50.5217C32.1659 52.4303 27.1669 53.5 21.791 53.5ZM57.2077 48.1875C49.1327 48.1875 43.041 51.2333 43.041 53.5C43.041 55.7667 49.1327 58.8125 57.2077 58.8125C65.2827 58.8125 71.3743 55.7667 71.3743 53.5C71.3743 51.2333 65.2827 48.1875 57.2077 48.1875ZM35.9631 38.1259C32.166 40.0344 27.1669 41.1042 21.791 41.1042C16.4168 41.1042 11.4192 40.0351 7.62248 38.1277L7.62435 41.1042C7.62435 43.3708 13.716 46.4167 21.791 46.4167C29.5775 46.4167 35.52 43.5845 35.9346 41.3498L35.9577 41.1042L35.9631 38.1259ZM21.791 23.3958C13.716 23.3958 7.62435 26.4417 7.62435 28.7083C7.62435 30.975 13.716 34.0208 21.791 34.0208C29.866 34.0208 35.9577 30.975 35.9577 28.7083C35.9577 26.4417 29.866 23.3958 21.791 23.3958Z" fill="url(#paint0_linear)"/>
</g>
<defs>
<filter id="filter0_di" x="-9.45898" y="0.3125" width="103.917" height="100.375" filterUnits="userSpaceOnUse" color-interpolation-filters="sRGB">
<feFlood flood-opacity="0" result="BackgroundImageFix"/>
<feColorMatrix in="SourceAlpha" type="matrix" values="0 0 0 0 0 0 0 0 0 0 0 0 0 0 0 0 0 0 127 0"/>
<feOffset dx="8" dy="-8"/>
<feGaussianBlur stdDeviation="4"/>
<feColorMatrix type="matrix" values="0 0 0 0 0.984314 0 0 0 0 0.513726 0 0 0 0 0.513726 0 0 0 0.2 0"/>
<feBlend mode="normal" in2="BackgroundImageFix" result="effect1_dropShadow"/>
<feBlend mode="normal" in="SourceGraphic" in2="effect1_dropShadow" result="shape"/>
<feColorMatrix in="SourceAlpha" type="matrix" values="0 0 0 0 0 0 0 0 0 0 0 0 0 0 0 0 0 0 127 0" result="hardAlpha"/>
<feOffset dx="-10" dy="10"/>
<feGaussianBlur stdDeviation="10"/>
<feComposite in2="hardAlpha" operator="arithmetic" k2="-1" k3="1"/>
<feColorMatrix type="matrix" values="0 0 0 0 1 0 0 0 0 1 0 0 0 0 1 0 0 0 0.24 0"/>
<feBlend mode="normal" in2="shape" result="effect2_innerShadow"/>
</filter>
<linearGradient id="paint0_linear" x1="0.541016" y1="53.5" x2="78.4577" y2="53.5" gradientUnits="userSpaceOnUse">
<stop stop-color="#FB8383"/>
<stop offset="1" stop-color="#FE5196"/>
<stop offset="1" stop-color="#FE5196"/>
</linearGradient>
</defs>
</svg>
