<svg width="85" height="88" viewBox="0 0 85 88" fill="none" xmlns="http://www.w3.org/2000/svg">
<g filter="url(#filter0_di)">
<path d="M55.4806 20.9807C55.3078 21.3984 55.0516 21.7898 54.712 22.1293L6.89952 69.9418C5.51641 71.3249 3.27395 71.3249 1.89085 69.9418C0.507739 68.5587 0.507739 66.3163 1.89085 64.9331L43.6573 23.1666H33.6139C31.6579 23.1666 30.0723 21.581 30.0723 19.625C30.0723 17.669 31.6579 16.0833 33.6139 16.0833H52.2071C52.6873 16.0833 53.1458 16.1789 53.5634 16.3521C53.9811 16.5249 54.3725 16.7811 54.712 17.1206C55.4009 17.8095 55.7466 18.7115 55.7493 19.6144C55.7493 19.6179 55.7493 19.6214 55.7493 19.625C55.7493 19.6285 55.7493 19.6321 55.7493 19.6356C55.7479 20.1119 55.6525 20.5662 55.4806 20.9807Z" fill="url(#paint0_linear)"/>
<path d="M68.1452 28.4273C68.1452 26.4713 66.5595 24.8856 64.6035 24.8856C62.6475 24.8856 61.0618 26.4713 61.0618 28.4273V83.5225C61.0618 85.4785 62.6475 87.0642 64.6035 87.0642C66.5595 87.0642 68.1452 85.4785 68.1452 83.5225V28.4273Z" fill="url(#paint1_linear)"/>
<path d="M50.4368 39.035C52.3929 39.035 53.9785 40.6206 53.9785 42.5766V83.5296C53.9785 85.4857 52.3929 87.0713 50.4368 87.0713C48.4808 87.0713 46.8952 85.4857 46.8952 83.5296V42.5766C46.8952 40.6206 48.4808 39.035 50.4368 39.035Z" fill="url(#paint2_linear)"/>
<path d="M39.8118 56.8125C39.8118 54.8565 38.2262 53.2708 36.2702 53.2708C34.3142 53.2708 32.7285 54.8565 32.7285 56.8125V83.5014C32.7285 85.4574 34.3142 87.0431 36.2702 87.0431C38.2262 87.0431 39.8118 85.4574 39.8118 83.5014V56.8125Z" fill="url(#paint3_linear)"/>
<path d="M22.1035 65.5785C24.0595 65.5785 25.6452 67.1641 25.6452 69.1201V83.5701C25.6452 85.5261 24.0595 87.1118 22.1035 87.1118C20.1475 87.1118 18.5618 85.5261 18.5618 83.5701V69.1201C18.5618 67.1641 20.1475 65.5785 22.1035 65.5785Z" fill="url(#paint4_linear)"/>
<path d="M7.93685 76.2916C9.89286 76.2916 11.4785 77.8773 11.4785 79.8333V83.4734C11.4785 85.4294 9.89286 87.0151 7.93685 87.0151C5.98084 87.0151 4.39518 85.4294 4.39518 83.4734V79.8333C4.39518 77.8773 5.98084 76.2916 7.93685 76.2916Z" fill="url(#paint5_linear)"/>
</g>
<defs>
<filter id="filter0_di" x="-9.14648" y="0.083313" width="93.2917" height="97.0285" filterUnits="userSpaceOnUse" color-interpolation-filters="sRGB">
<feFlood flood-opacity="0" result="BackgroundImageFix"/>
<feColorMatrix in="SourceAlpha" type="matrix" values="0 0 0 0 0 0 0 0 0 0 0 0 0 0 0 0 0 0 127 0"/>
<feOffset dx="8" dy="-8"/>
<feGaussianBlur stdDeviation="4"/>
<feColorMatrix type="matrix" values="0 0 0 0 1 0 0 0 0 0.670588 0 0 0 0 0.282353 0 0 0 0.2 0"/>
<feBlend mode="normal" in2="BackgroundImageFix" result="effect1_dropShadow"/>
<feBlend mode="normal" in="SourceGraphic" in2="effect1_dropShadow" result="shape"/>
<feColorMatrix in="SourceAlpha" type="matrix" values="0 0 0 0 0 0 0 0 0 0 0 0 0 0 0 0 0 0 127 0" result="hardAlpha"/>
<feOffset dx="-10" dy="10"/>
<feGaussianBlur stdDeviation="10"/>
<feComposite in2="hardAlpha" operator="arithmetic" k2="-1" k3="1"/>
<feColorMatrix type="matrix" values="0 0 0 0 1 0 0 0 0 1 0 0 0 0 1 0 0 0 0.24 0"/>
<feBlend mode="normal" in2="shape" result="effect2_innerShadow"/>
</filter>
<linearGradient id="paint0_linear" x1="-4.32277" y1="-33.0902" x2="40.7846" y2="52.3782" gradientUnits="userSpaceOnUse">
<stop stop-color="#FFE974"/>
<stop offset="1" stop-color="#FF5C00"/>
</linearGradient>
<linearGradient id="paint1_linear" x1="-4.32277" y1="-33.0902" x2="40.7846" y2="52.3782" gradientUnits="userSpaceOnUse">
<stop stop-color="#FFE974"/>
<stop offset="1" stop-color="#FF5C00"/>
</linearGradient>
<linearGradient id="paint2_linear" x1="-4.32277" y1="-33.0902" x2="40.7846" y2="52.3782" gradientUnits="userSpaceOnUse">
<stop stop-color="#FFE974"/>
<stop offset="1" stop-color="#FF5C00"/>
</linearGradient>
<linearGradient id="paint3_linear" x1="-4.32277" y1="-33.0902" x2="40.7846" y2="52.3782" gradientUnits="userSpaceOnUse">
<stop stop-color="#FFE974"/>
<stop offset="1" stop-color="#FF5C00"/>
</linearGradient>
<linearGradient id="paint4_linear" x1="-4.32277" y1="-33.0902" x2="40.7846" y2="52.3782" gradientUnits="userSpaceOnUse">
<stop stop-color="#FFE974"/>
<stop offset="1" stop-color="#FF5C00"/>
</linearGradient>
<linearGradient id="paint5_linear" x1="-4.32277" y1="-33.0902" x2="40.7846" y2="52.3782" gradientUnits="userSpaceOnUse">
<stop stop-color="#FFE974"/>
<stop offset="1" stop-color="#FF5C00"/>
</linearGradient>
</defs>
</svg>
