<svg width="79" height="79" viewBox="0 0 79 79" fill="none" xmlns="http://www.w3.org/2000/svg">
<path d="M77.0453 4.30269C76.8855 3.69608 76.5676 3.14274 76.124 2.69917C75.6804 2.2556 75.1271 1.93768 74.5205 1.77788C67.2552 -0.109164 59.6047 0.09408 52.4498 2.36421C45.295 4.63433 38.9268 8.87903 34.0784 14.6095L30.1297 19.2981L20.9044 17.0722C18.6616 16.2903 16.2116 16.3464 14.0069 17.23C11.8022 18.1137 9.99169 19.7652 8.90973 21.8796L1.11739 35.6918C0.844355 36.1756 0.688972 36.7168 0.663795 37.2718C0.638619 37.8267 0.744356 38.3798 0.972462 38.8864C1.20057 39.3929 1.54464 39.8387 1.97688 40.1876C2.40912 40.5366 2.91739 40.779 3.46063 40.8952L14.3433 43.2281C13.4214 46.0343 12.7632 48.9204 12.3771 51.8488C12.3071 52.3868 12.3616 52.9337 12.5364 53.4473C12.7112 53.9609 13.0016 54.4275 13.3852 54.8111L24.3647 65.7906C24.6935 66.1196 25.0838 66.3806 25.5135 66.5587C25.9431 66.7367 26.4036 66.8283 26.8687 66.8283C26.9707 66.8283 27.0728 66.8231 27.1765 66.8145C30.1705 66.5453 33.128 65.9637 36.0009 65.0791L38.2806 75.7153C38.397 76.2584 38.6396 76.7665 38.9886 77.1986C39.3377 77.6307 39.7834 77.9746 40.2898 78.2027C40.7963 78.4307 41.3493 78.5365 41.9042 78.5115C42.459 78.4865 43.0003 78.3313 43.4841 78.0586L57.3153 70.2576C59.2619 69.0747 60.7826 67.3042 61.6578 65.2012C62.5331 63.0982 62.7177 60.7716 62.1851 58.5569L59.8168 48.7855L64.198 44.7568C69.95 39.922 74.211 33.5534 76.4853 26.3919C78.7597 19.2304 78.9538 11.5703 77.0453 4.30269V4.30269ZM9.65164 34.9776L15.163 25.2034C15.5053 24.5399 16.0885 24.0324 16.7931 23.7851C17.4976 23.5379 18.27 23.5695 18.9519 23.8736L25.0344 25.3476L22.7324 28.081C20.5498 30.6968 18.6622 33.5451 17.1035 36.5744L9.65164 34.9776ZM53.817 64.0977L44.1984 69.5225L42.6773 62.4227C45.7607 60.8849 48.6335 58.9568 51.2247 56.6857L53.858 54.2644L55.2869 60.1599C55.4722 60.8879 55.4308 61.6551 55.1681 62.3588C54.9054 63.0626 54.434 63.6693 53.817 64.0977V64.0977ZM59.5341 39.4289L46.4846 51.4218C41.3193 55.8889 34.9481 58.7282 28.1727 59.5825L19.6575 51.0673C20.8012 44.2744 23.7365 37.9095 28.1606 32.6294L34.1048 25.572C34.2038 25.4684 34.2962 25.3587 34.3815 25.2434L39.4635 19.2096C43.2211 14.7715 48.0892 11.4101 53.5708 9.46872C59.0523 7.52731 64.9508 7.0754 70.6641 8.15914C71.774 13.8903 71.327 19.8143 69.3694 25.314C67.4119 30.8137 64.0156 35.6879 59.5341 39.4289V39.4289ZM56.2652 17.599C55.2145 17.599 54.1873 17.9105 53.3137 18.4943C52.4401 19.078 51.7592 19.9077 51.3571 20.8785C50.955 21.8492 50.8498 22.9174 51.0548 23.9479C51.2597 24.9784 51.7657 25.925 52.5087 26.668C53.2516 27.4109 54.1982 27.9169 55.2288 28.1219C56.2593 28.3269 57.3275 28.2217 58.2982 27.8196C59.2689 27.4175 60.0986 26.7366 60.6824 25.8629C61.2661 24.9893 61.5777 23.9622 61.5777 22.9115C61.5777 22.2138 61.4403 21.5229 61.1734 20.8784C60.9064 20.2338 60.5151 19.6481 60.0217 19.1548C59.5284 18.6614 58.9427 18.2701 58.2981 18.0032C57.6536 17.7362 56.9627 17.5988 56.265 17.5989L56.2652 17.599Z" fill="white"/>
</svg>
