<svg width="101" height="101" viewBox="0 0 101 101" fill="none" xmlns="http://www.w3.org/2000/svg">
<g filter="url(#filter0_d)">
<path d="M81.1401 78.9855L72.2881 69.9537C70.384 68.1505 67.9822 66.9558 65.3913 66.523C62.8004 66.0903 60.1389 66.4393 57.7486 67.5253L53.8999 63.691C58.4352 57.6538 60.5064 50.1291 59.6967 42.6317C58.8869 35.1342 55.2563 28.2207 49.5357 23.2829C43.815 18.3451 36.4292 15.7497 28.8649 16.0191C21.3007 16.2884 14.1197 19.4026 8.76755 24.7347C3.4154 30.0668 0.289503 37.2209 0.019122 44.7568C-0.251259 52.2927 2.35395 59.6509 7.31031 65.3501C12.2667 71.0493 19.2062 74.6663 26.7318 75.4731C34.2574 76.2798 41.8104 74.2163 47.8703 69.698L51.6763 73.4897C50.4579 75.8739 50.0212 78.5789 50.4279 81.2235C50.8345 83.868 52.0638 86.3188 53.9427 88.2303L63.0085 97.2622C65.4139 99.6556 68.6746 101 72.0743 101C75.474 101 78.7346 99.6556 81.1401 97.2622C82.362 96.0719 83.3329 94.6504 83.9957 93.0811C84.6586 91.5118 85 89.8264 85 88.1238C85 86.4213 84.6586 84.7359 83.9957 83.1666C83.3329 81.5973 82.362 80.1758 81.1401 78.9855ZM44.8769 60.9218C41.8845 63.8955 38.0746 65.9189 33.9284 66.7365C29.7823 67.5541 25.4859 67.1291 21.5821 65.5152C17.6783 63.9014 14.3421 61.1711 11.9951 57.6693C9.64802 54.1674 8.39538 50.0511 8.39538 45.8404C8.39538 41.6296 9.64802 37.5133 11.9951 34.0115C14.3421 30.5096 17.6783 27.7793 21.5821 26.1655C25.4859 24.5517 29.7823 24.1267 33.9284 24.9442C38.0746 25.7618 41.8845 27.7852 44.8769 30.7589C46.8681 32.7376 48.4479 35.0883 49.5258 37.6762C50.6037 40.2641 51.1586 43.0385 51.1586 45.8404C51.1586 48.6423 50.6037 51.4166 49.5258 54.0045C48.4479 56.5925 46.8681 58.9431 44.8769 60.9218ZM75.1105 91.0421C74.7129 91.4415 74.24 91.7584 73.7189 91.9747C73.1978 92.191 72.6388 92.3023 72.0743 92.3023C71.5098 92.3023 70.9508 92.191 70.4297 91.9747C69.9086 91.7584 69.4356 91.4415 69.0381 91.0421L59.9723 82.0103C59.5715 81.6143 59.2534 81.1431 59.0363 80.6239C58.8192 80.1048 58.7074 79.5479 58.7074 78.9855C58.7074 78.4231 58.8192 77.8662 59.0363 77.3471C59.2534 76.8279 59.5715 76.3567 59.9723 75.9607C60.3699 75.5614 60.8428 75.2444 61.3639 75.0281C61.885 74.8119 62.444 74.7005 63.0085 74.7005C63.573 74.7005 64.132 74.8119 64.6531 75.0281C65.1742 75.2444 65.6471 75.5614 66.0447 75.9607L75.1105 84.9925C75.5113 85.3886 75.8294 85.8598 76.0465 86.3789C76.2636 86.8981 76.3754 87.4549 76.3754 88.0173C76.3754 88.5798 76.2636 89.1366 76.0465 89.6557C75.8294 90.1749 75.5113 90.6461 75.1105 91.0421Z" fill="white"/>
</g>
<defs>
<filter id="filter0_d" x="0" y="0" width="101" height="101" filterUnits="userSpaceOnUse" color-interpolation-filters="sRGB">
<feFlood flood-opacity="0" result="BackgroundImageFix"/>
<feColorMatrix in="SourceAlpha" type="matrix" values="0 0 0 0 0 0 0 0 0 0 0 0 0 0 0 0 0 0 127 0"/>
<feOffset dx="8" dy="-8"/>
<feGaussianBlur stdDeviation="4"/>
<feColorMatrix type="matrix" values="0 0 0 0 1 0 0 0 0 1 0 0 0 0 1 0 0 0 0.3 0"/>
<feBlend mode="normal" in2="BackgroundImageFix" result="effect1_dropShadow"/>
<feBlend mode="normal" in="SourceGraphic" in2="effect1_dropShadow" result="shape"/>
</filter>
</defs>
</svg>
