<svg width="95" height="81" viewBox="0 0 95 81" fill="none" xmlns="http://www.w3.org/2000/svg">
<g filter="url(#filter0_d)">
<path d="M4.08268 44.9583H25.3327C26.272 44.9583 27.1728 44.5852 27.837 43.921C28.5012 43.2568 28.8743 42.356 28.8743 41.4167V20.1667C28.8743 19.2274 28.5012 18.3265 27.837 17.6623C27.1728 16.9981 26.272 16.625 25.3327 16.625H4.08268C3.14337 16.625 2.24254 16.9981 1.57835 17.6623C0.914154 18.3265 0.541016 19.2274 0.541016 20.1667V41.4167C0.541016 42.356 0.914154 43.2568 1.57835 43.921C2.24254 44.5852 3.14337 44.9583 4.08268 44.9583ZM7.62435 30.7917C7.62435 26.8797 10.7957 23.7083 14.7077 23.7083V23.7083C18.6197 23.7083 21.791 26.8797 21.791 30.7917V30.7917C21.791 34.7037 18.6197 37.875 14.7077 37.875V37.875C10.7957 37.875 7.62435 34.7037 7.62435 30.7917V30.7917ZM25.3327 80.375C26.272 80.375 27.1728 80.0019 27.837 79.3377C28.5012 78.6735 28.8743 77.7726 28.8743 76.8333V55.5833C28.8743 54.644 28.5012 53.7432 27.837 53.079C27.1728 52.4148 26.272 52.0417 25.3327 52.0417H4.08268C3.14337 52.0417 2.24254 52.4148 1.57835 53.079C0.914154 53.7432 0.541016 54.644 0.541016 55.5833V76.8333C0.541016 77.7726 0.914154 78.6735 1.57835 79.3377C2.24254 80.0019 3.14337 80.375 4.08268 80.375H25.3327ZM7.62435 66.2083C7.62435 62.2963 10.7957 59.125 14.7077 59.125V59.125C18.6197 59.125 21.791 62.2963 21.791 66.2083V66.2083C21.791 70.1203 18.6197 73.2917 14.7077 73.2917V73.2917C10.7957 73.2917 7.62435 70.1203 7.62435 66.2083V66.2083ZM78.4577 30.7917C78.4577 31.731 78.0845 32.6318 77.4203 33.296C76.7562 33.9602 75.8553 34.3333 74.916 34.3333H39.4993C38.56 34.3333 37.6592 33.9602 36.995 33.296C36.3308 32.6318 35.9577 31.731 35.9577 30.7917C35.9577 29.8524 36.3308 28.9515 36.995 28.2873C37.6592 27.6231 38.56 27.25 39.4993 27.25H74.916C75.8553 27.25 76.7562 27.6231 77.4203 28.2873C78.0845 28.9515 78.4577 29.8524 78.4577 30.7917ZM78.4577 66.2083C78.4577 67.1476 78.0845 68.0485 77.4203 68.7127C76.7562 69.3769 75.8553 69.75 74.916 69.75H39.4993C38.56 69.75 37.6592 69.3769 36.995 68.7127C36.3308 68.0485 35.9577 67.1476 35.9577 66.2083C35.9577 65.269 36.3308 64.3682 36.995 63.704C37.6592 63.0398 38.56 62.6667 39.4993 62.6667H74.916C75.8553 62.6667 76.7562 63.0398 77.4203 63.704C78.0845 64.3682 78.4577 65.269 78.4577 66.2083Z" fill="url(#paint0_linear)"/>
</g>
<defs>
<filter id="filter0_d" x="0.541016" y="0.625" width="93.9167" height="79.75" filterUnits="userSpaceOnUse" color-interpolation-filters="sRGB">
<feFlood flood-opacity="0" result="BackgroundImageFix"/>
<feColorMatrix in="SourceAlpha" type="matrix" values="0 0 0 0 0 0 0 0 0 0 0 0 0 0 0 0 0 0 127 0"/>
<feOffset dx="8" dy="-8"/>
<feGaussianBlur stdDeviation="4"/>
<feColorMatrix type="matrix" values="0 0 0 0 0.698039 0 0 0 0 0.968627 0 0 0 0 0.388235 0 0 0 0.2 0"/>
<feBlend mode="normal" in2="BackgroundImageFix" result="effect1_dropShadow"/>
<feBlend mode="normal" in="SourceGraphic" in2="effect1_dropShadow" result="shape"/>
</filter>
<linearGradient id="paint0_linear" x1="78.4577" y1="16.625" x2="35.7131" y2="77.7263" gradientUnits="userSpaceOnUse">
<stop stop-color="#B2F763"/>
<stop offset="1" stop-color="#26AB3F"/>
</linearGradient>
</defs>
</svg>
