<svg width="46" height="46" viewBox="0 0 46 46" fill="none" xmlns="http://www.w3.org/2000/svg">
<g filter="url(#filter0_d)">
<path d="M15.666 15.3333C15.3364 15.3333 15.0141 15.431 14.7401 15.6142C14.466 15.7973 14.2524 16.0576 14.1262 16.3622C14.0001 16.6667 13.9671 17.0018 14.0314 17.3251C14.0957 17.6484 14.2544 17.9454 14.4875 18.1785C14.7206 18.4116 15.0176 18.5703 15.3409 18.6346C15.6642 18.6989 15.9993 18.6659 16.3038 18.5398C16.6084 18.4136 16.8687 18.2 17.0518 17.9259C17.2349 17.6518 17.3327 17.3296 17.3327 17C17.3327 16.5579 17.1571 16.134 16.8445 15.8214C16.532 15.5089 16.108 15.3333 15.666 15.3333ZM8.99935 15.3333C8.66971 15.3333 8.34748 15.431 8.0734 15.6142C7.79932 15.7973 7.58569 16.0576 7.45955 16.3622C7.3334 16.6667 7.3004 17.0018 7.36471 17.3251C7.42901 17.6484 7.58775 17.9454 7.82084 18.1785C8.05392 18.4116 8.3509 18.5703 8.6742 18.6346C8.9975 18.6989 9.33261 18.6659 9.63715 18.5398C9.9417 18.4136 10.202 18.2 10.3851 17.9259C10.5683 17.6518 10.666 17.3296 10.666 17C10.666 16.5579 10.4904 16.134 10.1779 15.8214C9.8653 15.5089 9.44138 15.3333 8.99935 15.3333ZM22.3327 15.3333C22.003 15.3333 21.6808 15.431 21.4067 15.6142C21.1326 15.7973 20.919 16.0576 20.7929 16.3622C20.6667 16.6667 20.6337 17.0018 20.698 17.3251C20.7623 17.6484 20.9211 17.9454 21.1542 18.1785C21.3873 18.4116 21.6842 18.5703 22.0075 18.6346C22.3308 18.6989 22.6659 18.6659 22.9705 18.5398C23.275 18.4136 23.5353 18.2 23.7185 17.9259C23.9016 17.6518 23.9993 17.3296 23.9993 17C23.9993 16.5579 23.8238 16.134 23.5112 15.8214C23.1986 15.5089 22.7747 15.3333 22.3327 15.3333ZM32.3327 8.66663H5.66602C4.33993 8.66663 3.06816 9.19341 2.13048 10.1311C1.1928 11.0688 0.666016 12.3405 0.666016 13.6666V40.3333C0.666016 41.6594 1.1928 42.9311 2.13048 43.8688C3.06816 44.8065 4.33993 45.3333 5.66602 45.3333H32.3327C33.6588 45.3333 34.9305 44.8065 35.8682 43.8688C36.8059 42.9311 37.3327 41.6594 37.3327 40.3333V13.6666C37.3327 12.3405 36.8059 11.0688 35.8682 10.1311C34.9305 9.19341 33.6588 8.66663 32.3327 8.66663ZM33.9993 40.3333C33.9993 40.7753 33.8238 41.1992 33.5112 41.5118C33.1986 41.8244 32.7747 42 32.3327 42H5.66602C5.22399 42 4.80006 41.8244 4.4875 41.5118C4.17494 41.1992 3.99935 40.7753 3.99935 40.3333V25.3333H33.9993V40.3333ZM33.9993 22H3.99935V13.6666C3.99935 13.2246 4.17494 12.8007 4.4875 12.4881C4.80006 12.1756 5.22399 12 5.66602 12H32.3327C32.7747 12 33.1986 12.1756 33.5112 12.4881C33.8238 12.8007 33.9993 13.2246 33.9993 13.6666V22Z" fill="url(#paint0_linear)"/>
</g>
<defs>
<filter id="filter0_d" x="0.666016" y="0.666626" width="44.6667" height="44.6667" filterUnits="userSpaceOnUse" color-interpolation-filters="sRGB">
<feFlood flood-opacity="0" result="BackgroundImageFix"/>
<feColorMatrix in="SourceAlpha" type="matrix" values="0 0 0 0 0 0 0 0 0 0 0 0 0 0 0 0 0 0 127 0"/>
<feOffset dx="4" dy="-4"/>
<feGaussianBlur stdDeviation="2"/>
<feColorMatrix type="matrix" values="0 0 0 0 0.984314 0 0 0 0 0.513726 0 0 0 0 0.513726 0 0 0 0.25 0"/>
<feBlend mode="normal" in2="BackgroundImageFix" result="effect1_dropShadow"/>
<feBlend mode="normal" in="SourceGraphic" in2="effect1_dropShadow" result="shape"/>
</filter>
<linearGradient id="paint0_linear" x1="0.666016" y1="27" x2="37.3327" y2="27" gradientUnits="userSpaceOnUse">
<stop stop-color="#FB8383"/>
<stop offset="1" stop-color="#FE5151"/>
</linearGradient>
</defs>
</svg>
