<svg width="10" height="12" viewBox="0 0 10 12" fill="none" xmlns="http://www.w3.org/2000/svg">
<path d="M9.78567 4.86724L2.93756 9.08645C2.78418 9.18046 2.58782 9.17146 2.44422 9.06045C1.7936 8.55943 1.21234 8.0514 0.824509 7.62438C0.824509 7.62438 0.490406 7.28236 0.345824 7.06535C0.112344 6.76934 0 6.38232 0 6.0063C0 5.58428 0.123091 5.18526 0.368294 4.86624C0.423978 4.80924 0.635965 4.55823 0.836231 4.35322C2.00461 3.07715 5.05451 0.969048 6.65859 0.330016C6.89207 0.227011 7.51534 0.0120006 7.83869 0C8.15033 0 8.45121 0.0680034 8.74038 0.217011C9.09597 0.422021 9.37439 0.740037 9.53069 1.11706C9.63131 1.37907 9.78664 2.16511 9.78664 2.18811C9.88726 2.74914 9.96249 3.53718 9.99961 4.45722C10.0064 4.62223 9.92341 4.78224 9.78567 4.86724Z" fill="#200E32"/>
<path opacity="0.4" d="M9.32846 7.13972C9.63032 6.95271 10.0103 7.19173 9.99568 7.55074C9.95954 8.39279 9.89702 9.13482 9.82082 9.68685C9.80909 9.69885 9.65377 10.6779 9.47499 11.0089C9.16336 11.6239 8.55182 12 7.89436 12H7.83965C7.41567 11.989 6.51399 11.6129 6.51399 11.5899C6.05973 11.4009 5.46675 11.0809 4.82883 10.6959C4.54162 10.5219 4.53478 10.0949 4.82199 9.91786L9.32846 7.13972Z" fill="#200E32"/>
</svg>
