<svg width="29" height="20" viewBox="0 0 29 20" fill="none" xmlns="http://www.w3.org/2000/svg">
<path d="M14 2H16C16.6 2 17 1.6 17 1C17 0.4 16.6 0 16 0H14C13.4 0 13 0.4 13 1C13 1.6 13.4 2 14 2Z" fill="black"/>
<path d="M28.8992 14.4999C28.6992 14.1999 28.2992 13.9999 27.9992 13.9999H26.8992C26.3992 9.5999 22.7992 5.1999 18.1992 3.7999C16.0992 3.0999 13.7992 3.0999 11.6992 3.7999C7.19922 5.1999 3.49922 9.5999 3.09922 13.9999H1.99922C1.69922 13.9999 1.29922 14.1999 1.09922 14.4999C0.899219 14.7999 0.899219 15.1999 1.09922 15.4999C2.49922 18.2999 5.29922 19.9999 8.49922 19.9999H21.5992C24.6992 19.9999 27.5992 18.2999 28.9992 15.3999C28.9992 15.0999 28.9992 14.7999 28.8992 14.4999ZM12.2992 5.6999C13.9992 5.1999 15.8992 5.1999 17.5992 5.6999C21.2992 6.7999 24.3992 10.3999 24.8992 13.9999H5.09922C5.59922 10.3999 8.59922 6.8999 12.2992 5.6999ZM21.4992 17.9999H8.49922C6.69922 17.9999 5.09922 17.2999 3.89922 15.9999H26.0992C24.8992 17.2999 23.2992 17.9999 21.4992 17.9999Z" fill="black"/>
</svg>
