<svg width="22" height="27" viewBox="0 0 22 27" fill="none" xmlns="http://www.w3.org/2000/svg">
<path fill-rule="evenodd" clip-rule="evenodd" d="M5.54973 1.61466C8.9831 -0.380279 13.2033 -0.345411 16.6044 1.70599C19.9721 3.79918 22.0189 7.5349 21.9999 11.5535C21.9215 15.5457 19.7267 19.2984 16.9833 22.1994C15.3998 23.8813 13.6285 25.3686 11.7054 26.6308C11.5073 26.7453 11.2904 26.822 11.0653 26.857C10.8486 26.8478 10.6376 26.7838 10.4512 26.6707C7.51529 24.7742 4.93956 22.3533 2.84797 19.5246C1.09779 17.1634 0.103457 14.3107 1.82559e-06 11.3539C-0.00227022 7.32758 2.11636 3.60959 5.54973 1.61466ZM7.53226 13.0203C8.10979 14.4441 9.47301 15.3728 10.9854 15.3728C11.9762 15.3799 12.9286 14.9831 13.6304 14.2707C14.3323 13.5582 14.7252 12.5895 14.7217 11.5802C14.727 10.0397 13.82 8.6478 12.4243 8.05452C11.0286 7.46124 9.41936 7.78356 8.34807 8.871C7.27678 9.95843 6.95472 11.5965 7.53226 13.0203Z" fill="#200E32"/>
</svg>
