<svg width="37" height="37" viewBox="0 0 37 37" fill="none" xmlns="http://www.w3.org/2000/svg">
<path d="M29.125 0.4375H7.875C5.90245 0.4375 4.0107 1.22109 2.61589 2.61589C1.22109 4.0107 0.4375 5.90245 0.4375 7.875V29.125C0.4375 31.0975 1.22109 32.9893 2.61589 34.3841C4.0107 35.7789 5.90245 36.5625 7.875 36.5625H29.125C31.0975 36.5625 32.9893 35.7789 34.3841 34.3841C35.7789 32.9893 36.5625 31.0975 36.5625 29.125V7.875C36.5625 5.90245 35.7789 4.0107 34.3841 2.61589C32.9893 1.22109 31.0975 0.4375 29.125 0.4375V0.4375ZM15.3125 4.6875H21.6875V11.0625H15.3125V4.6875ZM11.0625 32.3125H7.875C7.02962 32.3125 6.21887 31.9767 5.6211 31.3789C5.02332 30.7811 4.6875 29.9704 4.6875 29.125V25.9375H11.0625V32.3125ZM21.6875 32.3125H15.3125V25.9375H21.6875V32.3125ZM32.3125 29.125C32.3125 29.9704 31.9767 30.7811 31.3789 31.3789C30.7811 31.9767 29.9704 32.3125 29.125 32.3125H25.9375V25.9375H32.3125V29.125ZM32.3125 21.6875H4.6875V7.875C4.6875 7.02962 5.02332 6.21887 5.6211 5.6211C6.21887 5.02332 7.02962 4.6875 7.875 4.6875H11.0625V13.1875C11.0625 13.7511 11.2864 14.2916 11.6849 14.6901C12.0834 15.0886 12.6239 15.3125 13.1875 15.3125H32.3125V21.6875ZM32.3125 11.0625H25.9375V4.6875H29.125C29.9704 4.6875 30.7811 5.02332 31.3789 5.6211C31.9767 6.21887 32.3125 7.02962 32.3125 7.875V11.0625Z" fill="#200E32"/>
</svg>
