<svg width="3" height="11" viewBox="0 0 3 11" fill="none" xmlns="http://www.w3.org/2000/svg">
<path d="M0 1.59677C0 2.47944 0.670833 3.19355 1.5 3.19355C2.32917 3.19355 3 2.47944 3 1.59677C3 0.714113 2.32917 0 1.5 0C0.670833 0 0 0.714113 0 1.59677ZM0 9.40323C0 10.2859 0.670833 11 1.5 11C2.32917 11 3 10.2859 3 9.40323C3 8.52056 2.32917 7.80645 1.5 7.80645C0.670833 7.80645 0 8.52056 0 9.40323Z" fill="#200E32"/>
<path d="M3 5.50009C3 4.61743 2.32917 3.90332 1.5 3.90332C0.670833 3.90332 0 4.61743 0 5.50009C0 6.38276 0.670833 7.09687 1.5 7.09687C2.32917 7.09687 3 6.38276 3 5.50009Z" fill="#A69FAD"/>
</svg>
