<svg width="12" height="13" viewBox="0 0 12 13" fill="none" xmlns="http://www.w3.org/2000/svg">
<path d="M4.375 10C4.54076 10 4.69973 9.93415 4.81694 9.81694C4.93415 9.69973 5 9.54076 5 9.375V5.625C5 5.45924 4.93415 5.30027 4.81694 5.18306C4.69973 5.06585 4.54076 5 4.375 5C4.20924 5 4.05027 5.06585 3.93306 5.18306C3.81585 5.30027 3.75 5.45924 3.75 5.625V9.375C3.75 9.54076 3.81585 9.69973 3.93306 9.81694C4.05027 9.93415 4.20924 10 4.375 10ZM10.625 2.5H8.125V1.875C8.125 1.37772 7.92746 0.900806 7.57583 0.549175C7.22419 0.197544 6.74728 0 6.25 0H5C4.50272 0 4.02581 0.197544 3.67417 0.549175C3.32254 0.900806 3.125 1.37772 3.125 1.875V2.5H0.625C0.45924 2.5 0.300268 2.56585 0.183058 2.68306C0.065848 2.80027 0 2.95924 0 3.125C0 3.29076 0.065848 3.44973 0.183058 3.56694C0.300268 3.68415 0.45924 3.75 0.625 3.75H1.25V10.625C1.25 11.1223 1.44754 11.5992 1.79917 11.9508C2.15081 12.3025 2.62772 12.5 3.125 12.5H8.125C8.62228 12.5 9.09919 12.3025 9.45083 11.9508C9.80246 11.5992 10 11.1223 10 10.625V3.75H10.625C10.7908 3.75 10.9497 3.68415 11.0669 3.56694C11.1842 3.44973 11.25 3.29076 11.25 3.125C11.25 2.95924 11.1842 2.80027 11.0669 2.68306C10.9497 2.56585 10.7908 2.5 10.625 2.5ZM4.375 1.875C4.375 1.70924 4.44085 1.55027 4.55806 1.43306C4.67527 1.31585 4.83424 1.25 5 1.25H6.25C6.41576 1.25 6.57473 1.31585 6.69194 1.43306C6.80915 1.55027 6.875 1.70924 6.875 1.875V2.5H4.375V1.875ZM8.75 10.625C8.75 10.7908 8.68415 10.9497 8.56694 11.0669C8.44973 11.1842 8.29076 11.25 8.125 11.25H3.125C2.95924 11.25 2.80027 11.1842 2.68306 11.0669C2.56585 10.9497 2.5 10.7908 2.5 10.625V3.75H8.75V10.625ZM6.875 10C7.04076 10 7.19973 9.93415 7.31694 9.81694C7.43415 9.69973 7.5 9.54076 7.5 9.375V5.625C7.5 5.45924 7.43415 5.30027 7.31694 5.18306C7.19973 5.06585 7.04076 5 6.875 5C6.70924 5 6.55027 5.06585 6.43306 5.18306C6.31585 5.30027 6.25 5.45924 6.25 5.625V9.375C6.25 9.54076 6.31585 9.69973 6.43306 9.81694C6.55027 9.93415 6.70924 10 6.875 10Z" fill="white"/>
</svg>
