<svg width="49" height="16" viewBox="0 0 49 16" fill="none" xmlns="http://www.w3.org/2000/svg">
<path d="M20.2004 0.300049L16.9004 15.5001H20.9004L24.1003 0.300049H20.2004Z" fill="#200E32"/>
<path d="M14.4 0.299927L10.3 10.5999L8.59998 1.79993C8.39998 0.799927 7.59999 0.299927 6.79999 0.299927H0.0999756L0 0.699951C1.4 0.999951 2.90002 1.49994 3.90002 1.99994C4.50002 2.29994 4.59999 2.59993 4.79999 3.29993L7.90002 15.4H12.1L18.5 0.199951H14.4V0.299927Z" fill="#200E32"/>
<path d="M45.5 0.300049H42.1C41.3 0.300049 40.7 0.700085 40.4 1.40009L34.5 15.5001H38.6L39.4 13.2001H44.4L44.9 15.5001H48.5L45.5 0.300049ZM40.7 10.1L42.8 4.40009L44 10.1H40.7Z" fill="#200E32"/>
<path d="M29.2996 4.5C29.2996 4 29.7996 3.40001 30.9996 3.20001C31.5996 3.10001 33.0997 3.10002 34.8997 3.90002L35.5996 0.700012C34.6996 0.400012 33.3997 0 31.8997 0C27.9997 0 25.2996 2.1 25.2996 5C25.2996 7.2 27.2996 8.39998 28.6996 9.09998C30.1996 9.79998 30.6996 10.3 30.6996 11C30.6996 12 29.4996 12.5 28.2996 12.5C26.2996 12.5 25.1996 12 24.2996 11.5L23.5996 14.8C24.4996 15.2 26.1996 15.6 27.9996 15.6C32.0996 15.6 34.7996 13.6 34.7996 10.4C34.7996 6.60002 29.1996 6.3 29.2996 4.5Z" fill="#200E32"/>
</svg>
