<svg width="24" height="4" viewBox="0 0 24 4" fill="none" xmlns="http://www.w3.org/2000/svg">
<path d="M19.8166 0.1146L19.8625 2.808H19.8395L19.0602 0.1146H17.7765V3.5071H18.6246L18.5788 0.7221H18.6018L19.4384 3.5071H20.6648V0.1146H19.8166ZM3.6676 0.1146L3.0258 3.5416H3.9542L4.4241 0.4241H4.447L4.9055 3.5415H5.8224L5.192 0.1146H3.6676ZM8.8481 0.1146L8.4241 2.7278H8.4011L7.9771 0.1146H6.5788L6.51 3.5416H7.3696L7.3926 0.458401H7.404L7.977 3.5415H8.8481L9.4212 0.4585H9.4442L9.467 3.5415H10.3266L10.2464 0.1146H8.8481ZM1.5817 2.5673C1.616 2.6475 1.6046 2.7622 1.5931 2.8195C1.5702 2.9341 1.49 3.0487 1.2607 3.0487C1.043 3.0487 0.9169 2.9227 0.9169 2.7392V2.4069H0V2.6705C0 3.4384 0.6074 3.6676 1.2493 3.6676C1.8682 3.6676 2.3839 3.4498 2.4642 2.8882C2.51 2.5902 2.4756 2.3954 2.4642 2.3266C2.3037 1.6046 0.9972 1.3983 0.9054 0.9971C0.894 0.9283 0.894 0.859601 0.9054 0.813701C0.9284 0.699101 1.0086 0.5845 1.2149 0.5845C1.4212 0.5845 1.5359 0.7105 1.5359 0.894V1.1003H2.3954V0.8596C2.3954 0.1146 1.7192 0 1.2378 0C0.6304 0 0.1261 0.2063 0.0344 0.7564C0.0114 0.9054 0 1.043 0.0458 1.2149C0.1834 1.9255 1.4098 2.1318 1.5816 2.5673H1.5817ZM12.7336 2.5673C12.7679 2.6476 12.7564 2.7507 12.745 2.8195C12.722 2.9341 12.6418 3.0487 12.4126 3.0487C12.1948 3.0487 12.0688 2.9227 12.0688 2.7392V2.4069H11.1518V2.6705C11.1518 3.4269 11.7478 3.6562 12.3897 3.6562C13.0086 3.6562 13.5129 3.4499 13.5931 2.8768C13.639 2.5788 13.6046 2.3954 13.5931 2.3152C13.4556 1.6046 12.1604 1.3868 12.0688 0.9972C12.0573 0.9284 12.0573 0.859601 12.0688 0.813701C12.0917 0.699101 12.1719 0.5845 12.3782 0.5845C12.573 0.5845 12.6992 0.7105 12.6992 0.894V1.1003H13.5472V0.8596C13.5472 0.1146 12.8825 0 12.4012 0C11.7937 0 11.3008 0.1948 11.2092 0.7564C11.1862 0.9054 11.1862 1.043 11.2206 1.2149C11.3582 1.9255 12.5616 2.1203 12.7336 2.5673V2.5673ZM15.6218 3.0258C15.8625 3.0258 15.9312 2.8653 15.9541 2.7736C15.9656 2.7393 15.9656 2.6819 15.9656 2.6476V0.1146H16.8366V2.5788C16.8366 2.6476 16.8366 2.7736 16.8252 2.808C16.7679 3.4499 16.2636 3.6562 15.6332 3.6562C15.0029 3.6562 14.4986 3.4499 14.4412 2.808C14.4412 2.7736 14.4298 2.6476 14.4298 2.5788V0.1146H15.3008V2.6476C15.3008 2.6934 15.3008 2.7392 15.3123 2.7736C15.3123 2.8653 15.3811 3.0258 15.6218 3.0258ZM22.7736 2.9914C23.0258 2.9914 23.106 2.8309 23.1289 2.7392C23.1404 2.7049 23.1404 2.6475 23.1404 2.6132V2.1203H22.7851V1.616H24V2.533C24 2.6017 24 2.6475 23.9885 2.7622C23.9312 3.3925 23.3925 3.6103 22.7851 3.6103C22.1776 3.6103 21.639 3.3925 21.5817 2.7622C21.5702 2.6475 21.5702 2.6017 21.5702 2.5329V1.0889C21.5702 1.0315 21.5817 0.9169 21.5817 0.8596C21.6619 0.2177 22.1777 0.0114002 22.7851 0.0114002C23.3925 0.0114002 23.9198 0.2177 23.9885 0.8596C24 0.9627 24 1.0888 24 1.0888V1.2034H23.1404V1.0086C23.1404 1.0086 23.1404 0.928301 23.1289 0.882501C23.1175 0.802301 23.0487 0.630401 22.7851 0.630401C22.533 0.630401 22.4641 0.790801 22.4413 0.882501C22.4298 0.928301 22.4298 0.9857 22.4298 1.043V2.6132C22.4298 2.659 22.4298 2.7048 22.4413 2.7392C22.4413 2.8309 22.533 2.9914 22.7736 2.9914" fill="#D9D9D9"/>
</svg>
