<svg width="17" height="16" viewBox="0 0 17 16" fill="none" xmlns="http://www.w3.org/2000/svg">
<path d="M16.8172 14.9034L10.4241 9.51688C11.3611 8.34891 11.8149 6.86643 11.6921 5.37427C11.5694 3.8821 10.8794 2.49367 9.76404 1.49447C8.64872 0.495268 7.19283 -0.0387608 5.69574 0.00219269C4.19865 0.0431462 2.77416 0.655969 1.71516 1.71465C0.656164 2.77334 0.043159 4.19741 0.00219334 5.69405C-0.0387723 7.1907 0.495415 8.64615 1.49492 9.76114C2.49442 10.8761 3.88326 11.5659 5.37586 11.6887C6.86847 11.8114 8.35139 11.3578 9.51971 10.421L15.8932 15.8076C15.9537 15.8686 16.0257 15.917 16.105 15.95C16.1843 15.983 16.2693 16 16.3552 16C16.4411 16 16.5261 15.983 16.6054 15.95C16.6847 15.917 16.7567 15.8686 16.8172 15.8076C16.9344 15.6863 17 15.5242 17 15.3555C17 15.1868 16.9344 15.0247 16.8172 14.9034ZM5.86952 10.421C4.9687 10.421 4.08812 10.154 3.33912 9.65367C2.59012 9.15335 2.00634 8.44223 1.66161 7.61023C1.31689 6.77823 1.22669 5.86273 1.40243 4.97948C1.57817 4.09624 2.01195 3.28492 2.64893 2.64814C3.2859 2.01136 4.09745 1.5777 4.98096 1.40201C5.86447 1.22633 6.78025 1.31649 7.61249 1.66112C8.44474 2.00574 9.15607 2.58935 9.65653 3.33813C10.157 4.0869 10.4241 4.96723 10.4241 5.86778C10.4241 7.07537 9.94426 8.23351 9.09011 9.08741C8.23596 9.94131 7.07747 10.421 5.86952 10.421Z" fill="#454545"/>
</svg>
