<svg width="48" height="58" viewBox="0 0 48 58" fill="none" xmlns="http://www.w3.org/2000/svg">
<path d="M46.1818 45.037C45.3356 47.0233 44.3341 48.8517 43.1736 50.5327C41.5919 52.8243 40.2968 54.4106 39.2987 55.2914C37.7514 56.7373 36.0937 57.4777 34.3185 57.5199C33.0441 57.5199 31.5072 57.1514 29.7182 56.4039C27.9234 55.6599 26.2739 55.2914 24.7657 55.2914C23.1839 55.2914 21.4875 55.6599 19.6729 56.4039C17.8556 57.1514 16.3916 57.5409 15.2723 57.5795C13.57 57.6532 11.8732 56.8917 10.1796 55.2914C9.09856 54.3333 7.74645 52.691 6.12669 50.3643C4.38881 47.8796 2.96004 44.9984 1.84071 41.7137C0.641951 38.1657 0.0410156 34.73 0.0410156 31.4039C0.0410156 27.5937 0.851242 24.3076 2.47411 21.5538C3.74954 19.3418 5.44632 17.597 7.56997 16.316C9.69362 15.0351 11.9882 14.3824 14.4593 14.3406C15.8114 14.3406 17.5845 14.7656 19.7879 15.6008C21.9852 16.4389 23.396 16.8639 24.0145 16.8639C24.477 16.8639 26.0442 16.3669 28.7011 15.3762C31.2137 14.4575 33.3342 14.0771 35.0714 14.2269C39.7787 14.613 43.3153 16.4985 45.6672 19.8956C41.4572 22.4876 39.3746 26.1181 39.4161 30.7753C39.4541 34.403 40.7492 37.4217 43.2945 39.8186C44.448 40.9311 45.7363 41.7909 47.1695 42.4015C46.8587 43.3174 46.5306 44.1948 46.1818 45.037ZM35.3857 1.86834C35.3857 4.71166 34.3634 7.36646 32.3257 9.82372C29.8667 12.7449 26.8925 14.4329 23.6671 14.1666C23.626 13.8254 23.6022 13.4664 23.6022 13.0892C23.6022 10.3596 24.7716 7.43841 26.8482 5.04993C27.885 3.8406 29.2036 2.83507 30.8027 2.03293C32.3983 1.24276 33.9075 0.805777 35.327 0.730957C35.3684 1.11106 35.3857 1.49119 35.3857 1.86831V1.86834Z" fill="#C8C8C8"/>
</svg>
