<svg width="32" height="32" viewBox="0 0 32 32" fill="none" xmlns="http://www.w3.org/2000/svg">
<path d="M18.7032 16.0004L30.7782 3.94452C31.1391 3.58361 31.3419 3.0941 31.3419 2.58369C31.3419 2.07328 31.1391 1.58377 30.7782 1.22286C30.4173 0.86194 29.9278 0.65918 29.4174 0.65918C28.907 0.65918 28.4174 0.86194 28.0565 1.22286L16.0007 13.2979L3.94486 1.22286C3.58395 0.86194 3.09444 0.65918 2.58403 0.65918C2.07362 0.65918 1.58411 0.86194 1.2232 1.22286C0.862281 1.58377 0.659521 2.07328 0.659521 2.58369C0.659521 3.0941 0.862281 3.58361 1.2232 3.94452L13.2982 16.0004L1.2232 28.0562C1.04355 28.2344 0.900962 28.4464 0.803655 28.6799C0.706349 28.9135 0.65625 29.164 0.65625 29.417C0.65625 29.67 0.706349 29.9206 0.803655 30.1541C0.900962 30.3877 1.04355 30.5997 1.2232 30.7779C1.40138 30.9575 1.61336 31.1001 1.84692 31.1974C2.08049 31.2947 2.33101 31.3448 2.58403 31.3448C2.83705 31.3448 3.08757 31.2947 3.32114 31.1974C3.5547 31.1001 3.76668 30.9575 3.94486 30.7779L16.0007 18.7029L28.0565 30.7779C28.2347 30.9575 28.4467 31.1001 28.6803 31.1974C28.9138 31.2947 29.1643 31.3448 29.4174 31.3448C29.6704 31.3448 29.9209 31.2947 30.1545 31.1974C30.388 31.1001 30.6 30.9575 30.7782 30.7779C30.9578 30.5997 31.1004 30.3877 31.1977 30.1541C31.295 29.9206 31.3451 29.67 31.3451 29.417C31.3451 29.164 31.295 28.9135 31.1977 28.6799C31.1004 28.4464 30.9578 28.2344 30.7782 28.0562L18.7032 16.0004Z" fill="black"/>
</svg>
