<svg width="393" height="143" viewBox="0 0 393 143" fill="none" xmlns="http://www.w3.org/2000/svg">
<path d="M64.0738 0C64.0738 0 52.4789 83.41 49.1119 92.3868C45.7449 101.364 29.2886 111.089 26.2959 113.333C23.3032 115.577 12.8303 123.058 8.34221 126.424C3.85406 129.79 -1.68675 133.67 0.487694 138.019C2.35775 141.76 14.327 142.258 20.3115 142.134H218.176H372.653C378.638 142.258 390.607 141.76 392.477 138.019C394.651 133.67 389.111 129.79 384.622 126.424C380.134 123.058 369.661 115.577 366.669 113.333C363.676 111.089 347.22 101.364 343.853 92.3868C340.486 83.41 328.891 0 328.891 0H218.176H64.0738Z" fill="#1C2021"/>
<path d="M64.0738 0C64.0738 0 52.4789 83.41 49.1119 92.3868C45.7449 101.364 29.2886 111.089 26.2959 113.333C23.3032 115.577 12.8303 123.058 8.34221 126.424C3.85406 129.79 -1.68675 133.67 0.487694 138.019C2.35775 141.76 14.327 142.258 20.3115 142.134H218.176H372.653C378.638 142.258 390.607 141.76 392.477 138.019C394.651 133.67 389.111 129.79 384.622 126.424C380.134 123.058 369.661 115.577 366.669 113.333C363.676 111.089 347.22 101.364 343.853 92.3868C340.486 83.41 328.891 0 328.891 0H218.176H64.0738Z" fill="url(#paint0_radial)"/>
<path d="M64.0738 0C64.0738 0 52.4789 83.41 49.1119 92.3868C45.7449 101.364 29.2886 111.089 26.2959 113.333C23.3032 115.577 12.8303 123.058 8.34221 126.424C3.85406 129.79 -1.68675 133.67 0.487694 138.019C2.35775 141.76 14.327 142.258 20.3115 142.134H218.176H372.653C378.638 142.258 390.607 141.76 392.477 138.019C394.651 133.67 389.111 129.79 384.622 126.424C380.134 123.058 369.661 115.577 366.669 113.333C363.676 111.089 347.22 101.364 343.853 92.3868C340.486 83.41 328.891 0 328.891 0H218.176H64.0738Z" fill="url(#paint1_linear)"/>
<path d="M64.0738 0C64.0738 0 52.4789 83.41 49.1119 92.3868C45.7449 101.364 29.2886 111.089 26.2959 113.333C23.3032 115.577 12.8303 123.058 8.34221 126.424C3.85406 129.79 -1.68675 133.67 0.487694 138.019C2.35775 141.76 14.327 142.258 20.3115 142.134H218.176H372.653C378.638 142.258 390.607 141.76 392.477 138.019C394.651 133.67 389.111 129.79 384.622 126.424C380.134 123.058 369.661 115.577 366.669 113.333C363.676 111.089 347.22 101.364 343.853 92.3868C340.486 83.41 328.891 0 328.891 0H218.176H64.0738Z" fill="url(#paint2_linear)"/>
<defs>
<radialGradient id="paint0_radial" cx="0" cy="0" r="1" gradientUnits="userSpaceOnUse" gradientTransform="translate(196.482 109.592) rotate(90) scale(101.738 674.24)">
<stop stop-color="#1C2021"/>
<stop offset="1" stop-color="white" stop-opacity="0"/>
</radialGradient>
<linearGradient id="paint1_linear" x1="196.482" y1="0" x2="196.482" y2="142.15" gradientUnits="userSpaceOnUse">
<stop stop-color="#1C2021"/>
<stop offset="0.541436" stop-color="white"/>
<stop offset="1" stop-color="white" stop-opacity="0"/>
</linearGradient>
<linearGradient id="paint2_linear" x1="196.482" y1="0" x2="196.482" y2="99.4935" gradientUnits="userSpaceOnUse">
<stop stop-color="#1C2021"/>
<stop offset="1" stop-color="white" stop-opacity="0"/>
</linearGradient>
</defs>
</svg>
