<svg width="22" height="25" viewBox="0 0 22 25" fill="none" xmlns="http://www.w3.org/2000/svg">
<path d="M21.9805 16.1253C21.9778 15.4 21.7576 14.6921 21.3483 14.0933C20.939 13.4944 20.3595 13.0321 19.6846 12.7662L21.9442 4.30784C21.9914 4.1277 21.9964 3.93909 21.9586 3.75673C21.9209 3.57437 21.8415 3.40321 21.7267 3.25659C21.6094 3.11921 21.4627 3.0099 21.2975 2.93671C21.1323 2.86352 20.9527 2.82831 20.7721 2.83367H4.21797L3.81922 1.31117C3.74989 1.05369 3.59734 0.826368 3.38534 0.664634C3.17333 0.502899 2.91379 0.415834 2.64714 0.417004H0.230469V2.83367H1.71672L4.71339 14.0228C4.78419 14.2865 4.94217 14.5183 5.16158 14.6807C5.381 14.8431 5.64892 14.9263 5.92172 14.917H18.3555C18.6759 14.917 18.9833 15.0443 19.2099 15.2709C19.4365 15.4975 19.5638 15.8049 19.5638 16.1253C19.5638 16.4458 19.4365 16.7532 19.2099 16.9798C18.9833 17.2064 18.6759 17.3337 18.3555 17.3337H2.64714C2.32667 17.3337 2.01932 17.461 1.79271 17.6876C1.56611 17.9142 1.4388 18.2215 1.4388 18.542C1.4388 18.8625 1.56611 19.1698 1.79271 19.3964C2.01932 19.623 2.32667 19.7503 2.64714 19.7503H4.07297C3.87424 20.2979 3.81038 20.8852 3.8868 21.4627C3.96322 22.0401 4.17767 22.5907 4.51198 23.0676C4.84629 23.5446 5.29063 23.934 5.80735 24.2029C6.32408 24.4717 6.89799 24.6121 7.48047 24.6121C8.06295 24.6121 8.63686 24.4717 9.15358 24.2029C9.67031 23.934 10.1146 23.5446 10.449 23.0676C10.7833 22.5907 10.9977 22.0401 11.0741 21.4627C11.1506 20.8852 11.0867 20.2979 10.888 19.7503H13.7396C13.5587 20.2489 13.4894 20.7811 13.5366 21.3094C13.5838 21.8376 13.7464 22.3491 14.0128 22.8077C14.2792 23.2663 14.643 23.6609 15.0785 23.9635C15.514 24.2662 16.0107 24.4696 16.5334 24.5594C17.0561 24.6493 17.5922 24.6233 18.1037 24.4833C18.6153 24.3434 19.0899 24.0929 19.4942 23.7495C19.8984 23.4061 20.2223 22.9783 20.4431 22.496C20.6639 22.0138 20.7763 21.489 20.7721 20.9587C20.7699 20.3344 20.6032 19.7218 20.2888 19.1824C20.8055 18.8566 21.2315 18.4056 21.5273 17.8711C21.823 17.3367 21.9789 16.7362 21.9805 16.1253ZM17.2559 12.5003H6.8763L4.87047 5.25034H19.2013L17.2559 12.5003ZM7.48047 22.167C7.24148 22.167 7.00786 22.0961 6.80915 21.9634C6.61045 21.8306 6.45557 21.6419 6.36411 21.4211C6.27266 21.2003 6.24873 20.9573 6.29535 20.7229C6.34198 20.4885 6.45706 20.2732 6.62605 20.1042C6.79504 19.9353 7.01034 19.8202 7.24473 19.7736C7.47913 19.7269 7.72208 19.7509 7.94288 19.8423C8.16367 19.9338 8.35239 20.0886 8.48516 20.2874C8.61794 20.4861 8.6888 20.7197 8.6888 20.9587C8.6888 21.2791 8.5615 21.5865 8.33489 21.8131C8.10828 22.0397 7.80094 22.167 7.48047 22.167ZM17.1471 22.167C16.9081 22.167 16.6745 22.0961 16.4758 21.9634C16.2771 21.8306 16.1222 21.6419 16.0308 21.4211C15.9393 21.2003 15.9154 20.9573 15.962 20.7229C16.0086 20.4885 16.1237 20.2732 16.2927 20.1042C16.4617 19.9353 16.677 19.8202 16.9114 19.7736C17.1458 19.7269 17.3888 19.7509 17.6095 19.8423C17.8303 19.9338 18.0191 20.0886 18.1518 20.2874C18.2846 20.4861 18.3555 20.7197 18.3555 20.9587C18.3555 21.2791 18.2282 21.5865 18.0016 21.8131C17.775 22.0397 17.4676 22.167 17.1471 22.167Z" fill="white"/>
</svg>
