<svg width="37" height="41" viewBox="0 0 37 41" fill="none" xmlns="http://www.w3.org/2000/svg">
<path d="M14.4167 32.7497C14.9582 32.7497 15.4775 32.5346 15.8603 32.1517C16.2432 31.7688 16.4583 31.2495 16.4583 30.708V18.458C16.4583 17.9165 16.2432 17.3972 15.8603 17.0143C15.4775 16.6314 14.9582 16.4163 14.4167 16.4163C13.8752 16.4163 13.3559 16.6314 12.973 17.0143C12.5901 17.3972 12.375 17.9165 12.375 18.458V30.708C12.375 31.2495 12.5901 31.7688 12.973 32.1517C13.3559 32.5346 13.8752 32.7497 14.4167 32.7497ZM34.8333 8.24967H26.6667V6.20801C26.6667 4.58356 26.0214 3.02564 24.8727 1.87698C23.724 0.728319 22.1661 0.0830078 20.5417 0.0830078H16.4583C14.8339 0.0830078 13.276 0.728319 12.1273 1.87698C10.9786 3.02564 10.3333 4.58356 10.3333 6.20801V8.24967H2.16667C1.62518 8.24967 1.10588 8.46478 0.72299 8.84767C0.340103 9.23055 0.125 9.74986 0.125 10.2913C0.125 10.8328 0.340103 11.3521 0.72299 11.735C1.10588 12.1179 1.62518 12.333 2.16667 12.333H4.20833V34.7913C4.20833 36.4158 4.85364 37.9737 6.0023 39.1224C7.15097 40.271 8.70888 40.9163 10.3333 40.9163H26.6667C28.2911 40.9163 29.849 40.271 30.9977 39.1224C32.1464 37.9737 32.7917 36.4158 32.7917 34.7913V12.333H34.8333C35.3748 12.333 35.8941 12.1179 36.277 11.735C36.6599 11.3521 36.875 10.8328 36.875 10.2913C36.875 9.74986 36.6599 9.23055 36.277 8.84767C35.8941 8.46478 35.3748 8.24967 34.8333 8.24967ZM14.4167 6.20801C14.4167 5.66652 14.6318 5.14722 15.0147 4.76433C15.3975 4.38145 15.9169 4.16634 16.4583 4.16634H20.5417C21.0832 4.16634 21.6025 4.38145 21.9853 4.76433C22.3682 5.14722 22.5833 5.66652 22.5833 6.20801V8.24967H14.4167V6.20801ZM28.7083 34.7913C28.7083 35.3328 28.4932 35.8521 28.1103 36.235C27.7275 36.6179 27.2082 36.833 26.6667 36.833H10.3333C9.79185 36.833 9.27254 36.6179 8.88966 36.235C8.50677 35.8521 8.29167 35.3328 8.29167 34.7913V12.333H28.7083V34.7913ZM22.5833 32.7497C23.1248 32.7497 23.6441 32.5346 24.027 32.1517C24.4099 31.7688 24.625 31.2495 24.625 30.708V18.458C24.625 17.9165 24.4099 17.3972 24.027 17.0143C23.6441 16.6314 23.1248 16.4163 22.5833 16.4163C22.0419 16.4163 21.5225 16.6314 21.1397 17.0143C20.7568 17.3972 20.5417 17.9165 20.5417 18.458V30.708C20.5417 31.2495 20.7568 31.7688 21.1397 32.1517C21.5225 32.5346 22.0419 32.7497 22.5833 32.7497Z" fill="black"/>
</svg>
