<svg width="10" height="8" viewBox="0 0 10 8" fill="none" xmlns="http://www.w3.org/2000/svg">
<path d="M7.79167 1.37501H7.205L7.05833 0.916677C6.96325 0.647741 6.78688 0.415033 6.55366 0.250792C6.32044 0.0865519 6.04191 -0.00108941 5.75667 1.02225e-05H3.41C3.12196 0.00054909 2.84136 0.0915317 2.60781 0.260117C2.37426 0.428702 2.19955 0.666376 2.10833 0.939594L1.96167 1.39793H1.375C1.01033 1.39793 0.660591 1.54279 0.402728 1.80066C0.144866 2.05852 0 2.40825 0 2.77293V6.43959C0 6.80427 0.144866 7.154 0.402728 7.41187C0.660591 7.66973 1.01033 7.8146 1.375 7.8146H7.79167C8.15634 7.8146 8.50607 7.66973 8.76394 7.41187C9.0218 7.154 9.16667 6.80427 9.16667 6.43959V2.77293C9.16971 2.59044 9.13639 2.40917 9.06865 2.2397C9.00091 2.07022 8.90011 1.91592 8.77213 1.78581C8.64415 1.65569 8.49154 1.55235 8.3232 1.48182C8.15487 1.4113 7.97418 1.37499 7.79167 1.37501ZM8.25 6.41668C8.25 6.53824 8.20171 6.65481 8.11576 6.74077C8.0298 6.82672 7.91322 6.87501 7.79167 6.87501H1.375C1.25344 6.87501 1.13686 6.82672 1.05091 6.74077C0.964955 6.65481 0.916667 6.53824 0.916667 6.41668V2.75001C0.916667 2.62845 0.964955 2.51187 1.05091 2.42592C1.13686 2.33997 1.25344 2.29168 1.375 2.29168H2.29167C2.39161 2.29689 2.49052 2.26925 2.57328 2.21298C2.65604 2.1567 2.71811 2.07488 2.75 1.98001L2.9975 1.22834C3.02825 1.13731 3.08683 1.05824 3.16496 1.00231C3.24309 0.946386 3.33683 0.916429 3.43292 0.916677H5.77958C5.87567 0.916429 5.9694 0.946386 6.04754 1.00231C6.12567 1.05824 6.18425 1.13731 6.215 1.22834L6.4625 1.98001C6.49191 2.06744 6.54701 2.14395 6.62061 2.19956C6.6942 2.25516 6.78286 2.28727 6.875 2.29168H7.79167C7.91322 2.29168 8.0298 2.33997 8.11576 2.42592C8.20171 2.51187 8.25 2.62845 8.25 2.75001V6.41668ZM4.58333 2.29168C4.22073 2.29168 3.86628 2.3992 3.56479 2.60065C3.2633 2.8021 3.02831 3.08843 2.88955 3.42342C2.75079 3.75842 2.71449 4.12704 2.78523 4.48268C2.85597 4.83831 3.03057 5.16498 3.28697 5.42137C3.54337 5.67777 3.87004 5.85238 4.22567 5.92312C4.5813 5.99386 4.94992 5.95755 5.28492 5.81879C5.61992 5.68003 5.90624 5.44505 6.10769 5.14356C6.30914 4.84207 6.41667 4.48761 6.41667 4.12501C6.41667 3.63878 6.22351 3.17247 5.87969 2.82865C5.53588 2.48483 5.06956 2.29168 4.58333 2.29168V2.29168ZM4.58333 5.04168C4.40203 5.04168 4.22481 4.98792 4.07406 4.88719C3.92331 4.78647 3.80582 4.6433 3.73644 4.4758C3.66706 4.30831 3.64891 4.12399 3.68428 3.94618C3.71965 3.76836 3.80695 3.60503 3.93515 3.47683C4.06335 3.34863 4.22668 3.26133 4.4045 3.22596C4.58232 3.19059 4.76663 3.20874 4.93413 3.27812C5.10162 3.3475 5.24479 3.46499 5.34551 3.61574C5.44624 3.76648 5.5 3.94371 5.5 4.12501C5.5 4.36813 5.40342 4.60128 5.23151 4.77319C5.05961 4.9451 4.82645 5.04168 4.58333 5.04168Z" fill="#A78BFA"/>
</svg>
