<svg width="11" height="9" viewBox="0 0 11 9" fill="none" xmlns="http://www.w3.org/2000/svg">
<path d="M8.70768 1.97926H8.12101L7.97435 1.52093C7.87927 1.25199 7.7029 1.01928 7.46968 0.85504C7.23646 0.6908 6.95793 0.603159 6.67268 0.604258H4.32601C4.03797 0.604797 3.75738 0.69578 3.52382 0.864365C3.29027 1.03295 3.11556 1.27062 3.02435 1.54384L2.87768 2.00218H2.29102C1.92634 2.00218 1.57661 2.14704 1.31874 2.4049C1.06088 2.66277 0.916016 3.0125 0.916016 3.37718V7.04384C0.916016 7.40852 1.06088 7.75825 1.31874 8.01612C1.57661 8.27398 1.92634 8.41884 2.29102 8.41884H8.70768C9.07235 8.41884 9.42209 8.27398 9.67995 8.01612C9.93782 7.75825 10.0827 7.40852 10.0827 7.04384V3.37718C10.0857 3.19469 10.0524 3.01342 9.98467 2.84395C9.91693 2.67447 9.81613 2.52017 9.68815 2.39006C9.56016 2.25994 9.40755 2.1566 9.23922 2.08607C9.07088 2.01554 8.89019 1.97923 8.70768 1.97926ZM9.16601 7.02093C9.16601 7.14248 9.11773 7.25906 9.03177 7.34502C8.94582 7.43097 8.82924 7.47926 8.70768 7.47926H2.29102C2.16946 7.47926 2.05288 7.43097 1.96692 7.34502C1.88097 7.25906 1.83268 7.14248 1.83268 7.02093V3.35426C1.83268 3.2327 1.88097 3.11612 1.96692 3.03017C2.05288 2.94421 2.16946 2.89593 2.29102 2.89593H3.20768C3.30763 2.90114 3.40654 2.8735 3.4893 2.81722C3.57206 2.76095 3.63412 2.67913 3.66602 2.58426L3.91352 1.83259C3.94426 1.74156 4.00284 1.66249 4.08098 1.60656C4.15911 1.55063 4.25284 1.52068 4.34893 1.52093H6.6956C6.79168 1.52068 6.88542 1.55063 6.96355 1.60656C7.04169 1.66249 7.10027 1.74156 7.13101 1.83259L7.37851 2.58426C7.40793 2.67168 7.46303 2.7482 7.53663 2.80381C7.61022 2.85941 7.69888 2.89152 7.79101 2.89593H8.70768C8.82924 2.89593 8.94582 2.94421 9.03177 3.03017C9.11773 3.11612 9.16601 3.2327 9.16601 3.35426V7.02093ZM5.49935 2.89593C5.13675 2.89593 4.78229 3.00345 4.4808 3.2049C4.17931 3.40635 3.94433 3.69267 3.80557 4.02767C3.66681 4.36267 3.6305 4.73129 3.70124 5.08692C3.77198 5.44256 3.94659 5.76923 4.20299 6.02562C4.45938 6.28202 4.78605 6.45663 5.14168 6.52737C5.49731 6.59811 5.86594 6.5618 6.20093 6.42304C6.53593 6.28428 6.82226 6.04929 7.02371 5.7478C7.22516 5.44631 7.33268 5.09186 7.33268 4.72926C7.33268 4.24303 7.13953 3.77671 6.79571 3.4329C6.45189 3.08908 5.98558 2.89593 5.49935 2.89593ZM5.49935 5.64593C5.31805 5.64593 5.14082 5.59216 4.99008 5.49144C4.83933 5.39072 4.72184 5.24755 4.65246 5.08005C4.58308 4.91255 4.56493 4.72824 4.6003 4.55043C4.63566 4.37261 4.72297 4.20928 4.85117 4.08108C4.97937 3.95288 5.1427 3.86558 5.32052 3.83021C5.49833 3.79484 5.68264 3.81299 5.85014 3.88237C6.01764 3.95175 6.1608 4.06924 6.26153 4.21999C6.36225 4.37073 6.41601 4.54796 6.41601 4.72926C6.41601 4.97237 6.31944 5.20553 6.14753 5.37744C5.97562 5.54935 5.74246 5.64593 5.49935 5.64593Z" fill="white"/>
</svg>
