<svg width="7" height="7" viewBox="0 0 7 7" fill="none" xmlns="http://www.w3.org/2000/svg">
<path d="M5.6 4.55V1.05C5.6 0.771523 5.48938 0.504451 5.29246 0.307538C5.09555 0.110625 4.82848 0 4.55 0H1.05C0.771523 0 0.504451 0.110625 0.307538 0.307538C0.110625 0.504451 0 0.771523 0 1.05V4.55C0 4.82848 0.110625 5.09555 0.307538 5.29246C0.504451 5.48938 0.771523 5.6 1.05 5.6H4.55C4.82848 5.6 5.09555 5.48938 5.29246 5.29246C5.48938 5.09555 5.6 4.82848 5.6 4.55V4.55ZM0.7 1.05C0.7 0.957174 0.736875 0.86815 0.802513 0.802513C0.86815 0.736875 0.957174 0.7 1.05 0.7H4.55C4.64283 0.7 4.73185 0.736875 4.79749 0.802513C4.86312 0.86815 4.9 0.957174 4.9 1.05V2.576L4.522 2.1945C4.354 2.02646 4.12612 1.93204 3.8885 1.932V1.932C3.65103 1.9328 3.42344 2.02711 3.255 2.1945L2.9365 2.513L2.653 2.2295C2.46118 2.04076 2.20286 1.93498 1.93375 1.93498C1.66464 1.93498 1.40632 2.04076 1.2145 2.2295L0.7 2.7475V1.05ZM0.742 4.7075C0.71501 4.65935 0.700567 4.60519 0.7 4.55V3.7345L1.708 2.7265C1.7376 2.69676 1.77277 2.67317 1.81151 2.65707C1.85026 2.64096 1.8918 2.63268 1.93375 2.63268C1.9757 2.63268 2.01724 2.64096 2.05599 2.65707C2.09473 2.67317 2.1299 2.69676 2.1595 2.7265L2.45 3.01L0.742 4.7075ZM3.752 2.6915C3.76927 2.67252 3.79036 2.65741 3.81389 2.64715C3.83741 2.6369 3.86284 2.63173 3.8885 2.632V2.632C3.91416 2.63173 3.93959 2.6369 3.96311 2.64715C3.98664 2.65741 4.00773 2.67252 4.025 2.6915L4.9 3.563V4.55C4.9 4.64283 4.86312 4.73185 4.79749 4.79749C4.73185 4.86312 4.64283 4.9 4.55 4.9H1.54L3.752 2.6915ZM6.65 1.4C6.55717 1.4 6.46815 1.43687 6.40251 1.50251C6.33687 1.56815 6.3 1.65717 6.3 1.75V5.25C6.3 5.52848 6.18938 5.79555 5.99246 5.99246C5.79555 6.18938 5.52848 6.3 5.25 6.3H1.75C1.65717 6.3 1.56815 6.33687 1.50251 6.40251C1.43687 6.46815 1.4 6.55717 1.4 6.65C1.4 6.74283 1.43687 6.83185 1.50251 6.89749C1.56815 6.96313 1.65717 7 1.75 7H5.25C5.71413 7 6.15925 6.81563 6.48744 6.48744C6.81563 6.15925 7 5.71413 7 5.25V1.75C7 1.65717 6.96313 1.56815 6.89749 1.50251C6.83185 1.43687 6.74283 1.4 6.65 1.4Z" fill="#A78BFA"/>
</svg>
