<svg width="9" height="9" viewBox="0 0 9 9" fill="none" xmlns="http://www.w3.org/2000/svg">
<path d="M8.25001 2.71501C8.25029 2.66565 8.24083 2.61673 8.22217 2.57104C8.20351 2.52535 8.17601 2.4838 8.14126 2.44876L6.55126 0.858756C6.51622 0.824001 6.47466 0.796504 6.42897 0.777842C6.38328 0.75918 6.33436 0.749721 6.28501 0.750006C6.23565 0.749721 6.18673 0.75918 6.14104 0.777842C6.09535 0.796504 6.0538 0.824001 6.01876 0.858756L4.95751 1.92001L0.858756 6.01876C0.824001 6.0538 0.796504 6.09535 0.777842 6.14104C0.75918 6.18673 0.749721 6.23565 0.750006 6.28501V7.87501C0.750006 7.97446 0.789515 8.06985 0.859841 8.14017C0.930167 8.2105 1.02555 8.25001 1.12501 8.25001H2.71501C2.76748 8.25286 2.81997 8.24465 2.86906 8.22592C2.91816 8.20718 2.96277 8.17834 3.00001 8.14126L7.07626 4.04251L8.14126 3.00001C8.17548 2.96366 8.20337 2.92183 8.22376 2.87626C8.22737 2.84637 8.22737 2.81615 8.22376 2.78626C8.22551 2.7688 8.22551 2.75121 8.22376 2.73376L8.25001 2.71501ZM2.56126 7.50001H1.50001V6.43876L5.22376 2.71501L6.28501 3.77626L2.56126 7.50001ZM6.81376 3.24751L5.75251 2.18626L6.28501 1.65751L7.34251 2.71501L6.81376 3.24751Z" fill="white"/>
</svg>
