<svg width="14" height="14" viewBox="0 0 14 14" fill="none" xmlns="http://www.w3.org/2000/svg">
<path d="M9.09735 7.14366C9.75095 6.62944 10.228 5.92428 10.4622 5.12629C10.6963 4.32831 10.676 3.47717 10.4039 2.69131C10.1318 1.90544 9.62152 1.22393 8.94407 0.741568C8.26661 0.25921 7.45566 0 6.62402 0C5.79239 0 4.98143 0.25921 4.30397 0.741568C3.62652 1.22393 3.11625 1.90544 2.84416 2.69131C2.57207 3.47717 2.5517 4.32831 2.78586 5.12629C3.02003 5.92428 3.49709 6.62944 4.15069 7.14366C3.03074 7.59236 2.05355 8.33656 1.32328 9.29694C0.59302 10.2573 0.137063 11.3979 0.00402123 12.597C-0.00560904 12.6845 0.00209892 12.7731 0.0267048 12.8577C0.0513108 12.9423 0.0923328 13.0212 0.147429 13.0899C0.2587 13.2287 0.420544 13.3175 0.597355 13.337C0.774166 13.3564 0.951461 13.3049 1.09024 13.1936C1.22901 13.0823 1.31791 12.9205 1.33735 12.7437C1.48374 11.4405 2.10515 10.2369 3.08283 9.36286C4.06052 8.48885 5.32595 8.00568 6.63735 8.00568C7.94876 8.00568 9.21419 8.48885 10.1919 9.36286C11.1696 10.2369 11.791 11.4405 11.9374 12.7437C11.9555 12.9075 12.0336 13.0588 12.1568 13.1683C12.2799 13.2779 12.4392 13.338 12.604 13.337H12.6774C12.8521 13.3169 13.0118 13.2285 13.1217 13.0912C13.2316 12.9538 13.2828 12.7786 13.264 12.6037C13.1303 11.4011 12.6719 10.2577 11.9379 9.2958C11.2039 8.33394 10.222 7.58998 9.09735 7.14366V7.14366ZM6.62402 6.67033C6.0966 6.67033 5.58103 6.51393 5.1425 6.22092C4.70397 5.9279 4.36218 5.51142 4.16034 5.02415C3.95851 4.53688 3.9057 4.00071 4.00859 3.48342C4.11149 2.96614 4.36546 2.49099 4.7384 2.11805C5.11134 1.74511 5.5865 1.49113 6.10378 1.38824C6.62106 1.28534 7.15724 1.33815 7.64451 1.53999C8.13178 1.74182 8.54826 2.08361 8.84127 2.52214C9.13429 2.96067 9.29069 3.47625 9.29069 4.00366C9.29069 4.71091 9.00974 5.38918 8.50964 5.88928C8.00954 6.38938 7.33127 6.67033 6.62402 6.67033Z" fill="#A78BFA"/>
</svg>
